<?xml version="1.0" standalone="no"?>
<!DOCTYPE svg PUBLIC "-//W3C//DTD SVG 1.1//EN" "http://www.w3.org/Graphics/SVG/1.1/DTD/svg11.dtd" >
<svg xmlns="http://www.w3.org/2000/svg">
<metadata>
This is a custom SVG webfont generated by Font Squirrel.
Copyright   : Copyright c 2007 by George Triantafyllakos All rights reserved
Designer    : George Triantafyllakos
Foundry     : George Triantafyllakos
Foundry URL : httpwwwbackpackergr
</metadata>
<defs>
<font id="webfontb4vSdpSL" horiz-adv-x="1228" >
<font-face units-per-em="2048" ascent="1638" descent="-410" />
<missing-glyph horiz-adv-x="500" />
<glyph unicode=" " />
<glyph unicode="!" d="M422 0v393h102v-393h-102zM422 580v780h102v-780h-102z" />
<glyph unicode="&#x22;" d="M381 774v199h102v-199h-102zM573 967v393h103v-393h-103zM768 774v199h102v-199h-102zM961 967v393h102v-393h-102z" />
<glyph unicode="#" d="M35 387v199h102v-199h-102zM35 774v199h102v-199h-102zM227 0v1360h103v-1360h-103zM422 387v199h102v-199h-102zM422 774v199h102v-199h-102zM614 0v1360h103v-1360h-103zM809 387v199h102v-199h-102zM809 774v199h102v-199h-102z" />
<glyph unicode="$" d="M35 0v199h102v-199h-102zM35 580v200h102v-200h-102zM227 0v199h103v-199h-103zM227 387v199h103v-199h-103zM227 774v199h103v-199h-103zM422 -193v1358h102v-1358h-102zM614 0v199h103v-199h-103zM614 387v199h103v-199h-103zM614 774v199h103v-199h-103zM809 193v200 h102v-200h-102zM809 774v199h102v-199h-102z" />
<glyph unicode="%" d="M33 0v393h102v-393h-102zM33 967v393h102v-393h-102zM225 387v393h103v-393h-103zM225 967v393h103v-393h-103zM418 0v393h104v-393h-104zM418 774v199h104v-199h-104zM612 0v393h103v-393h-103zM612 967v393h103v-393h-103z" />
<glyph unicode="&#x26;" d="M35 193v393h102v-393h-102zM35 774v391h102v-391h-102zM227 0v199h103v-199h-103zM227 580v200h103v-200h-103zM227 1161v199h103v-199h-103zM422 0v199h102v-199h-102zM422 580v200h102v-200h-102zM422 1161v199h102v-199h-102zM614 193v587h103v-587h-103zM809 580v200 h102v-200h-102z" />
<glyph unicode="'" d="M573 774v199h103v-199h-103zM768 967v393h102v-393h-102z" />
<glyph unicode="(" d="M424 193v972h102v-972h-102zM618 0v199h103v-199h-103zM618 1161v199h103v-199h-103z" />
<glyph unicode=")" d="M424 0v199h102v-199h-102zM424 1161v199h102v-199h-102zM618 193v972h103v-972h-103z" />
<glyph unicode="*" d="M29 774v199h102v-199h-102zM29 1161v199h102v-199h-102zM223 967v198h103v-198h-103zM416 774v199h102v-199h-102zM416 1161v199h102v-199h-102z" />
<glyph unicode="+" d="M35 387v199h102v-199h-102zM227 387v199h103v-199h-103zM422 0v973h102v-973h-102zM614 387v199h103v-199h-103zM809 387v199h102v-199h-102z" />
<glyph unicode="," d="M225 6h103v-199h-103v199zM418 0v393h104v-393h-104z" />
<glyph unicode="-" d="M227 387v199h103v-199h-103zM422 387v199h102v-199h-102zM614 387v199h103v-199h-103z" />
<glyph unicode="." d="M422 0v393h102v-393h-102z" />
<glyph unicode="/" d="M231 0v393h103v-393h-103zM424 387v393h102v-393h-102zM618 774v199h103v-199h-103zM811 967v393h102v-393h-102z" />
<glyph unicode="0" d="M35 193v587h102v-587h-102zM227 0v393h103v-393h-103zM227 774v199h103v-199h-103zM422 0v199h102v-199h-102zM422 387v199h102v-199h-102zM422 774v199h102v-199h-102zM614 0v199h103v-199h-103zM614 580v393h103v-393h-103zM809 193v587h102v-587h-102z" />
<glyph unicode="1" d="M35 0v199h102v-199h-102zM35 774v199h102v-199h-102zM227 0v199h103v-199h-103zM227 774v199h103v-199h-103zM422 0v973h102v-973h-102zM614 0v199h103v-199h-103zM809 0v199h102v-199h-102z" />
<glyph unicode="2" d="M35 0v199h102v-199h-102zM35 580v200h102v-200h-102zM227 0v393h103v-393h-103zM227 774v199h103v-199h-103zM422 0v199h102v-199h-102zM422 387v199h102v-199h-102zM422 774v199h102v-199h-102zM614 0v199h103v-199h-103zM614 387v199h103v-199h-103zM614 774v199h103 v-199h-103zM809 0v199h102v-199h-102zM809 580v200h102v-200h-102z" />
<glyph unicode="3" d="M35 6h102v-199h-102v199zM35 580v200h102v-200h-102zM227 -188h103v-199h-103v199zM227 193v200h103v-200h-103zM227 774v199h103v-199h-103zM422 -188h102v-199h-102v199zM422 193v200h102v-200h-102zM422 774v199h102v-199h-102zM614 -188h103v-199h-103v199zM614 193 v200h103v-200h-103zM614 774v199h103v-199h-103zM809 -193v392h102v-392h-102zM809 387v393h102v-393h-102z" />
<glyph unicode="4" d="M35 0v393h102v-393h-102zM227 0v199h103v-199h-103zM227 387v199h103v-199h-103zM422 0v199h102v-199h-102zM422 580v200h102v-200h-102zM614 -387v1360h103v-1360h-103zM809 0v199h102v-199h-102z" />
<glyph unicode="5" d="M35 -188h102v-199h-102v199zM35 193v780h102v-780h-102zM227 -188h103v-199h-103v199zM227 193v200h103v-200h-103zM227 774v199h103v-199h-103zM422 -188h102v-199h-102v199zM422 193v200h102v-200h-102zM422 774v199h102v-199h-102zM614 -188h103v-199h-103v199z M614 193v200h103v-200h-103zM614 774v199h103v-199h-103zM809 -193v392h102v-392h-102zM809 774v199h102v-199h-102z" />
<glyph unicode="6" d="M35 193v780h102v-780h-102zM227 0v199h103v-199h-103zM227 580v200h103v-200h-103zM227 967v198h103v-198h-103zM422 0v199h102v-199h-102zM422 580v200h102v-200h-102zM422 1161v199h102v-199h-102zM614 0v199h103v-199h-103zM614 580v200h103v-200h-103zM614 1161v199 h103v-199h-103zM809 193v393h102v-393h-102z" />
<glyph unicode="7" d="M35 774v199h102v-199h-102zM227 199h103v-586h-103v586zM227 774v199h103v-199h-103zM422 193v200h102v-200h-102zM422 774v199h102v-199h-102zM614 387v199h103v-199h-103zM614 774v199h103v-199h-103zM809 580v393h102v-393h-102z" />
<glyph unicode="8" d="M35 193v393h102v-393h-102zM35 774v391h102v-391h-102zM227 0v199h103v-199h-103zM227 580v200h103v-200h-103zM227 1161v199h103v-199h-103zM422 0v199h102v-199h-102zM422 580v200h102v-200h-102zM422 1161v199h102v-199h-102zM614 0v199h103v-199h-103zM614 580v200 h103v-200h-103zM614 1161v199h103v-199h-103zM809 193v393h102v-393h-102zM809 774v391h102v-391h-102z" />
<glyph unicode="9" d="M35 387v393h102v-393h-102zM227 -188h103v-199h-103v199zM227 193v200h103v-200h-103zM227 774v199h103v-199h-103zM422 -188h102v-199h-102v199zM422 193v200h102v-200h-102zM422 774v199h102v-199h-102zM614 6h103v-199h-103v199zM614 193v200h103v-200h-103zM614 774 v199h103v-199h-103zM809 0v780h102v-780h-102z" />
<glyph unicode=":" d="M422 0v393h102v-393h-102zM422 580v393h102v-393h-102z" />
<glyph unicode=";" d="M225 6h103v-199h-103v199zM418 0v393h104v-393h-104zM418 580v393h104v-393h-104z" />
<glyph unicode="&#x3c;" d="M227 387v199h103v-199h-103zM422 193v200h102v-200h-102zM422 580v200h102v-200h-102zM614 0v199h103v-199h-103zM614 774v199h103v-199h-103z" />
<glyph unicode="=" d="M35 193v200h102v-200h-102zM35 580v200h102v-200h-102zM227 193v200h103v-200h-103zM227 580v200h103v-200h-103zM422 193v200h102v-200h-102zM422 580v200h102v-200h-102zM614 193v200h103v-200h-103zM614 580v200h103v-200h-103zM809 193v200h102v-200h-102zM809 580 v200h102v-200h-102z" />
<glyph unicode="&#x3e;" d="M428 0v199h102v-199h-102zM428 774v199h102v-199h-102zM621 193v200h102v-200h-102zM621 580v200h102v-200h-102zM815 387v199h103v-199h-103z" />
<glyph unicode="?" d="M35 967v198h102v-198h-102zM227 1161v199h103v-199h-103zM422 0v393h102v-393h-102zM422 580v200h102v-200h-102zM422 1161v199h102v-199h-102zM614 580v200h103v-200h-103zM614 1161v199h103v-199h-103zM809 774v391h102v-391h-102z" />
<glyph unicode="@" d="M35 193v972h102v-972h-102zM227 0v199h103v-199h-103zM227 387v393h103v-393h-103zM227 1161v199h103v-199h-103zM422 0v199h102v-199h-102zM422 387v199h102v-199h-102zM422 774v199h102v-199h-102zM422 1161v199h102v-199h-102zM614 0v199h103v-199h-103zM614 387v586 h103v-586h-103zM614 1161v199h103v-199h-103zM809 0v199h102v-199h-102zM809 387v778h102v-778h-102z" />
<glyph unicode="A" d="M31 0v1186h104v-1186h-104zM227 393v203h105v-203h-105zM227 1180v202h105v-202h-105zM424 393v203h104v-203h-104zM424 1180v202h104v-202h-104zM621 393v203h104v-203h-104zM621 1180v202h104v-202h-104zM817 0v1186h105v-1186h-105z" />
<glyph unicode="B" d="M31 0v1382h104v-1382h-104zM227 0v203h105v-203h-105zM227 590v203h105v-203h-105zM227 1180v202h105v-202h-105zM424 0v203h104v-203h-104zM424 590v203h104v-203h-104zM424 1180v202h104v-202h-104zM621 0v203h104v-203h-104zM621 590v203h104v-203h-104zM621 1180v202 h104v-202h-104zM817 197v399h105v-399h-105zM817 786v400h105v-400h-105z" />
<glyph unicode="C" d="M31 197v989h104v-989h-104zM227 0v203h105v-203h-105zM227 1180v202h105v-202h-105zM424 0v203h104v-203h-104zM424 1180v202h104v-202h-104zM621 0v203h104v-203h-104zM621 1180v202h104v-202h-104zM817 197v202h105v-202h-105zM817 983v203h105v-203h-105z" />
<glyph unicode="D" d="M31 0v1382h104v-1382h-104zM227 0v203h105v-203h-105zM227 1180v202h105v-202h-105zM424 0v203h104v-203h-104zM424 1180v202h104v-202h-104zM621 0v203h104v-203h-104zM621 1180v202h104v-202h-104zM817 197v989h105v-989h-105z" />
<glyph unicode="E" d="M31 0v1382h104v-1382h-104zM227 0v203h105v-203h-105zM227 590v203h105v-203h-105zM227 1180v202h105v-202h-105zM424 0v203h104v-203h-104zM424 590v203h104v-203h-104zM424 1180v202h104v-202h-104zM621 0v203h104v-203h-104zM621 590v203h104v-203h-104zM621 1180v202 h104v-202h-104zM817 0v203h105v-203h-105zM817 1180v202h105v-202h-105z" />
<glyph unicode="F" d="M31 0v1382h104v-1382h-104zM227 590v203h105v-203h-105zM227 1180v202h105v-202h-105zM424 590v203h104v-203h-104zM424 1180v202h104v-202h-104zM621 590v203h104v-203h-104zM621 1180v202h104v-202h-104zM817 1180v202h105v-202h-105z" />
<glyph unicode="G" d="M31 197v989h104v-989h-104zM227 0v203h105v-203h-105zM227 1180v202h105v-202h-105zM424 0v203h104v-203h-104zM424 1180v202h104v-202h-104zM621 0v203h104v-203h-104zM621 393v203h104v-203h-104zM621 1180v202h104v-202h-104zM817 0v596h105v-596h-105zM817 983v203 h105v-203h-105z" />
<glyph unicode="H" d="M31 0v1382h104v-1382h-104zM227 590v203h105v-203h-105zM424 590v203h104v-203h-104zM621 590v203h104v-203h-104zM817 0v1382h105v-1382h-105z" />
<glyph unicode="I" d="M31 0v203h104v-203h-104zM31 1180v202h104v-202h-104zM227 0v203h105v-203h-105zM227 1180v202h105v-202h-105zM424 0v1382h104v-1382h-104zM621 0v203h104v-203h-104zM621 1180v202h104v-202h-104zM817 0v203h105v-203h-105zM817 1180v202h105v-202h-105z" />
<glyph unicode="J" d="M29 197v202h104v-202h-104zM29 1180v202h104v-202h-104zM225 0v203h105v-203h-105zM225 1180v202h105v-202h-105zM422 0v203h104v-203h-104zM422 1180v202h104v-202h-104zM618 197v1185h105v-1185h-105z" />
<glyph unicode="K" d="M31 0v1382h104v-1382h-104zM227 590v203h105v-203h-105zM424 590v203h104v-203h-104zM621 393v203h104v-203h-104zM621 786v203h104v-203h-104zM817 0v399h105v-399h-105zM817 983v399h105v-399h-105z" />
<glyph unicode="L" d="M31 0v1382h104v-1382h-104zM227 0v203h105v-203h-105zM424 0v203h104v-203h-104zM621 0v203h104v-203h-104zM817 0v203h105v-203h-105z" />
<glyph unicode="M" d="M31 0v1382h104v-1382h-104zM227 786v400h105v-400h-105zM424 393v400h104v-400h-104zM621 786v400h104v-400h-104zM817 0v1382h105v-1382h-105z" />
<glyph unicode="N" d="M31 0v1382h104v-1382h-104zM227 983v203h105v-203h-105zM424 590v399h104v-399h-104zM621 393v203h104v-203h-104zM817 0v1382h105v-1382h-105z" />
<glyph unicode="O" d="M31 197v989h104v-989h-104zM227 0v203h105v-203h-105zM227 1180v202h105v-202h-105zM424 0v203h104v-203h-104zM424 1180v202h104v-202h-104zM621 0v203h104v-203h-104zM621 1180v202h104v-202h-104zM817 197v989h105v-989h-105z" />
<glyph unicode="P" d="M31 0v1382h104v-1382h-104zM227 393v203h105v-203h-105zM227 1180v202h105v-202h-105zM424 393v203h104v-203h-104zM424 1180v202h104v-202h-104zM621 393v203h104v-203h-104zM621 1180v202h104v-202h-104zM817 590v596h105v-596h-105z" />
<glyph unicode="Q" d="M31 197v989h104v-989h-104zM227 0v203h105v-203h-105zM227 1180v202h105v-202h-105zM424 -197v596h104v-596h-104zM424 1180v202h104v-202h-104zM621 0v203h104v-203h-104zM621 -190h104v-203h-104v203zM621 1180v202h104v-202h-104zM817 197v989h105v-989h-105z" />
<glyph unicode="R" d="M31 0v1382h104v-1382h-104zM227 590v203h105v-203h-105zM227 1180v202h105v-202h-105zM424 590v203h104v-203h-104zM424 1180v202h104v-202h-104zM621 393v400h104v-400h-104zM621 1180v202h104v-202h-104zM817 0v399h105v-399h-105zM817 786v400h105v-400h-105z" />
<glyph unicode="S" d="M31 0v203h104v-203h-104zM31 786v400h104v-400h-104zM227 0v203h105v-203h-105zM227 590v203h105v-203h-105zM227 1180v202h105v-202h-105zM424 0v203h104v-203h-104zM424 590v203h104v-203h-104zM424 1180v202h104v-202h-104zM621 0v203h104v-203h-104zM621 590v203h104 v-203h-104zM621 1180v202h104v-202h-104zM817 197v399h105v-399h-105zM817 1180v202h105v-202h-105z" />
<glyph unicode="T" d="M31 1180v202h104v-202h-104zM227 1180v202h105v-202h-105zM424 0v1382h104v-1382h-104zM621 1180v202h104v-202h-104zM817 1180v202h105v-202h-105z" />
<glyph unicode="U" d="M31 197v1185h104v-1185h-104zM227 0v203h105v-203h-105zM424 0v203h104v-203h-104zM621 0v203h104v-203h-104zM817 197v1185h105v-1185h-105z" />
<glyph unicode="V" d="M31 590v792h104v-792h-104zM227 197v399h105v-399h-105zM424 0v203h104v-203h-104zM621 197v399h104v-399h-104zM817 590v792h105v-792h-105z" />
<glyph unicode="W" d="M31 393v989h104v-989h-104zM227 0v399h105v-399h-105zM424 393v793h104v-793h-104zM621 0v399h104v-399h-104zM817 393v989h105v-989h-105z" />
<glyph unicode="X" d="M31 0v399h104v-399h-104zM31 983v399h104v-399h-104zM227 393v203h105v-203h-105zM227 786v203h105v-203h-105zM424 590v203h104v-203h-104zM621 393v203h104v-203h-104zM621 786v203h104v-203h-104zM817 0v399h105v-399h-105zM817 983v399h105v-399h-105z" />
<glyph unicode="Y" d="M31 786v596h104v-596h-104zM227 590v203h105v-203h-105zM424 0v596h104v-596h-104zM621 590v203h104v-203h-104zM817 786v596h105v-596h-105z" />
<glyph unicode="Z" d="M31 0v399h104v-399h-104zM31 1180v202h104v-202h-104zM227 0v203h105v-203h-105zM227 393v203h105v-203h-105zM227 1180v202h105v-202h-105zM424 0v203h104v-203h-104zM424 590v203h104v-203h-104zM424 1180v202h104v-202h-104zM621 0v203h104v-203h-104zM621 786v203 h104v-203h-104zM621 1180v202h104v-202h-104zM817 0v203h105v-203h-105zM817 983v399h105v-399h-105z" />
<glyph unicode="[" d="M424 0v1360h102v-1360h-102zM618 0v199h103v-199h-103zM618 1161v199h103v-199h-103z" />
<glyph unicode="\" d="M231 967v393h103v-393h-103zM424 774v199h102v-199h-102zM618 387v393h103v-393h-103zM811 0v393h102v-393h-102z" />
<glyph unicode="]" d="M424 0v199h102v-199h-102zM424 1161v199h102v-199h-102zM618 0v1360h103v-1360h-103z" />
<glyph unicode="^" d="M227 1161v199h103v-199h-103zM422 1354v198h102v-198h-102zM614 1161v199h103v-199h-103z" />
<glyph unicode="_" d="M35 0v199h102v-199h-102zM227 0v199h103v-199h-103zM422 0v199h102v-199h-102zM614 0v199h103v-199h-103zM809 0v199h102v-199h-102z" />
<glyph unicode="`" d="M29 1354v198h102v-198h-102zM223 1161v199h103v-199h-103zM416 1161v199h102v-199h-102z" />
<glyph unicode="a" d="M35 193v200h102v-200h-102zM227 0v199h103v-199h-103zM227 387v199h103v-199h-103zM227 774v199h103v-199h-103zM422 0v199h102v-199h-102zM422 387v199h102v-199h-102zM422 774v199h102v-199h-102zM614 0v199h103v-199h-103zM614 387v199h103v-199h-103zM614 774v199 h103v-199h-103zM809 0v780h102v-780h-102z" />
<glyph unicode="b" d="M35 0v1360h102v-1360h-102zM227 0v199h103v-199h-103zM227 582v198h103v-198h-103zM422 0v199h102v-199h-102zM422 774v199h102v-199h-102zM614 0v199h103v-199h-103zM614 774v199h103v-199h-103zM809 193v587h102v-587h-102z" />
<glyph unicode="c" d="M35 193v587h102v-587h-102zM227 0v199h103v-199h-103zM227 774v199h103v-199h-103zM422 0v199h102v-199h-102zM422 774v199h102v-199h-102zM614 0v199h103v-199h-103zM614 774v199h103v-199h-103zM809 193v200h102v-200h-102zM809 580v200h102v-200h-102z" />
<glyph unicode="d" d="M35 193v587h102v-587h-102zM227 0v199h103v-199h-103zM227 774v199h103v-199h-103zM422 0v199h102v-199h-102zM422 774v199h102v-199h-102zM614 193v200h103v-200h-103zM614 774v199h103v-199h-103zM809 0v1360h102v-1360h-102z" />
<glyph unicode="e" d="M35 193v587h102v-587h-102zM227 0v199h103v-199h-103zM227 387v199h103v-199h-103zM227 774v199h103v-199h-103zM422 0v199h102v-199h-102zM422 387v199h102v-199h-102zM422 774v199h102v-199h-102zM614 0v199h103v-199h-103zM614 387v199h103v-199h-103zM614 774v199 h103v-199h-103zM809 0v199h102v-199h-102zM809 387v393h102v-393h-102z" />
<glyph unicode="f" d="M35 0v199h102v-199h-102zM227 0v199h103v-199h-103zM227 774v199h103v-199h-103zM422 0v1165h102v-1165h-102zM614 0v199h103v-199h-103zM614 774v199h103v-199h-103zM614 1161v199h103v-199h-103zM809 0v199h102v-199h-102zM809 774v199h102v-199h-102zM809 1161v199 h102v-199h-102z" />
<glyph unicode="g" d="M35 193v587h102v-587h-102zM227 0v199h103v-199h-103zM227 -188h103v-199h-103v199zM227 774v199h103v-199h-103zM422 0v199h102v-199h-102zM422 -188h102v-199h-102v199zM422 774v199h102v-199h-102zM614 -188h103v-199h-103v199zM614 193v200h103v-200h-103zM614 774 v199h103v-199h-103zM809 -193v1166h102v-1166h-102z" />
<glyph unicode="h" d="M35 0v1360h102v-1360h-102zM227 774v199h103v-199h-103zM422 774v199h102v-199h-102zM614 774v199h103v-199h-103zM809 0v780h102v-780h-102z" />
<glyph unicode="i" d="M35 0v199h102v-199h-102zM35 774v199h102v-199h-102zM227 0v199h103v-199h-103zM227 774v199h103v-199h-103zM422 0v973h102v-973h-102zM422 1161v199h102v-199h-102zM614 0v199h103v-199h-103zM809 0v199h102v-199h-102z" />
<glyph unicode="j" d="M35 6h102v-199h-102v199zM227 -188h103v-199h-103v199zM227 774v199h103v-199h-103zM422 -188h102v-199h-102v199zM422 774v199h102v-199h-102zM614 -188h103v-199h-103v199zM614 774v199h103v-199h-103zM809 -193v1166h102v-1166h-102zM809 1161v199h102v-199h-102z" />
<glyph unicode="k" d="M35 0v1360h102v-1360h-102zM227 387v199h103v-199h-103zM422 387v199h102v-199h-102zM614 193v200h103v-200h-103zM614 580v393h103v-393h-103zM809 0v199h102v-199h-102z" />
<glyph unicode="l" d="M35 0v199h102v-199h-102zM35 1161v199h102v-199h-102zM227 0v199h103v-199h-103zM227 1161v199h103v-199h-103zM422 0v1360h102v-1360h-102zM614 0v199h103v-199h-103zM809 0v199h102v-199h-102z" />
<glyph unicode="m" d="M35 0v973h102v-973h-102zM227 580v200h103v-200h-103zM422 0v973h102v-973h-102zM614 580v200h103v-200h-103zM809 0v973h102v-973h-102z" />
<glyph unicode="n" d="M35 0v973h102v-973h-102zM227 580v200h103v-200h-103zM422 774v199h102v-199h-102zM614 774v199h103v-199h-103zM809 0v780h102v-780h-102z" />
<glyph unicode="o" d="M35 193v587h102v-587h-102zM227 0v199h103v-199h-103zM227 774v199h103v-199h-103zM422 0v199h102v-199h-102zM422 774v199h102v-199h-102zM614 0v199h103v-199h-103zM614 774v199h103v-199h-103zM809 193v587h102v-587h-102z" />
<glyph unicode="p" d="M35 -387v1360h102v-1360h-102zM227 0v199h103v-199h-103zM227 580v200h103v-200h-103zM422 0v199h102v-199h-102zM422 774v199h102v-199h-102zM614 0v199h103v-199h-103zM614 774v199h103v-199h-103zM809 193v587h102v-587h-102z" />
<glyph unicode="q" d="M35 193v587h102v-587h-102zM227 0v199h103v-199h-103zM227 774v199h103v-199h-103zM422 0v199h102v-199h-102zM422 774v199h102v-199h-102zM614 193v200h103v-200h-103zM614 774v199h103v-199h-103zM809 -387v1360h102v-1360h-102z" />
<glyph unicode="r" d="M35 0v199h102v-199h-102zM35 774v199h102v-199h-102zM227 0v973h103v-973h-103zM422 0v199h102v-199h-102zM422 580v200h102v-200h-102zM614 0v199h103v-199h-103zM614 774v199h103v-199h-103zM809 774v199h102v-199h-102z" />
<glyph unicode="s" d="M35 0v199h102v-199h-102zM35 580v200h102v-200h-102zM227 0v199h103v-199h-103zM227 387v199h103v-199h-103zM227 774v199h103v-199h-103zM422 0v199h102v-199h-102zM422 387v199h102v-199h-102zM422 774v199h102v-199h-102zM614 0v199h103v-199h-103zM614 387v199h103 v-199h-103zM614 774v199h103v-199h-103zM809 193v200h102v-200h-102zM809 774v199h102v-199h-102z" />
<glyph unicode="t" d="M35 774v199h102v-199h-102zM227 774v199h103v-199h-103zM422 193v972h102v-972h-102zM614 0v199h103v-199h-103zM614 774v199h103v-199h-103zM809 0v199h102v-199h-102zM809 774v199h102v-199h-102z" />
<glyph unicode="u" d="M35 193v780h102v-780h-102zM227 0v199h103v-199h-103zM422 0v199h102v-199h-102zM614 193v200h103v-200h-103zM809 0v973h102v-973h-102z" />
<glyph unicode="v" d="M35 580v393h102v-393h-102zM227 193v393h103v-393h-103zM422 0v199h102v-199h-102zM614 193v393h103v-393h-103zM809 580v393h102v-393h-102z" />
<glyph unicode="w" d="M35 387v586h102v-586h-102zM227 0v393h103v-393h-103zM422 387v393h102v-393h-102zM614 0v393h103v-393h-103zM809 387v586h102v-586h-102z" />
<glyph unicode="x" d="M35 0v393h102v-393h-102zM35 580v393h102v-393h-102zM227 387v199h103v-199h-103zM422 387v199h102v-199h-102zM614 387v199h103v-199h-103zM809 0v393h102v-393h-102zM809 580v393h102v-393h-102z" />
<glyph unicode="y" d="M35 -188h102v-199h-102v199zM35 580v393h102v-393h-102zM227 -188h103v-199h-103v199zM227 193v393h103v-393h-103zM422 -193v392h102v-392h-102zM614 193v393h103v-393h-103zM809 580v393h102v-393h-102z" />
<glyph unicode="z" d="M35 0v199h102v-199h-102zM35 774v199h102v-199h-102zM227 0v393h103v-393h-103zM227 774v199h103v-199h-103zM422 0v199h102v-199h-102zM422 387v199h102v-199h-102zM422 774v199h102v-199h-102zM614 0v199h103v-199h-103zM614 580v393h103v-393h-103zM809 0v199h102 v-199h-102zM809 774v199h102v-199h-102z" />
<glyph unicode="{" d="M227 580v200h103v-200h-103zM422 193v393h102v-393h-102zM422 774v391h102v-391h-102zM614 0v199h103v-199h-103zM614 1161v199h103v-199h-103z" />
<glyph unicode="|" d="M422 0v1360h102v-1360h-102z" />
<glyph unicode="}" d="M428 0v199h102v-199h-102zM428 1161v199h102v-199h-102zM621 193v393h102v-393h-102zM621 774v391h102v-391h-102zM815 580v200h103v-200h-103z" />
<glyph unicode="~" d="M35 580v200h102v-200h-102zM227 774v199h103v-199h-103zM422 580v200h102v-200h-102zM614 387v199h103v-199h-103zM809 580v200h102v-200h-102z" />
<glyph unicode="&#xa0;" />
<glyph unicode="&#xa1;" d="M324 145v103h49v90h-49v102h49v92h-49v103h49v90h-49v102h49v50h102v-50h47v-102h-47v-90h47v-103h-47v-92h47v-102h-47v-90h47v-103h-47v-49h-102v49h-49zM324 1112v102h49v91h-49v102h49v49h102v-49h47v-102h-47v-91h47v-102h-47v-49h-102v49h-49z" />
<glyph unicode="&#xa2;" d="M35 193v587h102v-587h-102zM227 0v199h103v-199h-103zM227 774v199h103v-199h-103zM422 -193v1358h102v-1358h-102zM614 0v199h103v-199h-103zM614 774v199h103v-199h-103zM809 193v200h102v-200h-102zM809 580v200h102v-200h-102z" />
<glyph unicode="&#xa3;" d="M35 0v199h102v-199h-102zM35 580v200h102v-200h-102zM227 0v1165h103v-1165h-103zM422 0v199h102v-199h-102zM422 580v200h102v-200h-102zM422 1161v199h102v-199h-102zM614 0v199h103v-199h-103zM614 580v200h103v-200h-103zM614 1161v199h103v-199h-103zM809 0v199h102 v-199h-102zM809 967v198h102v-198h-102z" />
<glyph unicode="&#xa4;" d="M35 0v199h102v-199h-102zM35 774v199h102v-199h-102zM227 193v587h103v-587h-103zM422 193v200h102v-200h-102zM422 580v200h102v-200h-102zM614 193v587h103v-587h-103zM809 0v199h102v-199h-102zM809 774v199h102v-199h-102z" />
<glyph unicode="&#xa5;" d="M35 387v199h102v-199h-102zM35 967v393h102v-393h-102zM227 387v199h103v-199h-103zM227 774v199h103v-199h-103zM422 0v780h102v-780h-102zM614 387v199h103v-199h-103zM614 774v199h103v-199h-103zM809 387v199h102v-199h-102zM809 967v393h102v-393h-102z" />
<glyph unicode="&#xa6;" d="M422 0v586h102v-586h-102zM422 774v586h102v-586h-102z" />
<glyph unicode="&#xa7;" d="M231 0v199h103v-199h-103zM231 580v200h103v-200h-103zM231 967v198h103v-198h-103zM424 0v199h102v-199h-102zM424 387v199h102v-199h-102zM424 774v199h102v-199h-102zM424 1161v199h102v-199h-102zM618 0v199h103v-199h-103zM618 387v199h103v-199h-103zM618 774v199 h103v-199h-103zM618 1161v199h103v-199h-103zM811 193v200h102v-200h-102zM811 580v200h102v-200h-102zM811 1161v199h102v-199h-102z" />
<glyph unicode="&#xa8;" d="M35 1161v391h102v-391h-102zM809 1161v391h102v-391h-102z" />
<glyph unicode="&#xa9;" d="M35 193v587h102v-587h-102zM227 0v199h103v-199h-103zM227 387v199h103v-199h-103zM227 774v199h103v-199h-103zM422 0v393h102v-393h-102zM422 580v393h102v-393h-102zM614 0v199h103v-199h-103zM614 774v199h103v-199h-103zM809 193v587h102v-587h-102z" />
<glyph unicode="&#xaa;" d="M29 774v199h102v-199h-102zM223 580v393h103v-393h-103zM223 1161v199h103v-199h-103zM416 580v585h102v-585h-102z" />
<glyph unicode="&#xab;" d="M35 387v199h102v-199h-102zM227 193v200h103v-200h-103zM227 580v200h103v-200h-103zM422 0v199h102v-199h-102zM422 387v199h102v-199h-102zM422 774v199h102v-199h-102zM614 193v200h103v-200h-103zM614 580v200h103v-200h-103zM809 0v199h102v-199h-102zM809 774v199 h102v-199h-102z" />
<glyph unicode="&#xac;" d="M35 387v199h102v-199h-102zM227 387v199h103v-199h-103zM422 387v199h102v-199h-102zM614 387v199h103v-199h-103zM809 0v586h102v-586h-102z" />
<glyph unicode="&#xad;" d="M227 387v199h103v-199h-103zM422 387v199h102v-199h-102zM614 387v199h103v-199h-103z" />
<glyph unicode="&#xae;" d="M35 580v585h102v-585h-102zM227 387v199h103v-199h-103zM227 1161v199h103v-199h-103zM422 387v199h102v-199h-102zM422 774v586h102v-586h-102zM614 387v393h103v-393h-103zM614 967v393h103v-393h-103zM809 580v585h102v-585h-102z" />
<glyph unicode="&#xaf;" d="M227 1161v199h103v-199h-103zM422 1161v199h102v-199h-102zM614 1161v199h103v-199h-103z" />
<glyph unicode="&#xb0;" d="M29 967v198h102v-198h-102zM223 774v199h103v-199h-103zM223 1161v199h103v-199h-103zM416 967v198h102v-198h-102z" />
<glyph unicode="&#xb1;" d="M35 0v199h102v-199h-102zM35 580v200h102v-200h-102zM227 0v199h103v-199h-103zM227 580v200h103v-200h-103zM422 0v199h102v-199h-102zM422 387v586h102v-586h-102zM614 0v199h103v-199h-103zM614 580v200h103v-200h-103zM809 0v199h102v-199h-102zM809 580v200h102 v-200h-102z" />
<glyph unicode="&#xb2;" d="M27 580v393h102v-393h-102zM27 1161v199h102v-199h-102zM219 580v200h103v-200h-103zM219 967v198h103v-198h-103z" />
<glyph unicode="&#xb3;" d="M27 580v200h102v-200h-102zM27 1161v199h102v-199h-102zM219 580v585h103v-585h-103z" />
<glyph unicode="&#xb4;" d="M227 1161v199h103v-199h-103zM422 1161v199h102v-199h-102zM614 1354v198h103v-198h-103z" />
<glyph unicode="&#xb5;" d="M35 -387v1360h102v-1360h-102zM227 0v199h103v-199h-103zM422 0v199h102v-199h-102zM614 193v200h103v-200h-103zM809 0v973h102v-973h-102z" />
<glyph unicode="&#xb6;" d="M35 774v391h102v-391h-102zM227 580v780h103v-780h-103zM422 0v1360h102v-1360h-102zM809 0v1360h102v-1360h-102z" />
<glyph unicode="&#xb7;" d="M223 387v393h103v-393h-103z" />
<glyph unicode="&#xb8;" d="M225 -188h103v-199h-103v199zM418 6h104v-199h-104v199z" />
<glyph unicode="&#xb9;" d="M29 580v200h102v-200h-102zM29 1161v199h102v-199h-102zM223 580v780h103v-780h-103zM416 580v200h102v-200h-102z" />
<glyph unicode="&#xba;" d="M29 967v198h102v-198h-102zM223 774v199h103v-199h-103zM223 1161v199h103v-199h-103zM416 967v198h102v-198h-102z" />
<glyph unicode="&#xbb;" d="M35 0v199h102v-199h-102zM35 774v199h102v-199h-102zM227 193v200h103v-200h-103zM227 580v200h103v-200h-103zM422 0v199h102v-199h-102zM422 387v199h102v-199h-102zM422 774v199h102v-199h-102zM614 193v200h103v-200h-103zM614 580v200h103v-200h-103zM809 387v199 h102v-199h-102z" />
<glyph unicode="&#xbc;" d="M37 1161v199h102v-199h-102zM231 0v393h103v-393h-103zM231 774v586h103v-586h-103zM424 387v393h102v-393h-102zM618 774v199h103v-199h-103zM811 387v199h102v-199h-102zM811 967v393h102v-393h-102zM1006 0v780h102v-780h-102z" />
<glyph unicode="&#xbd;" d="M37 1161v199h102v-199h-102zM231 0v393h103v-393h-103zM231 774v586h103v-586h-103zM424 387v393h102v-393h-102zM618 774v199h103v-199h-103zM811 0v393h102v-393h-102zM811 580v200h102v-200h-102zM811 967v393h102v-393h-102zM1006 0v199h102v-199h-102zM1006 387v199 h102v-199h-102z" />
<glyph unicode="&#xbe;" d="M37 580v200h102v-200h-102zM37 1161v199h102v-199h-102zM231 0v393h103v-393h-103zM231 580v585h103v-585h-103zM424 387v393h102v-393h-102zM618 774v199h103v-199h-103zM811 387v199h102v-199h-102zM811 967v393h102v-393h-102zM1006 0v780h102v-780h-102z" />
<glyph unicode="&#xbf;" d="M-63 338v102h49v92h-49v103h49v47h102v-47h47v-103h-47v-92h47v-102h-47v-47h-102v47h-49zM131 145v103h47v47h103v-47h92v47h102v-47h90v47h103v-47h49v-103h-49v-49h-103v49h-90v-49h-102v49h-92v-49h-103v49h-47zM131 725v102h47v50h103v-50h92v50h102v-50h47v-102 h-47v-47h-102v47h-92v-47h-103v47h-47zM324 1112v102h49v91h-49v102h49v49h102v-49h47v-102h-47v-91h47v-102h-47v-49h-102v49h-49zM711 338v102h47v49h102v-49h49v-102h-49v-47h-102v47h-47z" />
<glyph unicode="&#xc0;" d="M31 0v1186h104v-1186h-104zM227 393v203h105v-203h-105zM227 1180v202h105v-202h-105zM227 1819v202h105v-202h-105zM424 393v203h104v-203h-104zM424 1180v202h104v-202h-104zM424 1622v203h104v-203h-104zM621 393v203h104v-203h-104zM621 1180v202h104v-202h-104z M621 1622v203h104v-203h-104zM817 0v1186h105v-1186h-105z" />
<glyph unicode="&#xc1;" d="M31 0v1186h104v-1186h-104zM227 393v203h105v-203h-105zM227 1180v202h105v-202h-105zM227 1622v203h105v-203h-105zM424 393v203h104v-203h-104zM424 1180v202h104v-202h-104zM424 1622v203h104v-203h-104zM621 393v203h104v-203h-104zM621 1180v202h104v-202h-104z M621 1819v202h104v-202h-104zM817 0v1186h105v-1186h-105z" />
<glyph unicode="&#xc2;" d="M31 0v1186h104v-1186h-104zM227 393v203h105v-203h-105zM227 1180v202h105v-202h-105zM227 1622v203h105v-203h-105zM424 393v203h104v-203h-104zM424 1180v202h104v-202h-104zM424 1819v202h104v-202h-104zM621 393v203h104v-203h-104zM621 1180v202h104v-202h-104z M621 1622v203h104v-203h-104zM817 0v1186h105v-1186h-105z" />
<glyph unicode="&#xc3;" d="M31 0v1186h104v-1186h-104zM31 1622v203h104v-203h-104zM227 393v203h105v-203h-105zM227 1180v202h105v-202h-105zM227 1819v202h105v-202h-105zM424 393v203h104v-203h-104zM424 1180v202h104v-202h-104zM424 1622v203h104v-203h-104zM621 393v203h104v-203h-104z M621 1180v202h104v-202h-104zM621 1622v203h104v-203h-104zM817 0v1186h105v-1186h-105zM817 1819v202h105v-202h-105z" />
<glyph unicode="&#xc4;" d="M31 0v1186h104v-1186h-104zM31 1622v399h104v-399h-104zM227 393v203h105v-203h-105zM227 1180v202h105v-202h-105zM424 393v203h104v-203h-104zM424 1180v202h104v-202h-104zM621 393v203h104v-203h-104zM621 1180v202h104v-202h-104zM817 0v1186h105v-1186h-105z M817 1622v399h105v-399h-105z" />
<glyph unicode="&#xc5;" d="M31 0v1186h104v-1186h-104zM227 393v203h105v-203h-105zM227 1180v202h105v-202h-105zM227 1819v202h105v-202h-105zM424 393v203h104v-203h-104zM424 1180v202h104v-202h-104zM424 1622v203h104v-203h-104zM424 2015v203h104v-203h-104zM621 393v203h104v-203h-104z M621 1180v202h104v-202h-104zM621 1819v202h104v-202h-104zM817 0v1186h105v-1186h-105z" />
<glyph unicode="&#xc6;" d="M31 0v1186h104v-1186h-104zM227 393v203h105v-203h-105zM227 1180v202h105v-202h-105zM424 0v1382h104v-1382h-104zM621 0v203h104v-203h-104zM621 590v203h104v-203h-104zM621 1180v202h104v-202h-104zM817 0v203h105v-203h-105zM817 1180v202h105v-202h-105z" />
<glyph unicode="&#xc7;" d="M31 197v989h104v-989h-104zM227 0v203h105v-203h-105zM227 -190h105v-203h-105v203zM227 1180v202h105v-202h-105zM424 -197v400h104v-400h-104zM424 1180v202h104v-202h-104zM621 0v203h104v-203h-104zM621 1180v202h104v-202h-104zM817 197v202h105v-202h-105zM817 983 v203h105v-203h-105z" />
<glyph unicode="&#xc8;" d="M31 0v1382h104v-1382h-104zM227 0v203h105v-203h-105zM227 590v203h105v-203h-105zM227 1180v202h105v-202h-105zM227 1819v202h105v-202h-105zM424 0v203h104v-203h-104zM424 590v203h104v-203h-104zM424 1180v202h104v-202h-104zM424 1622v203h104v-203h-104zM621 0 v203h104v-203h-104zM621 590v203h104v-203h-104zM621 1180v202h104v-202h-104zM621 1622v203h104v-203h-104zM817 0v203h105v-203h-105zM817 1180v202h105v-202h-105z" />
<glyph unicode="&#xc9;" d="M31 0v1382h104v-1382h-104zM227 0v203h105v-203h-105zM227 590v203h105v-203h-105zM227 1180v202h105v-202h-105zM227 1622v203h105v-203h-105zM424 0v203h104v-203h-104zM424 590v203h104v-203h-104zM424 1180v202h104v-202h-104zM424 1622v203h104v-203h-104zM621 0 v203h104v-203h-104zM621 590v203h104v-203h-104zM621 1180v202h104v-202h-104zM621 1819v202h104v-202h-104zM817 0v203h105v-203h-105zM817 1180v202h105v-202h-105z" />
<glyph unicode="&#xca;" d="M31 0v1382h104v-1382h-104zM227 0v203h105v-203h-105zM227 590v203h105v-203h-105zM227 1180v202h105v-202h-105zM227 1622v203h105v-203h-105zM424 0v203h104v-203h-104zM424 590v203h104v-203h-104zM424 1180v202h104v-202h-104zM424 1819v202h104v-202h-104zM621 0 v203h104v-203h-104zM621 590v203h104v-203h-104zM621 1180v202h104v-202h-104zM621 1622v203h104v-203h-104zM817 0v203h105v-203h-105zM817 1180v202h105v-202h-105z" />
<glyph unicode="&#xcb;" d="M31 0v1382h104v-1382h-104zM31 1622v399h104v-399h-104zM227 0v203h105v-203h-105zM227 590v203h105v-203h-105zM227 1180v202h105v-202h-105zM424 0v203h104v-203h-104zM424 590v203h104v-203h-104zM424 1180v202h104v-202h-104zM621 0v203h104v-203h-104zM621 590v203 h104v-203h-104zM621 1180v202h104v-202h-104zM817 0v203h105v-203h-105zM817 1180v202h105v-202h-105zM817 1622v399h105v-399h-105z" />
<glyph unicode="&#xcc;" d="M31 0v203h104v-203h-104zM31 1180v202h104v-202h-104zM227 0v203h105v-203h-105zM227 1180v202h105v-202h-105zM227 1819v202h105v-202h-105zM424 0v1382h104v-1382h-104zM424 1622v203h104v-203h-104zM621 0v203h104v-203h-104zM621 1180v202h104v-202h-104zM621 1622 v203h104v-203h-104zM817 0v203h105v-203h-105zM817 1180v202h105v-202h-105z" />
<glyph unicode="&#xcd;" d="M31 0v203h104v-203h-104zM31 1180v202h104v-202h-104zM227 0v203h105v-203h-105zM227 1180v202h105v-202h-105zM227 1622v203h105v-203h-105zM424 0v1382h104v-1382h-104zM424 1622v203h104v-203h-104zM621 0v203h104v-203h-104zM621 1180v202h104v-202h-104zM621 1819 v202h104v-202h-104zM817 0v203h105v-203h-105zM817 1180v202h105v-202h-105z" />
<glyph unicode="&#xce;" d="M31 0v203h104v-203h-104zM31 1180v202h104v-202h-104zM227 0v203h105v-203h-105zM227 1180v202h105v-202h-105zM227 1622v203h105v-203h-105zM424 0v1382h104v-1382h-104zM424 1819v202h104v-202h-104zM621 0v203h104v-203h-104zM621 1180v202h104v-202h-104zM621 1622 v203h104v-203h-104zM817 0v203h105v-203h-105zM817 1180v202h105v-202h-105z" />
<glyph unicode="&#xcf;" d="M31 0v203h104v-203h-104zM31 1180v202h104v-202h-104zM31 1622v399h104v-399h-104zM227 0v203h105v-203h-105zM227 1180v202h105v-202h-105zM424 0v1382h104v-1382h-104zM621 0v203h104v-203h-104zM621 1180v202h104v-202h-104zM817 0v203h105v-203h-105zM817 1180v202 h105v-202h-105zM817 1622v399h105v-399h-105z" />
<glyph unicode="&#xd0;" d="M31 590v203h104v-203h-104zM227 0v1382h105v-1382h-105zM424 0v203h104v-203h-104zM424 590v203h104v-203h-104zM424 1180v202h104v-202h-104zM621 0v203h104v-203h-104zM621 1180v202h104v-202h-104zM817 197v989h105v-989h-105z" />
<glyph unicode="&#xd1;" d="M31 0v1382h104v-1382h-104zM31 1622v203h104v-203h-104zM227 983v203h105v-203h-105zM227 1819v202h105v-202h-105zM424 590v399h104v-399h-104zM424 1622v203h104v-203h-104zM621 393v203h104v-203h-104zM621 1622v203h104v-203h-104zM817 0v1382h105v-1382h-105z M817 1819v202h105v-202h-105z" />
<glyph unicode="&#xd2;" d="M31 197v989h104v-989h-104zM227 0v203h105v-203h-105zM227 1180v202h105v-202h-105zM227 1819v202h105v-202h-105zM424 0v203h104v-203h-104zM424 1180v202h104v-202h-104zM424 1622v203h104v-203h-104zM621 0v203h104v-203h-104zM621 1180v202h104v-202h-104zM621 1622 v203h104v-203h-104zM817 197v989h105v-989h-105z" />
<glyph unicode="&#xd3;" d="M31 197v989h104v-989h-104zM227 0v203h105v-203h-105zM227 1180v202h105v-202h-105zM227 1622v203h105v-203h-105zM424 0v203h104v-203h-104zM424 1180v202h104v-202h-104zM424 1622v203h104v-203h-104zM621 0v203h104v-203h-104zM621 1180v202h104v-202h-104zM621 1819 v202h104v-202h-104zM817 197v989h105v-989h-105z" />
<glyph unicode="&#xd4;" d="M31 197v989h104v-989h-104zM227 0v203h105v-203h-105zM227 1180v202h105v-202h-105zM227 1622v203h105v-203h-105zM424 0v203h104v-203h-104zM424 1180v202h104v-202h-104zM424 1819v202h104v-202h-104zM621 0v203h104v-203h-104zM621 1180v202h104v-202h-104zM621 1622 v203h104v-203h-104zM817 197v989h105v-989h-105z" />
<glyph unicode="&#xd5;" d="M31 197v989h104v-989h-104zM31 1622v203h104v-203h-104zM227 0v203h105v-203h-105zM227 1180v202h105v-202h-105zM227 1819v202h105v-202h-105zM424 0v203h104v-203h-104zM424 1180v202h104v-202h-104zM424 1622v203h104v-203h-104zM621 0v203h104v-203h-104zM621 1180 v202h104v-202h-104zM621 1622v203h104v-203h-104zM817 197v989h105v-989h-105zM817 1819v202h105v-202h-105z" />
<glyph unicode="&#xd6;" d="M31 197v989h104v-989h-104zM31 1622v399h104v-399h-104zM227 0v203h105v-203h-105zM227 1180v202h105v-202h-105zM424 0v203h104v-203h-104zM424 1180v202h104v-202h-104zM621 0v203h104v-203h-104zM621 1180v202h104v-202h-104zM817 197v989h105v-989h-105zM817 1622 v399h105v-399h-105z" />
<glyph unicode="&#xd7;" d="M35 0v199h102v-199h-102zM35 774v199h102v-199h-102zM227 193v200h103v-200h-103zM227 580v200h103v-200h-103zM422 387v199h102v-199h-102zM614 193v200h103v-200h-103zM614 580v200h103v-200h-103zM809 0v199h102v-199h-102zM809 774v199h102v-199h-102z" />
<glyph unicode="&#xd8;" d="M31 197v989h104v-989h-104zM227 0v203h4v196h105v-202h-4v-197h-105zM227 1180v202h105v-202h-105zM424 0v203h104v-203h-104zM424 1180v202h104v-202h-104zM428 393v596h104v-596h-104zM621 0v203h104v-203h-104zM621 1180v202h104v-196h4v-203h-104v197h-4zM817 197 v989h105v-989h-105z" />
<glyph unicode="&#xd9;" d="M31 197v1185h104v-1185h-104zM227 0v203h105v-203h-105zM227 1819v202h105v-202h-105zM424 0v203h104v-203h-104zM424 1622v203h104v-203h-104zM621 0v203h104v-203h-104zM621 1622v203h104v-203h-104zM817 197v1185h105v-1185h-105z" />
<glyph unicode="&#xda;" d="M31 197v1185h104v-1185h-104zM227 0v203h105v-203h-105zM227 1622v203h105v-203h-105zM424 0v203h104v-203h-104zM424 1622v203h104v-203h-104zM621 0v203h104v-203h-104zM621 1819v202h104v-202h-104zM817 197v1185h105v-1185h-105z" />
<glyph unicode="&#xdb;" d="M31 197v1185h104v-1185h-104zM227 0v203h105v-203h-105zM227 1622v203h105v-203h-105zM424 0v203h104v-203h-104zM424 1819v202h104v-202h-104zM621 0v203h104v-203h-104zM621 1622v203h104v-203h-104zM817 197v1185h105v-1185h-105z" />
<glyph unicode="&#xdc;" d="M31 197v1185h104v-1185h-104zM31 1622v399h104v-399h-104zM227 0v203h105v-203h-105zM424 0v203h104v-203h-104zM621 0v203h104v-203h-104zM817 197v1185h105v-1185h-105zM817 1622v399h105v-399h-105z" />
<glyph unicode="&#xdd;" d="M31 786v596h104v-596h-104zM227 590v203h105v-203h-105zM227 1622v203h105v-203h-105zM424 0v596h104v-596h-104zM424 1622v203h104v-203h-104zM621 590v203h104v-203h-104zM621 1819v202h104v-202h-104zM817 786v596h105v-596h-105z" />
<glyph unicode="&#xde;" d="M31 0v1382h104v-1382h-104zM227 393v203h105v-203h-105zM227 983v203h105v-203h-105zM424 393v203h104v-203h-104zM424 983v203h104v-203h-104zM621 393v203h104v-203h-104zM621 983v203h104v-203h-104zM817 590v399h105v-399h-105z" />
<glyph unicode="&#xdf;" d="M35 0v973h102v-973h-102zM227 967v198h103v-198h-103zM422 0v199h102v-199h-102zM422 580v200h102v-200h-102zM422 1161v199h102v-199h-102zM614 0v199h103v-199h-103zM614 387v199h103v-199h-103zM614 774v391h103v-391h-103zM809 193v200h102v-200h-102z" />
<glyph unicode="&#xe0;" d="M35 193v200h102v-200h-102zM227 0v199h103v-199h-103zM227 387v199h103v-199h-103zM227 774v199h103v-199h-103zM227 1354v198h103v-198h-103zM422 0v199h102v-199h-102zM422 387v199h102v-199h-102zM422 774v199h102v-199h-102zM422 1161v199h102v-199h-102zM614 0v199 h103v-199h-103zM614 387v199h103v-199h-103zM614 774v199h103v-199h-103zM614 1161v199h103v-199h-103zM809 0v780h102v-780h-102z" />
<glyph unicode="&#xe1;" d="M35 193v200h102v-200h-102zM227 0v199h103v-199h-103zM227 387v199h103v-199h-103zM227 774v199h103v-199h-103zM227 1161v199h103v-199h-103zM422 0v199h102v-199h-102zM422 387v199h102v-199h-102zM422 774v199h102v-199h-102zM422 1161v199h102v-199h-102zM614 0v199 h103v-199h-103zM614 387v199h103v-199h-103zM614 774v199h103v-199h-103zM614 1354v198h103v-198h-103zM809 0v780h102v-780h-102z" />
<glyph unicode="&#xe2;" d="M35 193v200h102v-200h-102zM227 0v199h103v-199h-103zM227 387v199h103v-199h-103zM227 774v199h103v-199h-103zM422 0v199h102v-199h-102zM422 387v199h102v-199h-102zM422 774v199h102v-199h-102zM614 0v199h103v-199h-103zM614 387v199h103v-199h-103zM614 774v199 h103v-199h-103zM809 0v780h102v-780h-102z" />
<glyph unicode="&#xe3;" d="M35 193v200h102v-200h-102zM35 1161v199h102v-199h-102zM227 0v199h103v-199h-103zM227 387v199h103v-199h-103zM227 774v199h103v-199h-103zM227 1354v198h103v-198h-103zM422 0v199h102v-199h-102zM422 387v199h102v-199h-102zM422 774v199h102v-199h-102zM422 1161 v199h102v-199h-102zM614 0v199h103v-199h-103zM614 387v199h103v-199h-103zM614 774v199h103v-199h-103zM614 1161v199h103v-199h-103zM809 0v780h102v-780h-102zM809 1354v198h102v-198h-102z" />
<glyph unicode="&#xe4;" d="M35 193v200h102v-200h-102zM35 1161v391h102v-391h-102zM227 0v199h103v-199h-103zM227 387v199h103v-199h-103zM227 774v199h103v-199h-103zM422 0v199h102v-199h-102zM422 387v199h102v-199h-102zM422 774v199h102v-199h-102zM614 0v199h103v-199h-103zM614 387v199 h103v-199h-103zM614 774v199h103v-199h-103zM809 0v780h102v-780h-102zM809 1161v391h102v-391h-102z" />
<glyph unicode="&#xe5;" d="M35 193v200h102v-200h-102zM227 0v199h103v-199h-103zM227 387v199h103v-199h-103zM227 774v199h103v-199h-103zM227 1354v198h103v-198h-103zM422 0v199h102v-199h-102zM422 387v199h102v-199h-102zM422 774v199h102v-199h-102zM422 1161v199h102v-199h-102zM422 1546 v201h102v-201h-102zM614 0v199h103v-199h-103zM614 387v199h103v-199h-103zM614 774v199h103v-199h-103zM614 1354v198h103v-198h-103zM809 0v780h102v-780h-102z" />
<glyph unicode="&#xe6;" d="M35 193v200h102v-200h-102zM227 0v199h103v-199h-103zM227 387v199h103v-199h-103zM227 774v199h103v-199h-103zM422 0v780h102v-780h-102zM614 0v199h103v-199h-103zM614 387v199h103v-199h-103zM614 774v199h103v-199h-103zM809 0v199h102v-199h-102zM809 580v200h102 v-200h-102z" />
<glyph unicode="&#xe7;" d="M35 193v587h102v-587h-102zM227 0v199h103v-199h-103zM227 -188h103v-199h-103v199zM227 774v199h103v-199h-103zM422 -193v392h102v-392h-102zM422 774v199h102v-199h-102zM614 0v199h103v-199h-103zM614 774v199h103v-199h-103zM809 193v200h102v-200h-102zM809 580 v200h102v-200h-102z" />
<glyph unicode="&#xe8;" d="M35 193v587h102v-587h-102zM227 0v199h103v-199h-103zM227 387v199h103v-199h-103zM227 774v199h103v-199h-103zM227 1354v198h103v-198h-103zM422 0v199h102v-199h-102zM422 387v199h102v-199h-102zM422 774v199h102v-199h-102zM422 1161v199h102v-199h-102zM614 0v199 h103v-199h-103zM614 387v199h103v-199h-103zM614 774v199h103v-199h-103zM614 1161v199h103v-199h-103zM809 0v199h102v-199h-102zM809 387v393h102v-393h-102z" />
<glyph unicode="&#xe9;" d="M35 193v587h102v-587h-102zM227 0v199h103v-199h-103zM227 387v199h103v-199h-103zM227 774v199h103v-199h-103zM227 1161v199h103v-199h-103zM422 0v199h102v-199h-102zM422 387v199h102v-199h-102zM422 774v199h102v-199h-102zM422 1161v199h102v-199h-102zM614 0v199 h103v-199h-103zM614 387v199h103v-199h-103zM614 774v199h103v-199h-103zM614 1354v198h103v-198h-103zM809 0v199h102v-199h-102zM809 387v393h102v-393h-102z" />
<glyph unicode="&#xea;" d="M35 193v587h102v-587h-102zM227 0v199h103v-199h-103zM227 387v199h103v-199h-103zM227 774v199h103v-199h-103zM227 1161v199h103v-199h-103zM422 0v199h102v-199h-102zM422 387v199h102v-199h-102zM422 774v199h102v-199h-102zM422 1354v198h102v-198h-102zM614 0v199 h103v-199h-103zM614 387v199h103v-199h-103zM614 774v199h103v-199h-103zM614 1161v199h103v-199h-103zM809 0v199h102v-199h-102zM809 387v393h102v-393h-102z" />
<glyph unicode="&#xeb;" d="M35 193v587h102v-587h-102zM35 1161v391h102v-391h-102zM227 0v199h103v-199h-103zM227 387v199h103v-199h-103zM227 774v199h103v-199h-103zM422 0v199h102v-199h-102zM422 387v199h102v-199h-102zM422 774v199h102v-199h-102zM614 0v199h103v-199h-103zM614 387v199 h103v-199h-103zM614 774v199h103v-199h-103zM809 0v199h102v-199h-102zM809 387v393h102v-393h-102zM809 1161v391h102v-391h-102z" />
<glyph unicode="&#xec;" d="M35 0v199h102v-199h-102zM35 774v199h102v-199h-102zM227 0v199h103v-199h-103zM227 774v199h103v-199h-103zM373 1331v199h102v-199h-102zM422 0v973h102v-973h-102zM567 1137v200h103v-200h-103zM614 0v199h103v-199h-103zM760 1137v200h102v-200h-102zM809 0v199h102 v-199h-102z" />
<glyph unicode="&#xed;" d="M35 0v199h102v-199h-102zM35 774v199h102v-199h-102zM227 0v199h103v-199h-103zM227 774v199h103v-199h-103zM373 1137v200h102v-200h-102zM422 0v973h102v-973h-102zM567 1137v200h103v-200h-103zM614 0v199h103v-199h-103zM760 1331v199h102v-199h-102zM809 0v199h102 v-199h-102z" />
<glyph unicode="&#xee;" d="M35 0v199h102v-199h-102zM35 774v199h102v-199h-102zM227 0v199h103v-199h-103zM227 774v199h103v-199h-103zM373 1137v200h102v-200h-102zM422 0v973h102v-973h-102zM567 1331v199h103v-199h-103zM614 0v199h103v-199h-103zM760 1137v200h102v-200h-102zM809 0v199h102 v-199h-102z" />
<glyph unicode="&#xef;" d="M35 0v199h102v-199h-102zM35 774v199h102v-199h-102zM35 1161v391h102v-391h-102zM227 0v199h103v-199h-103zM227 774v199h103v-199h-103zM422 0v973h102v-973h-102zM614 0v199h103v-199h-103zM809 0v199h102v-199h-102zM809 1161v391h102v-391h-102z" />
<glyph unicode="&#xf0;" d="M35 193v393h102v-393h-102zM227 0v199h103v-199h-103zM227 580v200h103v-200h-103zM227 1161v199h103v-199h-103zM422 0v199h102v-199h-102zM422 580v393h102v-393h-102zM422 1161v199h102v-199h-102zM614 0v199h103v-199h-103zM614 580v200h103v-200h-103zM614 967v198 h103v-198h-103zM809 193v780h102v-780h-102zM809 1161v199h102v-199h-102z" />
<glyph unicode="&#xf1;" d="M35 0v973h102v-973h-102zM35 1161v199h102v-199h-102zM227 580v200h103v-200h-103zM227 1354v198h103v-198h-103zM422 774v199h102v-199h-102zM422 1161v199h102v-199h-102zM614 774v199h103v-199h-103zM614 1161v199h103v-199h-103zM809 0v780h102v-780h-102zM809 1354 v198h102v-198h-102z" />
<glyph unicode="&#xf2;" d="M35 193v587h102v-587h-102zM227 0v199h103v-199h-103zM227 774v199h103v-199h-103zM227 1354v198h103v-198h-103zM422 0v199h102v-199h-102zM422 774v199h102v-199h-102zM422 1161v199h102v-199h-102zM614 0v199h103v-199h-103zM614 774v199h103v-199h-103zM614 1161v199 h103v-199h-103zM809 193v587h102v-587h-102z" />
<glyph unicode="&#xf3;" d="M35 193v587h102v-587h-102zM227 0v199h103v-199h-103zM227 774v199h103v-199h-103zM227 1161v199h103v-199h-103zM422 0v199h102v-199h-102zM422 774v199h102v-199h-102zM422 1161v199h102v-199h-102zM614 0v199h103v-199h-103zM614 774v199h103v-199h-103zM614 1354v198 h103v-198h-103zM809 193v587h102v-587h-102z" />
<glyph unicode="&#xf4;" d="M35 193v587h102v-587h-102zM227 0v199h103v-199h-103zM227 774v199h103v-199h-103zM227 1161v199h103v-199h-103zM422 0v199h102v-199h-102zM422 774v199h102v-199h-102zM422 1354v198h102v-198h-102zM614 0v199h103v-199h-103zM614 774v199h103v-199h-103zM614 1161v199 h103v-199h-103zM809 193v587h102v-587h-102z" />
<glyph unicode="&#xf5;" d="M35 193v587h102v-587h-102zM35 1161v199h102v-199h-102zM227 0v199h103v-199h-103zM227 774v199h103v-199h-103zM227 1354v198h103v-198h-103zM422 0v199h102v-199h-102zM422 774v199h102v-199h-102zM422 1161v199h102v-199h-102zM614 0v199h103v-199h-103zM614 774v199 h103v-199h-103zM614 1161v199h103v-199h-103zM809 193v587h102v-587h-102zM809 1354v198h102v-198h-102z" />
<glyph unicode="&#xf6;" d="M35 193v587h102v-587h-102zM35 1161v391h102v-391h-102zM227 0v199h103v-199h-103zM227 774v199h103v-199h-103zM422 0v199h102v-199h-102zM422 774v199h102v-199h-102zM614 0v199h103v-199h-103zM614 774v199h103v-199h-103zM809 193v587h102v-587h-102zM809 1161v391 h102v-391h-102z" />
<glyph unicode="&#xf7;" d="M35 387v199h102v-199h-102zM227 387v199h103v-199h-103zM422 0v199h102v-199h-102zM422 387v199h102v-199h-102zM422 774v199h102v-199h-102zM614 387v199h103v-199h-103zM809 387v199h102v-199h-102z" />
<glyph unicode="&#xf8;" d="M35 193v587h102v-587h-102zM37 6h102v-199h-102v199zM227 0v199h103v-199h-103zM227 774v199h103v-199h-103zM422 0v586h102v-586h-102zM422 774v199h102v-199h-102zM614 0v199h103v-199h-103zM614 580v393h103v-393h-103zM809 193v587h102v-587h-102zM809 967v198h102 v-198h-102z" />
<glyph unicode="&#xf9;" d="M35 193v780h102v-780h-102zM227 0v199h103v-199h-103zM227 1354v198h103v-198h-103zM422 0v199h102v-199h-102zM422 1161v199h102v-199h-102zM614 193v200h103v-200h-103zM614 1161v199h103v-199h-103zM809 0v973h102v-973h-102z" />
<glyph unicode="&#xfa;" d="M35 193v780h102v-780h-102zM227 0v199h103v-199h-103zM227 1161v199h103v-199h-103zM422 0v199h102v-199h-102zM422 1161v199h102v-199h-102zM614 193v200h103v-200h-103zM614 1354v198h103v-198h-103zM809 0v973h102v-973h-102z" />
<glyph unicode="&#xfb;" d="M35 193v780h102v-780h-102zM227 0v199h103v-199h-103zM227 1161v199h103v-199h-103zM422 0v199h102v-199h-102zM422 1354v198h102v-198h-102zM614 193v200h103v-200h-103zM614 1161v199h103v-199h-103zM809 0v973h102v-973h-102z" />
<glyph unicode="&#xfc;" d="M35 193v780h102v-780h-102zM35 1161v391h102v-391h-102zM227 0v199h103v-199h-103zM422 0v199h102v-199h-102zM614 193v200h103v-200h-103zM809 0v973h102v-973h-102zM809 1161v391h102v-391h-102z" />
<glyph unicode="&#xfd;" d="M35 -188h102v-199h-102v199zM35 580v393h102v-393h-102zM227 -188h103v-199h-103v199zM227 193v393h103v-393h-103zM227 1161v199h103v-199h-103zM422 -193v392h102v-392h-102zM422 1161v199h102v-199h-102zM614 193v393h103v-393h-103zM614 1354v198h103v-198h-103z M809 580v393h102v-393h-102z" />
<glyph unicode="&#xfe;" d="M35 -387v1747h102v-1747h-102zM227 0v199h103v-199h-103zM227 774v199h103v-199h-103zM422 0v199h102v-199h-102zM422 774v199h102v-199h-102zM614 0v199h103v-199h-103zM614 774v199h103v-199h-103zM809 193v587h102v-587h-102z" />
<glyph unicode="&#xff;" d="M35 -188h102v-199h-102v199zM35 580v393h102v-393h-102zM35 1161v391h102v-391h-102zM227 -188h103v-199h-103v199zM227 193v393h103v-393h-103zM422 -193v392h102v-392h-102zM614 193v393h103v-393h-103zM809 580v393h102v-393h-102zM809 1161v391h102v-391h-102z" />
<glyph unicode="&#x100;" d="M182 -25v1186h105v-1186h-105zM379 371v200h104v-200h-104zM379 1157v201h104v-201h-104zM379 1599v203h104v-203h-104zM575 371v200h105v-200h-105zM575 1157v201h105v-201h-105zM575 1599v203h105v-203h-105zM772 371v200h105v-200h-105zM772 1157v201h105v-201h-105z M772 1599v203h105v-203h-105zM969 -25v1186h104v-1186h-104z" />
<glyph unicode="&#x101;" d="M35 193v200h102v-200h-102zM227 0v199h103v-199h-103zM227 387v199h103v-199h-103zM227 774v199h103v-199h-103zM227 1161v199h103v-199h-103zM422 0v199h102v-199h-102zM422 387v199h102v-199h-102zM422 774v199h102v-199h-102zM422 1161v199h102v-199h-102zM614 0v199 h103v-199h-103zM614 387v199h103v-199h-103zM614 774v199h103v-199h-103zM614 1161v199h103v-199h-103zM809 0v780h102v-780h-102z" />
<glyph unicode="&#x102;" d="M31 0v1186h104v-1186h-104zM227 393v203h105v-203h-105zM227 1180v202h105v-202h-105zM227 1821v202h105v-202h-105zM424 393v203h104v-203h-104zM424 1180v202h104v-202h-104zM424 1624v203h104v-203h-104zM621 393v203h104v-203h-104zM621 1180v202h104v-202h-104z M621 1821v202h104v-202h-104zM817 0v1186h105v-1186h-105z" />
<glyph unicode="&#x103;" d="M35 193v200h102v-200h-102zM227 0v199h103v-199h-103zM227 387v199h103v-199h-103zM227 774v199h103v-199h-103zM227 1356v198h103v-198h-103zM422 0v199h102v-199h-102zM422 387v199h102v-199h-102zM422 774v199h102v-199h-102zM422 1163v199h102v-199h-102zM614 0v199 h103v-199h-103zM614 387v199h103v-199h-103zM614 774v199h103v-199h-103zM614 1356v198h103v-198h-103zM809 0v780h102v-780h-102z" />
<glyph unicode="&#x104;" d="M31 0v1186h104v-1186h-104zM227 393v203h105v-203h-105zM227 1180v202h105v-202h-105zM424 393v203h104v-203h-104zM424 1180v202h104v-202h-104zM621 6h104v-203h-104v203zM621 393v203h104v-203h-104zM621 1180v202h104v-202h-104zM817 0v1186h105v-1186h-105z M817 -190h105v-203h-105v203z" />
<glyph unicode="&#x105;" d="M35 193v200h102v-200h-102zM227 0v199h103v-199h-103zM227 387v199h103v-199h-103zM227 774v199h103v-199h-103zM422 0v199h102v-199h-102zM422 387v199h102v-199h-102zM422 774v199h102v-199h-102zM614 -193v392h103v-392h-103zM614 387v199h103v-199h-103zM614 774v199 h103v-199h-103zM809 0v780h102v-780h-102zM809 -188h102v-199h-102v199z" />
<glyph unicode="&#x106;" d="M31 197v989h104v-989h-104zM227 0v203h105v-203h-105zM227 1180v202h105v-202h-105zM227 1622v203h105v-203h-105zM424 0v203h104v-203h-104zM424 1180v202h104v-202h-104zM424 1622v203h104v-203h-104zM621 0v203h104v-203h-104zM621 1180v202h104v-202h-104zM621 1819 v202h104v-202h-104zM817 197v202h105v-202h-105zM817 983v203h105v-203h-105z" />
<glyph unicode="&#x107;" d="M35 193v587h102v-587h-102zM227 0v199h103v-199h-103zM227 774v199h103v-199h-103zM227 1161v199h103v-199h-103zM422 0v199h102v-199h-102zM422 774v199h102v-199h-102zM422 1161v199h102v-199h-102zM614 0v199h103v-199h-103zM614 774v199h103v-199h-103zM614 1354v198 h103v-198h-103zM809 193v200h102v-200h-102zM809 580v200h102v-200h-102z" />
<glyph unicode="&#x10c;" d="M31 197v989h104v-989h-104zM227 0v203h105v-203h-105zM227 1180v202h105v-202h-105zM227 1819v202h105v-202h-105zM424 0v203h104v-203h-104zM424 1180v202h104v-202h-104zM424 1622v203h104v-203h-104zM621 0v203h104v-203h-104zM621 1180v202h104v-202h-104zM621 1819 v202h104v-202h-104zM817 197v202h105v-202h-105zM817 983v203h105v-203h-105z" />
<glyph unicode="&#x10d;" d="M35 193v587h102v-587h-102zM227 0v199h103v-199h-103zM227 774v199h103v-199h-103zM227 1354v198h103v-198h-103zM422 0v199h102v-199h-102zM422 774v199h102v-199h-102zM422 1161v199h102v-199h-102zM614 0v199h103v-199h-103zM614 774v199h103v-199h-103zM614 1354v198 h103v-198h-103zM809 193v200h102v-200h-102zM809 580v200h102v-200h-102z" />
<glyph unicode="&#x10e;" d="M31 0v1382h104v-1382h-104zM227 0v203h105v-203h-105zM227 1180v202h105v-202h-105zM227 1819v202h105v-202h-105zM424 0v203h104v-203h-104zM424 1180v202h104v-202h-104zM424 1622v203h104v-203h-104zM621 0v203h104v-203h-104zM621 1180v202h104v-202h-104zM621 1819 v202h104v-202h-104zM817 197v989h105v-989h-105z" />
<glyph unicode="&#x10f;" d="M35 193v587h102v-587h-102zM227 0v199h103v-199h-103zM227 774v199h103v-199h-103zM422 0v1360h102v-1360h-102zM614 774v199h103v-199h-103zM809 967v393h102v-393h-102z" />
<glyph unicode="&#x110;" d="M229 0v1382h105v-1382h-105zM426 0v203h104v-203h-104zM426 590v203h104v-203h-104zM426 1180v202h104v-202h-104zM623 0v203h104v-203h-104zM623 590v203h104v-203h-104zM623 1180v202h104v-202h-104zM819 197v989h105v-989h-105z" />
<glyph unicode="&#x111;" d="M37 193v587h102v-587h-102zM231 0v199h103v-199h-103zM231 774v199h103v-199h-103zM424 0v199h102v-199h-102zM424 774v199h102v-199h-102zM618 0v1360h103v-1360h-103zM811 387v199h102v-199h-102zM1006 387v199h102v-199h-102z" />
<glyph unicode="&#x112;" d="M31 0v1382h104v-1382h-104zM227 0v203h105v-203h-105zM227 590v203h105v-203h-105zM227 1180v202h105v-202h-105zM227 1622v203h105v-203h-105zM424 0v203h104v-203h-104zM424 590v203h104v-203h-104zM424 1180v202h104v-202h-104zM424 1622v203h104v-203h-104zM621 0 v203h104v-203h-104zM621 590v203h104v-203h-104zM621 1180v202h104v-202h-104zM621 1622v203h104v-203h-104zM817 0v203h105v-203h-105zM817 1180v202h105v-202h-105z" />
<glyph unicode="&#x113;" d="M35 193v587h102v-587h-102zM227 0v199h103v-199h-103zM227 387v199h103v-199h-103zM227 774v199h103v-199h-103zM227 1161v199h103v-199h-103zM422 0v199h102v-199h-102zM422 387v199h102v-199h-102zM422 774v199h102v-199h-102zM422 1161v199h102v-199h-102zM614 0v199 h103v-199h-103zM614 387v199h103v-199h-103zM614 774v199h103v-199h-103zM614 1161v199h103v-199h-103zM809 0v199h102v-199h-102zM809 387v393h102v-393h-102z" />
<glyph unicode="&#x116;" d="M31 0v1382h104v-1382h-104zM227 0v203h105v-203h-105zM227 590v203h105v-203h-105zM227 1180v202h105v-202h-105zM424 0v203h104v-203h-104zM424 590v203h104v-203h-104zM424 1180v202h104v-202h-104zM424 1622v203h104v-203h-104zM621 0v203h104v-203h-104zM621 590v203 h104v-203h-104zM621 1180v202h104v-202h-104zM817 0v203h105v-203h-105zM817 1180v202h105v-202h-105z" />
<glyph unicode="&#x117;" d="M35 193v587h102v-587h-102zM227 0v199h103v-199h-103zM227 387v199h103v-199h-103zM227 774v199h103v-199h-103zM422 0v199h102v-199h-102zM422 387v199h102v-199h-102zM422 774v199h102v-199h-102zM422 1161v199h102v-199h-102zM614 0v199h103v-199h-103zM614 387v199 h103v-199h-103zM614 774v199h103v-199h-103zM809 0v199h102v-199h-102zM809 387v393h102v-393h-102z" />
<glyph unicode="&#x118;" d="M31 0v1382h104v-1382h-104zM227 0v203h105v-203h-105zM227 590v203h105v-203h-105zM227 1180v202h105v-202h-105zM424 0v203h104v-203h-104zM424 590v203h104v-203h-104zM424 1180v202h104v-202h-104zM621 -197v400h104v-400h-104zM621 590v203h104v-203h-104zM621 1180 v202h104v-202h-104zM817 0v203h105v-203h-105zM817 -190h105v-203h-105v203zM817 1180v202h105v-202h-105z" />
<glyph unicode="&#x119;" d="M35 193v587h102v-587h-102zM227 0v199h103v-199h-103zM227 387v199h103v-199h-103zM227 774v199h103v-199h-103zM422 0v199h102v-199h-102zM422 387v199h102v-199h-102zM422 774v199h102v-199h-102zM614 -193v392h103v-392h-103zM614 387v199h103v-199h-103zM614 774v199 h103v-199h-103zM809 0v199h102v-199h-102zM809 -188h102v-199h-102v199zM809 387v393h102v-393h-102z" />
<glyph unicode="&#x11a;" d="M31 0v1382h104v-1382h-104zM227 0v203h105v-203h-105zM227 590v203h105v-203h-105zM227 1180v202h105v-202h-105zM227 1819v202h105v-202h-105zM424 0v203h104v-203h-104zM424 590v203h104v-203h-104zM424 1180v202h104v-202h-104zM424 1622v203h104v-203h-104zM621 0 v203h104v-203h-104zM621 590v203h104v-203h-104zM621 1180v202h104v-202h-104zM621 1819v202h104v-202h-104zM817 0v203h105v-203h-105zM817 1180v202h105v-202h-105z" />
<glyph unicode="&#x11b;" d="M35 193v587h102v-587h-102zM227 0v199h103v-199h-103zM227 387v199h103v-199h-103zM227 774v199h103v-199h-103zM227 1354v198h103v-198h-103zM422 0v199h102v-199h-102zM422 387v199h102v-199h-102zM422 774v199h102v-199h-102zM422 1161v199h102v-199h-102zM614 0v199 h103v-199h-103zM614 387v199h103v-199h-103zM614 774v199h103v-199h-103zM614 1354v198h103v-198h-103zM809 0v199h102v-199h-102zM809 387v393h102v-393h-102z" />
<glyph unicode="&#x11e;" d="M31 197v989h104v-989h-104zM227 0v203h105v-203h-105zM227 1180v202h105v-202h-105zM227 1821v202h105v-202h-105zM424 0v203h104v-203h-104zM424 1180v202h104v-202h-104zM424 1624v203h104v-203h-104zM621 0v203h104v-203h-104zM621 393v203h104v-203h-104zM621 1180 v202h104v-202h-104zM621 1821v202h104v-202h-104zM817 0v596h105v-596h-105zM817 983v203h105v-203h-105z" />
<glyph unicode="&#x11f;" d="M35 193v587h102v-587h-102zM227 0v199h103v-199h-103zM227 -188h103v-199h-103v199zM227 774v199h103v-199h-103zM227 1356v198h103v-198h-103zM422 0v199h102v-199h-102zM422 -188h102v-199h-102v199zM422 774v199h102v-199h-102zM422 1163v199h102v-199h-102zM614 -188 h103v-199h-103v199zM614 193v200h103v-200h-103zM614 774v199h103v-199h-103zM614 1356v198h103v-198h-103zM809 -193v1166h102v-1166h-102z" />
<glyph unicode="&#x122;" d="M31 197v989h104v-989h-104zM227 0v203h105v-203h-105zM227 -190h105v-203h-105v203zM227 1180v202h105v-202h-105zM424 -197v400h104v-400h-104zM424 1180v202h104v-202h-104zM621 0v203h104v-203h-104zM621 393v203h104v-203h-104zM621 1180v202h104v-202h-104zM817 0 v596h105v-596h-105zM817 983v203h105v-203h-105z" />
<glyph unicode="&#x123;" d="M35 193v587h102v-587h-102zM227 0v199h103v-199h-103zM227 -188h103v-199h-103v199zM227 774v199h103v-199h-103zM422 0v199h102v-199h-102zM422 -188h102v-199h-102v199zM422 774v199h102v-199h-102zM422 1208v394h102v-394h-102zM614 -188h103v-199h-103v199zM614 193 v200h103v-200h-103zM614 774v199h103v-199h-103zM614 1595v199h103v-199h-103zM809 -193v1166h102v-1166h-102z" />
<glyph unicode="&#x12b;" d="M35 0v199h102v-199h-102zM35 774v199h102v-199h-102zM227 0v199h103v-199h-103zM227 774v199h103v-199h-103zM373 1137v200h102v-200h-102zM422 0v973h102v-973h-102zM567 1137v200h103v-200h-103zM614 0v199h103v-199h-103zM760 1137v200h102v-200h-102zM809 0v199h102 v-199h-102z" />
<glyph unicode="&#x12e;" d="M31 0v203h104v-203h-104zM31 1180v202h104v-202h-104zM227 0v203h105v-203h-105zM227 1180v202h105v-202h-105zM424 -197v1579h104v-1579h-104zM621 0v203h104v-203h-104zM621 -190h104v-203h-104v203zM621 1180v202h104v-202h-104zM817 0v203h105v-203h-105zM817 1180 v202h105v-202h-105z" />
<glyph unicode="&#x12f;" d="M35 0v199h102v-199h-102zM35 774v199h102v-199h-102zM227 0v199h103v-199h-103zM227 774v199h103v-199h-103zM422 0v973h102v-967h23v-199h-103v193h-22zM422 1161v199h102v-199h-102zM614 0v199h103v-199h-103zM639 -188h102v-199h-102v199zM809 0v199h102v-199h-102z " />
<glyph unicode="&#x130;" d="M31 0v203h104v-203h-104zM31 1180v202h104v-202h-104zM227 0v203h105v-203h-105zM227 1180v202h105v-202h-105zM424 0v1382h104v-1382h-104zM424 1622v203h104v-203h-104zM621 0v203h104v-203h-104zM621 1180v202h104v-202h-104zM817 0v203h105v-203h-105zM817 1180v202 h105v-202h-105z" />
<glyph unicode="&#x131;" d="M35 0v199h102v-199h-102zM35 774v199h102v-199h-102zM227 0v199h103v-199h-103zM227 774v199h103v-199h-103zM422 0v973h102v-973h-102zM614 0v199h103v-199h-103zM809 0v199h102v-199h-102z" />
<glyph unicode="&#x136;" d="M31 0v1382h104v-1382h-104zM227 -190h105v-203h-105v203zM227 590v203h105v-203h-105zM424 6h104v-203h-104v203zM424 590v203h104v-203h-104zM621 393v203h104v-203h-104zM621 786v203h104v-203h-104zM817 0v399h105v-399h-105zM817 983v399h105v-399h-105z" />
<glyph unicode="&#x137;" d="M35 0v1360h102v-1360h-102zM227 -188h103v-199h-103v199zM227 387v199h103v-199h-103zM422 6h102v-199h-102v199zM422 387v199h102v-199h-102zM614 193v200h103v-200h-103zM614 580v393h103v-393h-103zM809 0v199h102v-199h-102z" />
<glyph unicode="&#x139;" d="M31 0v1382h104v-1382h-104zM227 0v203h105v-203h-105zM227 1622v203h105v-203h-105zM424 0v203h104v-203h-104zM424 1622v203h104v-203h-104zM621 0v203h104v-203h-104zM621 1819v202h104v-202h-104zM817 0v203h105v-203h-105z" />
<glyph unicode="&#x13a;" d="M35 0v199h102v-199h-102zM35 1161v199h102v-199h-102zM227 0v199h103v-199h-103zM227 1161v199h103v-199h-103zM227 1595v199h103v-199h-103zM422 0v1360h102v-1360h-102zM422 1595v199h102v-199h-102zM614 0v199h103v-199h-103zM614 1790v199h103v-199h-103zM809 0v199 h102v-199h-102z" />
<glyph unicode="&#x13b;" d="M31 0v1382h104v-1382h-104zM227 0v203h105v-203h-105zM227 -190h105v-203h-105v203zM424 -197v400h104v-400h-104zM621 0v203h104v-203h-104zM817 0v203h105v-203h-105z" />
<glyph unicode="&#x13c;" d="M35 0v199h102v-199h-102zM35 1161v199h102v-199h-102zM227 0v199h103v-199h-103zM227 -188h103v-199h-103v199zM227 1161v199h103v-199h-103zM422 -193v1553h102v-1553h-102zM614 0v199h103v-199h-103zM809 0v199h102v-199h-102z" />
<glyph unicode="&#x13d;" d="M31 0v1382h104v-1382h-104zM227 0v203h105v-203h-105zM424 0v203h104v-203h-104zM621 0v203h104v-203h-104zM621 1180v202h104v-202h-104zM817 0v203h105v-203h-105zM817 1376v400h105v-400h-105z" />
<glyph unicode="&#x13e;" d="M37 0v199h102v-199h-102zM37 1161v199h102v-199h-102zM229 0v1360h105v-1360h-105zM424 0v199h102v-199h-102zM762 750v200h102v-200h-102zM956 944v393h103v-393h-103z" />
<glyph unicode="&#x141;" d="M229 0v1382h105v-1382h-105zM426 0v203h104v-203h-104zM426 590v203h104v-203h-104zM623 0v203h104v-203h-104zM623 590v203h104v-203h-104zM819 0v203h105v-203h-105z" />
<glyph unicode="&#x142;" d="M35 0v199h102v-199h-102zM35 1161v199h102v-199h-102zM227 0v199h103v-199h-103zM227 580v200h103v-200h-103zM227 1161v199h103v-199h-103zM422 0v1360h102v-1360h-102zM614 0v199h103v-199h-103zM614 580v200h103v-200h-103zM809 0v199h102v-199h-102z" />
<glyph unicode="&#x143;" d="M31 0v1382h104v-1382h-104zM227 983v203h105v-203h-105zM227 1622v203h105v-203h-105zM424 590v399h104v-399h-104zM424 1622v203h104v-203h-104zM621 393v203h104v-203h-104zM621 1819v202h104v-202h-104zM817 0v1382h105v-1382h-105z" />
<glyph unicode="&#x144;" d="M35 0v973h102v-973h-102zM227 580v200h103v-200h-103zM227 1161v199h103v-199h-103zM422 774v199h102v-199h-102zM422 1161v199h102v-199h-102zM614 774v199h103v-199h-103zM614 1354v198h103v-198h-103zM809 0v780h102v-780h-102z" />
<glyph unicode="&#x145;" d="M31 0v1382h104v-1382h-104zM227 -190h105v-203h-105v203zM227 983v203h105v-203h-105zM424 6h104v-203h-104v203zM424 590v399h104v-399h-104zM621 393v203h104v-203h-104zM817 0v1382h105v-1382h-105z" />
<glyph unicode="&#x146;" d="M35 0v973h102v-973h-102zM227 -188h103v-199h-103v199zM227 580v200h103v-200h-103zM422 6h102v-199h-102v199zM422 774v199h102v-199h-102zM614 774v199h103v-199h-103zM809 0v780h102v-780h-102z" />
<glyph unicode="&#x147;" d="M31 0v1382h104v-1382h-104zM227 983v203h105v-203h-105zM227 1819v202h105v-202h-105zM424 590v399h104v-399h-104zM424 1622v203h104v-203h-104zM621 393v203h104v-203h-104zM621 1819v202h104v-202h-104zM817 0v1382h105v-1382h-105z" />
<glyph unicode="&#x148;" d="M35 0v973h102v-973h-102zM227 580v200h103v-200h-103zM227 1354v198h103v-198h-103zM422 774v199h102v-199h-102zM422 1161v199h102v-199h-102zM614 774v199h103v-199h-103zM614 1354v198h103v-198h-103zM809 0v780h102v-780h-102z" />
<glyph unicode="&#x14c;" d="M31 197v989h104v-989h-104zM227 0v203h105v-203h-105zM227 1180v202h105v-202h-105zM227 1622v203h105v-203h-105zM424 0v203h104v-203h-104zM424 1180v202h104v-202h-104zM424 1622v203h104v-203h-104zM621 0v203h104v-203h-104zM621 1180v202h104v-202h-104zM621 1622 v203h104v-203h-104zM817 197v989h105v-989h-105z" />
<glyph unicode="&#x14d;" d="M35 193v587h102v-587h-102zM227 0v199h103v-199h-103zM227 774v199h103v-199h-103zM227 1161v199h103v-199h-103zM422 0v199h102v-199h-102zM422 774v199h102v-199h-102zM422 1161v199h102v-199h-102zM614 0v199h103v-199h-103zM614 774v199h103v-199h-103zM614 1161v199 h103v-199h-103zM809 193v587h102v-587h-102z" />
<glyph unicode="&#x150;" d="M31 197v989h104v-989h-104zM227 0v203h105v-203h-105zM227 1180v202h105v-202h-105zM227 1622v203h105v-203h-105zM424 0v203h104v-203h-104zM424 1180v202h104v-202h-104zM424 1819v202h104v-202h-104zM621 0v203h104v-203h-104zM621 1180v202h104v-202h-104zM621 1622 v203h104v-203h-104zM817 197v989h105v-989h-105zM817 1819v202h105v-202h-105z" />
<glyph unicode="&#x151;" d="M35 193v587h102v-587h-102zM227 0v199h103v-199h-103zM227 774v199h103v-199h-103zM227 1161v199h103v-199h-103zM422 0v199h102v-199h-102zM422 774v199h102v-199h-102zM422 1354v198h102v-198h-102zM614 0v199h103v-199h-103zM614 774v199h103v-199h-103zM614 1161v199 h103v-199h-103zM809 193v587h102v-587h-102zM809 1354v198h102v-198h-102z" />
<glyph unicode="&#x152;" d="M31 197v989h104v-989h-104zM227 0v203h105v-203h-105zM227 1180v202h105v-202h-105zM424 0v1382h104v-1382h-104zM621 0v203h104v-203h-104zM621 590v203h104v-203h-104zM621 1180v202h104v-202h-104zM817 0v203h105v-203h-105zM817 1180v202h105v-202h-105z" />
<glyph unicode="&#x153;" d="M35 193v587h102v-587h-102zM227 0v199h103v-199h-103zM227 774v199h103v-199h-103zM422 193v587h102v-587h-102zM614 0v199h103v-199h-103zM614 387v199h103v-199h-103zM614 774v199h103v-199h-103zM809 0v199h102v-199h-102zM809 387v393h102v-393h-102z" />
<glyph unicode="&#x154;" d="M31 0v1382h104v-1382h-104zM227 590v203h105v-203h-105zM227 1180v202h105v-202h-105zM227 1622v203h105v-203h-105zM424 590v203h104v-203h-104zM424 1180v202h104v-202h-104zM424 1622v203h104v-203h-104zM621 393v400h104v-400h-104zM621 1180v202h104v-202h-104z M621 1819v202h104v-202h-104zM817 0v399h105v-399h-105zM817 786v400h105v-400h-105z" />
<glyph unicode="&#x155;" d="M35 0v199h102v-199h-102zM35 774v199h102v-199h-102zM227 0v973h103v-973h-103zM227 1161v199h103v-199h-103zM422 0v199h102v-199h-102zM422 580v200h102v-200h-102zM422 1161v199h102v-199h-102zM614 0v199h103v-199h-103zM614 774v199h103v-199h-103zM614 1354v198 h103v-198h-103zM809 774v199h102v-199h-102z" />
<glyph unicode="&#x156;" d="M31 0v1382h104v-1382h-104zM227 -190h105v-203h-105v203zM227 590v203h105v-203h-105zM227 1180v202h105v-202h-105zM424 6h104v-203h-104v203zM424 590v203h104v-203h-104zM424 1180v202h104v-202h-104zM621 393v400h104v-400h-104zM621 1180v202h104v-202h-104zM817 0 v399h105v-399h-105zM817 786v400h105v-400h-105z" />
<glyph unicode="&#x157;" d="M35 0v199h102v-199h-102zM35 -188h102v-199h-102v199zM35 774v199h102v-199h-102zM227 -193v1166h103v-1166h-103zM422 0v199h102v-199h-102zM422 580v200h102v-200h-102zM614 0v199h103v-199h-103zM614 774v199h103v-199h-103zM809 774v199h102v-199h-102z" />
<glyph unicode="&#x158;" d="M31 0v1382h104v-1382h-104zM227 590v203h105v-203h-105zM227 1180v202h105v-202h-105zM227 1819v202h105v-202h-105zM424 590v203h104v-203h-104zM424 1180v202h104v-202h-104zM424 1622v203h104v-203h-104zM621 393v400h104v-400h-104zM621 1180v202h104v-202h-104z M621 1819v202h104v-202h-104zM817 0v399h105v-399h-105zM817 786v400h105v-400h-105z" />
<glyph unicode="&#x159;" d="M35 0v199h102v-199h-102zM35 774v199h102v-199h-102zM227 0v973h103v-973h-103zM227 1354v198h103v-198h-103zM422 0v199h102v-199h-102zM422 580v200h102v-200h-102zM422 1161v199h102v-199h-102zM614 0v199h103v-199h-103zM614 774v199h103v-199h-103zM614 1354v198 h103v-198h-103zM809 774v199h102v-199h-102z" />
<glyph unicode="&#x15a;" d="M31 0v203h104v-203h-104zM31 786v400h104v-400h-104zM227 0v203h105v-203h-105zM227 590v203h105v-203h-105zM227 1180v202h105v-202h-105zM424 0v203h104v-203h-104zM424 590v203h104v-203h-104zM424 1180v202h104v-202h-104zM424 1622v203h104v-203h-104zM621 0v203 h104v-203h-104zM621 590v203h104v-203h-104zM621 1180v202h104v-202h-104zM621 1622v203h104v-203h-104zM817 197v399h105v-399h-105zM817 1180v202h105v-202h-105zM817 1819v202h105v-202h-105z" />
<glyph unicode="&#x15b;" d="M35 0v199h102v-199h-102zM35 580v200h102v-200h-102zM227 0v199h103v-199h-103zM227 387v199h103v-199h-103zM227 774v199h103v-199h-103zM422 0v199h102v-199h-102zM422 387v199h102v-199h-102zM422 774v199h102v-199h-102zM422 1161v199h102v-199h-102zM614 0v199h103 v-199h-103zM614 387v199h103v-199h-103zM614 774v199h103v-199h-103zM614 1161v199h103v-199h-103zM809 193v200h102v-200h-102zM809 774v199h102v-199h-102zM809 1354v198h102v-198h-102z" />
<glyph unicode="&#x15e;" d="M31 0v203h104v-203h-104zM31 786v400h104v-400h-104zM227 0v203h105v-203h-105zM227 -190h105v-203h-105v203zM227 590v203h105v-203h-105zM227 1180v202h105v-202h-105zM424 -197v400h104v-400h-104zM424 590v203h104v-203h-104zM424 1180v202h104v-202h-104zM621 0v203 h104v-203h-104zM621 590v203h104v-203h-104zM621 1180v202h104v-202h-104zM817 197v399h105v-399h-105zM817 1180v202h105v-202h-105z" />
<glyph unicode="&#x15f;" d="M35 0v199h102v-199h-102zM35 580v200h102v-200h-102zM227 0v199h103v-199h-103zM227 -188h103v-199h-103v199zM227 387v199h103v-199h-103zM227 774v199h103v-199h-103zM422 -193v392h102v-392h-102zM422 387v199h102v-199h-102zM422 774v199h102v-199h-102zM614 0v199 h103v-199h-103zM614 387v199h103v-199h-103zM614 774v199h103v-199h-103zM809 193v200h102v-200h-102zM809 774v199h102v-199h-102z" />
<glyph unicode="&#x160;" d="M31 0v203h104v-203h-104zM31 786v400h104v-400h-104zM227 0v203h105v-203h-105zM227 590v203h105v-203h-105zM227 1180v202h105v-202h-105zM227 1819v202h105v-202h-105zM424 0v203h104v-203h-104zM424 590v203h104v-203h-104zM424 1180v202h104v-202h-104zM424 1622v203 h104v-203h-104zM621 0v203h104v-203h-104zM621 590v203h104v-203h-104zM621 1180v202h104v-202h-104zM621 1819v202h104v-202h-104zM817 197v399h105v-399h-105zM817 1180v202h105v-202h-105z" />
<glyph unicode="&#x161;" d="M35 0v199h102v-199h-102zM35 580v200h102v-200h-102zM227 0v199h103v-199h-103zM227 387v199h103v-199h-103zM227 774v199h103v-199h-103zM227 1354v198h103v-198h-103zM422 0v199h102v-199h-102zM422 387v199h102v-199h-102zM422 774v199h102v-199h-102zM422 1161v199 h102v-199h-102zM614 0v199h103v-199h-103zM614 387v199h103v-199h-103zM614 774v199h103v-199h-103zM614 1354v198h103v-198h-103zM809 193v200h102v-200h-102zM809 774v199h102v-199h-102z" />
<glyph unicode="&#x162;" d="M31 1180v202h104v-202h-104zM227 -190h105v-203h-105v203zM227 1180v202h105v-202h-105zM424 -197v1579h104v-1579h-104zM621 1180v202h104v-202h-104zM817 1180v202h105v-202h-105z" />
<glyph unicode="&#x163;" d="M35 774v199h102v-199h-102zM227 -188h103v-199h-103v199zM227 774v199h103v-199h-103zM422 6h102v-199h-102v199zM422 193v972h102v-972h-102zM614 0v199h103v-199h-103zM614 774v199h103v-199h-103zM809 0v199h102v-199h-102zM809 774v199h102v-199h-102z" />
<glyph unicode="&#x164;" d="M31 1180v202h104v-202h-104zM227 1180v202h105v-202h-105zM227 1819v202h105v-202h-105zM424 0v1382h104v-1382h-104zM424 1622v203h104v-203h-104zM621 1180v202h104v-202h-104zM621 1819v202h104v-202h-104zM817 1180v202h105v-202h-105z" />
<glyph unicode="&#x165;" d="M35 774v199h102v-199h-102zM227 193v972h103v-972h-103zM422 0v199h102v-199h-102zM614 774v199h103v-199h-103zM809 967v393h102v-393h-102z" />
<glyph unicode="&#x16a;" d="M31 197v1185h104v-1185h-104zM227 0v203h105v-203h-105zM227 1622v203h105v-203h-105zM424 0v203h104v-203h-104zM424 1622v203h104v-203h-104zM621 0v203h104v-203h-104zM621 1622v203h104v-203h-104zM817 197v1185h105v-1185h-105z" />
<glyph unicode="&#x16b;" d="M35 193v780h102v-780h-102zM227 0v199h103v-199h-103zM227 1161v199h103v-199h-103zM422 0v199h102v-199h-102zM422 1161v199h102v-199h-102zM614 193v200h103v-200h-103zM614 1161v199h103v-199h-103zM809 0v973h102v-973h-102z" />
<glyph unicode="&#x16e;" d="M31 197v1185h104v-1185h-104zM227 0v203h105v-203h-105zM227 1819v202h105v-202h-105zM424 0v203h104v-203h-104zM424 1622v203h104v-203h-104zM424 2015v203h104v-203h-104zM621 0v203h104v-203h-104zM621 1819v202h104v-202h-104zM817 197v1185h105v-1185h-105z" />
<glyph unicode="&#x16f;" d="M35 193v780h102v-780h-102zM227 0v199h103v-199h-103zM227 1354v198h103v-198h-103zM422 0v199h102v-199h-102zM422 1161v199h102v-199h-102zM422 1546v201h102v-201h-102zM614 193v200h103v-200h-103zM614 1354v198h103v-198h-103zM809 0v973h102v-973h-102z" />
<glyph unicode="&#x170;" d="M31 197v1185h104v-1185h-104zM227 0v203h105v-203h-105zM227 1622v203h105v-203h-105zM424 0v203h104v-203h-104zM424 1819v202h104v-202h-104zM621 0v203h104v-203h-104zM621 1622v203h104v-203h-104zM817 197v1185h105v-1185h-105zM817 1819v202h105v-202h-105z" />
<glyph unicode="&#x171;" d="M35 193v780h102v-780h-102zM227 0v199h103v-199h-103zM227 1161v199h103v-199h-103zM422 0v199h102v-199h-102zM422 1354v198h102v-198h-102zM614 193v200h103v-200h-103zM614 1161v199h103v-199h-103zM809 0v973h102v-973h-102zM809 1354v198h102v-198h-102z" />
<glyph unicode="&#x172;" d="M31 197v1185h104v-1185h-104zM227 0v203h105v-203h-105zM424 -197v400h104v-400h-104zM621 0v203h104v-203h-104zM621 -190h104v-203h-104v203zM817 197v1185h105v-1185h-105z" />
<glyph unicode="&#x173;" d="M35 193v780h102v-780h-102zM227 0v199h103v-199h-103zM422 0v199h102v-199h-102zM614 6h103v-199h-103v199zM614 193v200h103v-200h-103zM809 0v973h102v-973h-102zM809 -188h102v-199h-102v199z" />
<glyph unicode="&#x178;" d="M31 786v596h104v-596h-104zM31 1622v399h104v-399h-104zM227 590v203h105v-203h-105zM424 0v596h104v-596h-104zM621 590v203h104v-203h-104zM817 786v596h105v-596h-105zM817 1622v399h105v-399h-105z" />
<glyph unicode="&#x179;" d="M31 0v399h104v-399h-104zM31 1180v202h104v-202h-104zM227 0v203h105v-203h-105zM227 393v203h105v-203h-105zM227 1180v202h105v-202h-105zM227 1622v203h105v-203h-105zM424 0v203h104v-203h-104zM424 590v203h104v-203h-104zM424 1180v202h104v-202h-104zM424 1622 v203h104v-203h-104zM621 0v203h104v-203h-104zM621 786v203h104v-203h-104zM621 1180v202h104v-202h-104zM621 1819v202h104v-202h-104zM817 0v203h105v-203h-105zM817 983v399h105v-399h-105z" />
<glyph unicode="&#x17a;" d="M35 0v199h102v-199h-102zM35 774v199h102v-199h-102zM227 0v393h103v-393h-103zM227 774v199h103v-199h-103zM227 1161v199h103v-199h-103zM422 0v199h102v-199h-102zM422 387v199h102v-199h-102zM422 774v199h102v-199h-102zM422 1161v199h102v-199h-102zM614 0v199h103 v-199h-103zM614 580v393h103v-393h-103zM614 1354v198h103v-198h-103zM809 0v199h102v-199h-102zM809 774v199h102v-199h-102z" />
<glyph unicode="&#x17b;" d="M31 0v399h104v-399h-104zM31 1180v202h104v-202h-104zM227 0v203h105v-203h-105zM227 393v203h105v-203h-105zM227 1180v202h105v-202h-105zM424 0v203h104v-203h-104zM424 590v203h104v-203h-104zM424 1180v202h104v-202h-104zM424 1622v203h104v-203h-104zM621 0v203 h104v-203h-104zM621 786v203h104v-203h-104zM621 1180v202h104v-202h-104zM817 0v203h105v-203h-105zM817 983v399h105v-399h-105z" />
<glyph unicode="&#x17c;" d="M35 0v199h102v-199h-102zM35 774v199h102v-199h-102zM227 0v393h103v-393h-103zM227 774v199h103v-199h-103zM422 0v199h102v-199h-102zM422 387v199h102v-199h-102zM422 774v199h102v-199h-102zM422 1161v199h102v-199h-102zM614 0v199h103v-199h-103zM614 580v393h103 v-393h-103zM809 0v199h102v-199h-102zM809 774v199h102v-199h-102z" />
<glyph unicode="&#x17d;" d="M31 0v399h104v-399h-104zM31 1180v202h104v-202h-104zM227 0v203h105v-203h-105zM227 393v203h105v-203h-105zM227 1180v202h105v-202h-105zM227 1819v202h105v-202h-105zM424 0v203h104v-203h-104zM424 590v203h104v-203h-104zM424 1180v202h104v-202h-104zM424 1622 v203h104v-203h-104zM621 0v203h104v-203h-104zM621 786v203h104v-203h-104zM621 1180v202h104v-202h-104zM621 1819v202h104v-202h-104zM817 0v203h105v-203h-105zM817 983v399h105v-399h-105z" />
<glyph unicode="&#x17e;" d="M35 0v199h102v-199h-102zM35 774v199h102v-199h-102zM227 0v393h103v-393h-103zM227 774v199h103v-199h-103zM227 1354v198h103v-198h-103zM422 0v199h102v-199h-102zM422 387v199h102v-199h-102zM422 774v199h102v-199h-102zM422 1161v199h102v-199h-102zM614 0v199h103 v-199h-103zM614 580v393h103v-393h-103zM614 1354v198h103v-198h-103zM809 0v199h102v-199h-102zM809 774v199h102v-199h-102z" />
<glyph unicode="&#x192;" d="M35 -188h102v-199h-102v199zM227 -188h103v-199h-103v199zM227 774v199h103v-199h-103zM422 -193v1358h102v-1358h-102zM614 774v199h103v-199h-103zM614 1161v199h103v-199h-103zM809 774v199h102v-199h-102zM809 1161v199h102v-199h-102z" />
<glyph unicode="&#x218;" d="M31 0v203h104v-203h-104zM31 -190h104v-203h-104v203zM31 786v400h104v-400h-104zM227 -197v400h105v-400h-105zM227 590v203h105v-203h-105zM227 1180v202h105v-202h-105zM424 0v203h104v-203h-104zM424 590v203h104v-203h-104zM424 1180v202h104v-202h-104zM621 0v203 h104v-203h-104zM621 590v203h104v-203h-104zM621 1180v202h104v-202h-104zM817 197v399h105v-399h-105zM817 1180v202h105v-202h-105z" />
<glyph unicode="&#x219;" d="M35 0v199h102v-199h-102zM35 580v200h102v-200h-102zM227 0v199h103v-199h-103zM227 -188h103v-199h-103v199zM227 387v199h103v-199h-103zM227 774v199h103v-199h-103zM422 -193v392h102v-392h-102zM422 387v199h102v-199h-102zM422 774v199h102v-199h-102zM614 0v199 h103v-199h-103zM614 387v199h103v-199h-103zM614 774v199h103v-199h-103zM809 193v200h102v-200h-102zM809 774v199h102v-199h-102z" />
<glyph unicode="&#x2c6;" d="M227 1161v199h103v-199h-103zM422 1354v198h102v-198h-102zM614 1161v199h103v-199h-103z" />
<glyph unicode="&#x2c7;" d="M227 1354v198h103v-198h-103zM422 1161v199h102v-199h-102zM614 1354v198h103v-198h-103z" />
<glyph unicode="&#x2d8;" d="M227 1356v198h103v-198h-103zM422 1163v199h102v-199h-102zM614 1356v198h103v-198h-103z" />
<glyph unicode="&#x2d9;" d="M422 1161v199h102v-199h-102z" />
<glyph unicode="&#x2da;" d="M227 1354v198h103v-198h-103zM422 1161v199h102v-199h-102zM422 1546v201h102v-201h-102zM614 1354v198h103v-198h-103z" />
<glyph unicode="&#x2db;" d="M424 6h102v-199h-102v199zM618 -188h103v-199h-103v199z" />
<glyph unicode="&#x2dc;" d="M35 1161v199h102v-199h-102zM227 1354v198h103v-198h-103zM422 1161v199h102v-199h-102zM614 1161v199h103v-199h-103zM809 1354v198h102v-198h-102z" />
<glyph unicode="&#x2dd;" d="M231 1161v199h103v-199h-103zM424 1354v198h102v-198h-102zM618 1161v199h103v-199h-103zM811 1354v198h102v-198h-102z" />
<glyph unicode="&#x384;" d="M27 1161v199h102v-199h-102zM219 1354v198h103v-198h-103z" />
<glyph unicode="&#x385;" d="M35 1161v391h102v-391h-102zM422 1161v586h102v-586h-102zM809 1161v391h102v-391h-102z" />
<glyph unicode="&#x386;" d="M31 786v596h104v-596h-104zM424 0v1186h104v-1186h-104zM621 393v203h104v-203h-104zM621 1180v202h104v-202h-104zM817 0v1186h105v-1186h-105z" />
<glyph unicode="&#x388;" d="M31 786v596h104v-596h-104zM424 0v1382h104v-1382h-104zM621 0v203h104v-203h-104zM621 590v203h104v-203h-104zM621 1180v202h104v-202h-104zM817 0v203h105v-203h-105zM817 1180v202h105v-202h-105z" />
<glyph unicode="&#x389;" d="M31 786v596h104v-596h-104zM424 0v1382h104v-1382h-104zM621 590v203h104v-203h-104zM817 0v1382h105v-1382h-105z" />
<glyph unicode="&#x38a;" d="M31 786v596h104v-596h-104zM424 0v203h104v-203h-104zM424 1180v202h104v-202h-104zM621 0v1382h104v-1382h-104zM817 0v203h105v-203h-105zM817 1180v202h105v-202h-105z" />
<glyph unicode="&#x38c;" d="M31 786v596h104v-596h-104zM424 197v989h104v-989h-104zM621 0v203h104v-203h-104zM621 1180v202h104v-202h-104zM817 197v989h105v-989h-105z" />
<glyph unicode="&#x38e;" d="M31 786v596h104v-596h-104zM424 786v596h104v-596h-104zM621 0v793h104v-793h-104zM817 786v596h105v-596h-105z" />
<glyph unicode="&#x38f;" d="M31 786v596h104v-596h-104zM424 0v203h104v-203h-104zM424 590v596h104v-596h-104zM621 0v203h104v-203h-104zM621 393v203h104v-203h-104zM621 1180v202h104v-202h-104zM817 0v203h105v-203h-105zM817 590v596h105v-596h-105z" />
<glyph unicode="&#x390;" d="M35 0v199h102v-199h-102zM35 774v199h102v-199h-102zM35 1161v391h102v-391h-102zM227 0v199h103v-199h-103zM227 774v199h103v-199h-103zM422 0v973h102v-973h-102zM422 1161v586h102v-586h-102zM614 0v199h103v-199h-103zM809 0v199h102v-199h-102zM809 1161v391h102 v-391h-102z" />
<glyph unicode="&#x391;" d="M31 0v1186h104v-1186h-104zM227 393v203h105v-203h-105zM227 1180v202h105v-202h-105zM424 393v203h104v-203h-104zM424 1180v202h104v-202h-104zM621 393v203h104v-203h-104zM621 1180v202h104v-202h-104zM817 0v1186h105v-1186h-105z" />
<glyph unicode="&#x392;" d="M31 0v1382h104v-1382h-104zM227 0v203h105v-203h-105zM227 590v203h105v-203h-105zM227 1180v202h105v-202h-105zM424 0v203h104v-203h-104zM424 590v203h104v-203h-104zM424 1180v202h104v-202h-104zM621 0v203h104v-203h-104zM621 590v203h104v-203h-104zM621 1180v202 h104v-202h-104zM817 197v399h105v-399h-105zM817 786v400h105v-400h-105z" />
<glyph unicode="&#x393;" d="M31 0v1382h104v-1382h-104zM227 1180v202h105v-202h-105zM424 1180v202h104v-202h-104zM621 1180v202h104v-202h-104zM817 1180v202h105v-202h-105z" />
<glyph unicode="&#x394;" d="M31 0v1186h104v-1186h-104zM227 0v203h105v-203h-105zM227 1180v202h105v-202h-105zM424 0v203h104v-203h-104zM424 1180v202h104v-202h-104zM621 0v203h104v-203h-104zM621 1180v202h104v-202h-104zM817 0v1186h105v-1186h-105z" />
<glyph unicode="&#x395;" d="M31 0v1382h104v-1382h-104zM227 0v203h105v-203h-105zM227 590v203h105v-203h-105zM227 1180v202h105v-202h-105zM424 0v203h104v-203h-104zM424 590v203h104v-203h-104zM424 1180v202h104v-202h-104zM621 0v203h104v-203h-104zM621 590v203h104v-203h-104zM621 1180v202 h104v-202h-104zM817 0v203h105v-203h-105zM817 1180v202h105v-202h-105z" />
<glyph unicode="&#x396;" d="M31 0v399h104v-399h-104zM31 1180v202h104v-202h-104zM227 0v203h105v-203h-105zM227 393v203h105v-203h-105zM227 1180v202h105v-202h-105zM424 0v203h104v-203h-104zM424 590v203h104v-203h-104zM424 1180v202h104v-202h-104zM621 0v203h104v-203h-104zM621 786v203 h104v-203h-104zM621 1180v202h104v-202h-104zM817 0v203h105v-203h-105zM817 983v399h105v-399h-105z" />
<glyph unicode="&#x397;" d="M31 0v1382h104v-1382h-104zM227 590v203h105v-203h-105zM424 590v203h104v-203h-104zM621 590v203h104v-203h-104zM817 0v1382h105v-1382h-105z" />
<glyph unicode="&#x398;" d="M31 197v989h104v-989h-104zM227 0v203h105v-203h-105zM227 590v203h105v-203h-105zM227 1180v202h105v-202h-105zM424 0v203h104v-203h-104zM424 590v203h104v-203h-104zM424 1180v202h104v-202h-104zM621 0v203h104v-203h-104zM621 590v203h104v-203h-104zM621 1180v202 h104v-202h-104zM817 197v989h105v-989h-105z" />
<glyph unicode="&#x399;" d="M31 0v203h104v-203h-104zM31 1180v202h104v-202h-104zM227 0v203h105v-203h-105zM227 1180v202h105v-202h-105zM424 0v1382h104v-1382h-104zM621 0v203h104v-203h-104zM621 1180v202h104v-202h-104zM817 0v203h105v-203h-105zM817 1180v202h105v-202h-105z" />
<glyph unicode="&#x39a;" d="M31 0v1382h104v-1382h-104zM227 590v203h105v-203h-105zM424 590v203h104v-203h-104zM621 393v203h104v-203h-104zM621 786v203h104v-203h-104zM817 0v399h105v-399h-105zM817 983v399h105v-399h-105z" />
<glyph unicode="&#x39b;" d="M31 0v1186h104v-1186h-104zM227 1180v202h105v-202h-105zM424 1180v202h104v-202h-104zM621 1180v202h104v-202h-104zM817 0v1186h105v-1186h-105z" />
<glyph unicode="&#x39c;" d="M31 0v1382h104v-1382h-104zM227 786v400h105v-400h-105zM424 393v400h104v-400h-104zM621 786v400h104v-400h-104zM817 0v1382h105v-1382h-105z" />
<glyph unicode="&#x39d;" d="M31 0v1382h104v-1382h-104zM227 983v203h105v-203h-105zM424 590v399h104v-399h-104zM621 393v203h104v-203h-104zM817 0v1382h105v-1382h-105z" />
<glyph unicode="&#x39e;" d="M31 0v203h104v-203h-104zM31 1180v202h104v-202h-104zM227 0v203h105v-203h-105zM227 590v203h105v-203h-105zM227 1180v202h105v-202h-105zM424 0v1382h104v-1382h-104zM621 0v203h104v-203h-104zM621 590v203h104v-203h-104zM621 1180v202h104v-202h-104zM817 0v203 h105v-203h-105zM817 1180v202h105v-202h-105z" />
<glyph unicode="&#x39f;" d="M31 197v989h104v-989h-104zM227 0v203h105v-203h-105zM227 1180v202h105v-202h-105zM424 0v203h104v-203h-104zM424 1180v202h104v-202h-104zM621 0v203h104v-203h-104zM621 1180v202h104v-202h-104zM817 197v989h105v-989h-105z" />
<glyph unicode="&#x3a0;" d="M31 0v1382h104v-1382h-104zM227 1180v202h105v-202h-105zM424 1180v202h104v-202h-104zM621 1180v202h104v-202h-104zM817 0v1382h105v-1382h-105z" />
<glyph unicode="&#x3a1;" d="M31 0v1382h104v-1382h-104zM227 393v203h105v-203h-105zM227 1180v202h105v-202h-105zM424 393v203h104v-203h-104zM424 1180v202h104v-202h-104zM621 393v203h104v-203h-104zM621 1180v202h104v-202h-104zM817 590v596h105v-596h-105z" />
<glyph unicode="&#x3a3;" d="M31 0v399h104v-399h-104zM31 983v399h104v-399h-104zM227 0v203h105v-203h-105zM227 393v203h105v-203h-105zM227 786v203h105v-203h-105zM227 1180v202h105v-202h-105zM424 0v203h104v-203h-104zM424 590v203h104v-203h-104zM424 1180v202h104v-202h-104zM621 0v203h104 v-203h-104zM621 1180v202h104v-202h-104zM817 0v203h105v-203h-105zM817 1180v202h105v-202h-105z" />
<glyph unicode="&#x3a4;" d="M31 1180v202h104v-202h-104zM227 1180v202h105v-202h-105zM424 0v1382h104v-1382h-104zM621 1180v202h104v-202h-104zM817 1180v202h105v-202h-105z" />
<glyph unicode="&#x3a5;" d="M31 786v596h104v-596h-104zM227 590v203h105v-203h-105zM424 0v596h104v-596h-104zM621 590v203h104v-203h-104zM817 786v596h105v-596h-105z" />
<glyph unicode="&#x3a6;" d="M31 393v596h104v-596h-104zM227 197v202h105v-202h-105zM227 983v203h105v-203h-105zM424 0v1382h104v-1382h-104zM621 197v202h104v-202h-104zM621 983v203h104v-203h-104zM817 393v596h105v-596h-105z" />
<glyph unicode="&#x3a7;" d="M31 0v399h104v-399h-104zM31 983v399h104v-399h-104zM227 393v203h105v-203h-105zM227 786v203h105v-203h-105zM424 590v203h104v-203h-104zM621 393v203h104v-203h-104zM621 786v203h104v-203h-104zM817 0v399h105v-399h-105zM817 983v399h105v-399h-105z" />
<glyph unicode="&#x3a8;" d="M31 590v792h104v-792h-104zM227 393v203h105v-203h-105zM424 0v1382h104v-1382h-104zM621 393v203h104v-203h-104zM817 590v792h105v-792h-105z" />
<glyph unicode="&#x3a9;" d="M31 0v203h104v-203h-104zM31 590v596h104v-596h-104zM227 0v203h105v-203h-105zM227 393v203h105v-203h-105zM227 1180v202h105v-202h-105zM424 0v203h104v-203h-104zM424 393v203h104v-203h-104zM424 1180v202h104v-202h-104zM621 0v203h104v-203h-104zM621 393v203h104 v-203h-104zM621 1180v202h104v-202h-104zM817 0v203h105v-203h-105zM817 590v596h105v-596h-105z" />
<glyph unicode="&#x3aa;" d="M31 0v203h104v-203h-104zM31 1180v202h104v-202h-104zM31 1622v399h104v-399h-104zM227 0v203h105v-203h-105zM227 1180v202h105v-202h-105zM424 0v1382h104v-1382h-104zM621 0v203h104v-203h-104zM621 1180v202h104v-202h-104zM817 0v203h105v-203h-105zM817 1180v202 h105v-202h-105zM817 1622v399h105v-399h-105z" />
<glyph unicode="&#x3ab;" d="M31 786v596h104v-596h-104zM31 1622v399h104v-399h-104zM227 590v203h105v-203h-105zM424 0v596h104v-596h-104zM621 590v203h104v-203h-104zM817 786v596h105v-596h-105zM817 1622v399h105v-399h-105z" />
<glyph unicode="&#x3ac;" d="M35 193v587h102v-587h-102zM227 0v199h103v-199h-103zM227 774v199h103v-199h-103zM422 0v199h102v-199h-102zM422 774v199h102v-199h-102zM422 1161v199h102v-199h-102zM614 193v200h103v-200h-103zM614 580v200h103v-200h-103zM614 1354v198h103v-198h-103zM809 0v973 h102v-973h-102z" />
<glyph unicode="&#x3ad;" d="M35 193v200h102v-200h-102zM35 580v200h102v-200h-102zM227 0v199h103v-199h-103zM227 387v199h103v-199h-103zM227 774v199h103v-199h-103zM422 0v199h102v-199h-102zM422 387v199h102v-199h-102zM422 774v199h102v-199h-102zM422 1161v199h102v-199h-102zM614 0v199 h103v-199h-103zM614 387v199h103v-199h-103zM614 774v199h103v-199h-103zM614 1354v198h103v-198h-103zM809 0v199h102v-199h-102zM809 774v199h102v-199h-102z" />
<glyph unicode="&#x3ae;" d="M35 0v973h102v-973h-102zM227 580v200h103v-200h-103zM422 774v199h102v-199h-102zM422 1161v199h102v-199h-102zM614 774v199h103v-199h-103zM614 1354v198h103v-198h-103zM809 -387v1167h102v-1167h-102z" />
<glyph unicode="&#x3af;" d="M35 0v199h102v-199h-102zM35 774v199h102v-199h-102zM227 0v199h103v-199h-103zM227 774v199h103v-199h-103zM422 0v973h102v-973h-102zM422 1161v199h102v-199h-102zM614 0v199h103v-199h-103zM614 1354v198h103v-198h-103zM809 0v199h102v-199h-102z" />
<glyph unicode="&#x3b0;" d="M35 193v780h102v-780h-102zM35 1161v391h102v-391h-102zM227 0v199h103v-199h-103zM422 0v199h102v-199h-102zM422 1161v586h102v-586h-102zM614 0v199h103v-199h-103zM809 193v780h102v-780h-102zM809 1161v391h102v-391h-102z" />
<glyph unicode="&#x3b1;" d="M35 193v587h102v-587h-102zM227 0v199h103v-199h-103zM227 774v199h103v-199h-103zM422 0v199h102v-199h-102zM422 774v199h102v-199h-102zM614 193v200h103v-200h-103zM614 580v200h103v-200h-103zM809 0v973h102v-973h-102z" />
<glyph unicode="&#x3b2;" d="M35 -387v1552h102v-1552h-102zM227 0v199h103v-199h-103zM227 1161v199h103v-199h-103zM422 0v199h102v-199h-102zM422 580v200h102v-200h-102zM422 1161v199h102v-199h-102zM614 0v199h103v-199h-103zM614 580v200h103v-200h-103zM614 1161v199h103v-199h-103zM809 193 v393h102v-393h-102zM809 774v391h102v-391h-102z" />
<glyph unicode="&#x3b3;" d="M35 580v393h102v-393h-102zM227 193v393h103v-393h-103zM422 199h102v-586h-102v586zM614 193v200h103v-200h-103zM809 387v586h102v-586h-102z" />
<glyph unicode="&#x3b4;" d="M33 967v198h102v-198h-102zM35 193v587h102v-587h-102zM225 774v199h105v-199h-105zM227 0v199h103v-199h-103zM227 1161v199h103v-199h-103zM420 774v199h102v-199h-102zM422 0v199h102v-199h-102zM422 1161v199h102v-199h-102zM614 0v199h103v-199h-103zM614 774v199 h103v-199h-103zM614 1161v199h103v-199h-103zM809 193v587h102v-587h-102z" />
<glyph unicode="&#x3b5;" d="M35 193v200h102v-200h-102zM35 580v200h102v-200h-102zM227 0v199h103v-199h-103zM227 387v199h103v-199h-103zM227 774v199h103v-199h-103zM422 0v199h102v-199h-102zM422 387v199h102v-199h-102zM422 774v199h102v-199h-102zM614 0v199h103v-199h-103zM614 387v199h103 v-199h-103zM614 774v199h103v-199h-103zM809 0v199h102v-199h-102zM809 774v199h102v-199h-102z" />
<glyph unicode="&#x3b6;" d="M35 193v587h102v-587h-102zM227 0v199h103v-199h-103zM227 774v199h103v-199h-103zM227 1161v199h103v-199h-103zM422 0v199h102v-199h-102zM422 774v199h102v-199h-102zM422 1161v199h102v-199h-102zM596 -188h102v-199h-102v199zM614 0v199h103v-199h-103zM614 774v199 h103v-199h-103zM614 1161v199h103v-199h-103zM809 -193v392h102v-392h-102zM809 967v198h102v-198h-102z" />
<glyph unicode="&#x3b7;" d="M35 0v973h102v-973h-102zM227 580v200h103v-200h-103zM422 774v199h102v-199h-102zM614 774v199h103v-199h-103zM809 -387v1167h102v-1167h-102z" />
<glyph unicode="&#x3b8;" d="M35 580v200h102v-200h-102zM227 193v972h103v-972h-103zM422 0v199h102v-199h-102zM422 580v200h102v-200h-102zM422 1161v199h102v-199h-102zM614 193v972h103v-972h-103zM809 580v200h102v-200h-102z" />
<glyph unicode="&#x3b9;" d="M35 0v199h102v-199h-102zM35 774v199h102v-199h-102zM227 0v199h103v-199h-103zM227 774v199h103v-199h-103zM422 0v973h102v-973h-102zM614 0v199h103v-199h-103zM809 0v199h102v-199h-102z" />
<glyph unicode="&#x3ba;" d="M35 0v973h102v-973h-102zM227 387v199h103v-199h-103zM422 387v199h102v-199h-102zM614 193v200h103v-200h-103zM614 580v200h103v-200h-103zM809 0v199h102v-199h-102zM809 774v199h102v-199h-102z" />
<glyph unicode="&#x3bb;" d="M35 0v780h102v-780h-102zM227 774v199h103v-199h-103zM227 1161v199h103v-199h-103zM422 774v199h102v-199h-102zM422 1161v199h102v-199h-102zM614 774v199h103v-199h-103zM614 1161v199h103v-199h-103zM809 0v1165h102v-1165h-102z" />
<glyph unicode="&#x3bc;" d="M35 -387v1360h102v-1360h-102zM227 0v199h103v-199h-103zM422 0v199h102v-199h-102zM614 193v200h103v-200h-103zM809 0v973h102v-973h-102z" />
<glyph unicode="&#x3bd;" d="M35 580v393h102v-393h-102zM227 193v393h103v-393h-103zM422 0v199h102v-199h-102zM614 193v200h103v-200h-103zM809 387v586h102v-586h-102z" />
<glyph unicode="&#x3be;" d="M35 193v393h102v-393h-102zM35 774v391h102v-391h-102zM227 0v199h103v-199h-103zM227 580v200h103v-200h-103zM227 1161v199h103v-199h-103zM422 0v199h102v-199h-102zM422 580v200h102v-200h-102zM422 1161v199h102v-199h-102zM614 0v199h103v-199h-103zM614 -188h103 v-199h-103v199zM614 580v200h103v-200h-103zM614 1161v199h103v-199h-103zM809 -193v392h102v-392h-102zM809 1161v199h102v-199h-102z" />
<glyph unicode="&#x3bf;" d="M35 193v587h102v-587h-102zM227 0v199h103v-199h-103zM227 774v199h103v-199h-103zM422 0v199h102v-199h-102zM422 774v199h102v-199h-102zM614 0v199h103v-199h-103zM614 774v199h103v-199h-103zM809 193v587h102v-587h-102z" />
<glyph unicode="&#x3c0;" d="M35 0v973h102v-973h-102zM227 774v199h103v-199h-103zM422 774v199h102v-199h-102zM614 774v199h103v-199h-103zM809 0v973h102v-973h-102z" />
<glyph unicode="&#x3c1;" d="M35 -387v1167h102v-1167h-102zM227 0v199h103v-199h-103zM227 774v199h103v-199h-103zM422 0v199h102v-199h-102zM422 774v199h102v-199h-102zM614 0v199h103v-199h-103zM614 774v199h103v-199h-103zM809 193v587h102v-587h-102z" />
<glyph unicode="&#x3c2;" d="M35 193v587h102v-587h-102zM227 0v199h103v-199h-103zM227 774v199h103v-199h-103zM422 0v199h102v-199h-102zM422 774v199h102v-199h-102zM614 0v199h103v-199h-103zM614 -188h103v-199h-103v199zM614 774v199h103v-199h-103zM788 6h103v-199h-103v199zM809 774v199h102 v-199h-102z" />
<glyph unicode="&#x3c3;" d="M35 193v587h102v-587h-102zM227 0v199h103v-199h-103zM227 774v199h103v-199h-103zM422 0v199h102v-199h-102zM422 774v199h102v-199h-102zM614 0v199h103v-199h-103zM614 580v393h103v-393h-103zM809 193v393h102v-393h-102zM809 774v199h102v-199h-102z" />
<glyph unicode="&#x3c4;" d="M35 774v199h102v-199h-102zM227 774v199h103v-199h-103zM422 193v780h102v-780h-102zM614 0v199h103v-199h-103zM614 774v199h103v-199h-103zM809 0v199h102v-199h-102zM809 774v199h102v-199h-102z" />
<glyph unicode="&#x3c5;" d="M35 193v780h102v-780h-102zM227 0v199h103v-199h-103zM422 0v199h102v-199h-102zM614 0v199h103v-199h-103zM809 193v780h102v-780h-102z" />
<glyph unicode="&#x3c6;" d="M35 193v587h102v-587h-102zM227 0v199h103v-199h-103zM227 774v199h103v-199h-103zM422 -387v1747h102v-1747h-102zM614 0v199h103v-199h-103zM614 774v199h103v-199h-103zM809 193v587h102v-587h-102z" />
<glyph unicode="&#x3c7;" d="M35 6h102v-393h-102v393zM35 580v393h102v-393h-102zM227 0v199h103v-199h-103zM227 387v199h103v-199h-103zM422 193v200h102v-200h-102zM614 0v199h103v-199h-103zM614 387v199h103v-199h-103zM809 6h102v-393h-102v393zM809 580v393h102v-393h-102z" />
<glyph unicode="&#x3c8;" d="M35 193v780h102v-780h-102zM227 0v199h103v-199h-103zM422 -387v1552h102v-1552h-102zM614 0v199h103v-199h-103zM809 193v780h102v-780h-102z" />
<glyph unicode="&#x3c9;" d="M35 193v780h102v-780h-102zM227 0v199h103v-199h-103zM422 193v587h102v-587h-102zM614 0v199h103v-199h-103zM809 193v780h102v-780h-102z" />
<glyph unicode="&#x3ca;" d="M35 0v199h102v-199h-102zM35 774v199h102v-199h-102zM35 1161v391h102v-391h-102zM227 0v199h103v-199h-103zM227 774v199h103v-199h-103zM422 0v973h102v-973h-102zM614 0v199h103v-199h-103zM809 0v199h102v-199h-102zM809 1161v391h102v-391h-102z" />
<glyph unicode="&#x3cb;" d="M35 193v780h102v-780h-102zM35 1161v391h102v-391h-102zM227 0v199h103v-199h-103zM422 0v199h102v-199h-102zM614 0v199h103v-199h-103zM809 193v780h102v-780h-102zM809 1161v391h102v-391h-102z" />
<glyph unicode="&#x3cc;" d="M35 193v587h102v-587h-102zM227 0v199h103v-199h-103zM227 774v199h103v-199h-103zM422 0v199h102v-199h-102zM422 774v199h102v-199h-102zM422 1161v199h102v-199h-102zM614 0v199h103v-199h-103zM614 774v199h103v-199h-103zM614 1354v198h103v-198h-103zM809 193v587 h102v-587h-102z" />
<glyph unicode="&#x3cd;" d="M35 193v780h102v-780h-102zM227 0v199h103v-199h-103zM422 0v199h102v-199h-102zM422 1161v199h102v-199h-102zM614 0v199h103v-199h-103zM614 1354v198h103v-198h-103zM809 193v780h102v-780h-102z" />
<glyph unicode="&#x3ce;" d="M35 193v780h102v-780h-102zM227 0v199h103v-199h-103zM422 193v587h102v-587h-102zM422 1161v199h102v-199h-102zM614 0v199h103v-199h-103zM614 1354v198h103v-198h-103zM809 193v780h102v-780h-102z" />
<glyph unicode="&#x2000;" horiz-adv-x="1107" />
<glyph unicode="&#x2001;" horiz-adv-x="2217" />
<glyph unicode="&#x2002;" horiz-adv-x="1107" />
<glyph unicode="&#x2003;" horiz-adv-x="2217" />
<glyph unicode="&#x2004;" horiz-adv-x="739" />
<glyph unicode="&#x2005;" horiz-adv-x="552" />
<glyph unicode="&#x2006;" horiz-adv-x="368" />
<glyph unicode="&#x2007;" horiz-adv-x="368" />
<glyph unicode="&#x2008;" horiz-adv-x="276" />
<glyph unicode="&#x2009;" horiz-adv-x="442" />
<glyph unicode="&#x200a;" horiz-adv-x="122" />
<glyph unicode="&#x2010;" d="M227 387v199h103v-199h-103zM422 387v199h102v-199h-102zM614 387v199h103v-199h-103z" />
<glyph unicode="&#x2011;" d="M227 387v199h103v-199h-103zM422 387v199h102v-199h-102zM614 387v199h103v-199h-103z" />
<glyph unicode="&#x2012;" d="M227 387v199h103v-199h-103zM422 387v199h102v-199h-102zM614 387v199h103v-199h-103z" />
<glyph unicode="&#x2013;" d="M227 387v199h103v-199h-103zM422 387v199h102v-199h-102zM614 387v199h103v-199h-103z" />
<glyph unicode="&#x2014;" d="M35 387v199h102v-199h-102zM227 387v199h103v-199h-103zM422 387v199h102v-199h-102zM614 387v199h103v-199h-103zM809 387v199h102v-199h-102z" />
<glyph unicode="&#x2015;" d="M35 387v199h102v-199h-102zM227 387v199h103v-199h-103zM422 387v199h102v-199h-102zM614 387v199h103v-199h-103zM809 387v199h102v-199h-102z" />
<glyph unicode="&#x2018;" d="M424 774v391h102v-391h-102zM618 1161v199h103v-199h-103z" />
<glyph unicode="&#x2019;" d="M424 774v199h102v-199h-102zM618 967v393h103v-393h-103z" />
<glyph unicode="&#x201a;" d="M424 6h102v-199h-102v199zM618 0v393h103v-393h-103z" />
<glyph unicode="&#x201c;" d="M231 774v391h103v-391h-103zM424 1161v199h102v-199h-102zM618 774v391h103v-391h-103zM811 1161v199h102v-199h-102z" />
<glyph unicode="&#x201d;" d="M231 774v199h103v-199h-103zM424 967v393h102v-393h-102zM618 774v199h103v-199h-103zM811 967v393h102v-393h-102z" />
<glyph unicode="&#x201e;" d="M231 6h103v-199h-103v199zM424 0v393h102v-393h-102zM618 6h103v-199h-103v199zM811 0v393h102v-393h-102z" />
<glyph unicode="&#x2020;" d="M227 774v199h103v-199h-103zM422 0v1360h102v-1360h-102zM614 774v199h103v-199h-103z" />
<glyph unicode="&#x2021;" d="M227 387v199h103v-199h-103zM227 774v199h103v-199h-103zM422 0v1360h102v-1360h-102zM614 387v199h103v-199h-103zM614 774v199h103v-199h-103z" />
<glyph unicode="&#x2022;" d="M29 387v586h102v-586h-102zM223 387v586h103v-586h-103zM416 387v586h102v-586h-102z" />
<glyph unicode="&#x2026;" d="M35 0v393h102v-393h-102zM422 0v393h102v-393h-102zM809 0v393h102v-393h-102z" />
<glyph unicode="&#x202f;" horiz-adv-x="442" />
<glyph unicode="&#x2030;" d="M35 0v393h102v-393h-102zM35 967v393h102v-393h-102zM227 387v393h103v-393h-103zM422 0v393h102v-393h-102zM422 774v199h102v-199h-102zM614 967v393h103v-393h-103zM809 0v393h102v-393h-102z" />
<glyph unicode="&#x2039;" d="M227 387v199h103v-199h-103zM422 193v200h102v-200h-102zM422 580v200h102v-200h-102zM614 0v199h103v-199h-103zM614 774v199h103v-199h-103z" />
<glyph unicode="&#x203a;" d="M428 0v199h102v-199h-102zM428 774v199h102v-199h-102zM621 193v200h102v-200h-102zM621 580v200h102v-200h-102zM815 387v199h103v-199h-103z" />
<glyph unicode="&#x2044;" d="M231 0v393h103v-393h-103zM424 387v393h102v-393h-102zM618 774v199h103v-199h-103zM811 967v393h102v-393h-102z" />
<glyph unicode="&#x205f;" horiz-adv-x="552" />
<glyph unicode="&#x20ac;" d="M35 387v199h102v-199h-102zM35 774v199h102v-199h-102zM227 193v972h103v-972h-103zM422 0v199h102v-199h-102zM422 387v199h102v-199h-102zM422 774v199h102v-199h-102zM422 1161v199h102v-199h-102zM614 0v199h103v-199h-103zM614 774v199h103v-199h-103zM614 1161v199 h103v-199h-103zM809 0v199h102v-199h-102zM809 1161v199h102v-199h-102z" />
<glyph unicode="&#x2122;" d="M37 1161v199h102v-199h-102zM231 774v586h103v-586h-103zM424 1161v199h102v-199h-102zM618 774v586h103v-586h-103zM811 967v198h102v-198h-102zM1006 774v586h102v-586h-102z" />
<glyph unicode="&#x2126;" d="M31 0v203h104v-203h-104zM31 590v596h104v-596h-104zM227 0v203h105v-203h-105zM227 393v203h105v-203h-105zM227 1180v202h105v-202h-105zM424 0v203h104v-203h-104zM424 393v203h104v-203h-104zM424 1180v202h104v-202h-104zM621 0v203h104v-203h-104zM621 393v203h104 v-203h-104zM621 1180v202h104v-202h-104zM817 0v203h105v-203h-105zM817 590v596h105v-596h-105z" />
<glyph unicode="&#x2206;" d="M35 0v1165h102v-1165h-102zM227 0v199h103v-199h-103zM227 1161v199h103v-199h-103zM422 0v199h102v-199h-102zM422 1161v199h102v-199h-102zM614 0v199h103v-199h-103zM614 1161v199h103v-199h-103zM809 0v1165h102v-1165h-102z" />
<glyph unicode="&#x2248;" d="M35 193v200h102v-200h-102zM35 580v200h102v-200h-102zM227 387v199h103v-199h-103zM227 774v199h103v-199h-103zM422 193v200h102v-200h-102zM422 580v200h102v-200h-102zM614 0v199h103v-199h-103zM614 387v199h103v-199h-103zM809 193v200h102v-200h-102zM809 580v200 h102v-200h-102z" />
<glyph unicode="&#x2260;" d="M35 193v200h102v-200h-102zM35 580v200h102v-200h-102zM227 0v393h103v-393h-103zM227 580v200h103v-200h-103zM422 193v587h102v-587h-102zM614 193v200h103v-200h-103zM614 580v393h103v-393h-103zM809 193v200h102v-200h-102zM809 580v200h102v-200h-102zM809 967v393 h102v-393h-102z" />
<glyph unicode="&#x2264;" d="M35 0v199h102v-199h-102zM35 580v200h102v-200h-102zM227 0v199h103v-199h-103zM227 580v200h103v-200h-103zM422 0v199h102v-199h-102zM422 387v199h102v-199h-102zM422 774v199h102v-199h-102zM614 0v199h103v-199h-103zM614 387v199h103v-199h-103zM614 774v199h103 v-199h-103zM809 0v199h102v-199h-102zM809 387v199h102v-199h-102zM809 774v199h102v-199h-102z" />
<glyph unicode="&#x2265;" d="M35 0v199h102v-199h-102zM35 387v199h102v-199h-102zM35 774v199h102v-199h-102zM227 0v199h103v-199h-103zM227 387v199h103v-199h-103zM227 774v199h103v-199h-103zM422 0v199h102v-199h-102zM422 387v199h102v-199h-102zM422 774v199h102v-199h-102zM614 0v199h103 v-199h-103zM614 580v200h103v-200h-103zM809 0v199h102v-199h-102zM809 580v200h102v-200h-102z" />
<glyph unicode="&#xe000;" horiz-adv-x="975" d="M0 975h975v-975h-975v975z" />
<glyph d="M35 0v780h102v-780h-102zM227 387v199h103v-199h-103zM227 774v199h103v-199h-103zM422 387v199h102v-199h-102zM422 774v199h102v-199h-102zM614 387v199h103v-199h-103zM614 774v199h103v-199h-103zM809 0v780h102v-780h-102z" />
<glyph d="M35 0v973h102v-973h-102zM227 0v199h103v-199h-103zM227 387v199h103v-199h-103zM227 774v199h103v-199h-103zM422 0v199h102v-199h-102zM422 387v199h102v-199h-102zM422 774v199h102v-199h-102zM614 0v199h103v-199h-103zM614 387v199h103v-199h-103zM614 774v199h103 v-199h-103zM809 193v200h102v-200h-102zM809 580v200h102v-200h-102z" />
<glyph d="M35 193v587h102v-587h-102zM227 0v199h103v-199h-103zM227 774v199h103v-199h-103zM422 0v199h102v-199h-102zM422 774v199h102v-199h-102zM614 0v199h103v-199h-103zM614 774v199h103v-199h-103zM809 0v199h102v-199h-102zM809 774v199h102v-199h-102z" />
<glyph d="M35 0v973h102v-973h-102zM227 0v199h103v-199h-103zM227 774v199h103v-199h-103zM422 0v199h102v-199h-102zM422 774v199h102v-199h-102zM614 0v199h103v-199h-103zM614 774v199h103v-199h-103zM809 193v587h102v-587h-102z" />
<glyph d="M35 0v973h102v-973h-102zM227 0v199h103v-199h-103zM227 387v199h103v-199h-103zM227 774v199h103v-199h-103zM422 0v199h102v-199h-102zM422 387v199h102v-199h-102zM422 774v199h102v-199h-102zM614 0v199h103v-199h-103zM614 387v199h103v-199h-103zM614 774v199h103 v-199h-103zM809 0v199h102v-199h-102zM809 774v199h102v-199h-102z" />
<glyph d="M35 0v973h102v-973h-102zM227 387v199h103v-199h-103zM227 774v199h103v-199h-103zM422 387v199h102v-199h-102zM422 774v199h102v-199h-102zM614 387v199h103v-199h-103zM614 774v199h103v-199h-103zM809 774v199h102v-199h-102z" />
<glyph d="M35 193v587h102v-587h-102zM227 0v199h103v-199h-103zM227 774v199h103v-199h-103zM422 0v199h102v-199h-102zM422 774v199h102v-199h-102zM614 0v199h103v-199h-103zM614 387v199h103v-199h-103zM614 774v199h103v-199h-103zM809 0v586h102v-586h-102zM809 774v199h102 v-199h-102z" />
<glyph d="M35 0v973h102v-973h-102zM227 387v199h103v-199h-103zM422 387v199h102v-199h-102zM614 387v199h103v-199h-103zM809 0v973h102v-973h-102z" />
<glyph d="M35 0v199h102v-199h-102zM35 774v199h102v-199h-102zM227 0v199h103v-199h-103zM227 774v199h103v-199h-103zM422 0v973h102v-973h-102zM614 0v199h103v-199h-103zM614 774v199h103v-199h-103zM809 0v199h102v-199h-102zM809 774v199h102v-199h-102z" />
<glyph d="M33 193v200h102v-200h-102zM33 774v199h102v-199h-102zM225 0v199h103v-199h-103zM225 774v199h103v-199h-103zM418 0v199h104v-199h-104zM418 774v199h104v-199h-104zM612 193v780h103v-780h-103z" />
<glyph d="M35 0v973h102v-973h-102zM227 387v199h103v-199h-103zM422 387v199h102v-199h-102zM614 387v199h103v-199h-103zM809 0v393h102v-393h-102zM809 580v393h102v-393h-102z" />
<glyph d="M35 0v973h102v-973h-102zM227 0v199h103v-199h-103zM422 0v199h102v-199h-102zM614 0v199h103v-199h-103zM809 0v199h102v-199h-102z" />
<glyph d="M35 0v973h102v-973h-102zM227 580v200h103v-200h-103zM422 193v393h102v-393h-102zM614 580v200h103v-200h-103zM809 0v973h102v-973h-102z" />
<glyph d="M35 0v973h102v-973h-102zM227 580v200h103v-200h-103zM422 387v199h102v-199h-102zM614 193v200h103v-200h-103zM809 0v973h102v-973h-102z" />
<glyph d="M35 193v587h102v-587h-102zM227 0v199h103v-199h-103zM227 774v199h103v-199h-103zM422 0v199h102v-199h-102zM422 774v199h102v-199h-102zM614 0v199h103v-199h-103zM614 774v199h103v-199h-103zM809 193v587h102v-587h-102z" />
<glyph d="M35 0v973h102v-973h-102zM227 387v199h103v-199h-103zM227 774v199h103v-199h-103zM422 387v199h102v-199h-102zM422 774v199h102v-199h-102zM614 387v199h103v-199h-103zM614 774v199h103v-199h-103zM809 580v200h102v-200h-102z" />
<glyph d="M35 193v587h102v-587h-102zM227 0v199h103v-199h-103zM227 774v199h103v-199h-103zM422 -193v586h102v-586h-102zM422 774v199h102v-199h-102zM614 0v199h103v-199h-103zM614 -188h103v-199h-103v199zM614 774v199h103v-199h-103zM809 193v587h102v-587h-102z" />
<glyph d="M35 0v973h102v-973h-102zM227 387v199h103v-199h-103zM227 774v199h103v-199h-103zM422 387v199h102v-199h-102zM422 774v199h102v-199h-102zM614 193v393h103v-393h-103zM614 774v199h103v-199h-103zM809 0v199h102v-199h-102zM809 580v200h102v-200h-102z" />
<glyph d="M35 0v199h102v-199h-102zM35 580v200h102v-200h-102zM227 0v199h103v-199h-103zM227 387v199h103v-199h-103zM227 774v199h103v-199h-103zM422 0v199h102v-199h-102zM422 387v199h102v-199h-102zM422 774v199h102v-199h-102zM614 0v199h103v-199h-103zM614 387v199h103 v-199h-103zM614 774v199h103v-199h-103zM809 193v200h102v-200h-102zM809 774v199h102v-199h-102z" />
<glyph d="M35 774v199h102v-199h-102zM227 774v199h103v-199h-103zM422 0v973h102v-973h-102zM614 774v199h103v-199h-103zM809 774v199h102v-199h-102z" />
<glyph d="M35 193v780h102v-780h-102zM227 0v199h103v-199h-103zM422 0v199h102v-199h-102zM614 0v199h103v-199h-103zM809 193v780h102v-780h-102z" />
<glyph d="M35 387v586h102v-586h-102zM227 193v200h103v-200h-103zM422 0v199h102v-199h-102zM614 193v200h103v-200h-103zM809 387v586h102v-586h-102z" />
<glyph d="M35 193v780h102v-780h-102zM227 0v199h103v-199h-103zM422 193v587h102v-587h-102zM614 0v199h103v-199h-103zM809 193v780h102v-780h-102z" />
<glyph d="M35 0v393h102v-393h-102zM35 580v393h102v-393h-102zM227 387v199h103v-199h-103zM422 387v199h102v-199h-102zM614 387v199h103v-199h-103zM809 0v393h102v-393h-102zM809 580v393h102v-393h-102z" />
<glyph d="M35 580v393h102v-393h-102zM227 387v199h103v-199h-103zM422 0v393h102v-393h-102zM614 387v199h103v-199h-103zM809 580v393h102v-393h-102z" />
<glyph d="M35 0v199h102v-199h-102zM35 774v199h102v-199h-102zM227 0v393h103v-393h-103zM227 774v199h103v-199h-103zM422 0v199h102v-199h-102zM422 387v199h102v-199h-102zM422 774v199h102v-199h-102zM614 0v199h103v-199h-103zM614 580v393h103v-393h-103zM809 0v199h102 v-199h-102zM809 774v199h102v-199h-102z" />
<glyph d="M35 0v780h102v-780h-102zM227 387v199h103v-199h-103zM227 774v199h103v-199h-103zM422 387v199h102v-199h-102zM422 774v199h102v-199h-102zM614 387v199h103v-199h-103zM614 774v199h103v-199h-103zM809 0v780h102v-780h-102z" />
<glyph d="M35 0v973h102v-973h-102zM227 0v199h103v-199h-103zM227 387v199h103v-199h-103zM227 774v199h103v-199h-103zM422 0v199h102v-199h-102zM422 387v199h102v-199h-102zM422 774v199h102v-199h-102zM614 0v199h103v-199h-103zM614 387v199h103v-199h-103zM614 774v199h103 v-199h-103zM809 193v200h102v-200h-102zM809 580v200h102v-200h-102z" />
<glyph d="M35 0v973h102v-973h-102zM227 774v199h103v-199h-103zM422 774v199h102v-199h-102zM614 774v199h103v-199h-103zM809 774v199h102v-199h-102z" />
<glyph d="M35 0v780h102v-780h-102zM227 0v199h103v-199h-103zM227 774v199h103v-199h-103zM422 0v199h102v-199h-102zM422 774v199h102v-199h-102zM614 0v199h103v-199h-103zM614 774v199h103v-199h-103zM809 0v780h102v-780h-102z" />
<glyph d="M35 0v973h102v-973h-102zM227 0v199h103v-199h-103zM227 387v199h103v-199h-103zM227 774v199h103v-199h-103zM422 0v199h102v-199h-102zM422 387v199h102v-199h-102zM422 774v199h102v-199h-102zM614 0v199h103v-199h-103zM614 387v199h103v-199h-103zM614 774v199h103 v-199h-103zM809 0v199h102v-199h-102zM809 774v199h102v-199h-102z" />
<glyph d="M35 0v199h102v-199h-102zM35 774v199h102v-199h-102zM227 0v393h103v-393h-103zM227 774v199h103v-199h-103zM422 0v199h102v-199h-102zM422 387v199h102v-199h-102zM422 774v199h102v-199h-102zM614 0v199h103v-199h-103zM614 580v393h103v-393h-103zM809 0v199h102 v-199h-102zM809 774v199h102v-199h-102z" />
<glyph d="M35 0v973h102v-973h-102zM227 387v199h103v-199h-103zM422 387v199h102v-199h-102zM614 387v199h103v-199h-103zM809 0v973h102v-973h-102z" />
<glyph d="M35 0v973h102v-973h-102zM227 387v199h103v-199h-103zM422 387v199h102v-199h-102zM422 1161v199h102v-199h-102zM614 387v199h103v-199h-103zM614 1354v198h103v-198h-103zM809 0v973h102v-973h-102z" />
<glyph d="M35 193v587h102v-587h-102zM227 0v199h103v-199h-103zM227 387v199h103v-199h-103zM227 774v199h103v-199h-103zM422 0v199h102v-199h-102zM422 387v199h102v-199h-102zM422 774v199h102v-199h-102zM614 0v199h103v-199h-103zM614 387v199h103v-199h-103zM614 774v199 h103v-199h-103zM809 193v587h102v-587h-102z" />
<glyph d="M35 0v199h102v-199h-102zM35 774v199h102v-199h-102zM227 0v199h103v-199h-103zM227 774v199h103v-199h-103zM422 0v973h102v-973h-102zM614 0v199h103v-199h-103zM614 774v199h103v-199h-103zM809 0v199h102v-199h-102zM809 774v199h102v-199h-102z" />
<glyph d="M35 0v199h102v-199h-102zM35 774v199h102v-199h-102zM227 0v199h103v-199h-103zM227 774v199h103v-199h-103zM422 0v973h102v-973h-102zM422 1161v199h102v-199h-102zM614 0v199h103v-199h-103zM614 774v199h103v-199h-103zM614 1354v198h103v-198h-103zM809 0v199h102 v-199h-102zM809 774v199h102v-199h-102z" />
<glyph d="M35 0v199h102v-199h-102zM35 774v199h102v-199h-102zM35 1161v391h102v-391h-102zM227 0v199h103v-199h-103zM227 774v199h103v-199h-103zM422 0v973h102v-973h-102zM614 0v199h103v-199h-103zM614 774v199h103v-199h-103zM809 0v199h102v-199h-102zM809 774v199h102 v-199h-102zM809 1161v391h102v-391h-102z" />
<glyph d="M35 0v973h102v-973h-102zM227 387v199h103v-199h-103zM422 387v199h102v-199h-102zM614 387v199h103v-199h-103zM809 0v393h102v-393h-102zM809 580v393h102v-393h-102z" />
<glyph d="M35 0v780h102v-780h-102zM227 774v199h103v-199h-103zM422 774v199h102v-199h-102zM614 774v199h103v-199h-103zM809 0v780h102v-780h-102z" />
<glyph d="M35 0v973h102v-973h-102zM227 580v200h103v-200h-103zM422 193v393h102v-393h-102zM614 580v200h103v-200h-103zM809 0v973h102v-973h-102z" />
<glyph d="M35 0v973h102v-973h-102zM227 580v200h103v-200h-103zM422 387v199h102v-199h-102zM614 193v200h103v-200h-103zM809 0v973h102v-973h-102z" />
<glyph d="M35 0v199h102v-199h-102zM35 774v199h102v-199h-102zM227 0v199h103v-199h-103zM227 387v199h103v-199h-103zM227 774v199h103v-199h-103zM422 0v973h102v-973h-102zM614 0v199h103v-199h-103zM614 387v199h103v-199h-103zM614 774v199h103v-199h-103zM809 0v199h102 v-199h-102zM809 774v199h102v-199h-102z" />
<glyph d="M35 193v587h102v-587h-102zM227 0v199h103v-199h-103zM227 774v199h103v-199h-103zM422 0v199h102v-199h-102zM422 774v199h102v-199h-102zM614 0v199h103v-199h-103zM614 774v199h103v-199h-103zM809 193v587h102v-587h-102z" />
<glyph d="M35 193v587h102v-587h-102zM227 0v199h103v-199h-103zM227 774v199h103v-199h-103zM422 0v199h102v-199h-102zM422 774v199h102v-199h-102zM422 1161v199h102v-199h-102zM614 0v199h103v-199h-103zM614 774v199h103v-199h-103zM614 1354v198h103v-198h-103zM809 193v587 h102v-587h-102z" />
<glyph d="M35 0v973h102v-973h-102zM227 774v199h103v-199h-103zM422 774v199h102v-199h-102zM614 774v199h103v-199h-103zM809 0v973h102v-973h-102z" />
<glyph d="M35 0v973h102v-973h-102zM227 387v199h103v-199h-103zM227 774v199h103v-199h-103zM422 387v199h102v-199h-102zM422 774v199h102v-199h-102zM614 387v199h103v-199h-103zM614 774v199h103v-199h-103zM809 580v200h102v-200h-102z" />
<glyph d="M35 0v199h102v-199h-102zM35 774v199h102v-199h-102zM227 0v393h103v-393h-103zM227 580v393h103v-393h-103zM422 0v199h102v-199h-102zM422 387v199h102v-199h-102zM422 774v199h102v-199h-102zM614 0v199h103v-199h-103zM614 774v199h103v-199h-103zM809 0v199h102 v-199h-102zM809 774v199h102v-199h-102z" />
<glyph d="M35 774v199h102v-199h-102zM227 774v199h103v-199h-103zM422 0v973h102v-973h-102zM614 774v199h103v-199h-103zM809 774v199h102v-199h-102z" />
<glyph d="M35 580v393h102v-393h-102zM227 387v199h103v-199h-103zM422 0v393h102v-393h-102zM614 387v199h103v-199h-103zM809 580v393h102v-393h-102z" />
<glyph d="M35 580v393h102v-393h-102zM227 387v199h103v-199h-103zM422 0v393h102v-393h-102zM422 1161v199h102v-199h-102zM614 387v199h103v-199h-103zM614 1354v198h103v-198h-103zM809 580v393h102v-393h-102z" />
<glyph d="M35 580v393h102v-393h-102zM35 1161v391h102v-391h-102zM227 387v199h103v-199h-103zM422 0v393h102v-393h-102zM614 387v199h103v-199h-103zM809 580v393h102v-393h-102zM809 1161v391h102v-391h-102z" />
<glyph d="M35 387v199h102v-199h-102zM227 193v200h103v-200h-103zM227 580v200h103v-200h-103zM422 0v973h102v-973h-102zM614 193v200h103v-200h-103zM614 580v200h103v-200h-103zM809 387v199h102v-199h-102z" />
<glyph d="M35 0v393h102v-393h-102zM35 580v393h102v-393h-102zM227 387v199h103v-199h-103zM422 387v199h102v-199h-102zM614 387v199h103v-199h-103zM809 0v393h102v-393h-102zM809 580v393h102v-393h-102z" />
<glyph d="M35 580v393h102v-393h-102zM227 387v199h103v-199h-103zM422 0v973h102v-973h-102zM614 387v199h103v-199h-103zM809 580v393h102v-393h-102z" />
<glyph d="M35 0v199h102v-199h-102zM35 580v200h102v-200h-102zM227 0v199h103v-199h-103zM227 387v199h103v-199h-103zM227 774v199h103v-199h-103zM422 0v199h102v-199h-102zM422 387v199h102v-199h-102zM422 774v199h102v-199h-102zM614 0v199h103v-199h-103zM614 387v199h103 v-199h-103zM614 774v199h103v-199h-103zM809 0v199h102v-199h-102zM809 580v200h102v-200h-102z" />
<glyph d="M35 0v199h102v-199h-102zM35 580v200h102v-200h-102zM227 0v199h103v-199h-103zM227 387v199h103v-199h-103zM227 774v199h103v-199h-103zM422 0v199h102v-199h-102zM422 387v199h102v-199h-102zM422 774v199h102v-199h-102zM422 1161v199h102v-199h-102zM614 0v199h103 v-199h-103zM614 387v199h103v-199h-103zM614 774v199h103v-199h-103zM614 1354v198h103v-198h-103zM809 0v199h102v-199h-102zM809 580v200h102v-200h-102z" />
<glyph d="M35 0v780h102v-780h-102zM227 387v199h103v-199h-103zM227 774v199h103v-199h-103zM422 387v199h102v-199h-102zM422 774v199h102v-199h-102zM422 1161v199h102v-199h-102zM614 387v199h103v-199h-103zM614 774v199h103v-199h-103zM614 1354v198h103v-198h-103zM809 0 v780h102v-780h-102z" />
<glyph d="M35 0v973h102v-973h-102zM227 0v199h103v-199h-103zM227 387v199h103v-199h-103zM227 774v199h103v-199h-103zM422 0v199h102v-199h-102zM422 387v199h102v-199h-102zM422 774v199h102v-199h-102zM422 1161v199h102v-199h-102zM614 0v199h103v-199h-103zM614 387v199h103 v-199h-103zM614 774v199h103v-199h-103zM614 1354v198h103v-198h-103zM809 0v199h102v-199h-102zM809 774v199h102v-199h-102z" />
<glyph d="M35 0v199h102v-199h-102zM35 774v199h102v-199h-102zM35 1161v391h102v-391h-102zM227 0v199h103v-199h-103zM227 774v199h103v-199h-103zM422 0v973h102v-973h-102zM422 1161v586h102v-586h-102zM614 0v199h103v-199h-103zM614 774v199h103v-199h-103zM809 0v199h102 v-199h-102zM809 774v199h102v-199h-102zM809 1161v391h102v-391h-102z" />
<glyph d="M35 580v393h102v-393h-102zM35 1161v391h102v-391h-102zM227 387v199h103v-199h-103zM422 0v393h102v-393h-102zM422 1161v586h102v-586h-102zM614 387v199h103v-199h-103zM809 580v393h102v-393h-102zM809 1161v391h102v-391h-102z" />
<glyph d="M35 193v393h102v-393h-102zM35 967v198h102v-198h-102zM227 0v199h103v-199h-103zM227 774v199h103v-199h-103zM227 1161v199h103v-199h-103zM422 0v199h102v-199h-102zM422 774v199h102v-199h-102zM422 1161v199h102v-199h-102zM614 193v972h103v-972h-103zM809 774v199 h102v-199h-102z" />
<glyph d="M35 193v780h102v-780h-102zM227 0v199h103v-199h-103zM227 387v199h103v-199h-103zM227 967v198h103v-198h-103zM422 0v199h102v-199h-102zM422 580v200h102v-200h-102zM422 1161v199h102v-199h-102zM614 0v199h103v-199h-103zM614 580v200h103v-200h-103zM614 1161v199 h103v-199h-103zM809 193v393h102v-393h-102zM809 774v391h102v-391h-102z" />
<glyph d="M35 -193v973h102v-973h-102zM227 0v199h103v-199h-103zM227 -188h103v-199h-103v199zM227 774v199h103v-199h-103zM422 0v199h102v-199h-102zM422 774v199h102v-199h-102zM614 0v199h103v-199h-103zM614 774v199h103v-199h-103zM809 193v587h102v-587h-102z" />
<glyph d="M35 193v780h102v-780h-102zM227 0v199h103v-199h-103zM422 -387v1167h102v-1167h-102zM614 0v199h103v-199h-103zM614 774v199h103v-199h-103zM809 193v587h102v-587h-102z" />
<glyph d="M35 774v199h102v-199h-102zM227 -193v392h103v-392h-103zM227 387v393h103v-393h-103zM422 -188h102v-199h-102v199zM422 193v200h102v-200h-102zM614 -193v392h103v-392h-103zM614 387v199h103v-199h-103zM809 580v393h102v-393h-102z" />
<glyph d="M35 -193v1166h102v-1166h-102zM227 0v199h103v-199h-103zM227 -188h103v-199h-103v199zM422 0v199h102v-199h-102zM614 193v200h103v-200h-103zM809 0v973h102v-973h-102z" />
<glyph d="M424 -188h102v-199h-102v199zM618 6h103v-199h-103v199z" />
<glyph d="M35 193v972h102v-972h-102zM227 0v393h103v-393h-103zM227 1161v199h103v-199h-103zM422 0v199h102v-199h-102zM422 387v586h102v-586h-102zM422 1161v199h102v-199h-102zM614 0v199h103v-199h-103zM614 967v393h103v-393h-103zM809 193v972h102v-972h-102z" />
<glyph d="M35 0v199h102v-199h-102zM35 1161v199h102v-199h-102zM227 0v199h103v-199h-103zM227 1161v199h103v-199h-103zM422 0v1360h102v-1360h-102zM614 0v199h103v-199h-103zM809 0v199h102v-199h-102z" />
<glyph d="M35 0v199h102v-199h-102zM35 967v198h102v-198h-102zM227 0v393h103v-393h-103zM227 1161v199h103v-199h-103zM422 0v199h102v-199h-102zM422 387v199h102v-199h-102zM422 1161v199h102v-199h-102zM614 0v199h103v-199h-103zM614 580v200h103v-200h-103zM614 1161v199 h103v-199h-103zM809 0v199h102v-199h-102zM809 774v391h102v-391h-102z" />
<glyph d="M35 193v200h102v-200h-102zM35 967v198h102v-198h-102zM227 0v199h103v-199h-103zM227 580v200h103v-200h-103zM227 1161v199h103v-199h-103zM422 0v199h102v-199h-102zM422 580v200h102v-200h-102zM422 1161v199h102v-199h-102zM614 0v199h103v-199h-103zM614 580v200 h103v-200h-103zM614 1161v199h103v-199h-103zM809 193v393h102v-393h-102zM809 774v391h102v-391h-102z" />
<glyph d="M35 387v393h102v-393h-102zM227 387v199h103v-199h-103zM227 774v199h103v-199h-103zM422 387v199h102v-199h-102zM422 967v198h102v-198h-102zM614 0v1360h103v-1360h-103zM809 387v199h102v-199h-102z" />
<glyph d="M35 0v199h102v-199h-102zM35 580v780h102v-780h-102zM227 0v199h103v-199h-103zM227 580v200h103v-200h-103zM227 1161v199h103v-199h-103zM422 0v199h102v-199h-102zM422 580v200h102v-200h-102zM422 1161v199h102v-199h-102zM614 0v199h103v-199h-103zM614 580v200h103 v-200h-103zM614 1161v199h103v-199h-103zM809 193v393h102v-393h-102zM809 1161v199h102v-199h-102z" />
<glyph d="M35 193v780h102v-780h-102zM227 0v199h103v-199h-103zM227 580v200h103v-200h-103zM227 967v198h103v-198h-103zM422 0v199h102v-199h-102zM422 580v200h102v-200h-102zM422 1161v199h102v-199h-102zM614 0v199h103v-199h-103zM614 580v200h103v-200h-103zM614 1161v199 h103v-199h-103zM809 193v393h102v-393h-102z" />
<glyph d="M35 1161v199h102v-199h-102zM227 0v586h103v-586h-103zM227 1161v199h103v-199h-103zM422 580v200h102v-200h-102zM422 1161v199h102v-199h-102zM614 774v199h103v-199h-103zM614 1161v199h103v-199h-103zM809 967v393h102v-393h-102z" />
<glyph d="M35 193v393h102v-393h-102zM35 774v391h102v-391h-102zM227 0v199h103v-199h-103zM227 580v200h103v-200h-103zM227 1161v199h103v-199h-103zM422 0v199h102v-199h-102zM422 580v200h102v-200h-102zM422 1161v199h102v-199h-102zM614 0v199h103v-199h-103zM614 580v200 h103v-200h-103zM614 1161v199h103v-199h-103zM809 193v393h102v-393h-102zM809 774v391h102v-391h-102z" />
<glyph d="M35 774v391h102v-391h-102zM227 0v199h103v-199h-103zM227 580v200h103v-200h-103zM227 1161v199h103v-199h-103zM422 0v199h102v-199h-102zM422 580v200h102v-200h-102zM422 1161v199h102v-199h-102zM614 193v200h103v-200h-103zM614 580v200h103v-200h-103zM614 1161 v199h103v-199h-103zM809 387v778h102v-778h-102z" />
<glyph horiz-adv-x="153" d="M23 0v199h102v-199h-102z" />
<glyph horiz-adv-x="153" d="M-74 96v199h199v-199h-199z" />
<glyph horiz-adv-x="0" d="M23 0v199h102v-199h-102z" />
<glyph horiz-adv-x="0" d="M31 -53v198h102v-198h-102z" />
<glyph horiz-adv-x="0" d="M-68 90v103h201v-103h-201z" />
<glyph horiz-adv-x="0" d="M-18 43v199h102v-199h-102z" />
</font>
</defs>
</svg>
