<?xml version="1.0" standalone="no"?>
<!DOCTYPE svg PUBLIC "-//W3C//DTD SVG 1.1//EN" "http://www.w3.org/Graphics/SVG/1.1/DTD/svg11.dtd" >
<svg xmlns="http://www.w3.org/2000/svg">
<metadata>
This is a custom SVG webfont generated by Font Squirrel.
Copyright   : Copyright c 2007 by George Triantafyllakos All rights reserved
Designer    : George Triantafyllakos
Foundry     : George Triantafyllakos
Foundry URL : httpwwwbackpackergr
</metadata>
<defs>
<font id="webfontbt0DuJu3" horiz-adv-x="1228" >
<font-face units-per-em="2048" ascent="1638" descent="-410" />
<missing-glyph horiz-adv-x="500" />
<glyph unicode=" " />
<glyph unicode="!" d="M410 0v154h153v-154h-153zM410 205v153h153v-153h-153zM410 614v154h153v-154h-153zM410 819v154h153v-154h-153zM410 1024v154h153v-154h-153zM410 1229v153h153v-153h-153z" />
<glyph unicode="&#x22;" d="M205 819v154h153v-154h-153zM410 1024v154h153v-154h-153zM410 1229v153h153v-153h-153zM614 819v154h154v-154h-154zM821 1024v154h154v-154h-154zM821 1229v153h154v-153h-154z" />
<glyph unicode="#" d="M0 410v153h154v-153h-154zM0 819v154h154v-154h-154zM205 0v154h153v-154h-153zM205 205v153h153v-153h-153zM205 410v153h153v-153h-153zM205 614v154h153v-154h-153zM205 819v154h153v-154h-153zM205 1024v154h153v-154h-153zM205 1229v153h153v-153h-153zM410 410v153 h153v-153h-153zM410 819v154h153v-154h-153zM614 0v154h154v-154h-154zM614 205v153h154v-153h-154zM614 410v153h154v-153h-154zM614 614v154h154v-154h-154zM614 819v154h154v-154h-154zM614 1024v154h154v-154h-154zM614 1229v153h154v-153h-154zM819 410v153h154v-153 h-154zM819 819v154h154v-154h-154z" />
<glyph unicode="$" d="M0 0v154h154v-154h-154zM0 614v154h154v-154h-154zM205 0v154h153v-154h-153zM205 410v153h153v-153h-153zM205 819v154h153v-154h-153zM410 0v154h153v-154h-153zM410 -51h153v-154h-153v154zM410 205v153h153v-153h-153zM410 410v153h153v-153h-153zM410 614v154h153 v-154h-153zM410 819v154h153v-154h-153zM410 1024v154h153v-154h-153zM614 0v154h154v-154h-154zM614 410v153h154v-153h-154zM614 819v154h154v-154h-154zM819 205v153h154v-153h-154zM819 819v154h154v-154h-154z" />
<glyph unicode="%" d="M0 0v154h154v-154h-154zM0 205v153h154v-153h-154zM0 1024v154h154v-154h-154zM0 1229v153h154v-153h-154zM205 410v153h153v-153h-153zM205 614v154h153v-154h-153zM205 1024v154h153v-154h-153zM205 1229v153h153v-153h-153zM410 0v154h153v-154h-153zM410 205v153h153 v-153h-153zM410 819v154h153v-154h-153zM614 0v154h154v-154h-154zM614 205v153h154v-153h-154zM614 1024v154h154v-154h-154zM614 1229v153h154v-153h-154z" />
<glyph unicode="&#x26;" d="M0 205v153h154v-153h-154zM0 410v153h154v-153h-154zM0 819v154h154v-154h-154zM0 1024v154h154v-154h-154zM205 0v154h153v-154h-153zM205 614v154h153v-154h-153zM205 1229v153h153v-153h-153zM410 0v154h153v-154h-153zM410 614v154h153v-154h-153zM410 1229v153h153 v-153h-153zM614 205v153h154v-153h-154zM614 410v153h154v-153h-154zM614 614v154h154v-154h-154zM819 614v154h154v-154h-154z" />
<glyph unicode="'" d="M410 821v154h153v-154h-153zM614 1024v154h154v-154h-154zM614 1231v153h154v-153h-154z" />
<glyph unicode="(" d="M410 205v153h153v-153h-153zM410 410v153h153v-153h-153zM410 614v154h153v-154h-153zM410 819v154h153v-154h-153zM410 1024v154h153v-154h-153zM614 0v154h154v-154h-154zM614 1229v153h154v-153h-154z" />
<glyph unicode=")" d="M410 0v154h153v-154h-153zM410 1229v153h153v-153h-153zM614 205v153h154v-153h-154zM614 410v153h154v-153h-154zM614 614v154h154v-154h-154zM614 819v154h154v-154h-154zM614 1024v154h154v-154h-154z" />
<glyph unicode="*" d="M0 819v154h154v-154h-154zM0 1229v153h154v-153h-154zM205 1024v154h153v-154h-153zM410 819v154h153v-154h-153zM410 1229v153h153v-153h-153z" />
<glyph unicode="+" d="M0 410v153h154v-153h-154zM205 410v153h153v-153h-153zM410 0v154h153v-154h-153zM410 205v153h153v-153h-153zM410 410v153h153v-153h-153zM410 614v154h153v-154h-153zM410 819v154h153v-154h-153zM614 410v153h154v-153h-154zM819 410v153h154v-153h-154z" />
<glyph unicode="," d="M205 -51h153v-154h-153v154zM410 0v154h153v-154h-153zM410 205v153h153v-153h-153z" />
<glyph unicode="-" d="M205 410v153h153v-153h-153zM410 410v153h153v-153h-153zM614 410v153h154v-153h-154z" />
<glyph unicode="." d="M410 0v154h153v-154h-153zM410 205v153h153v-153h-153z" />
<glyph unicode="/" d="M205 0v154h153v-154h-153zM205 205v153h153v-153h-153zM410 410v153h153v-153h-153zM410 614v154h153v-154h-153zM614 819v154h154v-154h-154zM819 1024v154h154v-154h-154zM819 1229v153h154v-153h-154z" />
<glyph unicode="0" d="M0 205v153h154v-153h-154zM0 410v153h154v-153h-154zM0 614v154h154v-154h-154zM205 0v154h153v-154h-153zM205 205v153h153v-153h-153zM205 819v154h153v-154h-153zM410 0v154h153v-154h-153zM410 410v153h153v-153h-153zM410 819v154h153v-154h-153zM614 0v154h154 v-154h-154zM614 614v154h154v-154h-154zM614 819v154h154v-154h-154zM819 205v153h154v-153h-154zM819 410v153h154v-153h-154zM819 614v154h154v-154h-154z" />
<glyph unicode="1" d="M0 0v154h154v-154h-154zM0 819v154h154v-154h-154zM205 0v154h153v-154h-153zM205 819v154h153v-154h-153zM410 0v154h153v-154h-153zM410 205v153h153v-153h-153zM410 410v153h153v-153h-153zM410 614v154h153v-154h-153zM410 819v154h153v-154h-153zM614 0v154h154 v-154h-154zM819 0v154h154v-154h-154z" />
<glyph unicode="2" d="M0 0v154h154v-154h-154zM0 614v154h154v-154h-154zM205 0v154h153v-154h-153zM205 205v153h153v-153h-153zM205 819v154h153v-154h-153zM410 0v154h153v-154h-153zM410 410v153h153v-153h-153zM410 819v154h153v-154h-153zM614 0v154h154v-154h-154zM614 410v153h154 v-153h-154zM614 819v154h154v-154h-154zM819 0v154h154v-154h-154zM819 614v154h154v-154h-154z" />
<glyph unicode="3" d="M0 -51h154v-154h-154v154zM0 614v154h154v-154h-154zM205 205v153h153v-153h-153zM205 -256h153v-154h-153v154zM205 819v154h153v-154h-153zM410 205v153h153v-153h-153zM410 -256h153v-154h-153v154zM410 819v154h153v-154h-153zM614 205v153h154v-153h-154zM614 -256 h154v-154h-154v154zM614 819v154h154v-154h-154zM819 0v154h154v-154h-154zM819 -51h154v-154h-154v154zM819 410v153h154v-153h-154zM819 614v154h154v-154h-154z" />
<glyph unicode="4" d="M0 0v154h154v-154h-154zM0 205v153h154v-153h-154zM205 0v154h153v-154h-153zM205 410v153h153v-153h-153zM410 0v154h153v-154h-153zM410 614v154h153v-154h-153zM614 0v154h154v-154h-154zM614 -51h154v-154h-154v154zM614 205v153h154v-153h-154zM614 -256h154v-154 h-154v154zM614 410v153h154v-153h-154zM614 614v154h154v-154h-154zM614 819v154h154v-154h-154zM819 0v154h154v-154h-154z" />
<glyph unicode="5" d="M0 205v153h154v-153h-154zM0 -256h154v-154h-154v154zM0 410v153h154v-153h-154zM0 614v154h154v-154h-154zM0 819v154h154v-154h-154zM205 205v153h153v-153h-153zM205 -256h153v-154h-153v154zM205 819v154h153v-154h-153zM410 205v153h153v-153h-153zM410 -256h153 v-154h-153v154zM410 819v154h153v-154h-153zM614 205v153h154v-153h-154zM614 -256h154v-154h-154v154zM614 819v154h154v-154h-154zM819 0v154h154v-154h-154zM819 -51h154v-154h-154v154zM819 819v154h154v-154h-154z" />
<glyph unicode="6" d="M0 205v153h154v-153h-154zM0 410v153h154v-153h-154zM0 614v154h154v-154h-154zM0 819v154h154v-154h-154zM205 0v154h153v-154h-153zM205 614v154h153v-154h-153zM205 1024v154h153v-154h-153zM410 0v154h153v-154h-153zM410 614v154h153v-154h-153zM410 1229v153h153 v-153h-153zM614 0v154h154v-154h-154zM614 614v154h154v-154h-154zM614 1229v153h154v-153h-154zM819 205v153h154v-153h-154zM819 410v153h154v-153h-154z" />
<glyph unicode="7" d="M0 819v154h154v-154h-154zM205 0v154h153v-154h-153zM205 -51h153v-154h-153v154zM205 -256h153v-154h-153v154zM205 819v154h153v-154h-153zM410 205v153h153v-153h-153zM410 819v154h153v-154h-153zM614 410v153h154v-153h-154zM614 819v154h154v-154h-154zM819 614 v154h154v-154h-154zM819 819v154h154v-154h-154z" />
<glyph unicode="8" d="M0 205v153h154v-153h-154zM0 410v153h154v-153h-154zM0 819v154h154v-154h-154zM0 1024v154h154v-154h-154zM205 0v154h153v-154h-153zM205 614v154h153v-154h-153zM205 1229v153h153v-153h-153zM410 0v154h153v-154h-153zM410 614v154h153v-154h-153zM410 1229v153h153 v-153h-153zM614 0v154h154v-154h-154zM614 614v154h154v-154h-154zM614 1229v153h154v-153h-154zM819 205v153h154v-153h-154zM819 410v153h154v-153h-154zM819 819v154h154v-154h-154zM819 1024v154h154v-154h-154z" />
<glyph unicode="9" d="M0 410v153h154v-153h-154zM0 614v154h154v-154h-154zM205 205v153h153v-153h-153zM205 -256h153v-154h-153v154zM205 819v154h153v-154h-153zM410 205v153h153v-153h-153zM410 -256h153v-154h-153v154zM410 819v154h153v-154h-153zM614 -51h154v-154h-154v154zM614 205 v153h154v-153h-154zM614 819v154h154v-154h-154zM819 0v154h154v-154h-154zM819 205v153h154v-153h-154zM819 410v153h154v-153h-154zM819 614v154h154v-154h-154z" />
<glyph unicode=":" d="M410 0v154h153v-154h-153zM410 205v153h153v-153h-153zM410 614v154h153v-154h-153zM410 819v154h153v-154h-153z" />
<glyph unicode=";" d="M205 -51h153v-154h-153v154zM410 0v154h153v-154h-153zM410 205v153h153v-153h-153zM410 614v154h153v-154h-153zM410 819v154h153v-154h-153z" />
<glyph unicode="&#x3c;" d="M205 410v153h153v-153h-153zM410 205v153h153v-153h-153zM410 614v154h153v-154h-153zM614 0v154h154v-154h-154zM614 819v154h154v-154h-154z" />
<glyph unicode="=" d="M0 205v153h154v-153h-154zM0 614v154h154v-154h-154zM205 205v153h153v-153h-153zM205 614v154h153v-154h-153zM410 205v153h153v-153h-153zM410 614v154h153v-154h-153zM614 205v153h154v-153h-154zM614 614v154h154v-154h-154zM819 205v153h154v-153h-154zM819 614v154 h154v-154h-154z" />
<glyph unicode="&#x3e;" d="M410 0v154h153v-154h-153zM410 819v154h153v-154h-153zM614 205v153h154v-153h-154zM614 614v154h154v-154h-154zM819 410v153h154v-153h-154z" />
<glyph unicode="?" d="M0 1024v154h154v-154h-154zM205 1229v153h153v-153h-153zM410 0v154h153v-154h-153zM410 205v153h153v-153h-153zM410 614v154h153v-154h-153zM410 1229v153h153v-153h-153zM614 614v154h154v-154h-154zM614 1229v153h154v-153h-154zM819 819v154h154v-154h-154z M819 1024v154h154v-154h-154z" />
<glyph unicode="@" d="M0 205v153h154v-153h-154zM0 410v153h154v-153h-154zM0 614v154h154v-154h-154zM0 819v154h154v-154h-154zM0 1024v154h154v-154h-154zM205 0v154h153v-154h-153zM205 410v153h153v-153h-153zM205 614v154h153v-154h-153zM205 1229v153h153v-153h-153zM410 0v154h153 v-154h-153zM410 410v153h153v-153h-153zM410 819v154h153v-154h-153zM410 1229v153h153v-153h-153zM614 0v154h154v-154h-154zM614 410v153h154v-153h-154zM614 614v154h154v-154h-154zM614 819v154h154v-154h-154zM614 1229v153h154v-153h-154zM819 0v154h154v-154h-154z M819 410v153h154v-153h-154zM819 614v154h154v-154h-154zM819 819v154h154v-154h-154zM819 1024v154h154v-154h-154z" />
<glyph unicode="A" d="M0 0v154h154v-154h-154zM0 205v153h154v-153h-154zM0 410v153h154v-153h-154zM0 614v154h154v-154h-154zM0 819v154h154v-154h-154zM0 1024v154h154v-154h-154zM205 410v153h153v-153h-153zM205 1229v153h153v-153h-153zM410 410v153h153v-153h-153zM410 1229v153h153 v-153h-153zM614 410v153h154v-153h-154zM614 1229v153h154v-153h-154zM819 0v154h154v-154h-154zM819 205v153h154v-153h-154zM819 410v153h154v-153h-154zM819 614v154h154v-154h-154zM819 819v154h154v-154h-154zM819 1024v154h154v-154h-154z" />
<glyph unicode="B" d="M0 0v154h154v-154h-154zM0 205v153h154v-153h-154zM0 410v153h154v-153h-154zM0 614v154h154v-154h-154zM0 819v154h154v-154h-154zM0 1024v154h154v-154h-154zM0 1229v153h154v-153h-154zM205 0v154h153v-154h-153zM205 614v154h153v-154h-153zM205 1229v153h153v-153 h-153zM410 0v154h153v-154h-153zM410 614v154h153v-154h-153zM410 1229v153h153v-153h-153zM614 0v154h154v-154h-154zM614 614v154h154v-154h-154zM614 1229v153h154v-153h-154zM819 205v153h154v-153h-154zM819 410v153h154v-153h-154zM819 819v154h154v-154h-154z M819 1024v154h154v-154h-154z" />
<glyph unicode="C" d="M0 205v153h154v-153h-154zM0 410v153h154v-153h-154zM0 614v154h154v-154h-154zM0 819v154h154v-154h-154zM0 1024v154h154v-154h-154zM205 0v154h153v-154h-153zM205 1229v153h153v-153h-153zM410 0v154h153v-154h-153zM410 1229v153h153v-153h-153zM614 0v154h154v-154 h-154zM614 1229v153h154v-153h-154zM819 205v153h154v-153h-154zM819 1024v154h154v-154h-154z" />
<glyph unicode="D" d="M0 0v154h154v-154h-154zM0 205v153h154v-153h-154zM0 410v153h154v-153h-154zM0 614v154h154v-154h-154zM0 819v154h154v-154h-154zM0 1024v154h154v-154h-154zM0 1229v153h154v-153h-154zM205 0v154h153v-154h-153zM205 1229v153h153v-153h-153zM410 0v154h153v-154 h-153zM410 1229v153h153v-153h-153zM614 0v154h154v-154h-154zM614 1229v153h154v-153h-154zM819 205v153h154v-153h-154zM819 410v153h154v-153h-154zM819 614v154h154v-154h-154zM819 819v154h154v-154h-154zM819 1024v154h154v-154h-154z" />
<glyph unicode="E" d="M0 0v154h154v-154h-154zM0 205v153h154v-153h-154zM0 410v153h154v-153h-154zM0 614v154h154v-154h-154zM0 819v154h154v-154h-154zM0 1024v154h154v-154h-154zM0 1229v153h154v-153h-154zM205 0v154h153v-154h-153zM205 614v154h153v-154h-153zM205 1229v153h153v-153 h-153zM410 0v154h153v-154h-153zM410 614v154h153v-154h-153zM410 1229v153h153v-153h-153zM614 0v154h154v-154h-154zM614 614v154h154v-154h-154zM614 1229v153h154v-153h-154zM819 0v154h154v-154h-154zM819 1229v153h154v-153h-154z" />
<glyph unicode="F" d="M0 0v154h154v-154h-154zM0 205v153h154v-153h-154zM0 410v153h154v-153h-154zM0 614v154h154v-154h-154zM0 819v154h154v-154h-154zM0 1024v154h154v-154h-154zM0 1229v153h154v-153h-154zM205 614v154h153v-154h-153zM205 1229v153h153v-153h-153zM410 614v154h153v-154 h-153zM410 1229v153h153v-153h-153zM614 614v154h154v-154h-154zM614 1229v153h154v-153h-154zM819 1229v153h154v-153h-154z" />
<glyph unicode="G" d="M0 205v153h154v-153h-154zM0 410v153h154v-153h-154zM0 614v154h154v-154h-154zM0 819v154h154v-154h-154zM0 1024v154h154v-154h-154zM205 0v154h153v-154h-153zM205 1229v153h153v-153h-153zM410 0v154h153v-154h-153zM410 1229v153h153v-153h-153zM614 0v154h154v-154 h-154zM614 410v153h154v-153h-154zM614 1229v153h154v-153h-154zM819 0v154h154v-154h-154zM819 205v153h154v-153h-154zM819 410v153h154v-153h-154zM819 1024v154h154v-154h-154z" />
<glyph unicode="H" d="M0 0v154h154v-154h-154zM0 205v153h154v-153h-154zM0 410v153h154v-153h-154zM0 614v154h154v-154h-154zM0 819v154h154v-154h-154zM0 1024v154h154v-154h-154zM0 1229v153h154v-153h-154zM205 614v154h153v-154h-153zM410 614v154h153v-154h-153zM614 614v154h154v-154 h-154zM819 0v154h154v-154h-154zM819 205v153h154v-153h-154zM819 410v153h154v-153h-154zM819 614v154h154v-154h-154zM819 819v154h154v-154h-154zM819 1024v154h154v-154h-154zM819 1229v153h154v-153h-154z" />
<glyph unicode="I" d="M0 0v154h154v-154h-154zM0 1229v153h154v-153h-154zM205 0v154h153v-154h-153zM205 1229v153h153v-153h-153zM410 0v154h153v-154h-153zM410 205v153h153v-153h-153zM410 410v153h153v-153h-153zM410 614v154h153v-154h-153zM410 819v154h153v-154h-153zM410 1024v154 h153v-154h-153zM410 1229v153h153v-153h-153zM614 0v154h154v-154h-154zM614 1229v153h154v-153h-154zM819 0v154h154v-154h-154zM819 1229v153h154v-153h-154z" />
<glyph unicode="J" d="M0 205v153h154v-153h-154zM0 1229v153h154v-153h-154zM205 0v154h153v-154h-153zM205 1229v153h153v-153h-153zM410 0v154h153v-154h-153zM410 1229v153h153v-153h-153zM614 205v153h154v-153h-154zM614 410v153h154v-153h-154zM614 614v154h154v-154h-154zM614 819v154 h154v-154h-154zM614 1024v154h154v-154h-154zM614 1229v153h154v-153h-154z" />
<glyph unicode="K" d="M0 0v154h154v-154h-154zM0 205v153h154v-153h-154zM0 410v153h154v-153h-154zM0 614v154h154v-154h-154zM0 819v154h154v-154h-154zM0 1024v154h154v-154h-154zM0 1229v153h154v-153h-154zM205 614v154h153v-154h-153zM410 614v154h153v-154h-153zM614 410v153h154v-153 h-154zM614 819v154h154v-154h-154zM819 0v154h154v-154h-154zM819 205v153h154v-153h-154zM819 1024v154h154v-154h-154zM819 1229v153h154v-153h-154z" />
<glyph unicode="L" d="M0 0v154h154v-154h-154zM0 205v153h154v-153h-154zM0 410v153h154v-153h-154zM0 614v154h154v-154h-154zM0 819v154h154v-154h-154zM0 1024v154h154v-154h-154zM0 1229v153h154v-153h-154zM205 0v154h153v-154h-153zM410 0v154h153v-154h-153zM614 0v154h154v-154h-154z M819 0v154h154v-154h-154z" />
<glyph unicode="M" d="M0 0v154h154v-154h-154zM0 205v153h154v-153h-154zM0 410v153h154v-153h-154zM0 614v154h154v-154h-154zM0 819v154h154v-154h-154zM0 1024v154h154v-154h-154zM0 1229v153h154v-153h-154zM205 819v154h153v-154h-153zM205 1024v154h153v-154h-153zM410 410v153h153v-153 h-153zM410 614v154h153v-154h-153zM614 819v154h154v-154h-154zM614 1024v154h154v-154h-154zM819 0v154h154v-154h-154zM819 205v153h154v-153h-154zM819 410v153h154v-153h-154zM819 614v154h154v-154h-154zM819 819v154h154v-154h-154zM819 1024v154h154v-154h-154z M819 1229v153h154v-153h-154z" />
<glyph unicode="N" d="M0 0v154h154v-154h-154zM0 205v153h154v-153h-154zM0 410v153h154v-153h-154zM0 614v154h154v-154h-154zM0 819v154h154v-154h-154zM0 1024v154h154v-154h-154zM0 1229v153h154v-153h-154zM205 1024v154h153v-154h-153zM410 614v154h153v-154h-153zM410 819v154h153v-154 h-153zM614 410v153h154v-153h-154zM819 0v154h154v-154h-154zM819 205v153h154v-153h-154zM819 410v153h154v-153h-154zM819 614v154h154v-154h-154zM819 819v154h154v-154h-154zM819 1024v154h154v-154h-154zM819 1229v153h154v-153h-154z" />
<glyph unicode="O" d="M0 205v153h154v-153h-154zM0 410v153h154v-153h-154zM0 614v154h154v-154h-154zM0 819v154h154v-154h-154zM0 1024v154h154v-154h-154zM205 0v154h153v-154h-153zM205 1229v153h153v-153h-153zM410 0v154h153v-154h-153zM410 1229v153h153v-153h-153zM614 0v154h154v-154 h-154zM614 1229v153h154v-153h-154zM819 205v153h154v-153h-154zM819 410v153h154v-153h-154zM819 614v154h154v-154h-154zM819 819v154h154v-154h-154zM819 1024v154h154v-154h-154z" />
<glyph unicode="P" d="M0 0v154h154v-154h-154zM0 205v153h154v-153h-154zM0 410v153h154v-153h-154zM0 614v154h154v-154h-154zM0 819v154h154v-154h-154zM0 1024v154h154v-154h-154zM0 1229v153h154v-153h-154zM205 410v153h153v-153h-153zM205 1229v153h153v-153h-153zM410 410v153h153v-153 h-153zM410 1229v153h153v-153h-153zM614 410v153h154v-153h-154zM614 1229v153h154v-153h-154zM819 614v154h154v-154h-154zM819 819v154h154v-154h-154zM819 1024v154h154v-154h-154z" />
<glyph unicode="Q" d="M0 205v153h154v-153h-154zM0 410v153h154v-153h-154zM0 614v154h154v-154h-154zM0 819v154h154v-154h-154zM0 1024v154h154v-154h-154zM205 0v154h153v-154h-153zM205 1229v153h153v-153h-153zM410 0v154h153v-154h-153zM410 -51h153v-154h-153v154zM410 205v153h153 v-153h-153zM410 1229v153h153v-153h-153zM614 0v154h154v-154h-154zM614 -256h154v-154h-154v154zM614 1229v153h154v-153h-154zM819 205v153h154v-153h-154zM819 410v153h154v-153h-154zM819 614v154h154v-154h-154zM819 819v154h154v-154h-154zM819 1024v154h154v-154 h-154z" />
<glyph unicode="R" d="M0 0v154h154v-154h-154zM0 205v153h154v-153h-154zM0 410v153h154v-153h-154zM0 614v154h154v-154h-154zM0 819v154h154v-154h-154zM0 1024v154h154v-154h-154zM0 1229v153h154v-153h-154zM205 614v154h153v-154h-153zM205 1229v153h153v-153h-153zM410 614v154h153v-154 h-153zM410 1229v153h153v-153h-153zM614 410v153h154v-153h-154zM614 614v154h154v-154h-154zM614 1229v153h154v-153h-154zM819 0v154h154v-154h-154zM819 205v153h154v-153h-154zM819 819v154h154v-154h-154zM819 1024v154h154v-154h-154z" />
<glyph unicode="S" d="M0 0v154h154v-154h-154zM0 819v154h154v-154h-154zM0 1024v154h154v-154h-154zM205 0v154h153v-154h-153zM205 614v154h153v-154h-153zM205 1229v153h153v-153h-153zM410 0v154h153v-154h-153zM410 614v154h153v-154h-153zM410 1229v153h153v-153h-153zM614 0v154h154 v-154h-154zM614 614v154h154v-154h-154zM614 1229v153h154v-153h-154zM819 205v153h154v-153h-154zM819 410v153h154v-153h-154zM819 1229v153h154v-153h-154z" />
<glyph unicode="T" d="M0 1229v153h154v-153h-154zM205 1229v153h153v-153h-153zM410 0v154h153v-154h-153zM410 205v153h153v-153h-153zM410 410v153h153v-153h-153zM410 614v154h153v-154h-153zM410 819v154h153v-154h-153zM410 1024v154h153v-154h-153zM410 1229v153h153v-153h-153z M614 1229v153h154v-153h-154zM819 1229v153h154v-153h-154z" />
<glyph unicode="U" d="M0 205v153h154v-153h-154zM0 410v153h154v-153h-154zM0 614v154h154v-154h-154zM0 819v154h154v-154h-154zM0 1024v154h154v-154h-154zM0 1229v153h154v-153h-154zM205 0v154h153v-154h-153zM410 0v154h153v-154h-153zM614 0v154h154v-154h-154zM819 205v153h154v-153 h-154zM819 410v153h154v-153h-154zM819 614v154h154v-154h-154zM819 819v154h154v-154h-154zM819 1024v154h154v-154h-154zM819 1229v153h154v-153h-154z" />
<glyph unicode="V" d="M0 614v154h154v-154h-154zM0 819v154h154v-154h-154zM0 1024v154h154v-154h-154zM0 1229v153h154v-153h-154zM205 205v153h153v-153h-153zM205 410v153h153v-153h-153zM410 0v154h153v-154h-153zM614 205v153h154v-153h-154zM614 410v153h154v-153h-154zM819 614v154h154 v-154h-154zM819 819v154h154v-154h-154zM819 1024v154h154v-154h-154zM819 1229v153h154v-153h-154z" />
<glyph unicode="W" d="M0 410v153h154v-153h-154zM0 614v154h154v-154h-154zM0 819v154h154v-154h-154zM0 1024v154h154v-154h-154zM0 1229v153h154v-153h-154zM205 0v154h153v-154h-153zM205 205v153h153v-153h-153zM410 410v153h153v-153h-153zM410 614v154h153v-154h-153zM410 819v154h153 v-154h-153zM410 1024v154h153v-154h-153zM614 0v154h154v-154h-154zM614 205v153h154v-153h-154zM819 410v153h154v-153h-154zM819 614v154h154v-154h-154zM819 819v154h154v-154h-154zM819 1024v154h154v-154h-154zM819 1229v153h154v-153h-154z" />
<glyph unicode="X" d="M0 0v154h154v-154h-154zM0 205v153h154v-153h-154zM0 1024v154h154v-154h-154zM0 1229v153h154v-153h-154zM205 410v153h153v-153h-153zM205 819v154h153v-154h-153zM410 614v154h153v-154h-153zM614 410v153h154v-153h-154zM614 819v154h154v-154h-154zM819 0v154h154 v-154h-154zM819 205v153h154v-153h-154zM819 1024v154h154v-154h-154zM819 1229v153h154v-153h-154z" />
<glyph unicode="Y" d="M0 819v154h154v-154h-154zM0 1024v154h154v-154h-154zM0 1229v153h154v-153h-154zM205 614v154h153v-154h-153zM410 0v154h153v-154h-153zM410 205v153h153v-153h-153zM410 410v153h153v-153h-153zM614 614v154h154v-154h-154zM819 819v154h154v-154h-154zM819 1024v154 h154v-154h-154zM819 1229v153h154v-153h-154z" />
<glyph unicode="Z" d="M0 0v154h154v-154h-154zM0 205v153h154v-153h-154zM0 1229v153h154v-153h-154zM205 0v154h153v-154h-153zM205 410v153h153v-153h-153zM205 1229v153h153v-153h-153zM410 0v154h153v-154h-153zM410 614v154h153v-154h-153zM410 1229v153h153v-153h-153zM614 0v154h154 v-154h-154zM614 819v154h154v-154h-154zM614 1229v153h154v-153h-154zM819 0v154h154v-154h-154zM819 1024v154h154v-154h-154zM819 1229v153h154v-153h-154z" />
<glyph unicode="[" d="M410 0v154h153v-154h-153zM410 205v153h153v-153h-153zM410 410v153h153v-153h-153zM410 614v154h153v-154h-153zM410 819v154h153v-154h-153zM410 1024v154h153v-154h-153zM410 1229v153h153v-153h-153zM614 0v154h154v-154h-154zM614 1229v153h154v-153h-154z" />
<glyph unicode="\" d="M205 1024v154h153v-154h-153zM205 1229v153h153v-153h-153zM410 819v154h153v-154h-153zM614 410v153h154v-153h-154zM614 614v154h154v-154h-154zM819 0v154h154v-154h-154zM819 205v153h154v-153h-154z" />
<glyph unicode="]" d="M410 0v154h153v-154h-153zM410 1229v153h153v-153h-153zM614 0v154h154v-154h-154zM614 205v153h154v-153h-154zM614 410v153h154v-153h-154zM614 614v154h154v-154h-154zM614 819v154h154v-154h-154zM614 1024v154h154v-154h-154zM614 1229v153h154v-153h-154z" />
<glyph unicode="^" d="M205 1229v153h153v-153h-153zM410 1434v153h153v-153h-153zM614 1229v153h154v-153h-154z" />
<glyph unicode="_" d="M0 0v154h154v-154h-154zM205 0v154h153v-154h-153zM410 0v154h153v-154h-153zM614 0v154h154v-154h-154zM819 0v154h154v-154h-154z" />
<glyph unicode="`" d="M0 1434v153h154v-153h-154zM205 1229v153h153v-153h-153zM410 1229v153h153v-153h-153z" />
<glyph unicode="a" d="M0 205v153h154v-153h-154zM205 0v154h153v-154h-153zM205 410v153h153v-153h-153zM205 819v154h153v-154h-153zM410 0v154h153v-154h-153zM410 410v153h153v-153h-153zM410 819v154h153v-154h-153zM614 0v154h154v-154h-154zM614 410v153h154v-153h-154zM614 819v154h154 v-154h-154zM819 0v154h154v-154h-154zM819 205v153h154v-153h-154zM819 410v153h154v-153h-154zM819 614v154h154v-154h-154z" />
<glyph unicode="b" d="M0 0v154h154v-154h-154zM0 205v153h154v-153h-154zM0 410v153h154v-153h-154zM0 614v154h154v-154h-154zM0 819v154h154v-154h-154zM0 1024v154h154v-154h-154zM0 1229v153h154v-153h-154zM205 0v154h153v-154h-153zM205 614v154h153v-154h-153zM410 0v154h153v-154h-153 zM410 819v154h153v-154h-153zM614 0v154h154v-154h-154zM614 819v154h154v-154h-154zM819 205v153h154v-153h-154zM819 410v153h154v-153h-154zM819 614v154h154v-154h-154z" />
<glyph unicode="c" d="M0 205v153h154v-153h-154zM0 410v153h154v-153h-154zM0 614v154h154v-154h-154zM205 0v154h153v-154h-153zM205 819v154h153v-154h-153zM410 0v154h153v-154h-153zM410 819v154h153v-154h-153zM614 0v154h154v-154h-154zM614 819v154h154v-154h-154zM819 205v153h154 v-153h-154zM819 614v154h154v-154h-154z" />
<glyph unicode="d" d="M0 205v153h154v-153h-154zM0 410v153h154v-153h-154zM0 614v154h154v-154h-154zM205 0v154h153v-154h-153zM205 819v154h153v-154h-153zM410 0v154h153v-154h-153zM410 819v154h153v-154h-153zM614 205v153h154v-153h-154zM614 819v154h154v-154h-154zM819 0v154h154 v-154h-154zM819 205v153h154v-153h-154zM819 410v153h154v-153h-154zM819 614v154h154v-154h-154zM819 819v154h154v-154h-154zM819 1024v154h154v-154h-154zM819 1229v153h154v-153h-154z" />
<glyph unicode="e" d="M0 205v153h154v-153h-154zM0 410v153h154v-153h-154zM0 614v154h154v-154h-154zM205 0v154h153v-154h-153zM205 410v153h153v-153h-153zM205 819v154h153v-154h-153zM410 0v154h153v-154h-153zM410 410v153h153v-153h-153zM410 819v154h153v-154h-153zM614 0v154h154 v-154h-154zM614 410v153h154v-153h-154zM614 819v154h154v-154h-154zM819 0v154h154v-154h-154zM819 410v153h154v-153h-154zM819 614v154h154v-154h-154z" />
<glyph unicode="f" d="M0 0v154h154v-154h-154zM205 0v154h153v-154h-153zM205 819v154h153v-154h-153zM410 0v154h153v-154h-153zM410 205v153h153v-153h-153zM410 410v153h153v-153h-153zM410 614v154h153v-154h-153zM410 819v154h153v-154h-153zM410 1024v154h153v-154h-153zM614 0v154h154 v-154h-154zM614 819v154h154v-154h-154zM614 1229v153h154v-153h-154zM819 0v154h154v-154h-154zM819 819v154h154v-154h-154zM819 1229v153h154v-153h-154z" />
<glyph unicode="g" d="M0 205v153h154v-153h-154zM0 410v153h154v-153h-154zM0 614v154h154v-154h-154zM205 0v154h153v-154h-153zM205 -256h153v-154h-153v154zM205 819v154h153v-154h-153zM410 0v154h153v-154h-153zM410 -256h153v-154h-153v154zM410 819v154h153v-154h-153zM614 205v153h154 v-153h-154zM614 -256h154v-154h-154v154zM614 819v154h154v-154h-154zM819 0v154h154v-154h-154zM819 -51h154v-154h-154v154zM819 205v153h154v-153h-154zM819 410v153h154v-153h-154zM819 614v154h154v-154h-154zM819 819v154h154v-154h-154z" />
<glyph unicode="h" d="M0 0v154h154v-154h-154zM0 205v153h154v-153h-154zM0 410v153h154v-153h-154zM0 614v154h154v-154h-154zM0 819v154h154v-154h-154zM0 1024v154h154v-154h-154zM0 1229v153h154v-153h-154zM205 819v154h153v-154h-153zM410 819v154h153v-154h-153zM614 819v154h154v-154 h-154zM819 0v154h154v-154h-154zM819 205v153h154v-153h-154zM819 410v153h154v-153h-154zM819 614v154h154v-154h-154z" />
<glyph unicode="i" d="M0 0v154h154v-154h-154zM0 819v154h154v-154h-154zM205 0v154h153v-154h-153zM205 819v154h153v-154h-153zM410 0v154h153v-154h-153zM410 205v153h153v-153h-153zM410 410v153h153v-153h-153zM410 614v154h153v-154h-153zM410 819v154h153v-154h-153zM410 1229v153h153 v-153h-153zM614 0v154h154v-154h-154zM819 0v154h154v-154h-154z" />
<glyph unicode="j" d="M0 -51h154v-154h-154v154zM205 -256h153v-154h-153v154zM205 819v154h153v-154h-153zM410 -256h153v-154h-153v154zM410 819v154h153v-154h-153zM614 -256h154v-154h-154v154zM614 819v154h154v-154h-154zM819 0v154h154v-154h-154zM819 -51h154v-154h-154v154zM819 205 v153h154v-153h-154zM819 410v153h154v-153h-154zM819 614v154h154v-154h-154zM819 819v154h154v-154h-154zM819 1229v153h154v-153h-154z" />
<glyph unicode="k" d="M0 0v154h154v-154h-154zM0 205v153h154v-153h-154zM0 410v153h154v-153h-154zM0 614v154h154v-154h-154zM0 819v154h154v-154h-154zM0 1024v154h154v-154h-154zM0 1229v153h154v-153h-154zM205 410v153h153v-153h-153zM410 410v153h153v-153h-153zM614 205v153h154v-153 h-154zM614 614v154h154v-154h-154zM614 819v154h154v-154h-154zM819 0v154h154v-154h-154z" />
<glyph unicode="l" d="M0 0v154h154v-154h-154zM0 1229v153h154v-153h-154zM205 0v154h153v-154h-153zM205 1229v153h153v-153h-153zM410 0v154h153v-154h-153zM410 205v153h153v-153h-153zM410 410v153h153v-153h-153zM410 614v154h153v-154h-153zM410 819v154h153v-154h-153zM410 1024v154 h153v-154h-153zM410 1229v153h153v-153h-153zM614 0v154h154v-154h-154zM819 0v154h154v-154h-154z" />
<glyph unicode="m" d="M0 0v154h154v-154h-154zM0 205v153h154v-153h-154zM0 410v153h154v-153h-154zM0 614v154h154v-154h-154zM0 819v154h154v-154h-154zM205 614v154h153v-154h-153zM410 0v154h153v-154h-153zM410 205v153h153v-153h-153zM410 410v153h153v-153h-153zM410 614v154h153v-154 h-153zM410 819v154h153v-154h-153zM614 614v154h154v-154h-154zM819 0v154h154v-154h-154zM819 205v153h154v-153h-154zM819 410v153h154v-153h-154zM819 614v154h154v-154h-154zM819 819v154h154v-154h-154z" />
<glyph unicode="n" d="M0 0v154h154v-154h-154zM0 205v153h154v-153h-154zM0 410v153h154v-153h-154zM0 614v154h154v-154h-154zM0 819v154h154v-154h-154zM205 614v154h153v-154h-153zM410 819v154h153v-154h-153zM614 819v154h154v-154h-154zM819 0v154h154v-154h-154zM819 205v153h154v-153 h-154zM819 410v153h154v-153h-154zM819 614v154h154v-154h-154z" />
<glyph unicode="o" d="M0 205v153h154v-153h-154zM0 410v153h154v-153h-154zM0 614v154h154v-154h-154zM205 0v154h153v-154h-153zM205 819v154h153v-154h-153zM410 0v154h153v-154h-153zM410 819v154h153v-154h-153zM614 0v154h154v-154h-154zM614 819v154h154v-154h-154zM819 205v153h154 v-153h-154zM819 410v153h154v-153h-154zM819 614v154h154v-154h-154z" />
<glyph unicode="p" d="M0 0v154h154v-154h-154zM0 -51h154v-154h-154v154zM0 205v153h154v-153h-154zM0 -256h154v-154h-154v154zM0 410v153h154v-153h-154zM0 614v154h154v-154h-154zM0 819v154h154v-154h-154zM205 0v154h153v-154h-153zM205 614v154h153v-154h-153zM410 0v154h153v-154h-153z M410 819v154h153v-154h-153zM614 0v154h154v-154h-154zM614 819v154h154v-154h-154zM819 205v153h154v-153h-154zM819 410v153h154v-153h-154zM819 614v154h154v-154h-154z" />
<glyph unicode="q" d="M0 205v153h154v-153h-154zM0 410v153h154v-153h-154zM0 614v154h154v-154h-154zM205 0v154h153v-154h-153zM205 819v154h153v-154h-153zM410 0v154h153v-154h-153zM410 819v154h153v-154h-153zM614 205v153h154v-153h-154zM614 819v154h154v-154h-154zM819 0v154h154 v-154h-154zM819 -51h154v-154h-154v154zM819 205v153h154v-153h-154zM819 -256h154v-154h-154v154zM819 410v153h154v-153h-154zM819 614v154h154v-154h-154zM819 819v154h154v-154h-154z" />
<glyph unicode="r" d="M0 0v154h154v-154h-154zM0 819v154h154v-154h-154zM205 0v154h153v-154h-153zM205 205v153h153v-153h-153zM205 410v153h153v-153h-153zM205 614v154h153v-154h-153zM205 819v154h153v-154h-153zM410 0v154h153v-154h-153zM410 614v154h153v-154h-153zM614 0v154h154 v-154h-154zM614 819v154h154v-154h-154zM819 819v154h154v-154h-154z" />
<glyph unicode="s" d="M0 0v154h154v-154h-154zM0 614v154h154v-154h-154zM205 0v154h153v-154h-153zM205 410v153h153v-153h-153zM205 819v154h153v-154h-153zM410 0v154h153v-154h-153zM410 410v153h153v-153h-153zM410 819v154h153v-154h-153zM614 0v154h154v-154h-154zM614 410v153h154 v-153h-154zM614 819v154h154v-154h-154zM819 205v153h154v-153h-154zM819 819v154h154v-154h-154z" />
<glyph unicode="t" d="M0 819v154h154v-154h-154zM205 819v154h153v-154h-153zM410 205v153h153v-153h-153zM410 410v153h153v-153h-153zM410 614v154h153v-154h-153zM410 819v154h153v-154h-153zM410 1024v154h153v-154h-153zM614 0v154h154v-154h-154zM614 819v154h154v-154h-154zM819 0v154 h154v-154h-154zM819 819v154h154v-154h-154z" />
<glyph unicode="u" d="M0 205v153h154v-153h-154zM0 410v153h154v-153h-154zM0 614v154h154v-154h-154zM0 819v154h154v-154h-154zM205 0v154h153v-154h-153zM410 0v154h153v-154h-153zM614 205v153h154v-153h-154zM819 0v154h154v-154h-154zM819 205v153h154v-153h-154zM819 410v153h154v-153 h-154zM819 614v154h154v-154h-154zM819 819v154h154v-154h-154z" />
<glyph unicode="v" d="M0 614v154h154v-154h-154zM0 819v154h154v-154h-154zM205 205v153h153v-153h-153zM205 410v153h153v-153h-153zM410 0v154h153v-154h-153zM614 205v153h154v-153h-154zM614 410v153h154v-153h-154zM819 614v154h154v-154h-154zM819 819v154h154v-154h-154z" />
<glyph unicode="w" d="M0 410v153h154v-153h-154zM0 614v154h154v-154h-154zM0 819v154h154v-154h-154zM205 0v154h153v-154h-153zM205 205v153h153v-153h-153zM410 410v153h153v-153h-153zM410 614v154h153v-154h-153zM614 0v154h154v-154h-154zM614 205v153h154v-153h-154zM819 410v153h154 v-153h-154zM819 614v154h154v-154h-154zM819 819v154h154v-154h-154z" />
<glyph unicode="x" d="M0 0v154h154v-154h-154zM0 205v153h154v-153h-154zM0 614v154h154v-154h-154zM0 819v154h154v-154h-154zM205 410v153h153v-153h-153zM410 410v153h153v-153h-153zM614 410v153h154v-153h-154zM819 0v154h154v-154h-154zM819 205v153h154v-153h-154zM819 614v154h154 v-154h-154zM819 819v154h154v-154h-154z" />
<glyph unicode="y" d="M0 -256h154v-154h-154v154zM0 614v154h154v-154h-154zM0 819v154h154v-154h-154zM205 205v153h153v-153h-153zM205 -256h153v-154h-153v154zM205 410v153h153v-153h-153zM410 0v154h153v-154h-153zM410 -51h153v-154h-153v154zM614 205v153h154v-153h-154zM614 410v153 h154v-153h-154zM819 614v154h154v-154h-154zM819 819v154h154v-154h-154z" />
<glyph unicode="z" d="M0 0v154h154v-154h-154zM0 819v154h154v-154h-154zM205 0v154h153v-154h-153zM205 205v153h153v-153h-153zM205 819v154h153v-154h-153zM410 0v154h153v-154h-153zM410 410v153h153v-153h-153zM410 819v154h153v-154h-153zM614 0v154h154v-154h-154zM614 614v154h154 v-154h-154zM614 819v154h154v-154h-154zM819 0v154h154v-154h-154zM819 819v154h154v-154h-154z" />
<glyph unicode="{" d="M205 614v154h153v-154h-153zM410 205v153h153v-153h-153zM410 410v153h153v-153h-153zM410 819v154h153v-154h-153zM410 1024v154h153v-154h-153zM614 0v154h154v-154h-154zM614 1229v153h154v-153h-154z" />
<glyph unicode="|" d="M410 0v154h153v-154h-153zM410 205v153h153v-153h-153zM410 410v153h153v-153h-153zM410 614v154h153v-154h-153zM410 819v154h153v-154h-153zM410 1024v154h153v-154h-153zM410 1229v153h153v-153h-153z" />
<glyph unicode="}" d="M410 0v154h153v-154h-153zM410 1229v153h153v-153h-153zM614 205v153h154v-153h-154zM614 410v153h154v-153h-154zM614 819v154h154v-154h-154zM614 1024v154h154v-154h-154zM819 614v154h154v-154h-154z" />
<glyph unicode="~" d="M0 614v154h154v-154h-154zM205 819v154h153v-154h-153zM410 614v154h153v-154h-153zM614 410v153h154v-153h-154zM819 614v154h154v-154h-154z" />
<glyph unicode="&#xa0;" />
<glyph unicode="&#xa1;" d="M410 0v154h153v-154h-153zM410 205v153h153v-153h-153zM410 410v153h153v-153h-153zM410 614v154h153v-154h-153zM410 1024v154h153v-154h-153zM410 1229v153h153v-153h-153z" />
<glyph unicode="&#xa2;" d="M0 205v153h154v-153h-154zM0 410v153h154v-153h-154zM0 614v154h154v-154h-154zM205 0v154h153v-154h-153zM205 819v154h153v-154h-153zM410 0v154h153v-154h-153zM410 -51h153v-154h-153v154zM410 205v153h153v-153h-153zM410 410v153h153v-153h-153zM410 614v154h153 v-154h-153zM410 819v154h153v-154h-153zM410 1024v154h153v-154h-153zM614 0v154h154v-154h-154zM614 819v154h154v-154h-154zM819 205v153h154v-153h-154zM819 614v154h154v-154h-154z" />
<glyph unicode="&#xa3;" d="M0 0v154h154v-154h-154zM0 614v154h154v-154h-154zM205 0v154h153v-154h-153zM205 205v153h153v-153h-153zM205 410v153h153v-153h-153zM205 614v154h153v-154h-153zM205 819v154h153v-154h-153zM205 1024v154h153v-154h-153zM410 0v154h153v-154h-153zM410 614v154h153 v-154h-153zM410 1229v153h153v-153h-153zM614 0v154h154v-154h-154zM614 614v154h154v-154h-154zM614 1229v153h154v-153h-154zM819 0v154h154v-154h-154zM819 1024v154h154v-154h-154z" />
<glyph unicode="&#xa4;" d="M0 0v154h154v-154h-154zM0 819v154h154v-154h-154zM205 205v153h153v-153h-153zM205 410v153h153v-153h-153zM205 614v154h153v-154h-153zM410 205v153h153v-153h-153zM410 614v154h153v-154h-153zM614 205v153h154v-153h-154zM614 410v153h154v-153h-154zM614 614v154 h154v-154h-154zM819 0v154h154v-154h-154zM819 819v154h154v-154h-154z" />
<glyph unicode="&#xa5;" d="M0 410v153h154v-153h-154zM0 1024v154h154v-154h-154zM0 1229v153h154v-153h-154zM205 410v153h153v-153h-153zM205 819v154h153v-154h-153zM410 0v154h153v-154h-153zM410 205v153h153v-153h-153zM410 410v153h153v-153h-153zM410 614v154h153v-154h-153zM614 410v153 h154v-153h-154zM614 819v154h154v-154h-154zM819 410v153h154v-153h-154zM819 1024v154h154v-154h-154zM819 1229v153h154v-153h-154z" />
<glyph unicode="&#xa6;" d="M410 0v154h153v-154h-153zM410 205v153h153v-153h-153zM410 410v153h153v-153h-153zM410 819v154h153v-154h-153zM410 1024v154h153v-154h-153zM410 1229v153h153v-153h-153z" />
<glyph unicode="&#xa7;" d="M205 0v154h153v-154h-153zM205 614v154h153v-154h-153zM205 1024v154h153v-154h-153zM410 0v154h153v-154h-153zM410 410v153h153v-153h-153zM410 819v154h153v-154h-153zM410 1229v153h153v-153h-153zM614 0v154h154v-154h-154zM614 410v153h154v-153h-154zM614 819v154 h154v-154h-154zM614 1229v153h154v-153h-154zM819 205v153h154v-153h-154zM819 614v154h154v-154h-154zM819 1229v153h154v-153h-154z" />
<glyph unicode="&#xa8;" d="M0 1229v153h154v-153h-154zM0 1434v153h154v-153h-154zM819 1229v153h154v-153h-154zM819 1434v153h154v-153h-154z" />
<glyph unicode="&#xa9;" d="M0 205v153h154v-153h-154zM0 410v153h154v-153h-154zM0 614v154h154v-154h-154zM205 0v154h153v-154h-153zM205 410v153h153v-153h-153zM205 819v154h153v-154h-153zM410 0v154h153v-154h-153zM410 205v153h153v-153h-153zM410 614v154h153v-154h-153zM410 819v154h153 v-154h-153zM614 0v154h154v-154h-154zM614 819v154h154v-154h-154zM819 205v153h154v-153h-154zM819 410v153h154v-153h-154zM819 614v154h154v-154h-154z" />
<glyph unicode="&#xaa;" d="M0 819v154h154v-154h-154zM205 614v154h153v-154h-153zM205 819v154h153v-154h-153zM205 1229v153h153v-153h-153zM410 614v154h153v-154h-153zM410 819v154h153v-154h-153zM410 1024v154h153v-154h-153z" />
<glyph unicode="&#xab;" d="M0 410v153h154v-153h-154zM205 205v153h153v-153h-153zM205 614v154h153v-154h-153zM410 0v154h153v-154h-153zM410 410v153h153v-153h-153zM410 819v154h153v-154h-153zM614 205v153h154v-153h-154zM614 614v154h154v-154h-154zM819 0v154h154v-154h-154zM819 819v154 h154v-154h-154z" />
<glyph unicode="&#xac;" d="M0 410v153h154v-153h-154zM205 410v153h153v-153h-153zM410 410v153h153v-153h-153zM614 410v153h154v-153h-154zM819 0v154h154v-154h-154zM819 205v153h154v-153h-154zM819 410v153h154v-153h-154z" />
<glyph unicode="&#xad;" d="M205 410v153h153v-153h-153zM410 410v153h153v-153h-153zM614 410v153h154v-153h-154z" />
<glyph unicode="&#xae;" d="M0 614v154h154v-154h-154zM0 819v154h154v-154h-154zM0 1024v154h154v-154h-154zM205 410v153h153v-153h-153zM205 1229v153h153v-153h-153zM410 410v153h153v-153h-153zM410 819v154h153v-154h-153zM410 1024v154h153v-154h-153zM410 1229v153h153v-153h-153zM614 410 v153h154v-153h-154zM614 614v154h154v-154h-154zM614 1024v154h154v-154h-154zM614 1229v153h154v-153h-154zM819 614v154h154v-154h-154zM819 819v154h154v-154h-154zM819 1024v154h154v-154h-154z" />
<glyph unicode="&#xaf;" d="M205 1229v153h153v-153h-153zM410 1229v153h153v-153h-153zM614 1229v153h154v-153h-154z" />
<glyph unicode="&#xb0;" d="M0 1024v154h154v-154h-154zM205 819v154h153v-154h-153zM205 1229v153h153v-153h-153zM410 1024v154h153v-154h-153z" />
<glyph unicode="&#xb1;" d="M0 0v154h154v-154h-154zM0 614v154h154v-154h-154zM205 0v154h153v-154h-153zM205 614v154h153v-154h-153zM410 0v154h153v-154h-153zM410 410v153h153v-153h-153zM410 614v154h153v-154h-153zM410 819v154h153v-154h-153zM614 0v154h154v-154h-154zM614 614v154h154 v-154h-154zM819 0v154h154v-154h-154zM819 614v154h154v-154h-154z" />
<glyph unicode="&#xb2;" d="M0 614v154h154v-154h-154zM0 819v154h154v-154h-154zM0 1229v153h154v-153h-154zM205 614v154h153v-154h-153zM205 1024v154h153v-154h-153z" />
<glyph unicode="&#xb3;" d="M0 614v154h154v-154h-154zM0 1229v153h154v-153h-154zM205 614v154h153v-154h-153zM205 819v154h153v-154h-153zM205 1024v154h153v-154h-153z" />
<glyph unicode="&#xb4;" d="M205 1229v153h153v-153h-153zM410 1229v153h153v-153h-153zM614 1434v153h154v-153h-154z" />
<glyph unicode="&#xb5;" d="M0 0v154h154v-154h-154zM0 -51h154v-154h-154v154zM0 205v153h154v-153h-154zM0 -256h154v-154h-154v154zM0 410v153h154v-153h-154zM0 614v154h154v-154h-154zM0 819v154h154v-154h-154zM205 0v154h153v-154h-153zM410 0v154h153v-154h-153zM614 205v153h154v-153h-154z M819 0v154h154v-154h-154zM819 205v153h154v-153h-154zM819 410v153h154v-153h-154zM819 614v154h154v-154h-154zM819 819v154h154v-154h-154z" />
<glyph unicode="&#xb6;" d="M0 819v154h154v-154h-154zM0 1024v154h154v-154h-154zM205 614v154h153v-154h-153zM205 819v154h153v-154h-153zM205 1024v154h153v-154h-153zM205 1229v153h153v-153h-153zM410 0v154h153v-154h-153zM410 205v153h153v-153h-153zM410 410v153h153v-153h-153zM410 614 v154h153v-154h-153zM410 819v154h153v-154h-153zM410 1024v154h153v-154h-153zM410 1229v153h153v-153h-153zM819 0v154h154v-154h-154zM819 205v153h154v-153h-154zM819 410v153h154v-153h-154zM819 614v154h154v-154h-154zM819 819v154h154v-154h-154zM819 1024v154h154 v-154h-154zM819 1229v153h154v-153h-154z" />
<glyph unicode="&#xb7;" d="M205 410v153h153v-153h-153zM205 614v154h153v-154h-153z" />
<glyph unicode="&#xb8;" d="M205 -256h153v-154h-153v154zM410 -51h153v-154h-153v154z" />
<glyph unicode="&#xb9;" d="M0 614v154h154v-154h-154zM0 1229v153h154v-153h-154zM205 614v154h153v-154h-153zM205 819v154h153v-154h-153zM205 1024v154h153v-154h-153zM205 1229v153h153v-153h-153zM410 614v154h153v-154h-153z" />
<glyph unicode="&#xba;" d="M0 1024v154h154v-154h-154zM205 819v154h153v-154h-153zM205 1229v153h153v-153h-153zM410 1024v154h153v-154h-153z" />
<glyph unicode="&#xbb;" d="M0 0v154h154v-154h-154zM0 819v154h154v-154h-154zM205 205v153h153v-153h-153zM205 614v154h153v-154h-153zM410 0v154h153v-154h-153zM410 410v153h153v-153h-153zM410 819v154h153v-154h-153zM614 205v153h154v-153h-154zM614 614v154h154v-154h-154zM819 410v153h154 v-153h-154z" />
<glyph unicode="&#xbc;" d="M0 1229v153h154v-153h-154zM205 0v154h153v-154h-153zM205 205v153h153v-153h-153zM205 819v154h153v-154h-153zM205 1024v154h153v-154h-153zM205 1229v153h153v-153h-153zM410 410v153h153v-153h-153zM410 614v154h153v-154h-153zM614 819v154h154v-154h-154zM819 410 v153h154v-153h-154zM819 1024v154h154v-154h-154zM819 1229v153h154v-153h-154zM1024 0v154h154v-154h-154zM1024 205v153h154v-153h-154zM1024 410v153h154v-153h-154zM1024 614v154h154v-154h-154z" />
<glyph unicode="&#xbd;" d="M0 1229v153h154v-153h-154zM205 0v154h153v-154h-153zM205 205v153h153v-153h-153zM205 819v154h153v-154h-153zM205 1024v154h153v-154h-153zM205 1229v153h153v-153h-153zM410 410v153h153v-153h-153zM410 614v154h153v-154h-153zM614 819v154h154v-154h-154zM819 0 v154h154v-154h-154zM819 205v153h154v-153h-154zM819 614v154h154v-154h-154zM819 1024v154h154v-154h-154zM819 1229v153h154v-153h-154zM1024 0v154h154v-154h-154zM1024 410v153h154v-153h-154z" />
<glyph unicode="&#xbe;" d="M0 614v154h154v-154h-154zM0 1229v153h154v-153h-154zM205 0v154h153v-154h-153zM205 205v153h153v-153h-153zM205 614v154h153v-154h-153zM205 819v154h153v-154h-153zM205 1024v154h153v-154h-153zM410 410v153h153v-153h-153zM410 614v154h153v-154h-153zM614 819v154 h154v-154h-154zM819 410v153h154v-153h-154zM819 1024v154h154v-154h-154zM819 1229v153h154v-153h-154zM1024 0v154h154v-154h-154zM1024 205v153h154v-153h-154zM1024 410v153h154v-153h-154zM1024 614v154h154v-154h-154z" />
<glyph unicode="&#xbf;" d="M0 205v153h154v-153h-154zM0 410v153h154v-153h-154zM205 0v154h153v-154h-153zM205 614v154h153v-154h-153zM410 0v154h153v-154h-153zM410 614v154h153v-154h-153zM410 1024v154h153v-154h-153zM410 1229v153h153v-153h-153zM614 0v154h154v-154h-154zM819 205v153h154 v-153h-154z" />
<glyph unicode="&#xc0;" d="M0 0v154h154v-154h-154zM0 205v153h154v-153h-154zM0 410v153h154v-153h-154zM0 614v154h154v-154h-154zM0 819v154h154v-154h-154zM0 1024v154h154v-154h-154zM205 410v153h153v-153h-153zM205 1229v153h153v-153h-153zM205 1894v154h153v-154h-153zM410 410v153h153 v-153h-153zM410 1229v153h153v-153h-153zM410 1690v153h153v-153h-153zM614 410v153h154v-153h-154zM614 1229v153h154v-153h-154zM614 1690v153h154v-153h-154zM819 0v154h154v-154h-154zM819 205v153h154v-153h-154zM819 410v153h154v-153h-154zM819 614v154h154v-154 h-154zM819 819v154h154v-154h-154zM819 1024v154h154v-154h-154z" />
<glyph unicode="&#xc1;" d="M0 0v154h154v-154h-154zM0 205v153h154v-153h-154zM0 410v153h154v-153h-154zM0 614v154h154v-154h-154zM0 819v154h154v-154h-154zM0 1024v154h154v-154h-154zM205 410v153h153v-153h-153zM205 1229v153h153v-153h-153zM205 1690v153h153v-153h-153zM410 410v153h153 v-153h-153zM410 1229v153h153v-153h-153zM410 1690v153h153v-153h-153zM614 410v153h154v-153h-154zM614 1229v153h154v-153h-154zM614 1894v154h154v-154h-154zM819 0v154h154v-154h-154zM819 205v153h154v-153h-154zM819 410v153h154v-153h-154zM819 614v154h154v-154 h-154zM819 819v154h154v-154h-154zM819 1024v154h154v-154h-154z" />
<glyph unicode="&#xc2;" d="M0 0v154h154v-154h-154zM0 205v153h154v-153h-154zM0 410v153h154v-153h-154zM0 614v154h154v-154h-154zM0 819v154h154v-154h-154zM0 1024v154h154v-154h-154zM205 410v153h153v-153h-153zM205 1229v153h153v-153h-153zM205 1690v153h153v-153h-153zM410 410v153h153 v-153h-153zM410 1229v153h153v-153h-153zM410 1894v154h153v-154h-153zM614 410v153h154v-153h-154zM614 1229v153h154v-153h-154zM614 1690v153h154v-153h-154zM819 0v154h154v-154h-154zM819 205v153h154v-153h-154zM819 410v153h154v-153h-154zM819 614v154h154v-154 h-154zM819 819v154h154v-154h-154zM819 1024v154h154v-154h-154z" />
<glyph unicode="&#xc3;" d="M0 0v154h154v-154h-154zM0 205v153h154v-153h-154zM0 410v153h154v-153h-154zM0 614v154h154v-154h-154zM0 819v154h154v-154h-154zM0 1024v154h154v-154h-154zM0 1690v153h154v-153h-154zM205 410v153h153v-153h-153zM205 1229v153h153v-153h-153zM205 1894v154h153 v-154h-153zM410 410v153h153v-153h-153zM410 1229v153h153v-153h-153zM410 1690v153h153v-153h-153zM614 410v153h154v-153h-154zM614 1229v153h154v-153h-154zM614 1690v153h154v-153h-154zM819 0v154h154v-154h-154zM819 205v153h154v-153h-154zM819 410v153h154v-153 h-154zM819 614v154h154v-154h-154zM819 819v154h154v-154h-154zM819 1024v154h154v-154h-154zM819 1894v154h154v-154h-154z" />
<glyph unicode="&#xc4;" d="M0 0v154h154v-154h-154zM0 205v153h154v-153h-154zM0 410v153h154v-153h-154zM0 614v154h154v-154h-154zM0 819v154h154v-154h-154zM0 1024v154h154v-154h-154zM0 1690v153h154v-153h-154zM0 1894v154h154v-154h-154zM205 410v153h153v-153h-153zM205 1229v153h153v-153 h-153zM410 410v153h153v-153h-153zM410 1229v153h153v-153h-153zM614 410v153h154v-153h-154zM614 1229v153h154v-153h-154zM819 0v154h154v-154h-154zM819 205v153h154v-153h-154zM819 410v153h154v-153h-154zM819 614v154h154v-154h-154zM819 819v154h154v-154h-154z M819 1024v154h154v-154h-154zM819 1690v153h154v-153h-154zM819 1894v154h154v-154h-154z" />
<glyph unicode="&#xc5;" d="M0 0v154h154v-154h-154zM0 205v153h154v-153h-154zM0 410v153h154v-153h-154zM0 614v154h154v-154h-154zM0 819v154h154v-154h-154zM0 1024v154h154v-154h-154zM205 410v153h153v-153h-153zM205 1229v153h153v-153h-153zM205 1894v154h153v-154h-153zM410 410v153h153 v-153h-153zM410 1229v153h153v-153h-153zM410 1690v153h153v-153h-153zM410 2099v154h153v-154h-153zM614 410v153h154v-153h-154zM614 1229v153h154v-153h-154zM614 1894v154h154v-154h-154zM819 0v154h154v-154h-154zM819 205v153h154v-153h-154zM819 410v153h154v-153 h-154zM819 614v154h154v-154h-154zM819 819v154h154v-154h-154zM819 1024v154h154v-154h-154z" />
<glyph unicode="&#xc6;" d="M0 0v154h154v-154h-154zM0 205v153h154v-153h-154zM0 410v153h154v-153h-154zM0 614v154h154v-154h-154zM0 819v154h154v-154h-154zM0 1024v154h154v-154h-154zM205 410v153h153v-153h-153zM205 1229v153h153v-153h-153zM410 0v154h153v-154h-153zM410 205v153h153v-153 h-153zM410 410v153h153v-153h-153zM410 614v154h153v-154h-153zM410 819v154h153v-154h-153zM410 1024v154h153v-154h-153zM410 1229v153h153v-153h-153zM614 0v154h154v-154h-154zM614 614v154h154v-154h-154zM614 1229v153h154v-153h-154zM819 0v154h154v-154h-154z M819 1229v153h154v-153h-154z" />
<glyph unicode="&#xc7;" d="M0 205v153h154v-153h-154zM0 410v153h154v-153h-154zM0 614v154h154v-154h-154zM0 819v154h154v-154h-154zM0 1024v154h154v-154h-154zM205 0v154h153v-154h-153zM205 -256h153v-154h-153v154zM205 1229v153h153v-153h-153zM410 0v154h153v-154h-153zM410 -51h153v-154 h-153v154zM410 1229v153h153v-153h-153zM614 0v154h154v-154h-154zM614 1229v153h154v-153h-154zM819 205v153h154v-153h-154zM819 1024v154h154v-154h-154z" />
<glyph unicode="&#xc8;" d="M0 0v154h154v-154h-154zM0 205v153h154v-153h-154zM0 410v153h154v-153h-154zM0 614v154h154v-154h-154zM0 819v154h154v-154h-154zM0 1024v154h154v-154h-154zM0 1229v153h154v-153h-154zM205 0v154h153v-154h-153zM205 614v154h153v-154h-153zM205 1229v153h153v-153 h-153zM205 1894v154h153v-154h-153zM410 0v154h153v-154h-153zM410 614v154h153v-154h-153zM410 1229v153h153v-153h-153zM410 1690v153h153v-153h-153zM614 0v154h154v-154h-154zM614 614v154h154v-154h-154zM614 1229v153h154v-153h-154zM614 1690v153h154v-153h-154z M819 0v154h154v-154h-154zM819 1229v153h154v-153h-154z" />
<glyph unicode="&#xc9;" d="M0 0v154h154v-154h-154zM0 205v153h154v-153h-154zM0 410v153h154v-153h-154zM0 614v154h154v-154h-154zM0 819v154h154v-154h-154zM0 1024v154h154v-154h-154zM0 1229v153h154v-153h-154zM205 0v154h153v-154h-153zM205 614v154h153v-154h-153zM205 1229v153h153v-153 h-153zM205 1690v153h153v-153h-153zM410 0v154h153v-154h-153zM410 614v154h153v-154h-153zM410 1229v153h153v-153h-153zM410 1690v153h153v-153h-153zM614 0v154h154v-154h-154zM614 614v154h154v-154h-154zM614 1229v153h154v-153h-154zM614 1894v154h154v-154h-154z M819 0v154h154v-154h-154zM819 1229v153h154v-153h-154z" />
<glyph unicode="&#xca;" d="M0 0v154h154v-154h-154zM0 205v153h154v-153h-154zM0 410v153h154v-153h-154zM0 614v154h154v-154h-154zM0 819v154h154v-154h-154zM0 1024v154h154v-154h-154zM0 1229v153h154v-153h-154zM205 0v154h153v-154h-153zM205 614v154h153v-154h-153zM205 1229v153h153v-153 h-153zM205 1690v153h153v-153h-153zM410 0v154h153v-154h-153zM410 614v154h153v-154h-153zM410 1229v153h153v-153h-153zM410 1894v154h153v-154h-153zM614 0v154h154v-154h-154zM614 614v154h154v-154h-154zM614 1229v153h154v-153h-154zM614 1690v153h154v-153h-154z M819 0v154h154v-154h-154zM819 1229v153h154v-153h-154z" />
<glyph unicode="&#xcb;" d="M0 0v154h154v-154h-154zM0 205v153h154v-153h-154zM0 410v153h154v-153h-154zM0 614v154h154v-154h-154zM0 819v154h154v-154h-154zM0 1024v154h154v-154h-154zM0 1229v153h154v-153h-154zM0 1690v153h154v-153h-154zM0 1894v154h154v-154h-154zM205 0v154h153v-154h-153 zM205 614v154h153v-154h-153zM205 1229v153h153v-153h-153zM410 0v154h153v-154h-153zM410 614v154h153v-154h-153zM410 1229v153h153v-153h-153zM614 0v154h154v-154h-154zM614 614v154h154v-154h-154zM614 1229v153h154v-153h-154zM819 0v154h154v-154h-154zM819 1229v153 h154v-153h-154zM819 1690v153h154v-153h-154zM819 1894v154h154v-154h-154z" />
<glyph unicode="&#xcc;" d="M0 0v154h154v-154h-154zM0 1229v153h154v-153h-154zM205 0v154h153v-154h-153zM205 1229v153h153v-153h-153zM205 1894v154h153v-154h-153zM410 0v154h153v-154h-153zM410 205v153h153v-153h-153zM410 410v153h153v-153h-153zM410 614v154h153v-154h-153zM410 819v154 h153v-154h-153zM410 1024v154h153v-154h-153zM410 1229v153h153v-153h-153zM410 1690v153h153v-153h-153zM614 0v154h154v-154h-154zM614 1229v153h154v-153h-154zM614 1690v153h154v-153h-154zM819 0v154h154v-154h-154zM819 1229v153h154v-153h-154z" />
<glyph unicode="&#xcd;" d="M0 0v154h154v-154h-154zM0 1229v153h154v-153h-154zM205 0v154h153v-154h-153zM205 1229v153h153v-153h-153zM205 1690v153h153v-153h-153zM410 0v154h153v-154h-153zM410 205v153h153v-153h-153zM410 410v153h153v-153h-153zM410 614v154h153v-154h-153zM410 819v154 h153v-154h-153zM410 1024v154h153v-154h-153zM410 1229v153h153v-153h-153zM410 1690v153h153v-153h-153zM614 0v154h154v-154h-154zM614 1229v153h154v-153h-154zM614 1894v154h154v-154h-154zM819 0v154h154v-154h-154zM819 1229v153h154v-153h-154z" />
<glyph unicode="&#xce;" d="M0 0v154h154v-154h-154zM0 1229v153h154v-153h-154zM205 0v154h153v-154h-153zM205 1229v153h153v-153h-153zM205 1690v153h153v-153h-153zM410 0v154h153v-154h-153zM410 205v153h153v-153h-153zM410 410v153h153v-153h-153zM410 614v154h153v-154h-153zM410 819v154 h153v-154h-153zM410 1024v154h153v-154h-153zM410 1229v153h153v-153h-153zM410 1894v154h153v-154h-153zM614 0v154h154v-154h-154zM614 1229v153h154v-153h-154zM614 1690v153h154v-153h-154zM819 0v154h154v-154h-154zM819 1229v153h154v-153h-154z" />
<glyph unicode="&#xcf;" d="M0 0v154h154v-154h-154zM0 1229v153h154v-153h-154zM0 1690v153h154v-153h-154zM0 1894v154h154v-154h-154zM205 0v154h153v-154h-153zM205 1229v153h153v-153h-153zM410 0v154h153v-154h-153zM410 205v153h153v-153h-153zM410 410v153h153v-153h-153zM410 614v154h153 v-154h-153zM410 819v154h153v-154h-153zM410 1024v154h153v-154h-153zM410 1229v153h153v-153h-153zM614 0v154h154v-154h-154zM614 1229v153h154v-153h-154zM819 0v154h154v-154h-154zM819 1229v153h154v-153h-154zM819 1690v153h154v-153h-154zM819 1894v154h154v-154 h-154z" />
<glyph unicode="&#xd0;" d="M0 614v154h154v-154h-154zM205 0v154h153v-154h-153zM205 205v153h153v-153h-153zM205 410v153h153v-153h-153zM205 614v154h153v-154h-153zM205 819v154h153v-154h-153zM205 1024v154h153v-154h-153zM205 1229v153h153v-153h-153zM410 0v154h153v-154h-153zM410 614v154 h153v-154h-153zM410 1229v153h153v-153h-153zM614 0v154h154v-154h-154zM614 1229v153h154v-153h-154zM819 205v153h154v-153h-154zM819 410v153h154v-153h-154zM819 614v154h154v-154h-154zM819 819v154h154v-154h-154zM819 1024v154h154v-154h-154z" />
<glyph unicode="&#xd1;" d="M0 0v154h154v-154h-154zM0 205v153h154v-153h-154zM0 410v153h154v-153h-154zM0 614v154h154v-154h-154zM0 819v154h154v-154h-154zM0 1024v154h154v-154h-154zM0 1229v153h154v-153h-154zM0 1690v153h154v-153h-154zM205 1024v154h153v-154h-153zM205 1894v154h153v-154 h-153zM410 614v154h153v-154h-153zM410 819v154h153v-154h-153zM410 1690v153h153v-153h-153zM614 410v153h154v-153h-154zM614 1690v153h154v-153h-154zM819 0v154h154v-154h-154zM819 205v153h154v-153h-154zM819 410v153h154v-153h-154zM819 614v154h154v-154h-154z M819 819v154h154v-154h-154zM819 1024v154h154v-154h-154zM819 1229v153h154v-153h-154zM819 1894v154h154v-154h-154z" />
<glyph unicode="&#xd2;" d="M0 205v153h154v-153h-154zM0 410v153h154v-153h-154zM0 614v154h154v-154h-154zM0 819v154h154v-154h-154zM0 1024v154h154v-154h-154zM205 0v154h153v-154h-153zM205 1229v153h153v-153h-153zM205 1894v154h153v-154h-153zM410 0v154h153v-154h-153zM410 1229v153h153 v-153h-153zM410 1690v153h153v-153h-153zM614 0v154h154v-154h-154zM614 1229v153h154v-153h-154zM614 1690v153h154v-153h-154zM819 205v153h154v-153h-154zM819 410v153h154v-153h-154zM819 614v154h154v-154h-154zM819 819v154h154v-154h-154zM819 1024v154h154v-154 h-154z" />
<glyph unicode="&#xd3;" d="M0 205v153h154v-153h-154zM0 410v153h154v-153h-154zM0 614v154h154v-154h-154zM0 819v154h154v-154h-154zM0 1024v154h154v-154h-154zM205 0v154h153v-154h-153zM205 1229v153h153v-153h-153zM205 1690v153h153v-153h-153zM410 0v154h153v-154h-153zM410 1229v153h153 v-153h-153zM410 1690v153h153v-153h-153zM614 0v154h154v-154h-154zM614 1229v153h154v-153h-154zM614 1894v154h154v-154h-154zM819 205v153h154v-153h-154zM819 410v153h154v-153h-154zM819 614v154h154v-154h-154zM819 819v154h154v-154h-154zM819 1024v154h154v-154 h-154z" />
<glyph unicode="&#xd4;" d="M0 205v153h154v-153h-154zM0 410v153h154v-153h-154zM0 614v154h154v-154h-154zM0 819v154h154v-154h-154zM0 1024v154h154v-154h-154zM205 0v154h153v-154h-153zM205 1229v153h153v-153h-153zM205 1690v153h153v-153h-153zM410 0v154h153v-154h-153zM410 1229v153h153 v-153h-153zM410 1894v154h153v-154h-153zM614 0v154h154v-154h-154zM614 1229v153h154v-153h-154zM614 1690v153h154v-153h-154zM819 205v153h154v-153h-154zM819 410v153h154v-153h-154zM819 614v154h154v-154h-154zM819 819v154h154v-154h-154zM819 1024v154h154v-154 h-154z" />
<glyph unicode="&#xd5;" d="M0 205v153h154v-153h-154zM0 410v153h154v-153h-154zM0 614v154h154v-154h-154zM0 819v154h154v-154h-154zM0 1024v154h154v-154h-154zM0 1690v153h154v-153h-154zM205 0v154h153v-154h-153zM205 1229v153h153v-153h-153zM205 1894v154h153v-154h-153zM410 0v154h153 v-154h-153zM410 1229v153h153v-153h-153zM410 1690v153h153v-153h-153zM614 0v154h154v-154h-154zM614 1229v153h154v-153h-154zM614 1690v153h154v-153h-154zM819 205v153h154v-153h-154zM819 410v153h154v-153h-154zM819 614v154h154v-154h-154zM819 819v154h154v-154 h-154zM819 1024v154h154v-154h-154zM819 1894v154h154v-154h-154z" />
<glyph unicode="&#xd6;" d="M0 205v153h154v-153h-154zM0 410v153h154v-153h-154zM0 614v154h154v-154h-154zM0 819v154h154v-154h-154zM0 1024v154h154v-154h-154zM0 1690v153h154v-153h-154zM0 1894v154h154v-154h-154zM205 0v154h153v-154h-153zM205 1229v153h153v-153h-153zM410 0v154h153v-154 h-153zM410 1229v153h153v-153h-153zM614 0v154h154v-154h-154zM614 1229v153h154v-153h-154zM819 205v153h154v-153h-154zM819 410v153h154v-153h-154zM819 614v154h154v-154h-154zM819 819v154h154v-154h-154zM819 1024v154h154v-154h-154zM819 1690v153h154v-153h-154z M819 1894v154h154v-154h-154z" />
<glyph unicode="&#xd7;" d="M0 0v154h154v-154h-154zM0 819v154h154v-154h-154zM205 205v153h153v-153h-153zM205 614v154h153v-154h-153zM410 410v153h153v-153h-153zM614 205v153h154v-153h-154zM614 614v154h154v-154h-154zM819 0v154h154v-154h-154zM819 819v154h154v-154h-154z" />
<glyph unicode="&#xd8;" d="M0 205v153h154v-153h-154zM0 410v153h154v-153h-154zM0 614v154h154v-154h-154zM0 819v154h154v-154h-154zM0 1024v154h154v-154h-154zM205 0v154h153v-154h-153zM205 1229v153h153v-153h-153zM209 205v153h153v-153h-153zM410 0v154h153v-154h-153zM410 1229v153h153 v-153h-153zM412 410v153h153v-153h-153zM412 614v154h153v-154h-153zM412 819v154h153v-154h-153zM614 0v154h154v-154h-154zM614 1024v154h154v-154h-154zM614 1229v153h154v-153h-154zM819 205v153h154v-153h-154zM819 410v153h154v-153h-154zM819 614v154h154v-154h-154z M819 819v154h154v-154h-154zM819 1024v154h154v-154h-154z" />
<glyph unicode="&#xd9;" d="M0 205v153h154v-153h-154zM0 410v153h154v-153h-154zM0 614v154h154v-154h-154zM0 819v154h154v-154h-154zM0 1024v154h154v-154h-154zM0 1229v153h154v-153h-154zM205 0v154h153v-154h-153zM205 1894v154h153v-154h-153zM410 0v154h153v-154h-153zM410 1690v153h153 v-153h-153zM614 0v154h154v-154h-154zM614 1690v153h154v-153h-154zM819 205v153h154v-153h-154zM819 410v153h154v-153h-154zM819 614v154h154v-154h-154zM819 819v154h154v-154h-154zM819 1024v154h154v-154h-154zM819 1229v153h154v-153h-154z" />
<glyph unicode="&#xda;" d="M0 205v153h154v-153h-154zM0 410v153h154v-153h-154zM0 614v154h154v-154h-154zM0 819v154h154v-154h-154zM0 1024v154h154v-154h-154zM0 1229v153h154v-153h-154zM205 0v154h153v-154h-153zM205 1690v153h153v-153h-153zM410 0v154h153v-154h-153zM410 1690v153h153 v-153h-153zM614 0v154h154v-154h-154zM614 1894v154h154v-154h-154zM819 205v153h154v-153h-154zM819 410v153h154v-153h-154zM819 614v154h154v-154h-154zM819 819v154h154v-154h-154zM819 1024v154h154v-154h-154zM819 1229v153h154v-153h-154z" />
<glyph unicode="&#xdb;" d="M0 205v153h154v-153h-154zM0 410v153h154v-153h-154zM0 614v154h154v-154h-154zM0 819v154h154v-154h-154zM0 1024v154h154v-154h-154zM0 1229v153h154v-153h-154zM205 0v154h153v-154h-153zM205 1690v153h153v-153h-153zM410 0v154h153v-154h-153zM410 1894v154h153 v-154h-153zM614 0v154h154v-154h-154zM614 1690v153h154v-153h-154zM819 205v153h154v-153h-154zM819 410v153h154v-153h-154zM819 614v154h154v-154h-154zM819 819v154h154v-154h-154zM819 1024v154h154v-154h-154zM819 1229v153h154v-153h-154z" />
<glyph unicode="&#xdc;" d="M0 205v153h154v-153h-154zM0 410v153h154v-153h-154zM0 614v154h154v-154h-154zM0 819v154h154v-154h-154zM0 1024v154h154v-154h-154zM0 1229v153h154v-153h-154zM0 1690v153h154v-153h-154zM0 1894v154h154v-154h-154zM205 0v154h153v-154h-153zM410 0v154h153v-154 h-153zM614 0v154h154v-154h-154zM819 205v153h154v-153h-154zM819 410v153h154v-153h-154zM819 614v154h154v-154h-154zM819 819v154h154v-154h-154zM819 1024v154h154v-154h-154zM819 1229v153h154v-153h-154zM819 1690v153h154v-153h-154zM819 1894v154h154v-154h-154z " />
<glyph unicode="&#xdd;" d="M0 819v154h154v-154h-154zM0 1024v154h154v-154h-154zM0 1229v153h154v-153h-154zM205 614v154h153v-154h-153zM205 1690v153h153v-153h-153zM410 0v154h153v-154h-153zM410 205v153h153v-153h-153zM410 410v153h153v-153h-153zM410 1690v153h153v-153h-153zM614 614v154 h154v-154h-154zM614 1894v154h154v-154h-154zM819 819v154h154v-154h-154zM819 1024v154h154v-154h-154zM819 1229v153h154v-153h-154z" />
<glyph unicode="&#xde;" d="M0 0v154h154v-154h-154zM0 205v153h154v-153h-154zM0 410v153h154v-153h-154zM0 614v154h154v-154h-154zM0 819v154h154v-154h-154zM0 1024v154h154v-154h-154zM0 1229v153h154v-153h-154zM205 410v153h153v-153h-153zM205 1024v154h153v-154h-153zM410 410v153h153v-153 h-153zM410 1024v154h153v-154h-153zM614 410v153h154v-153h-154zM614 1024v154h154v-154h-154zM819 614v154h154v-154h-154zM819 819v154h154v-154h-154z" />
<glyph unicode="&#xdf;" d="M0 0v154h154v-154h-154zM0 205v153h154v-153h-154zM0 410v153h154v-153h-154zM0 614v154h154v-154h-154zM0 819v154h154v-154h-154zM205 1024v154h153v-154h-153zM410 0v154h153v-154h-153zM410 614v154h153v-154h-153zM410 1229v153h153v-153h-153zM614 0v154h154v-154 h-154zM614 410v153h154v-153h-154zM614 819v154h154v-154h-154zM614 1024v154h154v-154h-154zM819 205v153h154v-153h-154z" />
<glyph unicode="&#xe0;" d="M0 205v153h154v-153h-154zM205 0v154h153v-154h-153zM205 410v153h153v-153h-153zM205 819v154h153v-154h-153zM205 1434v153h153v-153h-153zM410 0v154h153v-154h-153zM410 410v153h153v-153h-153zM410 819v154h153v-154h-153zM410 1229v153h153v-153h-153zM614 0v154 h154v-154h-154zM614 410v153h154v-153h-154zM614 819v154h154v-154h-154zM614 1229v153h154v-153h-154zM819 0v154h154v-154h-154zM819 205v153h154v-153h-154zM819 410v153h154v-153h-154zM819 614v154h154v-154h-154z" />
<glyph unicode="&#xe1;" d="M0 205v153h154v-153h-154zM205 0v154h153v-154h-153zM205 410v153h153v-153h-153zM205 819v154h153v-154h-153zM205 1229v153h153v-153h-153zM410 0v154h153v-154h-153zM410 410v153h153v-153h-153zM410 819v154h153v-154h-153zM410 1229v153h153v-153h-153zM614 0v154 h154v-154h-154zM614 410v153h154v-153h-154zM614 819v154h154v-154h-154zM614 1434v153h154v-153h-154zM819 0v154h154v-154h-154zM819 205v153h154v-153h-154zM819 410v153h154v-153h-154zM819 614v154h154v-154h-154z" />
<glyph unicode="&#xe2;" d="M0 205v153h154v-153h-154zM205 0v154h153v-154h-153zM205 410v153h153v-153h-153zM205 819v154h153v-154h-153zM410 0v154h153v-154h-153zM410 410v153h153v-153h-153zM410 819v154h153v-154h-153zM614 0v154h154v-154h-154zM614 410v153h154v-153h-154zM614 819v154h154 v-154h-154zM819 0v154h154v-154h-154zM819 205v153h154v-153h-154zM819 410v153h154v-153h-154zM819 614v154h154v-154h-154z" />
<glyph unicode="&#xe3;" d="M0 205v153h154v-153h-154zM0 1229v153h154v-153h-154zM205 0v154h153v-154h-153zM205 410v153h153v-153h-153zM205 819v154h153v-154h-153zM205 1434v153h153v-153h-153zM410 0v154h153v-154h-153zM410 410v153h153v-153h-153zM410 819v154h153v-154h-153zM410 1229v153 h153v-153h-153zM614 0v154h154v-154h-154zM614 410v153h154v-153h-154zM614 819v154h154v-154h-154zM614 1229v153h154v-153h-154zM819 0v154h154v-154h-154zM819 205v153h154v-153h-154zM819 410v153h154v-153h-154zM819 614v154h154v-154h-154zM819 1434v153h154v-153 h-154z" />
<glyph unicode="&#xe4;" d="M0 205v153h154v-153h-154zM0 1229v153h154v-153h-154zM0 1434v153h154v-153h-154zM205 0v154h153v-154h-153zM205 410v153h153v-153h-153zM205 819v154h153v-154h-153zM410 0v154h153v-154h-153zM410 410v153h153v-153h-153zM410 819v154h153v-154h-153zM614 0v154h154 v-154h-154zM614 410v153h154v-153h-154zM614 819v154h154v-154h-154zM819 0v154h154v-154h-154zM819 205v153h154v-153h-154zM819 410v153h154v-153h-154zM819 614v154h154v-154h-154zM819 1229v153h154v-153h-154zM819 1434v153h154v-153h-154z" />
<glyph unicode="&#xe5;" d="M0 205v153h154v-153h-154zM205 0v154h153v-154h-153zM205 410v153h153v-153h-153zM205 819v154h153v-154h-153zM205 1434v153h153v-153h-153zM410 0v154h153v-154h-153zM410 410v153h153v-153h-153zM410 819v154h153v-154h-153zM410 1229v153h153v-153h-153zM410 1638 v154h153v-154h-153zM614 0v154h154v-154h-154zM614 410v153h154v-153h-154zM614 819v154h154v-154h-154zM614 1434v153h154v-153h-154zM819 0v154h154v-154h-154zM819 205v153h154v-153h-154zM819 410v153h154v-153h-154zM819 614v154h154v-154h-154z" />
<glyph unicode="&#xe6;" d="M0 205v153h154v-153h-154zM205 0v154h153v-154h-153zM205 410v153h153v-153h-153zM205 819v154h153v-154h-153zM410 0v154h153v-154h-153zM410 205v153h153v-153h-153zM410 410v153h153v-153h-153zM410 614v154h153v-154h-153zM614 0v154h154v-154h-154zM614 410v153h154 v-153h-154zM614 819v154h154v-154h-154zM819 0v154h154v-154h-154zM819 614v154h154v-154h-154z" />
<glyph unicode="&#xe7;" d="M0 205v153h154v-153h-154zM0 410v153h154v-153h-154zM0 614v154h154v-154h-154zM205 0v154h153v-154h-153zM205 -256h153v-154h-153v154zM205 819v154h153v-154h-153zM410 0v154h153v-154h-153zM410 -51h153v-154h-153v154zM410 819v154h153v-154h-153zM614 0v154h154 v-154h-154zM614 819v154h154v-154h-154zM819 205v153h154v-153h-154zM819 614v154h154v-154h-154z" />
<glyph unicode="&#xe8;" d="M0 205v153h154v-153h-154zM0 410v153h154v-153h-154zM0 614v154h154v-154h-154zM205 0v154h153v-154h-153zM205 410v153h153v-153h-153zM205 819v154h153v-154h-153zM205 1434v153h153v-153h-153zM410 0v154h153v-154h-153zM410 410v153h153v-153h-153zM410 819v154h153 v-154h-153zM410 1229v153h153v-153h-153zM614 0v154h154v-154h-154zM614 410v153h154v-153h-154zM614 819v154h154v-154h-154zM614 1229v153h154v-153h-154zM819 0v154h154v-154h-154zM819 410v153h154v-153h-154zM819 614v154h154v-154h-154z" />
<glyph unicode="&#xe9;" d="M0 205v153h154v-153h-154zM0 410v153h154v-153h-154zM0 614v154h154v-154h-154zM205 0v154h153v-154h-153zM205 410v153h153v-153h-153zM205 819v154h153v-154h-153zM205 1229v153h153v-153h-153zM410 0v154h153v-154h-153zM410 410v153h153v-153h-153zM410 819v154h153 v-154h-153zM410 1229v153h153v-153h-153zM614 0v154h154v-154h-154zM614 410v153h154v-153h-154zM614 819v154h154v-154h-154zM614 1434v153h154v-153h-154zM819 0v154h154v-154h-154zM819 410v153h154v-153h-154zM819 614v154h154v-154h-154z" />
<glyph unicode="&#xea;" d="M0 205v153h154v-153h-154zM0 410v153h154v-153h-154zM0 614v154h154v-154h-154zM205 0v154h153v-154h-153zM205 410v153h153v-153h-153zM205 819v154h153v-154h-153zM205 1229v153h153v-153h-153zM410 0v154h153v-154h-153zM410 410v153h153v-153h-153zM410 819v154h153 v-154h-153zM410 1434v153h153v-153h-153zM614 0v154h154v-154h-154zM614 410v153h154v-153h-154zM614 819v154h154v-154h-154zM614 1229v153h154v-153h-154zM819 0v154h154v-154h-154zM819 410v153h154v-153h-154zM819 614v154h154v-154h-154z" />
<glyph unicode="&#xeb;" d="M0 205v153h154v-153h-154zM0 410v153h154v-153h-154zM0 614v154h154v-154h-154zM0 1229v153h154v-153h-154zM0 1434v153h154v-153h-154zM205 0v154h153v-154h-153zM205 410v153h153v-153h-153zM205 819v154h153v-154h-153zM410 0v154h153v-154h-153zM410 410v153h153 v-153h-153zM410 819v154h153v-154h-153zM614 0v154h154v-154h-154zM614 410v153h154v-153h-154zM614 819v154h154v-154h-154zM819 0v154h154v-154h-154zM819 410v153h154v-153h-154zM819 614v154h154v-154h-154zM819 1229v153h154v-153h-154zM819 1434v153h154v-153h-154z " />
<glyph unicode="&#xec;" d="M0 0v154h154v-154h-154zM0 819v154h154v-154h-154zM205 0v154h153v-154h-153zM205 819v154h153v-154h-153zM205 1434v153h153v-153h-153zM410 0v154h153v-154h-153zM410 205v153h153v-153h-153zM410 410v153h153v-153h-153zM410 614v154h153v-154h-153zM410 819v154h153 v-154h-153zM410 1229v153h153v-153h-153zM614 0v154h154v-154h-154zM614 1229v153h154v-153h-154zM819 0v154h154v-154h-154z" />
<glyph unicode="&#xed;" d="M0 0v154h154v-154h-154zM0 819v154h154v-154h-154zM205 0v154h153v-154h-153zM205 819v154h153v-154h-153zM205 1229v153h153v-153h-153zM410 0v154h153v-154h-153zM410 205v153h153v-153h-153zM410 410v153h153v-153h-153zM410 614v154h153v-154h-153zM410 819v154h153 v-154h-153zM410 1229v153h153v-153h-153zM614 0v154h154v-154h-154zM614 1434v153h154v-153h-154zM819 0v154h154v-154h-154z" />
<glyph unicode="&#xee;" d="M0 0v154h154v-154h-154zM0 819v154h154v-154h-154zM205 0v154h153v-154h-153zM205 819v154h153v-154h-153zM205 1229v153h153v-153h-153zM410 0v154h153v-154h-153zM410 205v153h153v-153h-153zM410 410v153h153v-153h-153zM410 614v154h153v-154h-153zM410 819v154h153 v-154h-153zM410 1434v153h153v-153h-153zM614 0v154h154v-154h-154zM614 1229v153h154v-153h-154zM819 0v154h154v-154h-154z" />
<glyph unicode="&#xef;" d="M0 0v154h154v-154h-154zM0 819v154h154v-154h-154zM0 1229v153h154v-153h-154zM0 1434v153h154v-153h-154zM205 0v154h153v-154h-153zM205 819v154h153v-154h-153zM410 0v154h153v-154h-153zM410 205v153h153v-153h-153zM410 410v153h153v-153h-153zM410 614v154h153 v-154h-153zM410 819v154h153v-154h-153zM614 0v154h154v-154h-154zM819 0v154h154v-154h-154zM819 1229v153h154v-153h-154zM819 1434v153h154v-153h-154z" />
<glyph unicode="&#xf0;" d="M0 205v153h154v-153h-154zM0 410v153h154v-153h-154zM205 614v154h153v-154h-153zM205 1229v153h153v-153h-153zM207 0v154h153v-154h-153zM410 0v154h153v-154h-153zM410 614v154h153v-154h-153zM410 819v154h153v-154h-153zM410 1229v153h153v-153h-153zM612 0l2 154 h154v-154h-156zM614 614v154h154v-154h-154zM614 1024v154h154v-154h-154zM819 205v153h154v-153h-154zM819 410v153h154v-153h-154zM819 614v154h154v-154h-154zM819 819v154h154v-154h-154zM819 1229v153h154v-153h-154z" />
<glyph unicode="&#xf1;" d="M0 0v154h154v-154h-154zM0 205v153h154v-153h-154zM0 410v153h154v-153h-154zM0 614v154h154v-154h-154zM0 819v154h154v-154h-154zM0 1229v153h154v-153h-154zM205 614v154h153v-154h-153zM205 1434v153h153v-153h-153zM410 819v154h153v-154h-153zM410 1229v153h153 v-153h-153zM614 819v154h154v-154h-154zM614 1229v153h154v-153h-154zM819 0v154h154v-154h-154zM819 205v153h154v-153h-154zM819 410v153h154v-153h-154zM819 614v154h154v-154h-154zM819 1434v153h154v-153h-154z" />
<glyph unicode="&#xf2;" d="M0 205v153h154v-153h-154zM0 410v153h154v-153h-154zM0 614v154h154v-154h-154zM205 0v154h153v-154h-153zM205 819v154h153v-154h-153zM205 1434v153h153v-153h-153zM410 0v154h153v-154h-153zM410 819v154h153v-154h-153zM410 1229v153h153v-153h-153zM614 0v154h154 v-154h-154zM614 819v154h154v-154h-154zM614 1229v153h154v-153h-154zM819 205v153h154v-153h-154zM819 410v153h154v-153h-154zM819 614v154h154v-154h-154z" />
<glyph unicode="&#xf3;" d="M0 205v153h154v-153h-154zM0 410v153h154v-153h-154zM0 614v154h154v-154h-154zM205 0v154h153v-154h-153zM205 819v154h153v-154h-153zM205 1229v153h153v-153h-153zM410 0v154h153v-154h-153zM410 819v154h153v-154h-153zM410 1229v153h153v-153h-153zM614 0v154h154 v-154h-154zM614 819v154h154v-154h-154zM614 1434v153h154v-153h-154zM819 205v153h154v-153h-154zM819 410v153h154v-153h-154zM819 614v154h154v-154h-154z" />
<glyph unicode="&#xf4;" d="M0 205v153h154v-153h-154zM0 410v153h154v-153h-154zM0 614v154h154v-154h-154zM205 0v154h153v-154h-153zM205 819v154h153v-154h-153zM205 1229v153h153v-153h-153zM410 0v154h153v-154h-153zM410 819v154h153v-154h-153zM410 1434v153h153v-153h-153zM614 0v154h154 v-154h-154zM614 819v154h154v-154h-154zM614 1229v153h154v-153h-154zM819 205v153h154v-153h-154zM819 410v153h154v-153h-154zM819 614v154h154v-154h-154z" />
<glyph unicode="&#xf5;" d="M0 205v153h154v-153h-154zM0 410v153h154v-153h-154zM0 614v154h154v-154h-154zM0 1229v153h154v-153h-154zM205 0v154h153v-154h-153zM205 819v154h153v-154h-153zM205 1434v153h153v-153h-153zM410 0v154h153v-154h-153zM410 819v154h153v-154h-153zM410 1229v153h153 v-153h-153zM614 0v154h154v-154h-154zM614 819v154h154v-154h-154zM614 1229v153h154v-153h-154zM819 205v153h154v-153h-154zM819 410v153h154v-153h-154zM819 614v154h154v-154h-154zM819 1434v153h154v-153h-154z" />
<glyph unicode="&#xf6;" d="M0 205v153h154v-153h-154zM0 410v153h154v-153h-154zM0 614v154h154v-154h-154zM0 1229v153h154v-153h-154zM0 1434v153h154v-153h-154zM205 0v154h153v-154h-153zM205 819v154h153v-154h-153zM410 0v154h153v-154h-153zM410 819v154h153v-154h-153zM614 0v154h154v-154 h-154zM614 819v154h154v-154h-154zM819 205v153h154v-153h-154zM819 410v153h154v-153h-154zM819 614v154h154v-154h-154zM819 1229v153h154v-153h-154zM819 1434v153h154v-153h-154z" />
<glyph unicode="&#xf7;" d="M0 410v153h154v-153h-154zM205 410v153h153v-153h-153zM410 0v154h153v-154h-153zM410 410v153h153v-153h-153zM410 819v154h153v-154h-153zM614 410v153h154v-153h-154zM819 410v153h154v-153h-154z" />
<glyph unicode="&#xf8;" d="M0 205v153h154v-153h-154zM0 410v153h154v-153h-154zM0 614v154h154v-154h-154zM2 -51h154v-154h-154v154zM205 0v154h153v-154h-153zM205 205v153h153v-153h-153zM205 819v154h153v-154h-153zM410 0v154h153v-154h-153zM410 410v153h153v-153h-153zM410 819v154h153 v-154h-153zM614 0v154h154v-154h-154zM614 614v154h154v-154h-154zM614 819v154h154v-154h-154zM819 205v153h154v-153h-154zM819 410v153h154v-153h-154zM819 614v154h154v-154h-154zM819 1024v154h154v-154h-154z" />
<glyph unicode="&#xf9;" d="M0 205v153h154v-153h-154zM0 410v153h154v-153h-154zM0 614v154h154v-154h-154zM0 819v154h154v-154h-154zM205 0v154h153v-154h-153zM205 1434v153h153v-153h-153zM410 0v154h153v-154h-153zM410 1229v153h153v-153h-153zM614 205v153h154v-153h-154zM614 1229v153h154 v-153h-154zM819 0v154h154v-154h-154zM819 205v153h154v-153h-154zM819 410v153h154v-153h-154zM819 614v154h154v-154h-154zM819 819v154h154v-154h-154z" />
<glyph unicode="&#xfa;" d="M0 205v153h154v-153h-154zM0 410v153h154v-153h-154zM0 614v154h154v-154h-154zM0 819v154h154v-154h-154zM205 0v154h153v-154h-153zM205 1229v153h153v-153h-153zM410 0v154h153v-154h-153zM410 1229v153h153v-153h-153zM614 205v153h154v-153h-154zM614 1434v153h154 v-153h-154zM819 0v154h154v-154h-154zM819 205v153h154v-153h-154zM819 410v153h154v-153h-154zM819 614v154h154v-154h-154zM819 819v154h154v-154h-154z" />
<glyph unicode="&#xfb;" d="M0 205v153h154v-153h-154zM0 410v153h154v-153h-154zM0 614v154h154v-154h-154zM0 819v154h154v-154h-154zM205 0v154h153v-154h-153zM205 1229v153h153v-153h-153zM410 0v154h153v-154h-153zM410 1434v153h153v-153h-153zM614 205v153h154v-153h-154zM614 1229v153h154 v-153h-154zM819 0v154h154v-154h-154zM819 205v153h154v-153h-154zM819 410v153h154v-153h-154zM819 614v154h154v-154h-154zM819 819v154h154v-154h-154z" />
<glyph unicode="&#xfc;" d="M0 205v153h154v-153h-154zM0 410v153h154v-153h-154zM0 614v154h154v-154h-154zM0 819v154h154v-154h-154zM0 1229v153h154v-153h-154zM0 1434v153h154v-153h-154zM205 0v154h153v-154h-153zM410 0v154h153v-154h-153zM614 205v153h154v-153h-154zM819 0v154h154v-154 h-154zM819 205v153h154v-153h-154zM819 410v153h154v-153h-154zM819 614v154h154v-154h-154zM819 819v154h154v-154h-154zM819 1229v153h154v-153h-154zM819 1434v153h154v-153h-154z" />
<glyph unicode="&#xfd;" d="M0 -256h154v-154h-154v154zM0 614v154h154v-154h-154zM0 819v154h154v-154h-154zM205 205v153h153v-153h-153zM205 -256h153v-154h-153v154zM205 410v153h153v-153h-153zM205 1229v153h153v-153h-153zM410 0v154h153v-154h-153zM410 -51h153v-154h-153v154zM410 1229v153 h153v-153h-153zM614 205v153h154v-153h-154zM614 410v153h154v-153h-154zM614 1434v153h154v-153h-154zM819 614v154h154v-154h-154zM819 819v154h154v-154h-154z" />
<glyph unicode="&#xfe;" d="M0 0v154h154v-154h-154zM0 -51h154v-154h-154v154zM0 205v153h154v-153h-154zM0 -256h154v-154h-154v154zM0 410v153h154v-153h-154zM0 614v154h154v-154h-154zM0 819v154h154v-154h-154zM0 1024v154h154v-154h-154zM0 1229v153h154v-153h-154zM205 0v154h153v-154h-153z M205 819v154h153v-154h-153zM410 0v154h153v-154h-153zM410 819v154h153v-154h-153zM614 0v154h154v-154h-154zM614 819v154h154v-154h-154zM819 205v153h154v-153h-154zM819 410v153h154v-153h-154zM819 614v154h154v-154h-154z" />
<glyph unicode="&#xff;" d="M0 -256h154v-154h-154v154zM0 614v154h154v-154h-154zM0 819v154h154v-154h-154zM0 1229v153h154v-153h-154zM0 1434v153h154v-153h-154zM205 205v153h153v-153h-153zM205 -256h153v-154h-153v154zM205 410v153h153v-153h-153zM410 0v154h153v-154h-153zM410 -51h153 v-154h-153v154zM614 205v153h154v-153h-154zM614 410v153h154v-153h-154zM819 614v154h154v-154h-154zM819 819v154h154v-154h-154zM819 1229v153h154v-153h-154zM819 1434v153h154v-153h-154z" />
<glyph unicode="&#x100;" d="M0 0v154h154v-154h-154zM0 205v153h154v-153h-154zM0 410v153h154v-153h-154zM0 614v154h154v-154h-154zM0 819v154h154v-154h-154zM0 1024v154h154v-154h-154zM205 410v153h153v-153h-153zM205 1229v153h153v-153h-153zM205 1690v153h153v-153h-153zM410 410v153h153 v-153h-153zM410 1229v153h153v-153h-153zM410 1690v153h153v-153h-153zM614 410v153h154v-153h-154zM614 1229v153h154v-153h-154zM614 1690v153h154v-153h-154zM819 0v154h154v-154h-154zM819 205v153h154v-153h-154zM819 410v153h154v-153h-154zM819 614v154h154v-154 h-154zM819 819v154h154v-154h-154zM819 1024v154h154v-154h-154z" />
<glyph unicode="&#x101;" d="M0 205v153h154v-153h-154zM205 0v154h153v-154h-153zM205 410v153h153v-153h-153zM205 819v154h153v-154h-153zM205 1229v153h153v-153h-153zM410 0v154h153v-154h-153zM410 410v153h153v-153h-153zM410 819v154h153v-154h-153zM410 1229v153h153v-153h-153zM614 0v154 h154v-154h-154zM614 410v153h154v-153h-154zM614 819v154h154v-154h-154zM614 1229v153h154v-153h-154zM819 0v154h154v-154h-154zM819 205v153h154v-153h-154zM819 410v153h154v-153h-154zM819 614v154h154v-154h-154z" />
<glyph unicode="&#x102;" d="M0 0v154h154v-154h-154zM0 205v153h154v-153h-154zM0 410v153h154v-153h-154zM0 614v154h154v-154h-154zM0 819v154h154v-154h-154zM0 1024v154h154v-154h-154zM205 410v153h153v-153h-153zM205 1229v153h153v-153h-153zM205 1894v154h153v-154h-153zM410 410v153h153 v-153h-153zM410 1229v153h153v-153h-153zM410 1690v153h153v-153h-153zM614 410v153h154v-153h-154zM614 1229v153h154v-153h-154zM614 1894v154h154v-154h-154zM819 0v154h154v-154h-154zM819 205v153h154v-153h-154zM819 410v153h154v-153h-154zM819 614v154h154v-154 h-154zM819 819v154h154v-154h-154zM819 1024v154h154v-154h-154z" />
<glyph unicode="&#x103;" d="M0 205v153h154v-153h-154zM205 0v154h153v-154h-153zM205 410v153h153v-153h-153zM205 819v154h153v-154h-153zM205 1434v153h153v-153h-153zM410 0v154h153v-154h-153zM410 410v153h153v-153h-153zM410 819v154h153v-154h-153zM410 1229v153h153v-153h-153zM614 0v154 h154v-154h-154zM614 410v153h154v-153h-154zM614 819v154h154v-154h-154zM614 1434v153h154v-153h-154zM819 0v154h154v-154h-154zM819 205v153h154v-153h-154zM819 410v153h154v-153h-154zM819 614v154h154v-154h-154z" />
<glyph unicode="&#x104;" d="M0 0v154h154v-154h-154zM0 205v153h154v-153h-154zM0 410v153h154v-153h-154zM0 614v154h154v-154h-154zM0 819v154h154v-154h-154zM0 1024v154h154v-154h-154zM205 410v153h153v-153h-153zM205 1229v153h153v-153h-153zM410 410v153h153v-153h-153zM410 1229v153h153 v-153h-153zM614 -51h154v-154h-154v154zM614 410v153h154v-153h-154zM614 1229v153h154v-153h-154zM819 0v154h154v-154h-154zM819 205v153h154v-153h-154zM819 -256h154v-154h-154v154zM819 410v153h154v-153h-154zM819 614v154h154v-154h-154zM819 819v154h154v-154h-154z M819 1024v154h154v-154h-154z" />
<glyph unicode="&#x105;" d="M0 205v153h154v-153h-154zM205 0v154h153v-154h-153zM205 410v153h153v-153h-153zM205 819v154h153v-154h-153zM410 0v154h153v-154h-153zM410 410v153h153v-153h-153zM410 819v154h153v-154h-153zM614 0v154h154v-154h-154zM614 -51h154v-154h-154v154zM614 410v153h154 v-153h-154zM614 819v154h154v-154h-154zM819 0v154h154v-154h-154zM819 205v153h154v-153h-154zM819 -256h154v-154h-154v154zM819 410v153h154v-153h-154zM819 614v154h154v-154h-154z" />
<glyph unicode="&#x106;" d="M0 205v153h154v-153h-154zM0 410v153h154v-153h-154zM0 614v154h154v-154h-154zM0 819v154h154v-154h-154zM0 1024v154h154v-154h-154zM205 0v154h153v-154h-153zM205 1229v153h153v-153h-153zM205 1690v153h153v-153h-153zM410 0v154h153v-154h-153zM410 1229v153h153 v-153h-153zM410 1690v153h153v-153h-153zM614 0v154h154v-154h-154zM614 1229v153h154v-153h-154zM614 1894v154h154v-154h-154zM819 205v153h154v-153h-154zM819 1024v154h154v-154h-154z" />
<glyph unicode="&#x107;" d="M0 205v153h154v-153h-154zM0 410v153h154v-153h-154zM0 614v154h154v-154h-154zM205 0v154h153v-154h-153zM205 819v154h153v-154h-153zM205 1229v153h153v-153h-153zM410 0v154h153v-154h-153zM410 819v154h153v-154h-153zM410 1229v153h153v-153h-153zM614 0v154h154 v-154h-154zM614 819v154h154v-154h-154zM614 1434v153h154v-153h-154zM819 205v153h154v-153h-154zM819 614v154h154v-154h-154z" />
<glyph unicode="&#x10c;" d="M0 205v153h154v-153h-154zM0 410v153h154v-153h-154zM0 614v154h154v-154h-154zM0 819v154h154v-154h-154zM0 1024v154h154v-154h-154zM205 0v154h153v-154h-153zM205 1229v153h153v-153h-153zM205 1894v154h153v-154h-153zM410 0v154h153v-154h-153zM410 1229v153h153 v-153h-153zM410 1690v153h153v-153h-153zM614 0v154h154v-154h-154zM614 1229v153h154v-153h-154zM614 1894v154h154v-154h-154zM819 205v153h154v-153h-154zM819 1024v154h154v-154h-154z" />
<glyph unicode="&#x10d;" d="M0 205v153h154v-153h-154zM0 410v153h154v-153h-154zM0 614v154h154v-154h-154zM205 0v154h153v-154h-153zM205 819v154h153v-154h-153zM205 1434v153h153v-153h-153zM410 0v154h153v-154h-153zM410 819v154h153v-154h-153zM410 1229v153h153v-153h-153zM614 0v154h154 v-154h-154zM614 819v154h154v-154h-154zM614 1434v153h154v-153h-154zM819 205v153h154v-153h-154zM819 614v154h154v-154h-154z" />
<glyph unicode="&#x10e;" d="M0 0v154h154v-154h-154zM0 205v153h154v-153h-154zM0 410v153h154v-153h-154zM0 614v154h154v-154h-154zM0 819v154h154v-154h-154zM0 1024v154h154v-154h-154zM0 1229v153h154v-153h-154zM205 0v154h153v-154h-153zM205 1229v153h153v-153h-153zM205 1894v154h153v-154 h-153zM410 0v154h153v-154h-153zM410 1229v153h153v-153h-153zM410 1690v153h153v-153h-153zM614 0v154h154v-154h-154zM614 1229v153h154v-153h-154zM614 1894v154h154v-154h-154zM819 205v153h154v-153h-154zM819 410v153h154v-153h-154zM819 614v154h154v-154h-154z M819 819v154h154v-154h-154zM819 1024v154h154v-154h-154z" />
<glyph unicode="&#x10f;" d="M0 205v153h154v-153h-154zM0 410v153h154v-153h-154zM0 614v154h154v-154h-154zM205 0v154h153v-154h-153zM205 819v154h153v-154h-153zM410 0v154h153v-154h-153zM410 205v153h153v-153h-153zM410 410v153h153v-153h-153zM410 614v154h153v-154h-153zM410 819v154h153 v-154h-153zM410 1024v154h153v-154h-153zM410 1229v153h153v-153h-153zM614 819v154h154v-154h-154zM819 1024v154h154v-154h-154zM819 1229v153h154v-153h-154z" />
<glyph unicode="&#x110;" d="M4 618v154h154v-154h-154zM205 0v154h153v-154h-153zM205 205v153h153v-153h-153zM205 410v153h153v-153h-153zM205 819v154h153v-154h-153zM205 1024v154h153v-154h-153zM205 1229v153h153v-153h-153zM209 618v154h153v-154h-153zM410 0v154h153v-154h-153zM410 1229 v153h153v-153h-153zM414 618v154h153v-154h-153zM614 0v154h154v-154h-154zM614 1229v153h154v-153h-154zM819 205v153h154v-153h-154zM819 410v153h154v-153h-154zM819 614v154h154v-154h-154zM819 819v154h154v-154h-154zM819 1024v154h154v-154h-154z" />
<glyph unicode="&#x111;" d="M0 205v153h154v-153h-154zM0 410v153h154v-153h-154zM0 614v154h154v-154h-154zM205 0v154h153v-154h-153zM205 819v154h153v-154h-153zM410 0v154h153v-154h-153zM410 819v154h153v-154h-153zM414 410v153h153v-153h-153zM614 0v154h154v-154h-154zM614 205v153h154 v-153h-154zM614 614v154h154v-154h-154zM614 819v154h154v-154h-154zM614 1024v154h154v-154h-154zM614 1229v153h154v-153h-154zM618 410v153h154v-153h-154zM823 410v153h154v-153h-154z" />
<glyph unicode="&#x112;" d="M0 0v154h154v-154h-154zM0 205v153h154v-153h-154zM0 410v153h154v-153h-154zM0 614v154h154v-154h-154zM0 819v154h154v-154h-154zM0 1024v154h154v-154h-154zM0 1229v153h154v-153h-154zM205 0v154h153v-154h-153zM205 614v154h153v-154h-153zM205 1229v153h153v-153 h-153zM205 1690v153h153v-153h-153zM410 0v154h153v-154h-153zM410 614v154h153v-154h-153zM410 1229v153h153v-153h-153zM410 1690v153h153v-153h-153zM614 0v154h154v-154h-154zM614 614v154h154v-154h-154zM614 1229v153h154v-153h-154zM614 1690v153h154v-153h-154z M819 0v154h154v-154h-154zM819 1229v153h154v-153h-154z" />
<glyph unicode="&#x113;" d="M0 205v153h154v-153h-154zM0 410v153h154v-153h-154zM0 614v154h154v-154h-154zM205 0v154h153v-154h-153zM205 410v153h153v-153h-153zM205 819v154h153v-154h-153zM205 1229v153h153v-153h-153zM410 0v154h153v-154h-153zM410 410v153h153v-153h-153zM410 819v154h153 v-154h-153zM410 1229v153h153v-153h-153zM614 0v154h154v-154h-154zM614 410v153h154v-153h-154zM614 819v154h154v-154h-154zM614 1229v153h154v-153h-154zM819 0v154h154v-154h-154zM819 410v153h154v-153h-154zM819 614v154h154v-154h-154z" />
<glyph unicode="&#x116;" d="M0 0v154h154v-154h-154zM0 205v153h154v-153h-154zM0 410v153h154v-153h-154zM0 614v154h154v-154h-154zM0 819v154h154v-154h-154zM0 1024v154h154v-154h-154zM0 1229v153h154v-153h-154zM205 0v154h153v-154h-153zM205 614v154h153v-154h-153zM205 1229v153h153v-153 h-153zM410 0v154h153v-154h-153zM410 614v154h153v-154h-153zM410 1229v153h153v-153h-153zM410 1690v153h153v-153h-153zM614 0v154h154v-154h-154zM614 614v154h154v-154h-154zM614 1229v153h154v-153h-154zM819 0v154h154v-154h-154zM819 1229v153h154v-153h-154z" />
<glyph unicode="&#x117;" d="M0 205v153h154v-153h-154zM0 410v153h154v-153h-154zM0 614v154h154v-154h-154zM205 0v154h153v-154h-153zM205 410v153h153v-153h-153zM205 819v154h153v-154h-153zM410 0v154h153v-154h-153zM410 410v153h153v-153h-153zM410 819v154h153v-154h-153zM410 1229v153h153 v-153h-153zM614 0v154h154v-154h-154zM614 410v153h154v-153h-154zM614 819v154h154v-154h-154zM819 0v154h154v-154h-154zM819 410v153h154v-153h-154zM819 614v154h154v-154h-154z" />
<glyph unicode="&#x118;" d="M0 0v154h154v-154h-154zM0 205v153h154v-153h-154zM0 410v153h154v-153h-154zM0 614v154h154v-154h-154zM0 819v154h154v-154h-154zM0 1024v154h154v-154h-154zM0 1229v153h154v-153h-154zM205 0v154h153v-154h-153zM205 614v154h153v-154h-153zM205 1229v153h153v-153 h-153zM410 0v154h153v-154h-153zM410 614v154h153v-154h-153zM410 1229v153h153v-153h-153zM614 0v154h154v-154h-154zM614 -51h154v-154h-154v154zM614 614v154h154v-154h-154zM614 1229v153h154v-153h-154zM819 0v154h154v-154h-154zM819 -256h154v-154h-154v154z M819 1229v153h154v-153h-154z" />
<glyph unicode="&#x119;" d="M0 205v153h154v-153h-154zM0 410v153h154v-153h-154zM0 614v154h154v-154h-154zM205 0v154h153v-154h-153zM205 410v153h153v-153h-153zM205 819v154h153v-154h-153zM410 0v154h153v-154h-153zM410 410v153h153v-153h-153zM410 819v154h153v-154h-153zM614 0v154h154 v-154h-154zM614 -51h154v-154h-154v154zM614 410v153h154v-153h-154zM614 819v154h154v-154h-154zM819 0v154h154v-154h-154zM819 -256h154v-154h-154v154zM819 410v153h154v-153h-154zM819 614v154h154v-154h-154z" />
<glyph unicode="&#x11a;" d="M0 0v154h154v-154h-154zM0 205v153h154v-153h-154zM0 410v153h154v-153h-154zM0 614v154h154v-154h-154zM0 819v154h154v-154h-154zM0 1024v154h154v-154h-154zM0 1229v153h154v-153h-154zM205 0v154h153v-154h-153zM205 614v154h153v-154h-153zM205 1229v153h153v-153 h-153zM205 1894v154h153v-154h-153zM410 0v154h153v-154h-153zM410 614v154h153v-154h-153zM410 1229v153h153v-153h-153zM410 1690v153h153v-153h-153zM614 0v154h154v-154h-154zM614 614v154h154v-154h-154zM614 1229v153h154v-153h-154zM614 1894v154h154v-154h-154z M819 0v154h154v-154h-154zM819 1229v153h154v-153h-154z" />
<glyph unicode="&#x11b;" d="M0 205v153h154v-153h-154zM0 410v153h154v-153h-154zM0 614v154h154v-154h-154zM205 0v154h153v-154h-153zM205 410v153h153v-153h-153zM205 819v154h153v-154h-153zM205 1434v153h153v-153h-153zM410 0v154h153v-154h-153zM410 410v153h153v-153h-153zM410 819v154h153 v-154h-153zM410 1229v153h153v-153h-153zM614 0v154h154v-154h-154zM614 410v153h154v-153h-154zM614 819v154h154v-154h-154zM614 1434v153h154v-153h-154zM819 0v154h154v-154h-154zM819 410v153h154v-153h-154zM819 614v154h154v-154h-154z" />
<glyph unicode="&#x11e;" d="M0 205v153h154v-153h-154zM0 410v153h154v-153h-154zM0 614v154h154v-154h-154zM0 819v154h154v-154h-154zM0 1024v154h154v-154h-154zM205 0v154h153v-154h-153zM205 1229v153h153v-153h-153zM205 1894v154h153v-154h-153zM410 0v154h153v-154h-153zM410 1229v153h153 v-153h-153zM410 1690v153h153v-153h-153zM614 0v154h154v-154h-154zM614 410v153h154v-153h-154zM614 1229v153h154v-153h-154zM614 1894v154h154v-154h-154zM819 0v154h154v-154h-154zM819 205v153h154v-153h-154zM819 410v153h154v-153h-154zM819 1024v154h154v-154h-154z " />
<glyph unicode="&#x11f;" d="M0 205v153h154v-153h-154zM0 410v153h154v-153h-154zM0 614v154h154v-154h-154zM205 0v154h153v-154h-153zM205 -256h153v-154h-153v154zM205 819v154h153v-154h-153zM205 1434v153h153v-153h-153zM410 0v154h153v-154h-153zM410 -256h153v-154h-153v154zM410 819v154 h153v-154h-153zM410 1229v153h153v-153h-153zM614 205v153h154v-153h-154zM614 -256h154v-154h-154v154zM614 819v154h154v-154h-154zM614 1434v153h154v-153h-154zM819 0v154h154v-154h-154zM819 -51h154v-154h-154v154zM819 205v153h154v-153h-154zM819 410v153h154v-153 h-154zM819 614v154h154v-154h-154zM819 819v154h154v-154h-154z" />
<glyph unicode="&#x122;" d="M0 205v153h154v-153h-154zM0 410v153h154v-153h-154zM0 614v154h154v-154h-154zM0 819v154h154v-154h-154zM0 1024v154h154v-154h-154zM205 0v154h153v-154h-153zM205 -256h153v-154h-153v154zM205 1229v153h153v-153h-153zM410 0v154h153v-154h-153zM410 -51h153v-154 h-153v154zM410 1229v153h153v-153h-153zM614 0v154h154v-154h-154zM614 410v153h154v-153h-154zM614 1229v153h154v-153h-154zM819 0v154h154v-154h-154zM819 205v153h154v-153h-154zM819 410v153h154v-153h-154zM819 1024v154h154v-154h-154z" />
<glyph unicode="&#x123;" d="M0 205v153h154v-153h-154zM0 410v153h154v-153h-154zM0 614v154h154v-154h-154zM205 0v154h153v-154h-153zM205 -256h153v-154h-153v154zM205 819v154h153v-154h-153zM410 0v154h153v-154h-153zM410 -256h153v-154h-153v154zM410 819v154h153v-154h-153zM410 1280v154 h153v-154h-153zM410 1485v153h153v-153h-153zM614 205v153h154v-153h-154zM614 -256h154v-154h-154v154zM614 819v154h154v-154h-154zM614 1690v153h154v-153h-154zM819 0v154h154v-154h-154zM819 -51h154v-154h-154v154zM819 205v153h154v-153h-154zM819 410v153h154v-153 h-154zM819 614v154h154v-154h-154zM819 819v154h154v-154h-154z" />
<glyph unicode="&#x12b;" d="M0 0v154h154v-154h-154zM0 819v154h154v-154h-154zM205 0v154h153v-154h-153zM205 819v154h153v-154h-153zM205 1229v153h153v-153h-153zM410 0v154h153v-154h-153zM410 205v153h153v-153h-153zM410 410v153h153v-153h-153zM410 614v154h153v-154h-153zM410 819v154h153 v-154h-153zM410 1229v153h153v-153h-153zM614 0v154h154v-154h-154zM614 1229v153h154v-153h-154zM819 0v154h154v-154h-154z" />
<glyph unicode="&#x12e;" d="M0 0v154h154v-154h-154zM0 1229v153h154v-153h-154zM205 0v154h153v-154h-153zM205 1229v153h153v-153h-153zM410 0v154h153v-154h-153zM410 -51h153v-154h-153v154zM410 205v153h153v-153h-153zM410 410v153h153v-153h-153zM410 614v154h153v-154h-153zM410 819v154h153 v-154h-153zM410 1024v154h153v-154h-153zM410 1229v153h153v-153h-153zM614 0v154h154v-154h-154zM614 -256h154v-154h-154v154zM614 1229v153h154v-153h-154zM819 0v154h154v-154h-154zM819 1229v153h154v-153h-154z" />
<glyph unicode="&#x12f;" d="M0 0v154h154v-154h-154zM0 819v154h154v-154h-154zM205 0v154h153v-154h-153zM205 819v154h153v-154h-153zM410 0v154h153v-154h-153zM410 -51h153v-154h-153v154zM410 205v153h153v-153h-153zM410 410v153h153v-153h-153zM410 614v154h153v-154h-153zM410 819v154h153 v-154h-153zM410 1229v153h153v-153h-153zM614 0v154h154v-154h-154zM614 -256h154v-154h-154v154zM819 0v154h154v-154h-154z" />
<glyph unicode="&#x130;" d="M0 0v154h154v-154h-154zM0 1229v153h154v-153h-154zM205 0v154h153v-154h-153zM205 1229v153h153v-153h-153zM410 0v154h153v-154h-153zM410 205v153h153v-153h-153zM410 410v153h153v-153h-153zM410 614v154h153v-154h-153zM410 819v154h153v-154h-153zM410 1024v154 h153v-154h-153zM410 1229v153h153v-153h-153zM410 1690v153h153v-153h-153zM614 0v154h154v-154h-154zM614 1229v153h154v-153h-154zM819 0v154h154v-154h-154zM819 1229v153h154v-153h-154z" />
<glyph unicode="&#x131;" d="M0 0v154h154v-154h-154zM0 819v154h154v-154h-154zM205 0v154h153v-154h-153zM205 819v154h153v-154h-153zM410 0v154h153v-154h-153zM410 205v153h153v-153h-153zM410 410v153h153v-153h-153zM410 614v154h153v-154h-153zM410 819v154h153v-154h-153zM614 0v154h154 v-154h-154zM819 0v154h154v-154h-154z" />
<glyph unicode="&#x136;" d="M0 0v154h154v-154h-154zM0 205v153h154v-153h-154zM0 410v153h154v-153h-154zM0 614v154h154v-154h-154zM0 819v154h154v-154h-154zM0 1024v154h154v-154h-154zM0 1229v153h154v-153h-154zM205 -256h153v-154h-153v154zM205 614v154h153v-154h-153zM410 -51h153v-154 h-153v154zM410 614v154h153v-154h-153zM614 410v153h154v-153h-154zM614 819v154h154v-154h-154zM819 0v154h154v-154h-154zM819 205v153h154v-153h-154zM819 1024v154h154v-154h-154zM819 1229v153h154v-153h-154z" />
<glyph unicode="&#x137;" d="M0 0v154h154v-154h-154zM0 205v153h154v-153h-154zM0 410v153h154v-153h-154zM0 614v154h154v-154h-154zM0 819v154h154v-154h-154zM0 1024v154h154v-154h-154zM0 1229v153h154v-153h-154zM205 -256h153v-154h-153v154zM205 410v153h153v-153h-153zM410 -51h153v-154 h-153v154zM410 410v153h153v-153h-153zM614 205v153h154v-153h-154zM614 614v154h154v-154h-154zM614 819v154h154v-154h-154zM819 0v154h154v-154h-154z" />
<glyph unicode="&#x139;" d="M0 0v154h154v-154h-154zM0 205v153h154v-153h-154zM0 410v153h154v-153h-154zM0 614v154h154v-154h-154zM0 819v154h154v-154h-154zM0 1024v154h154v-154h-154zM0 1229v153h154v-153h-154zM205 0v154h153v-154h-153zM205 1690v153h153v-153h-153zM410 0v154h153v-154 h-153zM410 1690v153h153v-153h-153zM614 0v154h154v-154h-154zM614 1894v154h154v-154h-154zM819 0v154h154v-154h-154z" />
<glyph unicode="&#x13a;" d="M0 0v154h154v-154h-154zM0 1229v153h154v-153h-154zM205 0v154h153v-154h-153zM205 1229v153h153v-153h-153zM205 1690v153h153v-153h-153zM410 0v154h153v-154h-153zM410 205v153h153v-153h-153zM410 410v153h153v-153h-153zM410 614v154h153v-154h-153zM410 819v154 h153v-154h-153zM410 1024v154h153v-154h-153zM410 1229v153h153v-153h-153zM410 1690v153h153v-153h-153zM614 0v154h154v-154h-154zM614 1894v154h154v-154h-154zM819 0v154h154v-154h-154z" />
<glyph unicode="&#x13b;" d="M0 0v154h154v-154h-154zM0 205v153h154v-153h-154zM0 410v153h154v-153h-154zM0 614v154h154v-154h-154zM0 819v154h154v-154h-154zM0 1024v154h154v-154h-154zM0 1229v153h154v-153h-154zM205 0v154h153v-154h-153zM205 -256h153v-154h-153v154zM410 0v154h153v-154 h-153zM410 -51h153v-154h-153v154zM614 0v154h154v-154h-154zM819 0v154h154v-154h-154z" />
<glyph unicode="&#x13c;" d="M0 0v154h154v-154h-154zM0 1229v153h154v-153h-154zM205 0v154h153v-154h-153zM205 -256h153v-154h-153v154zM205 1229v153h153v-153h-153zM410 0v154h153v-154h-153zM410 -51h153v-154h-153v154zM410 205v153h153v-153h-153zM410 410v153h153v-153h-153zM410 614v154 h153v-154h-153zM410 819v154h153v-154h-153zM410 1024v154h153v-154h-153zM410 1229v153h153v-153h-153zM614 0v154h154v-154h-154zM819 0v154h154v-154h-154z" />
<glyph unicode="&#x13d;" d="M0 0v154h154v-154h-154zM0 205v153h154v-153h-154zM0 410v153h154v-153h-154zM0 614v154h154v-154h-154zM0 819v154h154v-154h-154zM0 1024v154h154v-154h-154zM0 1229v153h154v-153h-154zM205 0v154h153v-154h-153zM410 0v154h153v-154h-153zM614 0v154h154v-154h-154z M614 1229v153h154v-153h-154zM819 0v154h154v-154h-154zM819 1434v153h154v-153h-154zM819 1638v154h154v-154h-154z" />
<glyph unicode="&#x13e;" d="M0 0v154h154v-154h-154zM0 1229v153h154v-153h-154zM205 0v154h153v-154h-153zM205 205v153h153v-153h-153zM205 410v153h153v-153h-153zM205 614v154h153v-154h-153zM205 819v154h153v-154h-153zM205 1024v154h153v-154h-153zM205 1229v153h153v-153h-153zM410 0v154 h153v-154h-153zM614 819v154h154v-154h-154zM819 1024v154h154v-154h-154zM819 1229v153h154v-153h-154z" />
<glyph unicode="&#x141;" d="M0 614v154h154v-154h-154zM205 0v154h153v-154h-153zM205 205v153h153v-153h-153zM205 410v153h153v-153h-153zM205 614v154h153v-154h-153zM205 819v154h153v-154h-153zM205 1024v154h153v-154h-153zM205 1229v153h153v-153h-153zM410 0v154h153v-154h-153zM410 614v154 h153v-154h-153zM614 0v154h154v-154h-154zM819 0v154h154v-154h-154z" />
<glyph unicode="&#x142;" d="M0 0v154h154v-154h-154zM0 1229v153h154v-153h-154zM205 0v154h153v-154h-153zM205 1229v153h153v-153h-153zM207 614v154h153v-154h-153zM410 0v154h153v-154h-153zM410 205v153h153v-153h-153zM410 410v153h153v-153h-153zM410 614v154h153v-154h-153zM410 819v154h153 v-154h-153zM410 1024v154h153v-154h-153zM410 1229v153h153v-153h-153zM614 0v154h154v-154h-154zM614 614v154h154v-154h-154zM819 0v154h154v-154h-154z" />
<glyph unicode="&#x143;" d="M0 0v154h154v-154h-154zM0 205v153h154v-153h-154zM0 410v153h154v-153h-154zM0 614v154h154v-154h-154zM0 819v154h154v-154h-154zM0 1024v154h154v-154h-154zM0 1229v153h154v-153h-154zM205 1024v154h153v-154h-153zM205 1690v153h153v-153h-153zM410 614v154h153 v-154h-153zM410 819v154h153v-154h-153zM410 1690v153h153v-153h-153zM614 410v153h154v-153h-154zM614 1894v154h154v-154h-154zM819 0v154h154v-154h-154zM819 205v153h154v-153h-154zM819 410v153h154v-153h-154zM819 614v154h154v-154h-154zM819 819v154h154v-154h-154z M819 1024v154h154v-154h-154zM819 1229v153h154v-153h-154z" />
<glyph unicode="&#x144;" d="M0 0v154h154v-154h-154zM0 205v153h154v-153h-154zM0 410v153h154v-153h-154zM0 614v154h154v-154h-154zM0 819v154h154v-154h-154zM205 614v154h153v-154h-153zM205 1229v153h153v-153h-153zM410 819v154h153v-154h-153zM410 1229v153h153v-153h-153zM614 819v154h154 v-154h-154zM614 1434v153h154v-153h-154zM819 0v154h154v-154h-154zM819 205v153h154v-153h-154zM819 410v153h154v-153h-154zM819 614v154h154v-154h-154z" />
<glyph unicode="&#x145;" d="M0 0v154h154v-154h-154zM0 205v153h154v-153h-154zM0 410v153h154v-153h-154zM0 614v154h154v-154h-154zM0 819v154h154v-154h-154zM0 1024v154h154v-154h-154zM0 1229v153h154v-153h-154zM205 -256h153v-154h-153v154zM205 1024v154h153v-154h-153zM410 -51h153v-154 h-153v154zM410 614v154h153v-154h-153zM410 819v154h153v-154h-153zM614 410v153h154v-153h-154zM819 0v154h154v-154h-154zM819 205v153h154v-153h-154zM819 410v153h154v-153h-154zM819 614v154h154v-154h-154zM819 819v154h154v-154h-154zM819 1024v154h154v-154h-154z M819 1229v153h154v-153h-154z" />
<glyph unicode="&#x146;" d="M0 0v154h154v-154h-154zM0 205v153h154v-153h-154zM0 410v153h154v-153h-154zM0 614v154h154v-154h-154zM0 819v154h154v-154h-154zM205 -256h153v-154h-153v154zM205 614v154h153v-154h-153zM410 -51h153v-154h-153v154zM410 819v154h153v-154h-153zM614 819v154h154 v-154h-154zM819 0v154h154v-154h-154zM819 205v153h154v-153h-154zM819 410v153h154v-153h-154zM819 614v154h154v-154h-154z" />
<glyph unicode="&#x147;" d="M0 0v154h154v-154h-154zM0 205v153h154v-153h-154zM0 410v153h154v-153h-154zM0 614v154h154v-154h-154zM0 819v154h154v-154h-154zM0 1024v154h154v-154h-154zM0 1229v153h154v-153h-154zM205 1024v154h153v-154h-153zM205 1894v154h153v-154h-153zM410 614v154h153 v-154h-153zM410 819v154h153v-154h-153zM410 1690v153h153v-153h-153zM614 410v153h154v-153h-154zM614 1894v154h154v-154h-154zM819 0v154h154v-154h-154zM819 205v153h154v-153h-154zM819 410v153h154v-153h-154zM819 614v154h154v-154h-154zM819 819v154h154v-154h-154z M819 1024v154h154v-154h-154zM819 1229v153h154v-153h-154z" />
<glyph unicode="&#x148;" d="M0 0v154h154v-154h-154zM0 205v153h154v-153h-154zM0 410v153h154v-153h-154zM0 614v154h154v-154h-154zM0 819v154h154v-154h-154zM205 614v154h153v-154h-153zM205 1434v153h153v-153h-153zM410 819v154h153v-154h-153zM410 1229v153h153v-153h-153zM614 819v154h154 v-154h-154zM614 1434v153h154v-153h-154zM819 0v154h154v-154h-154zM819 205v153h154v-153h-154zM819 410v153h154v-153h-154zM819 614v154h154v-154h-154z" />
<glyph unicode="&#x14c;" d="M0 205v153h154v-153h-154zM0 410v153h154v-153h-154zM0 614v154h154v-154h-154zM0 819v154h154v-154h-154zM0 1024v154h154v-154h-154zM205 0v154h153v-154h-153zM205 1229v153h153v-153h-153zM205 1690v153h153v-153h-153zM410 0v154h153v-154h-153zM410 1229v153h153 v-153h-153zM410 1690v153h153v-153h-153zM614 0v154h154v-154h-154zM614 1229v153h154v-153h-154zM614 1690v153h154v-153h-154zM819 205v153h154v-153h-154zM819 410v153h154v-153h-154zM819 614v154h154v-154h-154zM819 819v154h154v-154h-154zM819 1024v154h154v-154 h-154z" />
<glyph unicode="&#x14d;" d="M0 205v153h154v-153h-154zM0 410v153h154v-153h-154zM0 614v154h154v-154h-154zM205 0v154h153v-154h-153zM205 819v154h153v-154h-153zM205 1229v153h153v-153h-153zM410 0v154h153v-154h-153zM410 819v154h153v-154h-153zM410 1229v153h153v-153h-153zM614 0v154h154 v-154h-154zM614 819v154h154v-154h-154zM614 1229v153h154v-153h-154zM819 205v153h154v-153h-154zM819 410v153h154v-153h-154zM819 614v154h154v-154h-154z" />
<glyph unicode="&#x150;" d="M0 205v153h154v-153h-154zM0 410v153h154v-153h-154zM0 614v154h154v-154h-154zM0 819v154h154v-154h-154zM0 1024v154h154v-154h-154zM205 0v154h153v-154h-153zM205 1229v153h153v-153h-153zM205 1690v153h153v-153h-153zM410 0v154h153v-154h-153zM410 1229v153h153 v-153h-153zM410 1894v154h153v-154h-153zM614 0v154h154v-154h-154zM614 1229v153h154v-153h-154zM614 1690v153h154v-153h-154zM819 205v153h154v-153h-154zM819 410v153h154v-153h-154zM819 614v154h154v-154h-154zM819 819v154h154v-154h-154zM819 1024v154h154v-154 h-154zM819 1894v154h154v-154h-154z" />
<glyph unicode="&#x151;" d="M0 205v153h154v-153h-154zM0 410v153h154v-153h-154zM0 614v154h154v-154h-154zM205 0v154h153v-154h-153zM205 819v154h153v-154h-153zM205 1229v153h153v-153h-153zM410 0v154h153v-154h-153zM410 819v154h153v-154h-153zM410 1434v153h153v-153h-153zM614 0v154h154 v-154h-154zM614 819v154h154v-154h-154zM614 1229v153h154v-153h-154zM819 205v153h154v-153h-154zM819 410v153h154v-153h-154zM819 614v154h154v-154h-154zM819 1434v153h154v-153h-154z" />
<glyph unicode="&#x152;" d="M0 205v153h154v-153h-154zM0 410v153h154v-153h-154zM0 614v154h154v-154h-154zM0 819v154h154v-154h-154zM0 1024v154h154v-154h-154zM205 0v154h153v-154h-153zM205 1229v153h153v-153h-153zM410 0v154h153v-154h-153zM410 205v153h153v-153h-153zM410 410v153h153 v-153h-153zM410 614v154h153v-154h-153zM410 819v154h153v-154h-153zM410 1024v154h153v-154h-153zM410 1229v153h153v-153h-153zM614 0v154h154v-154h-154zM614 614v154h154v-154h-154zM614 1229v153h154v-153h-154zM819 0v154h154v-154h-154zM819 1229v153h154v-153h-154z " />
<glyph unicode="&#x153;" d="M0 205v153h154v-153h-154zM0 410v153h154v-153h-154zM0 614v154h154v-154h-154zM205 0v154h153v-154h-153zM205 819v154h153v-154h-153zM410 205v153h153v-153h-153zM410 410v153h153v-153h-153zM410 614v154h153v-154h-153zM614 0v154h154v-154h-154zM614 410v153h154 v-153h-154zM614 819v154h154v-154h-154zM819 0v154h154v-154h-154zM819 410v153h154v-153h-154zM819 614v154h154v-154h-154z" />
<glyph unicode="&#x154;" d="M0 0v154h154v-154h-154zM0 205v153h154v-153h-154zM0 410v153h154v-153h-154zM0 614v154h154v-154h-154zM0 819v154h154v-154h-154zM0 1024v154h154v-154h-154zM0 1229v153h154v-153h-154zM205 614v154h153v-154h-153zM205 1229v153h153v-153h-153zM205 1690v153h153 v-153h-153zM410 614v154h153v-154h-153zM410 1229v153h153v-153h-153zM410 1690v153h153v-153h-153zM614 410v153h154v-153h-154zM614 614v154h154v-154h-154zM614 1229v153h154v-153h-154zM614 1894v154h154v-154h-154zM819 0v154h154v-154h-154zM819 205v153h154v-153 h-154zM819 819v154h154v-154h-154zM819 1024v154h154v-154h-154z" />
<glyph unicode="&#x155;" d="M0 0v154h154v-154h-154zM0 819v154h154v-154h-154zM205 0v154h153v-154h-153zM205 205v153h153v-153h-153zM205 410v153h153v-153h-153zM205 614v154h153v-154h-153zM205 819v154h153v-154h-153zM205 1229v153h153v-153h-153zM410 0v154h153v-154h-153zM410 614v154h153 v-154h-153zM410 1229v153h153v-153h-153zM614 0v154h154v-154h-154zM614 819v154h154v-154h-154zM614 1434v153h154v-153h-154zM819 819v154h154v-154h-154z" />
<glyph unicode="&#x156;" d="M0 0v154h154v-154h-154zM0 205v153h154v-153h-154zM0 410v153h154v-153h-154zM0 614v154h154v-154h-154zM0 819v154h154v-154h-154zM0 1024v154h154v-154h-154zM0 1229v153h154v-153h-154zM205 -256h153v-154h-153v154zM205 614v154h153v-154h-153zM205 1229v153h153 v-153h-153zM410 -51h153v-154h-153v154zM410 614v154h153v-154h-153zM410 1229v153h153v-153h-153zM614 410v153h154v-153h-154zM614 614v154h154v-154h-154zM614 1229v153h154v-153h-154zM819 0v154h154v-154h-154zM819 205v153h154v-153h-154zM819 819v154h154v-154h-154z M819 1024v154h154v-154h-154z" />
<glyph unicode="&#x157;" d="M0 0v154h154v-154h-154zM0 -256h154v-154h-154v154zM0 819v154h154v-154h-154zM205 0v154h153v-154h-153zM205 -51h153v-154h-153v154zM205 205v153h153v-153h-153zM205 410v153h153v-153h-153zM205 614v154h153v-154h-153zM205 819v154h153v-154h-153zM410 0v154h153 v-154h-153zM410 614v154h153v-154h-153zM614 0v154h154v-154h-154zM614 819v154h154v-154h-154zM819 819v154h154v-154h-154z" />
<glyph unicode="&#x158;" d="M0 0v154h154v-154h-154zM0 205v153h154v-153h-154zM0 410v153h154v-153h-154zM0 614v154h154v-154h-154zM0 819v154h154v-154h-154zM0 1024v154h154v-154h-154zM0 1229v153h154v-153h-154zM205 614v154h153v-154h-153zM205 1229v153h153v-153h-153zM205 1894v154h153 v-154h-153zM410 614v154h153v-154h-153zM410 1229v153h153v-153h-153zM410 1690v153h153v-153h-153zM614 410v153h154v-153h-154zM614 614v154h154v-154h-154zM614 1229v153h154v-153h-154zM614 1894v154h154v-154h-154zM819 0v154h154v-154h-154zM819 205v153h154v-153 h-154zM819 819v154h154v-154h-154zM819 1024v154h154v-154h-154z" />
<glyph unicode="&#x159;" d="M0 0v154h154v-154h-154zM0 819v154h154v-154h-154zM205 0v154h153v-154h-153zM205 205v153h153v-153h-153zM205 410v153h153v-153h-153zM205 614v154h153v-154h-153zM205 819v154h153v-154h-153zM205 1434v153h153v-153h-153zM410 0v154h153v-154h-153zM410 614v154h153 v-154h-153zM410 1229v153h153v-153h-153zM614 0v154h154v-154h-154zM614 819v154h154v-154h-154zM614 1434v153h154v-153h-154zM819 819v154h154v-154h-154z" />
<glyph unicode="&#x15a;" d="M0 0v154h154v-154h-154zM0 819v154h154v-154h-154zM0 1024v154h154v-154h-154zM205 0v154h153v-154h-153zM205 614v154h153v-154h-153zM205 1229v153h153v-153h-153zM410 0v154h153v-154h-153zM410 614v154h153v-154h-153zM410 1229v153h153v-153h-153zM410 1690v153h153 v-153h-153zM614 0v154h154v-154h-154zM614 614v154h154v-154h-154zM614 1229v153h154v-153h-154zM614 1690v153h154v-153h-154zM819 205v153h154v-153h-154zM819 410v153h154v-153h-154zM819 1229v153h154v-153h-154zM819 1894v154h154v-154h-154z" />
<glyph unicode="&#x15b;" d="M0 0v154h154v-154h-154zM0 614v154h154v-154h-154zM205 0v154h153v-154h-153zM205 410v153h153v-153h-153zM205 819v154h153v-154h-153zM410 0v154h153v-154h-153zM410 410v153h153v-153h-153zM410 819v154h153v-154h-153zM410 1229v153h153v-153h-153zM614 0v154h154 v-154h-154zM614 410v153h154v-153h-154zM614 819v154h154v-154h-154zM614 1229v153h154v-153h-154zM819 205v153h154v-153h-154zM819 819v154h154v-154h-154zM819 1434v153h154v-153h-154z" />
<glyph unicode="&#x15e;" d="M0 0v154h154v-154h-154zM0 819v154h154v-154h-154zM0 1024v154h154v-154h-154zM205 0v154h153v-154h-153zM205 -256h153v-154h-153v154zM205 614v154h153v-154h-153zM205 1229v153h153v-153h-153zM410 0v154h153v-154h-153zM410 -51h153v-154h-153v154zM410 614v154h153 v-154h-153zM410 1229v153h153v-153h-153zM614 0v154h154v-154h-154zM614 614v154h154v-154h-154zM614 1229v153h154v-153h-154zM819 205v153h154v-153h-154zM819 410v153h154v-153h-154zM819 1229v153h154v-153h-154z" />
<glyph unicode="&#x15f;" d="M0 0v154h154v-154h-154zM0 614v154h154v-154h-154zM205 0v154h153v-154h-153zM205 -256h153v-154h-153v154zM205 410v153h153v-153h-153zM205 819v154h153v-154h-153zM410 0v154h153v-154h-153zM410 -51h153v-154h-153v154zM410 410v153h153v-153h-153zM410 819v154h153 v-154h-153zM614 0v154h154v-154h-154zM614 410v153h154v-153h-154zM614 819v154h154v-154h-154zM819 205v153h154v-153h-154zM819 819v154h154v-154h-154z" />
<glyph unicode="&#x160;" d="M0 0v154h154v-154h-154zM0 819v154h154v-154h-154zM0 1024v154h154v-154h-154zM205 0v154h153v-154h-153zM205 614v154h153v-154h-153zM205 1229v153h153v-153h-153zM205 1894v154h153v-154h-153zM410 0v154h153v-154h-153zM410 614v154h153v-154h-153zM410 1229v153h153 v-153h-153zM410 1690v153h153v-153h-153zM614 0v154h154v-154h-154zM614 614v154h154v-154h-154zM614 1229v153h154v-153h-154zM614 1894v154h154v-154h-154zM819 205v153h154v-153h-154zM819 410v153h154v-153h-154zM819 1229v153h154v-153h-154z" />
<glyph unicode="&#x161;" d="M0 0v154h154v-154h-154zM0 614v154h154v-154h-154zM205 0v154h153v-154h-153zM205 410v153h153v-153h-153zM205 819v154h153v-154h-153zM205 1434v153h153v-153h-153zM410 0v154h153v-154h-153zM410 410v153h153v-153h-153zM410 819v154h153v-154h-153zM410 1229v153h153 v-153h-153zM614 0v154h154v-154h-154zM614 410v153h154v-153h-154zM614 819v154h154v-154h-154zM614 1434v153h154v-153h-154zM819 205v153h154v-153h-154zM819 819v154h154v-154h-154z" />
<glyph unicode="&#x162;" d="M0 1229v153h154v-153h-154zM205 -256h153v-154h-153v154zM205 1229v153h153v-153h-153zM410 0v154h153v-154h-153zM410 -51h153v-154h-153v154zM410 205v153h153v-153h-153zM410 410v153h153v-153h-153zM410 614v154h153v-154h-153zM410 819v154h153v-154h-153zM410 1024 v154h153v-154h-153zM410 1229v153h153v-153h-153zM614 1229v153h154v-153h-154zM819 1229v153h154v-153h-154z" />
<glyph unicode="&#x163;" d="M0 819v154h154v-154h-154zM205 -256h153v-154h-153v154zM205 819v154h153v-154h-153zM410 -51h153v-154h-153v154zM410 205v153h153v-153h-153zM410 410v153h153v-153h-153zM410 614v154h153v-154h-153zM410 819v154h153v-154h-153zM410 1024v154h153v-154h-153zM614 0 v154h154v-154h-154zM614 819v154h154v-154h-154zM819 0v154h154v-154h-154zM819 819v154h154v-154h-154z" />
<glyph unicode="&#x164;" d="M0 1229v153h154v-153h-154zM205 1229v153h153v-153h-153zM205 1894v154h153v-154h-153zM410 0v154h153v-154h-153zM410 205v153h153v-153h-153zM410 410v153h153v-153h-153zM410 614v154h153v-154h-153zM410 819v154h153v-154h-153zM410 1024v154h153v-154h-153z M410 1229v153h153v-153h-153zM410 1690v153h153v-153h-153zM614 1229v153h154v-153h-154zM614 1894v154h154v-154h-154zM819 1229v153h154v-153h-154z" />
<glyph unicode="&#x165;" d="M0 819v154h154v-154h-154zM205 205v153h153v-153h-153zM205 410v153h153v-153h-153zM205 614v154h153v-154h-153zM205 819v154h153v-154h-153zM205 1024v154h153v-154h-153zM410 0v154h153v-154h-153zM614 819v154h154v-154h-154zM819 1024v154h154v-154h-154zM819 1229 v153h154v-153h-154z" />
<glyph unicode="&#x16a;" d="M0 205v153h154v-153h-154zM0 410v153h154v-153h-154zM0 614v154h154v-154h-154zM0 819v154h154v-154h-154zM0 1024v154h154v-154h-154zM0 1229v153h154v-153h-154zM205 0v154h153v-154h-153zM205 1690v153h153v-153h-153zM410 0v154h153v-154h-153zM410 1690v153h153 v-153h-153zM614 0v154h154v-154h-154zM614 1690v153h154v-153h-154zM819 205v153h154v-153h-154zM819 410v153h154v-153h-154zM819 614v154h154v-154h-154zM819 819v154h154v-154h-154zM819 1024v154h154v-154h-154zM819 1229v153h154v-153h-154z" />
<glyph unicode="&#x16b;" d="M0 205v153h154v-153h-154zM0 410v153h154v-153h-154zM0 614v154h154v-154h-154zM0 819v154h154v-154h-154zM205 0v154h153v-154h-153zM205 1229v153h153v-153h-153zM410 0v154h153v-154h-153zM410 1229v153h153v-153h-153zM614 205v153h154v-153h-154zM614 1229v153h154 v-153h-154zM819 0v154h154v-154h-154zM819 205v153h154v-153h-154zM819 410v153h154v-153h-154zM819 614v154h154v-154h-154zM819 819v154h154v-154h-154z" />
<glyph unicode="&#x16e;" d="M0 205v153h154v-153h-154zM0 410v153h154v-153h-154zM0 614v154h154v-154h-154zM0 819v154h154v-154h-154zM0 1024v154h154v-154h-154zM0 1229v153h154v-153h-154zM205 0v154h153v-154h-153zM205 1894v154h153v-154h-153zM410 0v154h153v-154h-153zM410 1690v153h153 v-153h-153zM410 2099v154h153v-154h-153zM614 0v154h154v-154h-154zM614 1894v154h154v-154h-154zM819 205v153h154v-153h-154zM819 410v153h154v-153h-154zM819 614v154h154v-154h-154zM819 819v154h154v-154h-154zM819 1024v154h154v-154h-154zM819 1229v153h154v-153 h-154z" />
<glyph unicode="&#x16f;" d="M0 205v153h154v-153h-154zM0 410v153h154v-153h-154zM0 614v154h154v-154h-154zM0 819v154h154v-154h-154zM205 0v154h153v-154h-153zM205 1434v153h153v-153h-153zM410 0v154h153v-154h-153zM410 1229v153h153v-153h-153zM410 1638v154h153v-154h-153zM614 205v153h154 v-153h-154zM614 1434v153h154v-153h-154zM819 0v154h154v-154h-154zM819 205v153h154v-153h-154zM819 410v153h154v-153h-154zM819 614v154h154v-154h-154zM819 819v154h154v-154h-154z" />
<glyph unicode="&#x170;" d="M0 205v153h154v-153h-154zM0 410v153h154v-153h-154zM0 614v154h154v-154h-154zM0 819v154h154v-154h-154zM0 1024v154h154v-154h-154zM0 1229v153h154v-153h-154zM205 0v154h153v-154h-153zM205 1690v153h153v-153h-153zM410 0v154h153v-154h-153zM410 1894v154h153 v-154h-153zM614 0v154h154v-154h-154zM614 1690v153h154v-153h-154zM819 205v153h154v-153h-154zM819 410v153h154v-153h-154zM819 614v154h154v-154h-154zM819 819v154h154v-154h-154zM819 1024v154h154v-154h-154zM819 1229v153h154v-153h-154zM819 1894v154h154v-154 h-154z" />
<glyph unicode="&#x171;" d="M0 205v153h154v-153h-154zM0 410v153h154v-153h-154zM0 614v154h154v-154h-154zM0 819v154h154v-154h-154zM205 0v154h153v-154h-153zM205 1229v153h153v-153h-153zM410 0v154h153v-154h-153zM410 1434v153h153v-153h-153zM614 205v153h154v-153h-154zM614 1229v153h154 v-153h-154zM819 0v154h154v-154h-154zM819 205v153h154v-153h-154zM819 410v153h154v-153h-154zM819 614v154h154v-154h-154zM819 819v154h154v-154h-154zM819 1434v153h154v-153h-154z" />
<glyph unicode="&#x172;" d="M0 205v153h154v-153h-154zM0 410v153h154v-153h-154zM0 614v154h154v-154h-154zM0 819v154h154v-154h-154zM0 1024v154h154v-154h-154zM0 1229v153h154v-153h-154zM205 0v154h153v-154h-153zM410 0v154h153v-154h-153zM410 -51h153v-154h-153v154zM614 0v154h154v-154 h-154zM614 -256h154v-154h-154v154zM819 205v153h154v-153h-154zM819 410v153h154v-153h-154zM819 614v154h154v-154h-154zM819 819v154h154v-154h-154zM819 1024v154h154v-154h-154zM819 1229v153h154v-153h-154z" />
<glyph unicode="&#x173;" d="M0 205v153h154v-153h-154zM0 410v153h154v-153h-154zM0 614v154h154v-154h-154zM0 819v154h154v-154h-154zM205 0v154h153v-154h-153zM410 0v154h153v-154h-153zM614 -51h154v-154h-154v154zM614 205v153h154v-153h-154zM819 0v154h154v-154h-154zM819 205v153h154v-153 h-154zM819 -256h154v-154h-154v154zM819 410v153h154v-153h-154zM819 614v154h154v-154h-154zM819 819v154h154v-154h-154z" />
<glyph unicode="&#x178;" d="M0 819v154h154v-154h-154zM0 1024v154h154v-154h-154zM0 1229v153h154v-153h-154zM0 1690v153h154v-153h-154zM0 1894v154h154v-154h-154zM205 614v154h153v-154h-153zM410 0v154h153v-154h-153zM410 205v153h153v-153h-153zM410 410v153h153v-153h-153zM614 614v154h154 v-154h-154zM819 819v154h154v-154h-154zM819 1024v154h154v-154h-154zM819 1229v153h154v-153h-154zM819 1690v153h154v-153h-154zM819 1894v154h154v-154h-154z" />
<glyph unicode="&#x179;" d="M0 0v154h154v-154h-154zM0 205v153h154v-153h-154zM0 1229v153h154v-153h-154zM205 0v154h153v-154h-153zM205 410v153h153v-153h-153zM205 1229v153h153v-153h-153zM205 1690v153h153v-153h-153zM410 0v154h153v-154h-153zM410 614v154h153v-154h-153zM410 1229v153h153 v-153h-153zM410 1690v153h153v-153h-153zM614 0v154h154v-154h-154zM614 819v154h154v-154h-154zM614 1229v153h154v-153h-154zM614 1894v154h154v-154h-154zM819 0v154h154v-154h-154zM819 1024v154h154v-154h-154zM819 1229v153h154v-153h-154z" />
<glyph unicode="&#x17a;" d="M0 0v154h154v-154h-154zM0 819v154h154v-154h-154zM205 0v154h153v-154h-153zM205 205v153h153v-153h-153zM205 819v154h153v-154h-153zM205 1229v153h153v-153h-153zM410 0v154h153v-154h-153zM410 410v153h153v-153h-153zM410 819v154h153v-154h-153zM410 1229v153h153 v-153h-153zM614 0v154h154v-154h-154zM614 614v154h154v-154h-154zM614 819v154h154v-154h-154zM614 1434v153h154v-153h-154zM819 0v154h154v-154h-154zM819 819v154h154v-154h-154z" />
<glyph unicode="&#x17b;" d="M0 0v154h154v-154h-154zM0 205v153h154v-153h-154zM0 1229v153h154v-153h-154zM205 0v154h153v-154h-153zM205 410v153h153v-153h-153zM205 1229v153h153v-153h-153zM410 0v154h153v-154h-153zM410 614v154h153v-154h-153zM410 1229v153h153v-153h-153zM410 1690v153h153 v-153h-153zM614 0v154h154v-154h-154zM614 819v154h154v-154h-154zM614 1229v153h154v-153h-154zM819 0v154h154v-154h-154zM819 1024v154h154v-154h-154zM819 1229v153h154v-153h-154z" />
<glyph unicode="&#x17c;" d="M0 0v154h154v-154h-154zM0 819v154h154v-154h-154zM205 0v154h153v-154h-153zM205 205v153h153v-153h-153zM205 819v154h153v-154h-153zM410 0v154h153v-154h-153zM410 410v153h153v-153h-153zM410 819v154h153v-154h-153zM410 1229v153h153v-153h-153zM614 0v154h154 v-154h-154zM614 614v154h154v-154h-154zM614 819v154h154v-154h-154zM819 0v154h154v-154h-154zM819 819v154h154v-154h-154z" />
<glyph unicode="&#x17d;" d="M0 0v154h154v-154h-154zM0 205v153h154v-153h-154zM0 1229v153h154v-153h-154zM205 0v154h153v-154h-153zM205 410v153h153v-153h-153zM205 1229v153h153v-153h-153zM205 1894v154h153v-154h-153zM410 0v154h153v-154h-153zM410 614v154h153v-154h-153zM410 1229v153h153 v-153h-153zM410 1690v153h153v-153h-153zM614 0v154h154v-154h-154zM614 819v154h154v-154h-154zM614 1229v153h154v-153h-154zM614 1894v154h154v-154h-154zM819 0v154h154v-154h-154zM819 1024v154h154v-154h-154zM819 1229v153h154v-153h-154z" />
<glyph unicode="&#x17e;" d="M0 0v154h154v-154h-154zM0 819v154h154v-154h-154zM205 0v154h153v-154h-153zM205 205v153h153v-153h-153zM205 819v154h153v-154h-153zM205 1434v153h153v-153h-153zM410 0v154h153v-154h-153zM410 410v153h153v-153h-153zM410 819v154h153v-154h-153zM410 1229v153h153 v-153h-153zM614 0v154h154v-154h-154zM614 614v154h154v-154h-154zM614 819v154h154v-154h-154zM614 1434v153h154v-153h-154zM819 0v154h154v-154h-154zM819 819v154h154v-154h-154z" />
<glyph unicode="&#x192;" d="M0 -256h154v-154h-154v154zM205 -256h153v-154h-153v154zM205 819v154h153v-154h-153zM410 0v154h153v-154h-153zM410 -51h153v-154h-153v154zM410 205v153h153v-153h-153zM410 410v153h153v-153h-153zM410 614v154h153v-154h-153zM410 819v154h153v-154h-153zM410 1024 v154h153v-154h-153zM614 819v154h154v-154h-154zM614 1229v153h154v-153h-154zM819 819v154h154v-154h-154zM819 1229v153h154v-153h-154z" />
<glyph unicode="&#x218;" d="M0 0v154h154v-154h-154zM0 819v154h154v-154h-154zM0 1024v154h154v-154h-154zM205 0v154h153v-154h-153zM205 -256h153v-154h-153v154zM205 614v154h153v-154h-153zM205 1229v153h153v-153h-153zM410 0v154h153v-154h-153zM410 -51h153v-154h-153v154zM410 614v154h153 v-154h-153zM410 1229v153h153v-153h-153zM614 0v154h154v-154h-154zM614 614v154h154v-154h-154zM614 1229v153h154v-153h-154zM819 205v153h154v-153h-154zM819 410v153h154v-153h-154zM819 1229v153h154v-153h-154z" />
<glyph unicode="&#x219;" d="M0 0v154h154v-154h-154zM0 614v154h154v-154h-154zM205 0v154h153v-154h-153zM205 -256h153v-154h-153v154zM205 410v153h153v-153h-153zM205 819v154h153v-154h-153zM410 0v154h153v-154h-153zM410 -51h153v-154h-153v154zM410 410v153h153v-153h-153zM410 819v154h153 v-154h-153zM614 0v154h154v-154h-154zM614 410v153h154v-153h-154zM614 819v154h154v-154h-154zM819 205v153h154v-153h-154zM819 819v154h154v-154h-154z" />
<glyph unicode="&#x2c6;" d="M205 1229v153h153v-153h-153zM410 1434v153h153v-153h-153zM614 1229v153h154v-153h-154z" />
<glyph unicode="&#x2c7;" d="M205 1434v153h153v-153h-153zM410 1229v153h153v-153h-153zM614 1434v153h154v-153h-154z" />
<glyph unicode="&#x2d8;" d="M205 1434v153h153v-153h-153zM410 1229v153h153v-153h-153zM614 1434v153h154v-153h-154z" />
<glyph unicode="&#x2d9;" d="M410 1229v153h153v-153h-153z" />
<glyph unicode="&#x2da;" d="M205 1434v153h153v-153h-153zM410 1229v153h153v-153h-153zM410 1638v154h153v-154h-153zM614 1434v153h154v-153h-154z" />
<glyph unicode="&#x2db;" d="M410 -51h153v-154h-153v154zM614 -256h154v-154h-154v154z" />
<glyph unicode="&#x2dc;" d="M0 1229v153h154v-153h-154zM205 1434v153h153v-153h-153zM410 1229v153h153v-153h-153zM614 1229v153h154v-153h-154zM819 1434v153h154v-153h-154z" />
<glyph unicode="&#x2dd;" d="M205 1229v153h153v-153h-153zM410 1434v153h153v-153h-153zM614 1229v153h154v-153h-154zM819 1434v153h154v-153h-154z" />
<glyph unicode="&#x384;" d="M0 1229v153h154v-153h-154zM205 1434v153h153v-153h-153z" />
<glyph unicode="&#x385;" d="M0 1229v153h154v-153h-154zM0 1434v153h154v-153h-154zM410 1229v153h153v-153h-153zM410 1434v153h153v-153h-153zM410 1638v154h153v-154h-153zM819 1229v153h154v-153h-154zM819 1434v153h154v-153h-154z" />
<glyph unicode="&#x386;" d="M0 819v154h154v-154h-154zM0 1024v154h154v-154h-154zM0 1229v153h154v-153h-154zM410 0v154h153v-154h-153zM410 205v153h153v-153h-153zM410 410v153h153v-153h-153zM410 614v154h153v-154h-153zM410 819v154h153v-154h-153zM410 1024v154h153v-154h-153zM614 410v153 h154v-153h-154zM614 1229v153h154v-153h-154zM819 0v154h154v-154h-154zM819 205v153h154v-153h-154zM819 410v153h154v-153h-154zM819 614v154h154v-154h-154zM819 819v154h154v-154h-154zM819 1024v154h154v-154h-154z" />
<glyph unicode="&#x388;" d="M0 819v154h154v-154h-154zM0 1024v154h154v-154h-154zM0 1229v153h154v-153h-154zM410 0v154h153v-154h-153zM410 205v153h153v-153h-153zM410 410v153h153v-153h-153zM410 614v154h153v-154h-153zM410 819v154h153v-154h-153zM410 1024v154h153v-154h-153zM410 1229v153 h153v-153h-153zM614 0v154h154v-154h-154zM614 614v154h154v-154h-154zM614 1229v153h154v-153h-154zM819 0v154h154v-154h-154zM819 1229v153h154v-153h-154z" />
<glyph unicode="&#x389;" d="M0 819v154h154v-154h-154zM0 1024v154h154v-154h-154zM0 1229v153h154v-153h-154zM410 0v154h153v-154h-153zM410 205v153h153v-153h-153zM410 410v153h153v-153h-153zM410 614v154h153v-154h-153zM410 819v154h153v-154h-153zM410 1024v154h153v-154h-153zM410 1229v153 h153v-153h-153zM614 614v154h154v-154h-154zM819 0v154h154v-154h-154zM819 205v153h154v-153h-154zM819 410v153h154v-153h-154zM819 614v154h154v-154h-154zM819 819v154h154v-154h-154zM819 1024v154h154v-154h-154zM819 1229v153h154v-153h-154z" />
<glyph unicode="&#x38a;" d="M0 819v154h154v-154h-154zM0 1024v154h154v-154h-154zM0 1229v153h154v-153h-154zM410 0v154h153v-154h-153zM410 1229v153h153v-153h-153zM614 0v154h154v-154h-154zM614 205v153h154v-153h-154zM614 410v153h154v-153h-154zM614 614v154h154v-154h-154zM614 819v154 h154v-154h-154zM614 1024v154h154v-154h-154zM614 1229v153h154v-153h-154zM819 0v154h154v-154h-154zM819 1229v153h154v-153h-154z" />
<glyph unicode="&#x38c;" d="M0 819v154h154v-154h-154zM0 1024v154h154v-154h-154zM0 1229v153h154v-153h-154zM410 205v153h153v-153h-153zM410 410v153h153v-153h-153zM410 614v154h153v-154h-153zM410 819v154h153v-154h-153zM410 1024v154h153v-154h-153zM614 0v154h154v-154h-154zM614 1229v153 h154v-153h-154zM819 205v153h154v-153h-154zM819 410v153h154v-153h-154zM819 614v154h154v-154h-154zM819 819v154h154v-154h-154zM819 1024v154h154v-154h-154z" />
<glyph unicode="&#x38e;" d="M0 819v154h154v-154h-154zM0 1024v154h154v-154h-154zM0 1229v153h154v-153h-154zM410 819v154h153v-154h-153zM410 1024v154h153v-154h-153zM410 1229v153h153v-153h-153zM614 0v154h154v-154h-154zM614 205v153h154v-153h-154zM614 410v153h154v-153h-154zM614 614v154 h154v-154h-154zM819 819v154h154v-154h-154zM819 1024v154h154v-154h-154zM819 1229v153h154v-153h-154z" />
<glyph unicode="&#x38f;" d="M0 819v154h154v-154h-154zM0 1024v154h154v-154h-154zM0 1229v153h154v-153h-154zM410 0v154h153v-154h-153zM410 614v154h153v-154h-153zM410 819v154h153v-154h-153zM410 1024v154h153v-154h-153zM614 0v154h154v-154h-154zM614 410v153h154v-153h-154zM614 1229v153 h154v-153h-154zM819 0v154h154v-154h-154zM819 614v154h154v-154h-154zM819 819v154h154v-154h-154zM819 1024v154h154v-154h-154z" />
<glyph unicode="&#x390;" d="M0 0v154h154v-154h-154zM0 819v154h154v-154h-154zM0 1229v153h154v-153h-154zM0 1434v153h154v-153h-154zM205 0v154h153v-154h-153zM205 819v154h153v-154h-153zM410 0v154h153v-154h-153zM410 205v153h153v-153h-153zM410 410v153h153v-153h-153zM410 614v154h153 v-154h-153zM410 819v154h153v-154h-153zM410 1229v153h153v-153h-153zM410 1434v153h153v-153h-153zM410 1638v154h153v-154h-153zM614 0v154h154v-154h-154zM819 0v154h154v-154h-154zM819 1229v153h154v-153h-154zM819 1434v153h154v-153h-154z" />
<glyph unicode="&#x391;" d="M0 0v154h154v-154h-154zM0 205v153h154v-153h-154zM0 410v153h154v-153h-154zM0 614v154h154v-154h-154zM0 819v154h154v-154h-154zM0 1024v154h154v-154h-154zM205 410v153h153v-153h-153zM205 1229v153h153v-153h-153zM410 410v153h153v-153h-153zM410 1229v153h153 v-153h-153zM614 410v153h154v-153h-154zM614 1229v153h154v-153h-154zM819 0v154h154v-154h-154zM819 205v153h154v-153h-154zM819 410v153h154v-153h-154zM819 614v154h154v-154h-154zM819 819v154h154v-154h-154zM819 1024v154h154v-154h-154z" />
<glyph unicode="&#x392;" d="M0 0v154h154v-154h-154zM0 205v153h154v-153h-154zM0 410v153h154v-153h-154zM0 614v154h154v-154h-154zM0 819v154h154v-154h-154zM0 1024v154h154v-154h-154zM0 1229v153h154v-153h-154zM205 0v154h153v-154h-153zM205 614v154h153v-154h-153zM205 1229v153h153v-153 h-153zM410 0v154h153v-154h-153zM410 614v154h153v-154h-153zM410 1229v153h153v-153h-153zM614 0v154h154v-154h-154zM614 614v154h154v-154h-154zM614 1229v153h154v-153h-154zM819 205v153h154v-153h-154zM819 410v153h154v-153h-154zM819 819v154h154v-154h-154z M819 1024v154h154v-154h-154z" />
<glyph unicode="&#x393;" d="M0 0v154h154v-154h-154zM0 205v153h154v-153h-154zM0 410v153h154v-153h-154zM0 614v154h154v-154h-154zM0 819v154h154v-154h-154zM0 1024v154h154v-154h-154zM0 1229v153h154v-153h-154zM205 1229v153h153v-153h-153zM410 1229v153h153v-153h-153zM614 1229v153h154 v-153h-154zM819 1229v153h154v-153h-154z" />
<glyph unicode="&#x394;" d="M0 0v154h154v-154h-154zM0 205v153h154v-153h-154zM0 410v153h154v-153h-154zM0 614v154h154v-154h-154zM0 819v154h154v-154h-154zM0 1024v154h154v-154h-154zM205 0v154h153v-154h-153zM205 1229v153h153v-153h-153zM410 0v154h153v-154h-153zM410 1229v153h153v-153 h-153zM614 0v154h154v-154h-154zM614 1229v153h154v-153h-154zM819 0v154h154v-154h-154zM819 205v153h154v-153h-154zM819 410v153h154v-153h-154zM819 614v154h154v-154h-154zM819 819v154h154v-154h-154zM819 1024v154h154v-154h-154z" />
<glyph unicode="&#x395;" d="M0 0v154h154v-154h-154zM0 205v153h154v-153h-154zM0 410v153h154v-153h-154zM0 614v154h154v-154h-154zM0 819v154h154v-154h-154zM0 1024v154h154v-154h-154zM0 1229v153h154v-153h-154zM205 0v154h153v-154h-153zM205 614v154h153v-154h-153zM205 1229v153h153v-153 h-153zM410 0v154h153v-154h-153zM410 614v154h153v-154h-153zM410 1229v153h153v-153h-153zM614 0v154h154v-154h-154zM614 614v154h154v-154h-154zM614 1229v153h154v-153h-154zM819 0v154h154v-154h-154zM819 1229v153h154v-153h-154z" />
<glyph unicode="&#x396;" d="M0 0v154h154v-154h-154zM0 205v153h154v-153h-154zM0 1229v153h154v-153h-154zM205 0v154h153v-154h-153zM205 410v153h153v-153h-153zM205 1229v153h153v-153h-153zM410 0v154h153v-154h-153zM410 614v154h153v-154h-153zM410 1229v153h153v-153h-153zM614 0v154h154 v-154h-154zM614 819v154h154v-154h-154zM614 1229v153h154v-153h-154zM819 0v154h154v-154h-154zM819 1024v154h154v-154h-154zM819 1229v153h154v-153h-154z" />
<glyph unicode="&#x397;" d="M0 0v154h154v-154h-154zM0 205v153h154v-153h-154zM0 410v153h154v-153h-154zM0 614v154h154v-154h-154zM0 819v154h154v-154h-154zM0 1024v154h154v-154h-154zM0 1229v153h154v-153h-154zM205 614v154h153v-154h-153zM410 614v154h153v-154h-153zM614 614v154h154v-154 h-154zM819 0v154h154v-154h-154zM819 205v153h154v-153h-154zM819 410v153h154v-153h-154zM819 614v154h154v-154h-154zM819 819v154h154v-154h-154zM819 1024v154h154v-154h-154zM819 1229v153h154v-153h-154z" />
<glyph unicode="&#x398;" d="M0 205v153h154v-153h-154zM0 410v153h154v-153h-154zM0 614v154h154v-154h-154zM0 819v154h154v-154h-154zM0 1024v154h154v-154h-154zM205 0v154h153v-154h-153zM205 614v154h153v-154h-153zM205 1229v153h153v-153h-153zM410 0v154h153v-154h-153zM410 614v154h153 v-154h-153zM410 1229v153h153v-153h-153zM614 0v154h154v-154h-154zM614 614v154h154v-154h-154zM614 1229v153h154v-153h-154zM819 205v153h154v-153h-154zM819 410v153h154v-153h-154zM819 614v154h154v-154h-154zM819 819v154h154v-154h-154zM819 1024v154h154v-154h-154 z" />
<glyph unicode="&#x399;" d="M0 0v154h154v-154h-154zM0 1229v153h154v-153h-154zM205 0v154h153v-154h-153zM205 1229v153h153v-153h-153zM410 0v154h153v-154h-153zM410 205v153h153v-153h-153zM410 410v153h153v-153h-153zM410 614v154h153v-154h-153zM410 819v154h153v-154h-153zM410 1024v154 h153v-154h-153zM410 1229v153h153v-153h-153zM614 0v154h154v-154h-154zM614 1229v153h154v-153h-154zM819 0v154h154v-154h-154zM819 1229v153h154v-153h-154z" />
<glyph unicode="&#x39a;" d="M0 0v154h154v-154h-154zM0 205v153h154v-153h-154zM0 410v153h154v-153h-154zM0 614v154h154v-154h-154zM0 819v154h154v-154h-154zM0 1024v154h154v-154h-154zM0 1229v153h154v-153h-154zM205 614v154h153v-154h-153zM410 614v154h153v-154h-153zM614 410v153h154v-153 h-154zM614 819v154h154v-154h-154zM819 0v154h154v-154h-154zM819 205v153h154v-153h-154zM819 1024v154h154v-154h-154zM819 1229v153h154v-153h-154z" />
<glyph unicode="&#x39b;" d="M0 0v154h154v-154h-154zM0 205v153h154v-153h-154zM0 410v153h154v-153h-154zM0 614v154h154v-154h-154zM0 819v154h154v-154h-154zM0 1024v154h154v-154h-154zM205 1229v153h153v-153h-153zM410 1229v153h153v-153h-153zM614 1229v153h154v-153h-154zM819 0v154h154 v-154h-154zM819 205v153h154v-153h-154zM819 410v153h154v-153h-154zM819 614v154h154v-154h-154zM819 819v154h154v-154h-154zM819 1024v154h154v-154h-154z" />
<glyph unicode="&#x39c;" d="M0 0v154h154v-154h-154zM0 205v153h154v-153h-154zM0 410v153h154v-153h-154zM0 614v154h154v-154h-154zM0 819v154h154v-154h-154zM0 1024v154h154v-154h-154zM0 1229v153h154v-153h-154zM205 819v154h153v-154h-153zM205 1024v154h153v-154h-153zM410 410v153h153v-153 h-153zM410 614v154h153v-154h-153zM614 819v154h154v-154h-154zM614 1024v154h154v-154h-154zM819 0v154h154v-154h-154zM819 205v153h154v-153h-154zM819 410v153h154v-153h-154zM819 614v154h154v-154h-154zM819 819v154h154v-154h-154zM819 1024v154h154v-154h-154z M819 1229v153h154v-153h-154z" />
<glyph unicode="&#x39d;" d="M0 0v154h154v-154h-154zM0 205v153h154v-153h-154zM0 410v153h154v-153h-154zM0 614v154h154v-154h-154zM0 819v154h154v-154h-154zM0 1024v154h154v-154h-154zM0 1229v153h154v-153h-154zM205 1024v154h153v-154h-153zM410 614v154h153v-154h-153zM410 819v154h153v-154 h-153zM614 410v153h154v-153h-154zM819 0v154h154v-154h-154zM819 205v153h154v-153h-154zM819 410v153h154v-153h-154zM819 614v154h154v-154h-154zM819 819v154h154v-154h-154zM819 1024v154h154v-154h-154zM819 1229v153h154v-153h-154z" />
<glyph unicode="&#x39e;" d="M0 0v154h154v-154h-154zM0 1229v153h154v-153h-154zM205 0v154h153v-154h-153zM205 614v154h153v-154h-153zM205 1229v153h153v-153h-153zM410 0v154h153v-154h-153zM410 205v153h153v-153h-153zM410 410v153h153v-153h-153zM410 614v154h153v-154h-153zM410 819v154h153 v-154h-153zM410 1024v154h153v-154h-153zM410 1229v153h153v-153h-153zM614 0v154h154v-154h-154zM614 614v154h154v-154h-154zM614 1229v153h154v-153h-154zM819 0v154h154v-154h-154zM819 1229v153h154v-153h-154z" />
<glyph unicode="&#x39f;" d="M0 205v153h154v-153h-154zM0 410v153h154v-153h-154zM0 614v154h154v-154h-154zM0 819v154h154v-154h-154zM0 1024v154h154v-154h-154zM205 0v154h153v-154h-153zM205 1229v153h153v-153h-153zM410 0v154h153v-154h-153zM410 1229v153h153v-153h-153zM614 0v154h154v-154 h-154zM614 1229v153h154v-153h-154zM819 205v153h154v-153h-154zM819 410v153h154v-153h-154zM819 614v154h154v-154h-154zM819 819v154h154v-154h-154zM819 1024v154h154v-154h-154z" />
<glyph unicode="&#x3a0;" d="M0 0v154h154v-154h-154zM0 205v153h154v-153h-154zM0 410v153h154v-153h-154zM0 614v154h154v-154h-154zM0 819v154h154v-154h-154zM0 1024v154h154v-154h-154zM0 1229v153h154v-153h-154zM205 1229v153h153v-153h-153zM410 1229v153h153v-153h-153zM614 1229v153h154 v-153h-154zM819 0v154h154v-154h-154zM819 205v153h154v-153h-154zM819 410v153h154v-153h-154zM819 614v154h154v-154h-154zM819 819v154h154v-154h-154zM819 1024v154h154v-154h-154zM819 1229v153h154v-153h-154z" />
<glyph unicode="&#x3a1;" d="M0 0v154h154v-154h-154zM0 205v153h154v-153h-154zM0 410v153h154v-153h-154zM0 614v154h154v-154h-154zM0 819v154h154v-154h-154zM0 1024v154h154v-154h-154zM0 1229v153h154v-153h-154zM205 410v153h153v-153h-153zM205 1229v153h153v-153h-153zM410 410v153h153v-153 h-153zM410 1229v153h153v-153h-153zM614 410v153h154v-153h-154zM614 1229v153h154v-153h-154zM819 614v154h154v-154h-154zM819 819v154h154v-154h-154zM819 1024v154h154v-154h-154z" />
<glyph unicode="&#x3a3;" d="M0 0v154h154v-154h-154zM0 205v153h154v-153h-154zM0 1024v154h154v-154h-154zM0 1229v153h154v-153h-154zM205 0v154h153v-154h-153zM205 410v153h153v-153h-153zM205 819v154h153v-154h-153zM205 1229v153h153v-153h-153zM410 0v154h153v-154h-153zM410 614v154h153 v-154h-153zM410 1229v153h153v-153h-153zM614 0v154h154v-154h-154zM614 1229v153h154v-153h-154zM819 0v154h154v-154h-154zM819 1229v153h154v-153h-154z" />
<glyph unicode="&#x3a4;" d="M0 1229v153h154v-153h-154zM205 1229v153h153v-153h-153zM410 0v154h153v-154h-153zM410 205v153h153v-153h-153zM410 410v153h153v-153h-153zM410 614v154h153v-154h-153zM410 819v154h153v-154h-153zM410 1024v154h153v-154h-153zM410 1229v153h153v-153h-153z M614 1229v153h154v-153h-154zM819 1229v153h154v-153h-154z" />
<glyph unicode="&#x3a5;" d="M0 819v154h154v-154h-154zM0 1024v154h154v-154h-154zM0 1229v153h154v-153h-154zM205 614v154h153v-154h-153zM410 0v154h153v-154h-153zM410 205v153h153v-153h-153zM410 410v153h153v-153h-153zM614 614v154h154v-154h-154zM819 819v154h154v-154h-154zM819 1024v154 h154v-154h-154zM819 1229v153h154v-153h-154z" />
<glyph unicode="&#x3a6;" d="M0 410v153h154v-153h-154zM0 614v154h154v-154h-154zM0 819v154h154v-154h-154zM205 205v153h153v-153h-153zM205 1024v154h153v-154h-153zM410 0v154h153v-154h-153zM410 205v153h153v-153h-153zM410 410v153h153v-153h-153zM410 614v154h153v-154h-153zM410 819v154 h153v-154h-153zM410 1024v154h153v-154h-153zM410 1229v153h153v-153h-153zM614 205v153h154v-153h-154zM614 1024v154h154v-154h-154zM819 410v153h154v-153h-154zM819 614v154h154v-154h-154zM819 819v154h154v-154h-154z" />
<glyph unicode="&#x3a7;" d="M0 0v154h154v-154h-154zM0 205v153h154v-153h-154zM0 1024v154h154v-154h-154zM0 1229v153h154v-153h-154zM205 410v153h153v-153h-153zM205 819v154h153v-154h-153zM410 614v154h153v-154h-153zM614 410v153h154v-153h-154zM614 819v154h154v-154h-154zM819 0v154h154 v-154h-154zM819 205v153h154v-153h-154zM819 1024v154h154v-154h-154zM819 1229v153h154v-153h-154z" />
<glyph unicode="&#x3a8;" d="M0 614v154h154v-154h-154zM0 819v154h154v-154h-154zM0 1024v154h154v-154h-154zM0 1229v153h154v-153h-154zM205 410v153h153v-153h-153zM410 0v154h153v-154h-153zM410 205v153h153v-153h-153zM410 410v153h153v-153h-153zM410 614v154h153v-154h-153zM410 819v154h153 v-154h-153zM410 1024v154h153v-154h-153zM410 1229v153h153v-153h-153zM614 410v153h154v-153h-154zM819 614v154h154v-154h-154zM819 819v154h154v-154h-154zM819 1024v154h154v-154h-154zM819 1229v153h154v-153h-154z" />
<glyph unicode="&#x3a9;" d="M0 0v154h154v-154h-154zM0 614v154h154v-154h-154zM0 819v154h154v-154h-154zM0 1024v154h154v-154h-154zM205 0v154h153v-154h-153zM205 410v153h153v-153h-153zM205 1229v153h153v-153h-153zM410 0v154h153v-154h-153zM410 410v153h153v-153h-153zM410 1229v153h153 v-153h-153zM614 0v154h154v-154h-154zM614 410v153h154v-153h-154zM614 1229v153h154v-153h-154zM819 0v154h154v-154h-154zM819 614v154h154v-154h-154zM819 819v154h154v-154h-154zM819 1024v154h154v-154h-154z" />
<glyph unicode="&#x3aa;" d="M0 0v154h154v-154h-154zM0 1229v153h154v-153h-154zM0 1690v153h154v-153h-154zM0 1894v154h154v-154h-154zM205 0v154h153v-154h-153zM205 1229v153h153v-153h-153zM410 0v154h153v-154h-153zM410 205v153h153v-153h-153zM410 410v153h153v-153h-153zM410 614v154h153 v-154h-153zM410 819v154h153v-154h-153zM410 1024v154h153v-154h-153zM410 1229v153h153v-153h-153zM614 0v154h154v-154h-154zM614 1229v153h154v-153h-154zM819 0v154h154v-154h-154zM819 1229v153h154v-153h-154zM819 1690v153h154v-153h-154zM819 1894v154h154v-154 h-154z" />
<glyph unicode="&#x3ab;" d="M0 819v154h154v-154h-154zM0 1024v154h154v-154h-154zM0 1229v153h154v-153h-154zM0 1690v153h154v-153h-154zM0 1894v154h154v-154h-154zM205 614v154h153v-154h-153zM410 0v154h153v-154h-153zM410 205v153h153v-153h-153zM410 410v153h153v-153h-153zM614 614v154h154 v-154h-154zM819 819v154h154v-154h-154zM819 1024v154h154v-154h-154zM819 1229v153h154v-153h-154zM819 1690v153h154v-153h-154zM819 1894v154h154v-154h-154z" />
<glyph unicode="&#x3ac;" d="M0 205v153h154v-153h-154zM0 410v153h154v-153h-154zM0 614v154h154v-154h-154zM205 0v154h153v-154h-153zM205 819v154h153v-154h-153zM410 0v154h153v-154h-153zM410 819v154h153v-154h-153zM410 1229v153h153v-153h-153zM614 205v153h154v-153h-154zM614 614v154h154 v-154h-154zM614 1434v153h154v-153h-154zM819 0v154h154v-154h-154zM819 205v153h154v-153h-154zM819 410v153h154v-153h-154zM819 614v154h154v-154h-154zM819 819v154h154v-154h-154z" />
<glyph unicode="&#x3ad;" d="M0 205v153h154v-153h-154zM0 614v154h154v-154h-154zM205 0v154h153v-154h-153zM205 410v153h153v-153h-153zM205 819v154h153v-154h-153zM410 0v154h153v-154h-153zM410 410v153h153v-153h-153zM410 819v154h153v-154h-153zM410 1229v153h153v-153h-153zM614 0v154h154 v-154h-154zM614 410v153h154v-153h-154zM614 819v154h154v-154h-154zM614 1434v153h154v-153h-154zM819 0v154h154v-154h-154zM819 819v154h154v-154h-154z" />
<glyph unicode="&#x3ae;" d="M0 0v154h154v-154h-154zM0 205v153h154v-153h-154zM0 410v153h154v-153h-154zM0 614v154h154v-154h-154zM0 819v154h154v-154h-154zM205 614v154h153v-154h-153zM410 819v154h153v-154h-153zM410 1229v153h153v-153h-153zM614 819v154h154v-154h-154zM614 1434v153h154 v-153h-154zM819 0v154h154v-154h-154zM819 -51h154v-154h-154v154zM819 205v153h154v-153h-154zM819 -256h154v-154h-154v154zM819 410v153h154v-153h-154zM819 614v154h154v-154h-154z" />
<glyph unicode="&#x3af;" d="M0 0v154h154v-154h-154zM0 819v154h154v-154h-154zM205 0v154h153v-154h-153zM205 819v154h153v-154h-153zM410 0v154h153v-154h-153zM410 205v153h153v-153h-153zM410 410v153h153v-153h-153zM410 614v154h153v-154h-153zM410 819v154h153v-154h-153zM410 1229v153h153 v-153h-153zM614 0v154h154v-154h-154zM614 1434v153h154v-153h-154zM819 0v154h154v-154h-154z" />
<glyph unicode="&#x3b0;" d="M0 205v153h154v-153h-154zM0 410v153h154v-153h-154zM0 614v154h154v-154h-154zM0 819v154h154v-154h-154zM0 1229v153h154v-153h-154zM0 1434v153h154v-153h-154zM205 0v154h153v-154h-153zM410 0v154h153v-154h-153zM410 1229v153h153v-153h-153zM410 1434v153h153 v-153h-153zM410 1638v154h153v-154h-153zM614 0v154h154v-154h-154zM819 205v153h154v-153h-154zM819 410v153h154v-153h-154zM819 614v154h154v-154h-154zM819 819v154h154v-154h-154zM819 1229v153h154v-153h-154zM819 1434v153h154v-153h-154z" />
<glyph unicode="&#x3b1;" d="M0 205v153h154v-153h-154zM0 410v153h154v-153h-154zM0 614v154h154v-154h-154zM205 0v154h153v-154h-153zM205 819v154h153v-154h-153zM410 0v154h153v-154h-153zM410 819v154h153v-154h-153zM614 205v153h154v-153h-154zM614 614v154h154v-154h-154zM819 0v154h154 v-154h-154zM819 205v153h154v-153h-154zM819 410v153h154v-153h-154zM819 614v154h154v-154h-154zM819 819v154h154v-154h-154z" />
<glyph unicode="&#x3b2;" d="M0 0v154h154v-154h-154zM0 -51h154v-154h-154v154zM0 205v153h154v-153h-154zM0 -256h154v-154h-154v154zM0 410v153h154v-153h-154zM0 614v154h154v-154h-154zM0 819v154h154v-154h-154zM0 1024v154h154v-154h-154zM205 0v154h153v-154h-153zM205 1229v153h153v-153 h-153zM410 0v154h153v-154h-153zM410 614v154h153v-154h-153zM410 1229v153h153v-153h-153zM614 0v154h154v-154h-154zM614 614v154h154v-154h-154zM614 1229v153h154v-153h-154zM819 205v153h154v-153h-154zM819 410v153h154v-153h-154zM819 819v154h154v-154h-154z M819 1024v154h154v-154h-154z" />
<glyph unicode="&#x3b3;" d="M0 614v154h154v-154h-154zM0 819v154h154v-154h-154zM205 205v153h153v-153h-153zM205 410v153h153v-153h-153zM410 0v154h153v-154h-153zM410 -51h153v-154h-153v154zM410 -256h153v-154h-153v154zM614 205v153h154v-153h-154zM819 410v153h154v-153h-154zM819 614v154 h154v-154h-154zM819 819v154h154v-154h-154z" />
<glyph unicode="&#x3b4;" d="M-2 1024v154h154v-154h-154zM0 205v153h154v-153h-154zM0 410v153h154v-153h-154zM0 614v154h154v-154h-154zM203 819v154h153v-154h-153zM205 0v154h153v-154h-153zM205 1229v153h153v-153h-153zM408 819v154h153v-154h-153zM410 0v154h153v-154h-153zM410 1229v153h153 v-153h-153zM614 0v154h154v-154h-154zM614 819v154h154v-154h-154zM614 1229v153h154v-153h-154zM819 205v153h154v-153h-154zM819 410v153h154v-153h-154zM819 614v154h154v-154h-154z" />
<glyph unicode="&#x3b5;" d="M0 205v153h154v-153h-154zM0 614v154h154v-154h-154zM205 0v154h153v-154h-153zM205 410v153h153v-153h-153zM205 819v154h153v-154h-153zM410 0v154h153v-154h-153zM410 410v153h153v-153h-153zM410 819v154h153v-154h-153zM614 0v154h154v-154h-154zM614 410v153h154 v-153h-154zM614 819v154h154v-154h-154zM819 0v154h154v-154h-154zM819 819v154h154v-154h-154z" />
<glyph unicode="&#x3b6;" d="M0 205v153h154v-153h-154zM0 410v153h154v-153h-154zM0 614v154h154v-154h-154zM205 0v154h153v-154h-153zM205 819v154h153v-154h-153zM205 1229v153h153v-153h-153zM410 0v154h153v-154h-153zM410 819v154h153v-154h-153zM410 1229v153h153v-153h-153zM594 -256h154 v-154h-154v154zM614 0v154h154v-154h-154zM614 819v154h154v-154h-154zM614 1229v153h154v-153h-154zM819 0v154h154v-154h-154zM819 -51h154v-154h-154v154zM819 1024v154h154v-154h-154z" />
<glyph unicode="&#x3b7;" d="M0 0v154h154v-154h-154zM0 205v153h154v-153h-154zM0 410v153h154v-153h-154zM0 614v154h154v-154h-154zM0 819v154h154v-154h-154zM205 614v154h153v-154h-153zM410 819v154h153v-154h-153zM614 819v154h154v-154h-154zM819 0v154h154v-154h-154zM819 -51h154v-154h-154 v154zM819 205v153h154v-153h-154zM819 -256h154v-154h-154v154zM819 410v153h154v-153h-154zM819 614v154h154v-154h-154z" />
<glyph unicode="&#x3b8;" d="M0 614v154h154v-154h-154zM205 205v153h153v-153h-153zM205 410v153h153v-153h-153zM205 614v154h153v-154h-153zM205 819v154h153v-154h-153zM205 1024v154h153v-154h-153zM410 0v154h153v-154h-153zM410 614v154h153v-154h-153zM410 1229v153h153v-153h-153zM614 205 v153h154v-153h-154zM614 410v153h154v-153h-154zM614 614v154h154v-154h-154zM614 819v154h154v-154h-154zM614 1024v154h154v-154h-154zM819 614v154h154v-154h-154z" />
<glyph unicode="&#x3b9;" d="M0 0v154h154v-154h-154zM0 819v154h154v-154h-154zM205 0v154h153v-154h-153zM205 819v154h153v-154h-153zM410 0v154h153v-154h-153zM410 205v153h153v-153h-153zM410 410v153h153v-153h-153zM410 614v154h153v-154h-153zM410 819v154h153v-154h-153zM614 0v154h154 v-154h-154zM819 0v154h154v-154h-154z" />
<glyph unicode="&#x3ba;" d="M0 0v154h154v-154h-154zM0 205v153h154v-153h-154zM0 410v153h154v-153h-154zM0 614v154h154v-154h-154zM0 819v154h154v-154h-154zM205 410v153h153v-153h-153zM410 410v153h153v-153h-153zM614 205v153h154v-153h-154zM614 614v154h154v-154h-154zM819 0v154h154v-154 h-154zM819 819v154h154v-154h-154z" />
<glyph unicode="&#x3bb;" d="M0 0v154h154v-154h-154zM0 205v153h154v-153h-154zM0 410v153h154v-153h-154zM0 614v154h154v-154h-154zM205 819v154h153v-154h-153zM205 1229v153h153v-153h-153zM410 819v154h153v-154h-153zM410 1229v153h153v-153h-153zM614 819v154h154v-154h-154zM614 1229v153 h154v-153h-154zM819 0v154h154v-154h-154zM819 205v153h154v-153h-154zM819 410v153h154v-153h-154zM819 614v154h154v-154h-154zM819 819v154h154v-154h-154zM819 1024v154h154v-154h-154z" />
<glyph unicode="&#x3bc;" d="M0 0v154h154v-154h-154zM0 -51h154v-154h-154v154zM0 205v153h154v-153h-154zM0 -256h154v-154h-154v154zM0 410v153h154v-153h-154zM0 614v154h154v-154h-154zM0 819v154h154v-154h-154zM205 0v154h153v-154h-153zM410 0v154h153v-154h-153zM614 205v153h154v-153h-154z M819 0v154h154v-154h-154zM819 205v153h154v-153h-154zM819 410v153h154v-153h-154zM819 614v154h154v-154h-154zM819 819v154h154v-154h-154z" />
<glyph unicode="&#x3bd;" d="M0 614v154h154v-154h-154zM0 819v154h154v-154h-154zM205 205v153h153v-153h-153zM205 410v153h153v-153h-153zM410 0v154h153v-154h-153zM614 205v153h154v-153h-154zM819 410v153h154v-153h-154zM819 614v154h154v-154h-154zM819 819v154h154v-154h-154z" />
<glyph unicode="&#x3be;" d="M0 205v153h154v-153h-154zM0 410v153h154v-153h-154zM0 819v154h154v-154h-154zM0 1024v154h154v-154h-154zM205 0v154h153v-154h-153zM205 614v154h153v-154h-153zM205 1229v153h153v-153h-153zM410 0v154h153v-154h-153zM410 614v154h153v-154h-153zM410 1229v153h153 v-153h-153zM614 0v154h154v-154h-154zM614 -256h154v-154h-154v154zM614 614v154h154v-154h-154zM614 1229v153h154v-153h-154zM819 0v154h154v-154h-154zM819 -51h154v-154h-154v154zM819 1229v153h154v-153h-154z" />
<glyph unicode="&#x3bf;" d="M0 205v153h154v-153h-154zM0 410v153h154v-153h-154zM0 614v154h154v-154h-154zM205 0v154h153v-154h-153zM205 819v154h153v-154h-153zM410 0v154h153v-154h-153zM410 819v154h153v-154h-153zM614 0v154h154v-154h-154zM614 819v154h154v-154h-154zM819 205v153h154 v-153h-154zM819 410v153h154v-153h-154zM819 614v154h154v-154h-154z" />
<glyph unicode="&#x3c0;" d="M0 0v154h154v-154h-154zM0 205v153h154v-153h-154zM0 410v153h154v-153h-154zM0 614v154h154v-154h-154zM0 819v154h154v-154h-154zM205 819v154h153v-154h-153zM410 819v154h153v-154h-153zM614 819v154h154v-154h-154zM819 0v154h154v-154h-154zM819 205v153h154v-153 h-154zM819 410v153h154v-153h-154zM819 614v154h154v-154h-154zM819 819v154h154v-154h-154z" />
<glyph unicode="&#x3c1;" d="M0 0v154h154v-154h-154zM0 -51h154v-154h-154v154zM0 205v153h154v-153h-154zM0 -256h154v-154h-154v154zM0 410v153h154v-153h-154zM0 614v154h154v-154h-154zM205 0v154h153v-154h-153zM205 819v154h153v-154h-153zM410 0v154h153v-154h-153zM410 819v154h153v-154 h-153zM614 0v154h154v-154h-154zM614 819v154h154v-154h-154zM819 205v153h154v-153h-154zM819 410v153h154v-153h-154zM819 614v154h154v-154h-154z" />
<glyph unicode="&#x3c2;" d="M0 205v153h154v-153h-154zM0 410v153h154v-153h-154zM0 614v154h154v-154h-154zM205 0v154h153v-154h-153zM205 819v154h153v-154h-153zM410 0v154h153v-154h-153zM410 819v154h153v-154h-153zM614 0v154h154v-154h-154zM614 -256h154v-154h-154v154zM614 819v154h154 v-154h-154zM799 -51h153v-154h-153v154zM819 819v154h154v-154h-154z" />
<glyph unicode="&#x3c3;" d="M0 205v153h154v-153h-154zM0 410v153h154v-153h-154zM0 614v154h154v-154h-154zM205 0v154h153v-154h-153zM205 819v154h153v-154h-153zM410 0v154h153v-154h-153zM410 819v154h153v-154h-153zM614 0v154h154v-154h-154zM614 614v154h154v-154h-154zM614 819v154h154 v-154h-154zM819 205v153h154v-153h-154zM819 410v153h154v-153h-154zM819 819v154h154v-154h-154z" />
<glyph unicode="&#x3c4;" d="M0 819v154h154v-154h-154zM205 819v154h153v-154h-153zM410 205v153h153v-153h-153zM410 410v153h153v-153h-153zM410 614v154h153v-154h-153zM410 819v154h153v-154h-153zM614 0v154h154v-154h-154zM614 819v154h154v-154h-154zM819 0v154h154v-154h-154zM819 819v154 h154v-154h-154z" />
<glyph unicode="&#x3c5;" d="M0 205v153h154v-153h-154zM0 410v153h154v-153h-154zM0 614v154h154v-154h-154zM0 819v154h154v-154h-154zM205 0v154h153v-154h-153zM410 0v154h153v-154h-153zM614 0v154h154v-154h-154zM819 205v153h154v-153h-154zM819 410v153h154v-153h-154zM819 614v154h154v-154 h-154zM819 819v154h154v-154h-154z" />
<glyph unicode="&#x3c6;" d="M0 205v153h154v-153h-154zM0 410v153h154v-153h-154zM0 614v154h154v-154h-154zM205 0v154h153v-154h-153zM205 819v154h153v-154h-153zM410 0v154h153v-154h-153zM410 -51h153v-154h-153v154zM410 205v153h153v-153h-153zM410 -256h153v-154h-153v154zM410 410v153h153 v-153h-153zM410 614v154h153v-154h-153zM410 819v154h153v-154h-153zM410 1024v154h153v-154h-153zM410 1229v153h153v-153h-153zM614 0v154h154v-154h-154zM614 819v154h154v-154h-154zM819 205v153h154v-153h-154zM819 410v153h154v-153h-154zM819 614v154h154v-154h-154z " />
<glyph unicode="&#x3c7;" d="M0 -51h154v-154h-154v154zM0 -256h154v-154h-154v154zM0 614v154h154v-154h-154zM0 819v154h154v-154h-154zM205 0v154h153v-154h-153zM205 410v153h153v-153h-153zM410 205v153h153v-153h-153zM614 0v154h154v-154h-154zM614 410v153h154v-153h-154zM819 -51h154v-154 h-154v154zM819 -256h154v-154h-154v154zM819 614v154h154v-154h-154zM819 819v154h154v-154h-154z" />
<glyph unicode="&#x3c8;" d="M0 205v153h154v-153h-154zM0 410v153h154v-153h-154zM0 614v154h154v-154h-154zM0 819v154h154v-154h-154zM205 0v154h153v-154h-153zM410 0v154h153v-154h-153zM410 -51h153v-154h-153v154zM410 205v153h153v-153h-153zM410 -256h153v-154h-153v154zM410 410v153h153 v-153h-153zM410 614v154h153v-154h-153zM410 819v154h153v-154h-153zM410 1024v154h153v-154h-153zM614 0v154h154v-154h-154zM819 205v153h154v-153h-154zM819 410v153h154v-153h-154zM819 614v154h154v-154h-154zM819 819v154h154v-154h-154z" />
<glyph unicode="&#x3c9;" d="M0 205v153h154v-153h-154zM0 410v153h154v-153h-154zM0 614v154h154v-154h-154zM0 819v154h154v-154h-154zM205 0v154h153v-154h-153zM410 205v153h153v-153h-153zM410 410v153h153v-153h-153zM410 614v154h153v-154h-153zM614 0v154h154v-154h-154zM819 205v153h154 v-153h-154zM819 410v153h154v-153h-154zM819 614v154h154v-154h-154zM819 819v154h154v-154h-154z" />
<glyph unicode="&#x3ca;" d="M0 0v154h154v-154h-154zM0 819v154h154v-154h-154zM0 1229v153h154v-153h-154zM0 1434v153h154v-153h-154zM205 0v154h153v-154h-153zM205 819v154h153v-154h-153zM410 0v154h153v-154h-153zM410 205v153h153v-153h-153zM410 410v153h153v-153h-153zM410 614v154h153 v-154h-153zM410 819v154h153v-154h-153zM614 0v154h154v-154h-154zM819 0v154h154v-154h-154zM819 1229v153h154v-153h-154zM819 1434v153h154v-153h-154z" />
<glyph unicode="&#x3cb;" d="M0 205v153h154v-153h-154zM0 410v153h154v-153h-154zM0 614v154h154v-154h-154zM0 819v154h154v-154h-154zM0 1229v153h154v-153h-154zM0 1434v153h154v-153h-154zM205 0v154h153v-154h-153zM410 0v154h153v-154h-153zM614 0v154h154v-154h-154zM819 205v153h154v-153 h-154zM819 410v153h154v-153h-154zM819 614v154h154v-154h-154zM819 819v154h154v-154h-154zM819 1229v153h154v-153h-154zM819 1434v153h154v-153h-154z" />
<glyph unicode="&#x3cc;" d="M0 205v153h154v-153h-154zM0 410v153h154v-153h-154zM0 614v154h154v-154h-154zM205 0v154h153v-154h-153zM205 819v154h153v-154h-153zM410 0v154h153v-154h-153zM410 819v154h153v-154h-153zM410 1229v153h153v-153h-153zM614 0v154h154v-154h-154zM614 819v154h154 v-154h-154zM614 1434v153h154v-153h-154zM819 205v153h154v-153h-154zM819 410v153h154v-153h-154zM819 614v154h154v-154h-154z" />
<glyph unicode="&#x3cd;" d="M0 205v153h154v-153h-154zM0 410v153h154v-153h-154zM0 614v154h154v-154h-154zM0 819v154h154v-154h-154zM205 0v154h153v-154h-153zM410 0v154h153v-154h-153zM410 1229v153h153v-153h-153zM614 0v154h154v-154h-154zM614 1434v153h154v-153h-154zM819 205v153h154 v-153h-154zM819 410v153h154v-153h-154zM819 614v154h154v-154h-154zM819 819v154h154v-154h-154z" />
<glyph unicode="&#x3ce;" d="M0 205v153h154v-153h-154zM0 410v153h154v-153h-154zM0 614v154h154v-154h-154zM0 819v154h154v-154h-154zM205 0v154h153v-154h-153zM410 205v153h153v-153h-153zM410 410v153h153v-153h-153zM410 614v154h153v-154h-153zM410 1229v153h153v-153h-153zM614 0v154h154 v-154h-154zM614 1434v153h154v-153h-154zM819 205v153h154v-153h-154zM819 410v153h154v-153h-154zM819 614v154h154v-154h-154zM819 819v154h154v-154h-154z" />
<glyph unicode="&#x2000;" horiz-adv-x="1126" />
<glyph unicode="&#x2001;" horiz-adv-x="2252" />
<glyph unicode="&#x2002;" horiz-adv-x="1126" />
<glyph unicode="&#x2003;" horiz-adv-x="2252" />
<glyph unicode="&#x2004;" horiz-adv-x="749" />
<glyph unicode="&#x2005;" horiz-adv-x="563" />
<glyph unicode="&#x2006;" horiz-adv-x="374" />
<glyph unicode="&#x2007;" horiz-adv-x="374" />
<glyph unicode="&#x2008;" horiz-adv-x="280" />
<glyph unicode="&#x2009;" horiz-adv-x="450" />
<glyph unicode="&#x200a;" horiz-adv-x="124" />
<glyph unicode="&#x2010;" d="M205 410v153h153v-153h-153zM410 410v153h153v-153h-153zM614 410v153h154v-153h-154z" />
<glyph unicode="&#x2011;" d="M205 410v153h153v-153h-153zM410 410v153h153v-153h-153zM614 410v153h154v-153h-154z" />
<glyph unicode="&#x2012;" d="M205 410v153h153v-153h-153zM410 410v153h153v-153h-153zM614 410v153h154v-153h-154z" />
<glyph unicode="&#x2013;" d="M205 410v153h153v-153h-153zM410 410v153h153v-153h-153zM614 410v153h154v-153h-154z" />
<glyph unicode="&#x2014;" d="M0 410v153h154v-153h-154zM205 410v153h153v-153h-153zM410 410v153h153v-153h-153zM614 410v153h154v-153h-154zM819 410v153h154v-153h-154z" />
<glyph unicode="&#x2015;" d="M0 410v153h154v-153h-154zM205 410v153h153v-153h-153zM410 410v153h153v-153h-153zM614 410v153h154v-153h-154zM819 410v153h154v-153h-154z" />
<glyph unicode="&#x2018;" d="M410 819v154h153v-154h-153zM410 1024v154h153v-154h-153zM614 1229v153h154v-153h-154z" />
<glyph unicode="&#x2019;" d="M410 819v154h153v-154h-153zM614 1024v154h154v-154h-154zM614 1229v153h154v-153h-154z" />
<glyph unicode="&#x201a;" d="M410 -51h153v-154h-153v154zM614 0v154h154v-154h-154zM614 205v153h154v-153h-154z" />
<glyph unicode="&#x201c;" d="M205 819v154h153v-154h-153zM205 1024v154h153v-154h-153zM410 1229v153h153v-153h-153zM614 819v154h154v-154h-154zM614 1024v154h154v-154h-154zM819 1229v153h154v-153h-154z" />
<glyph unicode="&#x201d;" d="M205 819v154h153v-154h-153zM410 1024v154h153v-154h-153zM410 1229v153h153v-153h-153zM614 819v154h154v-154h-154zM819 1024v154h154v-154h-154zM819 1229v153h154v-153h-154z" />
<glyph unicode="&#x201e;" d="M205 -51h153v-154h-153v154zM410 0v154h153v-154h-153zM410 205v153h153v-153h-153zM614 -51h154v-154h-154v154zM819 0v154h154v-154h-154zM819 205v153h154v-153h-154z" />
<glyph unicode="&#x2020;" d="M205 819v154h153v-154h-153zM410 0v154h153v-154h-153zM410 205v153h153v-153h-153zM410 410v153h153v-153h-153zM410 614v154h153v-154h-153zM410 819v154h153v-154h-153zM410 1024v154h153v-154h-153zM410 1229v153h153v-153h-153zM614 819v154h154v-154h-154z" />
<glyph unicode="&#x2021;" d="M205 410v153h153v-153h-153zM205 819v154h153v-154h-153zM410 0v154h153v-154h-153zM410 205v153h153v-153h-153zM410 410v153h153v-153h-153zM410 614v154h153v-154h-153zM410 819v154h153v-154h-153zM410 1024v154h153v-154h-153zM410 1229v153h153v-153h-153zM614 410 v153h154v-153h-154zM614 819v154h154v-154h-154z" />
<glyph unicode="&#x2022;" d="M0 410v153h154v-153h-154zM0 614v154h154v-154h-154zM0 819v154h154v-154h-154zM205 410v153h153v-153h-153zM205 614v154h153v-154h-153zM205 819v154h153v-154h-153zM410 410v153h153v-153h-153zM410 614v154h153v-154h-153zM410 819v154h153v-154h-153z" />
<glyph unicode="&#x2026;" d="M0 0v154h154v-154h-154zM0 205v153h154v-153h-154zM410 0v154h153v-154h-153zM410 205v153h153v-153h-153zM819 0v154h154v-154h-154zM819 205v153h154v-153h-154z" />
<glyph unicode="&#x202f;" horiz-adv-x="450" />
<glyph unicode="&#x2030;" d="M0 0v154h154v-154h-154zM0 205v153h154v-153h-154zM0 1024v154h154v-154h-154zM0 1229v153h154v-153h-154zM205 410v153h153v-153h-153zM205 614v154h153v-154h-153zM410 0v154h153v-154h-153zM410 205v153h153v-153h-153zM410 819v154h153v-154h-153zM614 1024v154h154 v-154h-154zM614 1229v153h154v-153h-154zM819 0v154h154v-154h-154zM819 205v153h154v-153h-154z" />
<glyph unicode="&#x2039;" d="M205 410v153h153v-153h-153zM410 205v153h153v-153h-153zM410 614v154h153v-154h-153zM614 0v154h154v-154h-154zM614 819v154h154v-154h-154z" />
<glyph unicode="&#x203a;" d="M410 0v154h153v-154h-153zM410 819v154h153v-154h-153zM614 205v153h154v-153h-154zM614 614v154h154v-154h-154zM819 410v153h154v-153h-154z" />
<glyph unicode="&#x2044;" d="M205 0v154h153v-154h-153zM205 205v153h153v-153h-153zM410 410v153h153v-153h-153zM410 614v154h153v-154h-153zM614 819v154h154v-154h-154zM819 1024v154h154v-154h-154zM819 1229v153h154v-153h-154z" />
<glyph unicode="&#x205f;" horiz-adv-x="563" />
<glyph unicode="&#x20ac;" d="M0 410v153h154v-153h-154zM0 819v154h154v-154h-154zM205 205v153h153v-153h-153zM205 410v153h153v-153h-153zM205 614v154h153v-154h-153zM205 819v154h153v-154h-153zM205 1024v154h153v-154h-153zM410 0v154h153v-154h-153zM410 410v153h153v-153h-153zM410 819v154 h153v-154h-153zM410 1229v153h153v-153h-153zM614 0v154h154v-154h-154zM614 819v154h154v-154h-154zM614 1229v153h154v-153h-154zM819 0v154h154v-154h-154zM819 1229v153h154v-153h-154z" />
<glyph unicode="&#x2122;" d="M0 1229v153h154v-153h-154zM205 819v154h153v-154h-153zM205 1024v154h153v-154h-153zM205 1229v153h153v-153h-153zM410 1229v153h153v-153h-153zM614 819v154h154v-154h-154zM614 1024v154h154v-154h-154zM614 1229v153h154v-153h-154zM819 1024v154h154v-154h-154z M1024 819v154h154v-154h-154zM1024 1024v154h154v-154h-154zM1024 1229v153h154v-153h-154z" />
<glyph unicode="&#x2126;" d="M0 0v154h154v-154h-154zM0 614v154h154v-154h-154zM0 819v154h154v-154h-154zM0 1024v154h154v-154h-154zM205 0v154h153v-154h-153zM205 410v153h153v-153h-153zM205 1229v153h153v-153h-153zM410 0v154h153v-154h-153zM410 410v153h153v-153h-153zM410 1229v153h153 v-153h-153zM614 0v154h154v-154h-154zM614 410v153h154v-153h-154zM614 1229v153h154v-153h-154zM819 0v154h154v-154h-154zM819 614v154h154v-154h-154zM819 819v154h154v-154h-154zM819 1024v154h154v-154h-154z" />
<glyph unicode="&#x2206;" d="M0 0v154h154v-154h-154zM0 205v153h154v-153h-154zM0 410v153h154v-153h-154zM0 614v154h154v-154h-154zM0 819v154h154v-154h-154zM0 1024v154h154v-154h-154zM205 0v154h153v-154h-153zM205 1229v153h153v-153h-153zM410 0v154h153v-154h-153zM410 1229v153h153v-153 h-153zM614 0v154h154v-154h-154zM614 1229v153h154v-153h-154zM819 0v154h154v-154h-154zM819 205v153h154v-153h-154zM819 410v153h154v-153h-154zM819 614v154h154v-154h-154zM819 819v154h154v-154h-154zM819 1024v154h154v-154h-154z" />
<glyph unicode="&#x2248;" d="M0 205v153h154v-153h-154zM0 614v154h154v-154h-154zM205 410v153h153v-153h-153zM205 819v154h153v-154h-153zM410 205v153h153v-153h-153zM410 614v154h153v-154h-153zM614 0v154h154v-154h-154zM614 410v153h154v-153h-154zM819 205v153h154v-153h-154zM819 614v154 h154v-154h-154z" />
<glyph unicode="&#x2260;" d="M0 205v153h154v-153h-154zM0 614v154h154v-154h-154zM205 0v154h153v-154h-153zM205 205v153h153v-153h-153zM205 614v154h153v-154h-153zM410 205v153h153v-153h-153zM410 410v153h153v-153h-153zM410 614v154h153v-154h-153zM614 205v153h154v-153h-154zM614 614v154 h154v-154h-154zM614 819v154h154v-154h-154zM819 205v153h154v-153h-154zM819 614v154h154v-154h-154zM819 1024v154h154v-154h-154zM819 1229v153h154v-153h-154z" />
<glyph unicode="&#x2264;" d="M0 0v154h154v-154h-154zM0 614v154h154v-154h-154zM205 0v154h153v-154h-153zM205 614v154h153v-154h-153zM410 0v154h153v-154h-153zM410 410v153h153v-153h-153zM410 819v154h153v-154h-153zM614 0v154h154v-154h-154zM614 410v153h154v-153h-154zM614 819v154h154 v-154h-154zM819 0v154h154v-154h-154zM819 410v153h154v-153h-154zM819 819v154h154v-154h-154z" />
<glyph unicode="&#x2265;" d="M0 0v154h154v-154h-154zM0 410v153h154v-153h-154zM0 819v154h154v-154h-154zM205 0v154h153v-154h-153zM205 410v153h153v-153h-153zM205 819v154h153v-154h-153zM410 0v154h153v-154h-153zM410 410v153h153v-153h-153zM410 819v154h153v-154h-153zM614 0v154h154v-154 h-154zM614 614v154h154v-154h-154zM819 0v154h154v-154h-154zM819 614v154h154v-154h-154z" />
<glyph unicode="&#xe000;" horiz-adv-x="975" d="M0 975h975v-975h-975v975z" />
<glyph d="M0 0v154h154v-154h-154zM0 205v153h154v-153h-154zM0 410v153h154v-153h-154zM0 614v154h154v-154h-154zM205 410v153h153v-153h-153zM205 819v154h153v-154h-153zM410 410v153h153v-153h-153zM410 819v154h153v-154h-153zM614 410v153h154v-153h-154zM614 819v154h154 v-154h-154zM819 0v154h154v-154h-154zM819 205v153h154v-153h-154zM819 410v153h154v-153h-154zM819 614v154h154v-154h-154z" />
<glyph d="M0 0v154h154v-154h-154zM0 205v153h154v-153h-154zM0 410v153h154v-153h-154zM0 614v154h154v-154h-154zM0 819v154h154v-154h-154zM205 0v154h153v-154h-153zM205 410v153h153v-153h-153zM205 819v154h153v-154h-153zM410 0v154h153v-154h-153zM410 410v153h153v-153 h-153zM410 819v154h153v-154h-153zM614 0v154h154v-154h-154zM614 410v153h154v-153h-154zM614 819v154h154v-154h-154zM819 205v153h154v-153h-154zM819 614v154h154v-154h-154z" />
<glyph d="M0 205v153h154v-153h-154zM0 410v153h154v-153h-154zM0 614v154h154v-154h-154zM205 0v154h153v-154h-153zM205 819v154h153v-154h-153zM410 0v154h153v-154h-153zM410 819v154h153v-154h-153zM614 0v154h154v-154h-154zM614 819v154h154v-154h-154zM819 0v154h154v-154 h-154zM819 819v154h154v-154h-154z" />
<glyph d="M0 0v154h154v-154h-154zM0 205v153h154v-153h-154zM0 410v153h154v-153h-154zM0 614v154h154v-154h-154zM0 819v154h154v-154h-154zM205 0v154h153v-154h-153zM205 819v154h153v-154h-153zM410 0v154h153v-154h-153zM410 819v154h153v-154h-153zM614 0v154h154v-154h-154 zM614 819v154h154v-154h-154zM819 205v153h154v-153h-154zM819 410v153h154v-153h-154zM819 614v154h154v-154h-154z" />
<glyph d="M0 0v154h154v-154h-154zM0 205v153h154v-153h-154zM0 410v153h154v-153h-154zM0 614v154h154v-154h-154zM0 819v154h154v-154h-154zM205 0v154h153v-154h-153zM205 410v153h153v-153h-153zM205 819v154h153v-154h-153zM410 0v154h153v-154h-153zM410 410v153h153v-153 h-153zM410 819v154h153v-154h-153zM614 0v154h154v-154h-154zM614 410v153h154v-153h-154zM614 819v154h154v-154h-154zM819 0v154h154v-154h-154zM819 819v154h154v-154h-154z" />
<glyph d="M0 0v154h154v-154h-154zM0 205v153h154v-153h-154zM0 410v153h154v-153h-154zM0 614v154h154v-154h-154zM0 819v154h154v-154h-154zM205 410v153h153v-153h-153zM205 819v154h153v-154h-153zM410 410v153h153v-153h-153zM410 819v154h153v-154h-153zM614 410v153h154 v-153h-154zM614 819v154h154v-154h-154zM819 819v154h154v-154h-154z" />
<glyph d="M0 205v153h154v-153h-154zM0 410v153h154v-153h-154zM0 614v154h154v-154h-154zM205 0v154h153v-154h-153zM205 819v154h153v-154h-153zM410 0v154h153v-154h-153zM410 819v154h153v-154h-153zM614 0v154h154v-154h-154zM614 410v153h154v-153h-154zM614 819v154h154 v-154h-154zM819 0v154h154v-154h-154zM819 205v153h154v-153h-154zM819 410v153h154v-153h-154zM819 819v154h154v-154h-154z" />
<glyph d="M0 0v154h154v-154h-154zM0 205v153h154v-153h-154zM0 410v153h154v-153h-154zM0 614v154h154v-154h-154zM0 819v154h154v-154h-154zM205 410v153h153v-153h-153zM410 410v153h153v-153h-153zM614 410v153h154v-153h-154zM819 0v154h154v-154h-154zM819 205v153h154v-153 h-154zM819 410v153h154v-153h-154zM819 614v154h154v-154h-154zM819 819v154h154v-154h-154z" />
<glyph d="M0 0v154h154v-154h-154zM0 819v154h154v-154h-154zM205 0v154h153v-154h-153zM205 819v154h153v-154h-153zM410 0v154h153v-154h-153zM410 205v153h153v-153h-153zM410 410v153h153v-153h-153zM410 614v154h153v-154h-153zM410 819v154h153v-154h-153zM614 0v154h154 v-154h-154zM614 819v154h154v-154h-154zM819 0v154h154v-154h-154zM819 819v154h154v-154h-154z" />
<glyph d="M0 205v153h154v-153h-154zM0 819v154h154v-154h-154zM205 0v154h153v-154h-153zM205 819v154h153v-154h-153zM410 0v154h153v-154h-153zM410 819v154h153v-154h-153zM614 205v153h154v-153h-154zM614 410v153h154v-153h-154zM614 614v154h154v-154h-154zM614 819v154h154 v-154h-154z" />
<glyph d="M0 0v154h154v-154h-154zM0 205v153h154v-153h-154zM0 410v153h154v-153h-154zM0 614v154h154v-154h-154zM0 819v154h154v-154h-154zM205 410v153h153v-153h-153zM410 410v153h153v-153h-153zM614 410v153h154v-153h-154zM819 0v154h154v-154h-154zM819 205v153h154v-153 h-154zM819 614v154h154v-154h-154zM819 819v154h154v-154h-154z" />
<glyph d="M0 0v154h154v-154h-154zM0 205v153h154v-153h-154zM0 410v153h154v-153h-154zM0 614v154h154v-154h-154zM0 819v154h154v-154h-154zM205 0v154h153v-154h-153zM410 0v154h153v-154h-153zM614 0v154h154v-154h-154zM819 0v154h154v-154h-154z" />
<glyph d="M0 0v154h154v-154h-154zM0 205v153h154v-153h-154zM0 410v153h154v-153h-154zM0 614v154h154v-154h-154zM0 819v154h154v-154h-154zM205 614v154h153v-154h-153zM410 205v153h153v-153h-153zM410 410v153h153v-153h-153zM614 614v154h154v-154h-154zM819 0v154h154v-154 h-154zM819 205v153h154v-153h-154zM819 410v153h154v-153h-154zM819 614v154h154v-154h-154zM819 819v154h154v-154h-154z" />
<glyph d="M0 0v154h154v-154h-154zM0 205v153h154v-153h-154zM0 410v153h154v-153h-154zM0 614v154h154v-154h-154zM0 819v154h154v-154h-154zM205 614v154h153v-154h-153zM410 410v153h153v-153h-153zM614 205v153h154v-153h-154zM819 0v154h154v-154h-154zM819 205v153h154v-153 h-154zM819 410v153h154v-153h-154zM819 614v154h154v-154h-154zM819 819v154h154v-154h-154z" />
<glyph d="M0 205v153h154v-153h-154zM0 410v153h154v-153h-154zM0 614v154h154v-154h-154zM205 0v154h153v-154h-153zM205 819v154h153v-154h-153zM410 0v154h153v-154h-153zM410 819v154h153v-154h-153zM614 0v154h154v-154h-154zM614 819v154h154v-154h-154zM819 205v153h154 v-153h-154zM819 410v153h154v-153h-154zM819 614v154h154v-154h-154z" />
<glyph d="M0 0v154h154v-154h-154zM0 205v153h154v-153h-154zM0 410v153h154v-153h-154zM0 614v154h154v-154h-154zM0 819v154h154v-154h-154zM205 410v153h153v-153h-153zM205 819v154h153v-154h-153zM410 410v153h153v-153h-153zM410 819v154h153v-154h-153zM614 410v153h154 v-153h-154zM614 819v154h154v-154h-154zM819 614v154h154v-154h-154z" />
<glyph d="M0 205v153h154v-153h-154zM0 410v153h154v-153h-154zM0 614v154h154v-154h-154zM205 0v154h153v-154h-153zM205 819v154h153v-154h-153zM410 0v154h153v-154h-153zM410 -51h153v-154h-153v154zM410 205v153h153v-153h-153zM410 819v154h153v-154h-153zM614 0v154h154 v-154h-154zM614 -256h154v-154h-154v154zM614 819v154h154v-154h-154zM819 205v153h154v-153h-154zM819 410v153h154v-153h-154zM819 614v154h154v-154h-154z" />
<glyph d="M0 0v154h154v-154h-154zM0 205v153h154v-153h-154zM0 410v153h154v-153h-154zM0 614v154h154v-154h-154zM0 819v154h154v-154h-154zM205 410v153h153v-153h-153zM205 819v154h153v-154h-153zM410 410v153h153v-153h-153zM410 819v154h153v-154h-153zM614 205v153h154 v-153h-154zM614 410v153h154v-153h-154zM614 819v154h154v-154h-154zM819 0v154h154v-154h-154zM819 614v154h154v-154h-154z" />
<glyph d="M0 0v154h154v-154h-154zM0 614v154h154v-154h-154zM205 0v154h153v-154h-153zM205 410v153h153v-153h-153zM205 819v154h153v-154h-153zM410 0v154h153v-154h-153zM410 410v153h153v-153h-153zM410 819v154h153v-154h-153zM614 0v154h154v-154h-154zM614 410v153h154 v-153h-154zM614 819v154h154v-154h-154zM819 205v153h154v-153h-154zM819 819v154h154v-154h-154z" />
<glyph d="M0 819v154h154v-154h-154zM205 819v154h153v-154h-153zM410 0v154h153v-154h-153zM410 205v153h153v-153h-153zM410 410v153h153v-153h-153zM410 614v154h153v-154h-153zM410 819v154h153v-154h-153zM614 819v154h154v-154h-154zM819 819v154h154v-154h-154z" />
<glyph d="M0 205v153h154v-153h-154zM0 410v153h154v-153h-154zM0 614v154h154v-154h-154zM0 819v154h154v-154h-154zM205 0v154h153v-154h-153zM410 0v154h153v-154h-153zM614 0v154h154v-154h-154zM819 205v153h154v-153h-154zM819 410v153h154v-153h-154zM819 614v154h154v-154 h-154zM819 819v154h154v-154h-154z" />
<glyph d="M0 410v153h154v-153h-154zM0 614v154h154v-154h-154zM0 819v154h154v-154h-154zM205 205v153h153v-153h-153zM410 0v154h153v-154h-153zM614 205v153h154v-153h-154zM819 410v153h154v-153h-154zM819 614v154h154v-154h-154zM819 819v154h154v-154h-154z" />
<glyph d="M0 205v153h154v-153h-154zM0 410v153h154v-153h-154zM0 614v154h154v-154h-154zM0 819v154h154v-154h-154zM205 0v154h153v-154h-153zM410 205v153h153v-153h-153zM410 410v153h153v-153h-153zM410 614v154h153v-154h-153zM614 0v154h154v-154h-154zM819 205v153h154 v-153h-154zM819 410v153h154v-153h-154zM819 614v154h154v-154h-154zM819 819v154h154v-154h-154z" />
<glyph d="M0 0v154h154v-154h-154zM0 205v153h154v-153h-154zM0 614v154h154v-154h-154zM0 819v154h154v-154h-154zM205 410v153h153v-153h-153zM410 410v153h153v-153h-153zM614 410v153h154v-153h-154zM819 0v154h154v-154h-154zM819 205v153h154v-153h-154zM819 614v154h154 v-154h-154zM819 819v154h154v-154h-154z" />
<glyph d="M0 614v154h154v-154h-154zM0 819v154h154v-154h-154zM205 410v153h153v-153h-153zM410 0v154h153v-154h-153zM410 205v153h153v-153h-153zM614 410v153h154v-153h-154zM819 614v154h154v-154h-154zM819 819v154h154v-154h-154z" />
<glyph d="M0 0v154h154v-154h-154zM0 819v154h154v-154h-154zM205 0v154h153v-154h-153zM205 205v153h153v-153h-153zM205 819v154h153v-154h-153zM410 0v154h153v-154h-153zM410 410v153h153v-153h-153zM410 819v154h153v-154h-153zM614 0v154h154v-154h-154zM614 614v154h154 v-154h-154zM614 819v154h154v-154h-154zM819 0v154h154v-154h-154zM819 819v154h154v-154h-154z" />
<glyph d="M0 0v154h154v-154h-154zM0 205v153h154v-153h-154zM0 410v153h154v-153h-154zM0 614v154h154v-154h-154zM205 410v153h153v-153h-153zM205 819v154h153v-154h-153zM410 410v153h153v-153h-153zM410 819v154h153v-154h-153zM614 410v153h154v-153h-154zM614 819v154h154 v-154h-154zM819 0v154h154v-154h-154zM819 205v153h154v-153h-154zM819 410v153h154v-153h-154zM819 614v154h154v-154h-154z" />
<glyph d="M0 0v154h154v-154h-154zM0 205v153h154v-153h-154zM0 410v153h154v-153h-154zM0 614v154h154v-154h-154zM0 819v154h154v-154h-154zM205 0v154h153v-154h-153zM205 410v153h153v-153h-153zM205 819v154h153v-154h-153zM410 0v154h153v-154h-153zM410 410v153h153v-153 h-153zM410 819v154h153v-154h-153zM614 0v154h154v-154h-154zM614 410v153h154v-153h-154zM614 819v154h154v-154h-154zM819 205v153h154v-153h-154zM819 614v154h154v-154h-154z" />
<glyph d="M0 0v154h154v-154h-154zM0 205v153h154v-153h-154zM0 410v153h154v-153h-154zM0 614v154h154v-154h-154zM0 819v154h154v-154h-154zM205 819v154h153v-154h-153zM410 819v154h153v-154h-153zM614 819v154h154v-154h-154zM819 819v154h154v-154h-154z" />
<glyph d="M0 0v154h154v-154h-154zM0 205v153h154v-153h-154zM0 410v153h154v-153h-154zM0 614v154h154v-154h-154zM205 0v154h153v-154h-153zM205 819v154h153v-154h-153zM410 0v154h153v-154h-153zM410 819v154h153v-154h-153zM614 0v154h154v-154h-154zM614 819v154h154v-154 h-154zM819 0v154h154v-154h-154zM819 205v153h154v-153h-154zM819 410v153h154v-153h-154zM819 614v154h154v-154h-154z" />
<glyph d="M0 0v154h154v-154h-154zM0 205v153h154v-153h-154zM0 410v153h154v-153h-154zM0 614v154h154v-154h-154zM0 819v154h154v-154h-154zM205 0v154h153v-154h-153zM205 410v153h153v-153h-153zM205 819v154h153v-154h-153zM410 0v154h153v-154h-153zM410 410v153h153v-153 h-153zM410 819v154h153v-154h-153zM614 0v154h154v-154h-154zM614 410v153h154v-153h-154zM614 819v154h154v-154h-154zM819 0v154h154v-154h-154zM819 819v154h154v-154h-154z" />
<glyph d="M0 0v154h154v-154h-154zM0 819v154h154v-154h-154zM205 0v154h153v-154h-153zM205 205v153h153v-153h-153zM205 819v154h153v-154h-153zM410 0v154h153v-154h-153zM410 410v153h153v-153h-153zM410 819v154h153v-154h-153zM614 0v154h154v-154h-154zM614 614v154h154 v-154h-154zM614 819v154h154v-154h-154zM819 0v154h154v-154h-154zM819 819v154h154v-154h-154z" />
<glyph d="M0 0v154h154v-154h-154zM0 205v153h154v-153h-154zM0 410v153h154v-153h-154zM0 614v154h154v-154h-154zM0 819v154h154v-154h-154zM205 410v153h153v-153h-153zM410 410v153h153v-153h-153zM614 410v153h154v-153h-154zM819 0v154h154v-154h-154zM819 205v153h154v-153 h-154zM819 410v153h154v-153h-154zM819 614v154h154v-154h-154zM819 819v154h154v-154h-154z" />
<glyph d="M0 0v154h154v-154h-154zM0 205v153h154v-153h-154zM0 410v153h154v-153h-154zM0 614v154h154v-154h-154zM0 819v154h154v-154h-154zM205 410v153h153v-153h-153zM410 410v153h153v-153h-153zM410 1229v153h153v-153h-153zM614 410v153h154v-153h-154zM614 1434v153h154 v-153h-154zM819 0v154h154v-154h-154zM819 205v153h154v-153h-154zM819 410v153h154v-153h-154zM819 614v154h154v-154h-154zM819 819v154h154v-154h-154z" />
<glyph d="M0 205v153h154v-153h-154zM0 410v153h154v-153h-154zM0 614v154h154v-154h-154zM205 0v154h153v-154h-153zM205 410v153h153v-153h-153zM205 819v154h153v-154h-153zM410 0v154h153v-154h-153zM410 410v153h153v-153h-153zM410 819v154h153v-154h-153zM614 0v154h154 v-154h-154zM614 410v153h154v-153h-154zM614 819v154h154v-154h-154zM819 205v153h154v-153h-154zM819 410v153h154v-153h-154zM819 614v154h154v-154h-154z" />
<glyph d="M0 0v154h154v-154h-154zM0 819v154h154v-154h-154zM205 0v154h153v-154h-153zM205 819v154h153v-154h-153zM410 0v154h153v-154h-153zM410 205v153h153v-153h-153zM410 410v153h153v-153h-153zM410 614v154h153v-154h-153zM410 819v154h153v-154h-153zM614 0v154h154 v-154h-154zM614 819v154h154v-154h-154zM819 0v154h154v-154h-154zM819 819v154h154v-154h-154z" />
<glyph d="M0 0v154h154v-154h-154zM0 819v154h154v-154h-154zM205 0v154h153v-154h-153zM205 819v154h153v-154h-153zM410 0v154h153v-154h-153zM410 205v153h153v-153h-153zM410 410v153h153v-153h-153zM410 614v154h153v-154h-153zM410 819v154h153v-154h-153zM410 1229v153h153 v-153h-153zM614 0v154h154v-154h-154zM614 819v154h154v-154h-154zM614 1434v153h154v-153h-154zM819 0v154h154v-154h-154zM819 819v154h154v-154h-154z" />
<glyph d="M0 0v154h154v-154h-154zM0 819v154h154v-154h-154zM0 1229v153h154v-153h-154zM0 1434v153h154v-153h-154zM205 0v154h153v-154h-153zM205 819v154h153v-154h-153zM410 0v154h153v-154h-153zM410 205v153h153v-153h-153zM410 410v153h153v-153h-153zM410 614v154h153 v-154h-153zM410 819v154h153v-154h-153zM614 0v154h154v-154h-154zM614 819v154h154v-154h-154zM819 0v154h154v-154h-154zM819 819v154h154v-154h-154zM819 1229v153h154v-153h-154zM819 1434v153h154v-153h-154z" />
<glyph d="M0 0v154h154v-154h-154zM0 205v153h154v-153h-154zM0 410v153h154v-153h-154zM0 614v154h154v-154h-154zM0 819v154h154v-154h-154zM205 410v153h153v-153h-153zM410 410v153h153v-153h-153zM614 410v153h154v-153h-154zM819 0v154h154v-154h-154zM819 205v153h154v-153 h-154zM819 614v154h154v-154h-154zM819 819v154h154v-154h-154z" />
<glyph d="M0 0v154h154v-154h-154zM0 205v153h154v-153h-154zM0 410v153h154v-153h-154zM0 614v154h154v-154h-154zM205 819v154h153v-154h-153zM410 819v154h153v-154h-153zM614 819v154h154v-154h-154zM819 0v154h154v-154h-154zM819 205v153h154v-153h-154zM819 410v153h154 v-153h-154zM819 614v154h154v-154h-154z" />
<glyph d="M0 0v154h154v-154h-154zM0 205v153h154v-153h-154zM0 410v153h154v-153h-154zM0 614v154h154v-154h-154zM0 819v154h154v-154h-154zM205 614v154h153v-154h-153zM410 205v153h153v-153h-153zM410 410v153h153v-153h-153zM614 614v154h154v-154h-154zM819 0v154h154v-154 h-154zM819 205v153h154v-153h-154zM819 410v153h154v-153h-154zM819 614v154h154v-154h-154zM819 819v154h154v-154h-154z" />
<glyph d="M0 0v154h154v-154h-154zM0 205v153h154v-153h-154zM0 410v153h154v-153h-154zM0 614v154h154v-154h-154zM0 819v154h154v-154h-154zM205 614v154h153v-154h-153zM410 410v153h153v-153h-153zM614 205v153h154v-153h-154zM819 0v154h154v-154h-154zM819 205v153h154v-153 h-154zM819 410v153h154v-153h-154zM819 614v154h154v-154h-154zM819 819v154h154v-154h-154z" />
<glyph d="M0 0v154h154v-154h-154zM0 819v154h154v-154h-154zM205 0v154h153v-154h-153zM205 410v153h153v-153h-153zM205 819v154h153v-154h-153zM410 0v154h153v-154h-153zM410 205v153h153v-153h-153zM410 410v153h153v-153h-153zM410 614v154h153v-154h-153zM410 819v154h153 v-154h-153zM614 0v154h154v-154h-154zM614 410v153h154v-153h-154zM614 819v154h154v-154h-154zM819 0v154h154v-154h-154zM819 819v154h154v-154h-154z" />
<glyph d="M0 205v153h154v-153h-154zM0 410v153h154v-153h-154zM0 614v154h154v-154h-154zM205 0v154h153v-154h-153zM205 819v154h153v-154h-153zM410 0v154h153v-154h-153zM410 819v154h153v-154h-153zM614 0v154h154v-154h-154zM614 819v154h154v-154h-154zM819 205v153h154 v-153h-154zM819 410v153h154v-153h-154zM819 614v154h154v-154h-154z" />
<glyph d="M0 205v153h154v-153h-154zM0 410v153h154v-153h-154zM0 614v154h154v-154h-154zM205 0v154h153v-154h-153zM205 819v154h153v-154h-153zM410 0v154h153v-154h-153zM410 819v154h153v-154h-153zM410 1229v153h153v-153h-153zM614 0v154h154v-154h-154zM614 819v154h154 v-154h-154zM614 1434v153h154v-153h-154zM819 205v153h154v-153h-154zM819 410v153h154v-153h-154zM819 614v154h154v-154h-154z" />
<glyph d="M0 0v154h154v-154h-154zM0 205v153h154v-153h-154zM0 410v153h154v-153h-154zM0 614v154h154v-154h-154zM0 819v154h154v-154h-154zM205 819v154h153v-154h-153zM410 819v154h153v-154h-153zM614 819v154h154v-154h-154zM819 0v154h154v-154h-154zM819 205v153h154v-153 h-154zM819 410v153h154v-153h-154zM819 614v154h154v-154h-154zM819 819v154h154v-154h-154z" />
<glyph d="M0 0v154h154v-154h-154zM0 205v153h154v-153h-154zM0 410v153h154v-153h-154zM0 614v154h154v-154h-154zM0 819v154h154v-154h-154zM205 410v153h153v-153h-153zM205 819v154h153v-154h-153zM410 410v153h153v-153h-153zM410 819v154h153v-154h-153zM614 410v153h154 v-153h-154zM614 819v154h154v-154h-154zM819 614v154h154v-154h-154z" />
<glyph d="M0 0v154h154v-154h-154zM0 819v154h154v-154h-154zM205 0v154h153v-154h-153zM205 205v153h153v-153h-153zM205 614v154h153v-154h-153zM205 819v154h153v-154h-153zM410 0v154h153v-154h-153zM410 410v153h153v-153h-153zM410 819v154h153v-154h-153zM614 0v154h154 v-154h-154zM614 819v154h154v-154h-154zM819 0v154h154v-154h-154zM819 819v154h154v-154h-154z" />
<glyph d="M0 819v154h154v-154h-154zM205 819v154h153v-154h-153zM410 0v154h153v-154h-153zM410 205v153h153v-153h-153zM410 410v153h153v-153h-153zM410 614v154h153v-154h-153zM410 819v154h153v-154h-153zM614 819v154h154v-154h-154zM819 819v154h154v-154h-154z" />
<glyph d="M0 614v154h154v-154h-154zM0 819v154h154v-154h-154zM205 410v153h153v-153h-153zM410 0v154h153v-154h-153zM410 205v153h153v-153h-153zM614 410v153h154v-153h-154zM819 614v154h154v-154h-154zM819 819v154h154v-154h-154z" />
<glyph d="M0 614v154h154v-154h-154zM0 819v154h154v-154h-154zM205 410v153h153v-153h-153zM410 0v154h153v-154h-153zM410 205v153h153v-153h-153zM410 1229v153h153v-153h-153zM614 410v153h154v-153h-154zM614 1434v153h154v-153h-154zM819 614v154h154v-154h-154zM819 819v154 h154v-154h-154z" />
<glyph d="M0 614v154h154v-154h-154zM0 819v154h154v-154h-154zM0 1229v153h154v-153h-154zM0 1434v153h154v-153h-154zM205 410v153h153v-153h-153zM410 0v154h153v-154h-153zM410 205v153h153v-153h-153zM614 410v153h154v-153h-154zM819 614v154h154v-154h-154zM819 819v154h154 v-154h-154zM819 1229v153h154v-153h-154zM819 1434v153h154v-153h-154z" />
<glyph d="M0 410v153h154v-153h-154zM205 205v153h153v-153h-153zM205 614v154h153v-154h-153zM410 0v154h153v-154h-153zM410 205v153h153v-153h-153zM410 410v153h153v-153h-153zM410 614v154h153v-154h-153zM410 819v154h153v-154h-153zM614 205v153h154v-153h-154zM614 614v154 h154v-154h-154zM819 410v153h154v-153h-154z" />
<glyph d="M0 0v154h154v-154h-154zM0 205v153h154v-153h-154zM0 614v154h154v-154h-154zM0 819v154h154v-154h-154zM205 410v153h153v-153h-153zM410 410v153h153v-153h-153zM614 410v153h154v-153h-154zM819 0v154h154v-154h-154zM819 205v153h154v-153h-154zM819 614v154h154 v-154h-154zM819 819v154h154v-154h-154z" />
<glyph d="M0 614v154h154v-154h-154zM0 819v154h154v-154h-154zM205 410v153h153v-153h-153zM410 0v154h153v-154h-153zM410 205v153h153v-153h-153zM410 410v153h153v-153h-153zM410 614v154h153v-154h-153zM410 819v154h153v-154h-153zM614 410v153h154v-153h-154zM819 614v154 h154v-154h-154zM819 819v154h154v-154h-154z" />
<glyph d="M0 0v154h154v-154h-154zM0 614v154h154v-154h-154zM205 0v154h153v-154h-153zM205 410v153h153v-153h-153zM205 819v154h153v-154h-153zM410 0v154h153v-154h-153zM410 410v153h153v-153h-153zM410 819v154h153v-154h-153zM614 0v154h154v-154h-154zM614 410v153h154 v-153h-154zM614 819v154h154v-154h-154zM819 0v154h154v-154h-154zM819 614v154h154v-154h-154z" />
<glyph d="M0 0v154h154v-154h-154zM0 614v154h154v-154h-154zM205 0v154h153v-154h-153zM205 410v153h153v-153h-153zM205 819v154h153v-154h-153zM410 0v154h153v-154h-153zM410 410v153h153v-153h-153zM410 819v154h153v-154h-153zM410 1229v153h153v-153h-153zM614 0v154h154 v-154h-154zM614 410v153h154v-153h-154zM614 819v154h154v-154h-154zM614 1434v153h154v-153h-154zM819 0v154h154v-154h-154zM819 614v154h154v-154h-154z" />
<glyph d="M0 0v154h154v-154h-154zM0 205v153h154v-153h-154zM0 410v153h154v-153h-154zM0 614v154h154v-154h-154zM205 410v153h153v-153h-153zM205 819v154h153v-154h-153zM410 410v153h153v-153h-153zM410 819v154h153v-154h-153zM410 1229v153h153v-153h-153zM614 410v153h154 v-153h-154zM614 819v154h154v-154h-154zM614 1434v153h154v-153h-154zM819 0v154h154v-154h-154zM819 205v153h154v-153h-154zM819 410v153h154v-153h-154zM819 614v154h154v-154h-154z" />
<glyph d="M0 0v154h154v-154h-154zM0 205v153h154v-153h-154zM0 410v153h154v-153h-154zM0 614v154h154v-154h-154zM0 819v154h154v-154h-154zM205 0v154h153v-154h-153zM205 410v153h153v-153h-153zM205 819v154h153v-154h-153zM410 0v154h153v-154h-153zM410 410v153h153v-153 h-153zM410 819v154h153v-154h-153zM410 1229v153h153v-153h-153zM614 0v154h154v-154h-154zM614 410v153h154v-153h-154zM614 819v154h154v-154h-154zM614 1434v153h154v-153h-154zM819 0v154h154v-154h-154zM819 819v154h154v-154h-154z" />
<glyph d="M0 0v154h154v-154h-154zM0 819v154h154v-154h-154zM0 1229v153h154v-153h-154zM0 1434v153h154v-153h-154zM205 0v154h153v-154h-153zM205 819v154h153v-154h-153zM410 0v154h153v-154h-153zM410 205v153h153v-153h-153zM410 410v153h153v-153h-153zM410 614v154h153 v-154h-153zM410 819v154h153v-154h-153zM410 1229v153h153v-153h-153zM410 1434v153h153v-153h-153zM410 1638v154h153v-154h-153zM614 0v154h154v-154h-154zM614 819v154h154v-154h-154zM819 0v154h154v-154h-154zM819 819v154h154v-154h-154zM819 1229v153h154v-153h-154z M819 1434v153h154v-153h-154z" />
<glyph d="M0 614v154h154v-154h-154zM0 819v154h154v-154h-154zM0 1229v153h154v-153h-154zM0 1434v153h154v-153h-154zM205 410v153h153v-153h-153zM410 0v154h153v-154h-153zM410 205v153h153v-153h-153zM410 1229v153h153v-153h-153zM410 1434v153h153v-153h-153zM410 1638v154 h153v-154h-153zM614 410v153h154v-153h-154zM819 614v154h154v-154h-154zM819 819v154h154v-154h-154zM819 1229v153h154v-153h-154zM819 1434v153h154v-153h-154z" />
<glyph d="M0 205v153h154v-153h-154zM0 410v153h154v-153h-154zM0 1024v154h154v-154h-154zM205 0v154h153v-154h-153zM205 819v154h153v-154h-153zM205 1229v153h153v-153h-153zM410 0v154h153v-154h-153zM410 819v154h153v-154h-153zM410 1229v153h153v-153h-153zM614 205v153 h154v-153h-154zM614 410v153h154v-153h-154zM614 614v154h154v-154h-154zM614 819v154h154v-154h-154zM614 1024v154h154v-154h-154zM819 819v154h154v-154h-154z" />
<glyph d="M0 205v153h154v-153h-154zM0 410v153h154v-153h-154zM0 614v154h154v-154h-154zM0 819v154h154v-154h-154zM205 0v154h153v-154h-153zM205 410v153h153v-153h-153zM205 1024v154h153v-154h-153zM410 0v154h153v-154h-153zM410 614v154h153v-154h-153zM410 1229v153h153 v-153h-153zM614 0v154h154v-154h-154zM614 614v154h154v-154h-154zM614 1229v153h154v-153h-154zM819 205v153h154v-153h-154zM819 410v153h154v-153h-154zM819 819v154h154v-154h-154zM819 1024v154h154v-154h-154z" />
<glyph d="M0 0v154h154v-154h-154zM0 -51h154v-154h-154v154zM0 205v153h154v-153h-154zM0 410v153h154v-153h-154zM0 614v154h154v-154h-154zM205 0v154h153v-154h-153zM205 -256h153v-154h-153v154zM205 819v154h153v-154h-153zM410 0v154h153v-154h-153zM410 819v154h153v-154 h-153zM614 0v154h154v-154h-154zM614 819v154h154v-154h-154zM819 205v153h154v-153h-154zM819 410v153h154v-153h-154zM819 614v154h154v-154h-154z" />
<glyph d="M0 205v153h154v-153h-154zM0 410v153h154v-153h-154zM0 614v154h154v-154h-154zM0 819v154h154v-154h-154zM205 0v154h153v-154h-153zM410 0v154h153v-154h-153zM410 -51h153v-154h-153v154zM410 205v153h153v-153h-153zM410 -256h153v-154h-153v154zM410 410v153h153 v-153h-153zM410 614v154h153v-154h-153zM614 0v154h154v-154h-154zM614 819v154h154v-154h-154zM819 205v153h154v-153h-154zM819 410v153h154v-153h-154zM819 614v154h154v-154h-154z" />
<glyph d="M0 819v154h154v-154h-154zM205 0v154h153v-154h-153zM205 -51h153v-154h-153v154zM205 410v153h153v-153h-153zM205 614v154h153v-154h-153zM410 205v153h153v-153h-153zM410 -256h153v-154h-153v154zM614 0v154h154v-154h-154zM614 -51h154v-154h-154v154zM614 410v153 h154v-153h-154zM819 614v154h154v-154h-154zM819 819v154h154v-154h-154z" />
<glyph d="M0 0v154h154v-154h-154zM0 -51h154v-154h-154v154zM0 205v153h154v-153h-154zM0 410v153h154v-153h-154zM0 614v154h154v-154h-154zM0 819v154h154v-154h-154zM205 0v154h153v-154h-153zM205 -256h153v-154h-153v154zM410 0v154h153v-154h-153zM614 205v153h154v-153 h-154zM819 0v154h154v-154h-154zM819 205v153h154v-153h-154zM819 410v153h154v-153h-154zM819 614v154h154v-154h-154zM819 819v154h154v-154h-154z" />
<glyph d="M410 -256h153v-154h-153v154zM614 -51h154v-154h-154v154z" />
<glyph d="M0 205v153h154v-153h-154zM0 410v153h154v-153h-154zM0 614v154h154v-154h-154zM0 819v154h154v-154h-154zM0 1024v154h154v-154h-154zM205 0v154h153v-154h-153zM205 205v153h153v-153h-153zM205 1229v153h153v-153h-153zM410 0v154h153v-154h-153zM410 410v153h153 v-153h-153zM410 614v154h153v-154h-153zM410 819v154h153v-154h-153zM410 1229v153h153v-153h-153zM614 0v154h154v-154h-154zM614 1024v154h154v-154h-154zM614 1229v153h154v-153h-154zM819 205v153h154v-153h-154zM819 410v153h154v-153h-154zM819 614v154h154v-154h-154 zM819 819v154h154v-154h-154zM819 1024v154h154v-154h-154z" />
<glyph d="M0 0v154h154v-154h-154zM0 1229v153h154v-153h-154zM205 0v154h153v-154h-153zM205 1229v153h153v-153h-153zM410 0v154h153v-154h-153zM410 205v153h153v-153h-153zM410 410v153h153v-153h-153zM410 614v154h153v-154h-153zM410 819v154h153v-154h-153zM410 1024v154 h153v-154h-153zM410 1229v153h153v-153h-153zM614 0v154h154v-154h-154zM819 0v154h154v-154h-154z" />
<glyph d="M0 0v154h154v-154h-154zM0 1024v154h154v-154h-154zM205 0v154h153v-154h-153zM205 205v153h153v-153h-153zM205 1229v153h153v-153h-153zM410 0v154h153v-154h-153zM410 410v153h153v-153h-153zM410 1229v153h153v-153h-153zM614 0v154h154v-154h-154zM614 614v154h154 v-154h-154zM614 1229v153h154v-153h-154zM819 0v154h154v-154h-154zM819 819v154h154v-154h-154zM819 1024v154h154v-154h-154z" />
<glyph d="M0 205v153h154v-153h-154zM0 1024v154h154v-154h-154zM205 0v154h153v-154h-153zM205 614v154h153v-154h-153zM205 1229v153h153v-153h-153zM410 0v154h153v-154h-153zM410 614v154h153v-154h-153zM410 1229v153h153v-153h-153zM614 0v154h154v-154h-154zM614 614v154 h154v-154h-154zM614 1229v153h154v-153h-154zM819 205v153h154v-153h-154zM819 410v153h154v-153h-154zM819 819v154h154v-154h-154zM819 1024v154h154v-154h-154z" />
<glyph d="M0 410v153h154v-153h-154zM0 614v154h154v-154h-154zM205 410v153h153v-153h-153zM205 819v154h153v-154h-153zM410 410v153h153v-153h-153zM410 1024v154h153v-154h-153zM614 0v154h154v-154h-154zM614 205v153h154v-153h-154zM614 410v153h154v-153h-154zM614 614v154 h154v-154h-154zM614 819v154h154v-154h-154zM614 1024v154h154v-154h-154zM614 1229v153h154v-153h-154zM819 410v153h154v-153h-154z" />
<glyph d="M0 0v154h154v-154h-154zM0 614v154h154v-154h-154zM0 819v154h154v-154h-154zM0 1024v154h154v-154h-154zM0 1229v153h154v-153h-154zM205 0v154h153v-154h-153zM205 614v154h153v-154h-153zM205 1229v153h153v-153h-153zM410 0v154h153v-154h-153zM410 614v154h153v-154 h-153zM410 1229v153h153v-153h-153zM614 0v154h154v-154h-154zM614 614v154h154v-154h-154zM614 1229v153h154v-153h-154zM819 205v153h154v-153h-154zM819 410v153h154v-153h-154zM819 1229v153h154v-153h-154z" />
<glyph d="M0 205v153h154v-153h-154zM0 410v153h154v-153h-154zM0 614v154h154v-154h-154zM0 819v154h154v-154h-154zM205 0v154h153v-154h-153zM205 614v154h153v-154h-153zM205 1024v154h153v-154h-153zM410 0v154h153v-154h-153zM410 614v154h153v-154h-153zM410 1229v153h153 v-153h-153zM614 0v154h154v-154h-154zM614 614v154h154v-154h-154zM614 1229v153h154v-153h-154zM819 205v153h154v-153h-154zM819 410v153h154v-153h-154z" />
<glyph d="M0 1229v153h154v-153h-154zM205 0v154h153v-154h-153zM205 205v153h153v-153h-153zM205 410v153h153v-153h-153zM205 1229v153h153v-153h-153zM410 614v154h153v-154h-153zM410 1229v153h153v-153h-153zM614 819v154h154v-154h-154zM614 1229v153h154v-153h-154z M819 1024v154h154v-154h-154zM819 1229v153h154v-153h-154z" />
<glyph d="M0 205v153h154v-153h-154zM0 410v153h154v-153h-154zM0 819v154h154v-154h-154zM0 1024v154h154v-154h-154zM205 0v154h153v-154h-153zM205 614v154h153v-154h-153zM205 1229v153h153v-153h-153zM410 0v154h153v-154h-153zM410 614v154h153v-154h-153zM410 1229v153h153 v-153h-153zM614 0v154h154v-154h-154zM614 614v154h154v-154h-154zM614 1229v153h154v-153h-154zM819 205v153h154v-153h-154zM819 410v153h154v-153h-154zM819 819v154h154v-154h-154zM819 1024v154h154v-154h-154z" />
<glyph d="M0 819v154h154v-154h-154zM0 1024v154h154v-154h-154zM205 0v154h153v-154h-153zM205 614v154h153v-154h-153zM205 1229v153h153v-153h-153zM410 0v154h153v-154h-153zM410 614v154h153v-154h-153zM410 1229v153h153v-153h-153zM614 205v153h154v-153h-154zM614 614v154 h154v-154h-154zM614 1229v153h154v-153h-154zM819 410v153h154v-153h-154zM819 614v154h154v-154h-154zM819 819v154h154v-154h-154zM819 1024v154h154v-154h-154z" />
<glyph horiz-adv-x="153" d="M0 0v154h154v-154h-154z" />
</font>
</defs>
</svg>
