<?xml version="1.0" standalone="no"?>
<!DOCTYPE svg PUBLIC "-//W3C//DTD SVG 1.1//EN" "http://www.w3.org/Graphics/SVG/1.1/DTD/svg11.dtd" >
<svg xmlns="http://www.w3.org/2000/svg">
<metadata></metadata>
<defs>
<font id="bpdotsunicaseverticalbold" horiz-adv-x="1228" >
<font-face units-per-em="2048" ascent="1638" descent="-410" />
<missing-glyph horiz-adv-x="500" />
<glyph horiz-adv-x="2048" />
<glyph horiz-adv-x="2048" />
<glyph unicode="&#xd;" horiz-adv-x="2048" />
<glyph unicode=" " />
<glyph unicode="!" d="M422 0v199h102v-199h-102zM422 387v586h102v-586h-102z" />
<glyph unicode="&#x22;" d="M381 580v200h102v-200h-102zM573 774v391h103v-391h-103zM768 580v200h102v-200h-102zM961 774v391h102v-391h-102z" />
<glyph unicode="#" d="M35 193v200h102v-200h-102zM35 580v200h102v-200h-102zM227 0v973h103v-973h-103zM422 193v200h102v-200h-102zM422 580v200h102v-200h-102zM614 0v973h103v-973h-103zM809 193v200h102v-200h-102zM809 580v200h102v-200h-102z" />
<glyph unicode="$" d="M35 0v199h102v-199h-102zM35 580v200h102v-200h-102zM227 0v199h103v-199h-103zM227 387v199h103v-199h-103zM227 774v199h103v-199h-103zM422 -193v1358h102v-1358h-102zM614 0v199h103v-199h-103zM614 387v199h103v-199h-103zM614 774v199h103v-199h-103zM809 193v200 h102v-200h-102zM809 774v199h102v-199h-102z" />
<glyph unicode="%" d="M33 0v199h102v-199h-102zM33 580v393h102v-393h-102zM225 193v780h103v-780h-103zM418 0v393h104v-393h-104zM418 580v200h104v-200h-104zM612 0v393h103v-393h-103zM612 774v199h103v-199h-103z" />
<glyph unicode="&#x26;" d="M35 193v200h102v-200h-102zM35 580v200h102v-200h-102zM227 0v199h103v-199h-103zM227 387v199h103v-199h-103zM227 774v199h103v-199h-103zM422 0v199h102v-199h-102zM422 387v199h102v-199h-102zM422 774v199h102v-199h-102zM614 193v393h103v-393h-103zM809 387v199 h102v-199h-102z" />
<glyph unicode="'" d="M573 580v200h103v-200h-103zM768 774v391h102v-391h-102z" />
<glyph unicode="(" d="M424 0v973h102v-973h-102zM618 6h103v-199h-103v199zM618 967v198h103v-198h-103z" />
<glyph unicode=")" d="M424 6h102v-199h-102v199zM424 967v198h102v-198h-102zM618 0v973h103v-973h-103z" />
<glyph unicode="*" d="M29 580v200h102v-200h-102zM29 967v198h102v-198h-102zM223 774v199h103v-199h-103zM416 580v200h102v-200h-102zM416 967v198h102v-198h-102z" />
<glyph unicode="+" d="M35 387v199h102v-199h-102zM227 387v199h103v-199h-103zM422 0v973h102v-973h-102zM614 387v199h103v-199h-103zM809 387v199h102v-199h-102z" />
<glyph unicode="," d="M225 6h103v-199h-103v199zM418 0v393h104v-393h-104z" />
<glyph unicode="-" d="M227 387v199h103v-199h-103zM422 387v199h102v-199h-102zM614 387v199h103v-199h-103z" />
<glyph unicode="." d="M422 0v393h102v-393h-102z" />
<glyph unicode="/" d="M231 -193v392h103v-392h-103zM424 193v200h102v-200h-102zM618 387v393h103v-393h-103zM811 774v391h102v-391h-102z" />
<glyph unicode="0" d="M35 193v587h102v-587h-102zM227 0v393h103v-393h-103zM227 774v199h103v-199h-103zM422 0v199h102v-199h-102zM422 387v199h102v-199h-102zM422 774v199h102v-199h-102zM614 0v199h103v-199h-103zM614 580v393h103v-393h-103zM809 193v587h102v-587h-102z" />
<glyph unicode="1" d="M35 0v199h102v-199h-102zM35 774v199h102v-199h-102zM227 0v199h103v-199h-103zM227 774v199h103v-199h-103zM422 0v973h102v-973h-102zM614 0v199h103v-199h-103zM809 0v199h102v-199h-102z" />
<glyph unicode="2" d="M35 0v199h102v-199h-102zM35 580v200h102v-200h-102zM227 0v393h103v-393h-103zM227 774v199h103v-199h-103zM422 0v199h102v-199h-102zM422 387v199h102v-199h-102zM422 774v199h102v-199h-102zM614 0v199h103v-199h-103zM614 387v199h103v-199h-103zM614 774v199h103 v-199h-103zM809 0v199h102v-199h-102zM809 580v200h102v-200h-102z" />
<glyph unicode="3" d="M35 0v199h102v-199h-102zM35 774v199h102v-199h-102zM227 0v199h103v-199h-103zM227 387v199h103v-199h-103zM227 774v199h103v-199h-103zM422 0v199h102v-199h-102zM422 387v199h102v-199h-102zM422 774v199h102v-199h-102zM614 0v199h103v-199h-103zM614 387v199h103 v-199h-103zM614 774v199h103v-199h-103zM809 193v200h102v-200h-102zM809 580v200h102v-200h-102z" />
<glyph unicode="4" d="M35 193v200h102v-200h-102zM227 193v393h103v-393h-103zM422 193v200h102v-200h-102zM422 580v200h102v-200h-102zM614 0v973h103v-973h-103zM809 193v200h102v-200h-102z" />
<glyph unicode="5" d="M35 0v199h102v-199h-102zM35 387v586h102v-586h-102zM227 0v199h103v-199h-103zM227 387v199h103v-199h-103zM227 774v199h103v-199h-103zM422 0v199h102v-199h-102zM422 387v199h102v-199h-102zM422 774v199h102v-199h-102zM614 0v199h103v-199h-103zM614 387v199h103 v-199h-103zM614 774v199h103v-199h-103zM809 193v200h102v-200h-102zM809 774v199h102v-199h-102z" />
<glyph unicode="6" d="M35 193v587h102v-587h-102zM227 0v199h103v-199h-103zM227 387v199h103v-199h-103zM227 774v199h103v-199h-103zM422 0v199h102v-199h-102zM422 387v199h102v-199h-102zM422 774v199h102v-199h-102zM614 0v199h103v-199h-103zM614 387v199h103v-199h-103zM614 774v199 h103v-199h-103zM809 193v200h102v-200h-102z" />
<glyph unicode="7" d="M35 774v199h102v-199h-102zM227 0v199h103v-199h-103zM227 774v199h103v-199h-103zM422 193v200h102v-200h-102zM422 774v199h102v-199h-102zM614 387v199h103v-199h-103zM614 774v199h103v-199h-103zM809 580v393h102v-393h-102z" />
<glyph unicode="8" d="M35 193v200h102v-200h-102zM35 580v200h102v-200h-102zM227 0v199h103v-199h-103zM227 387v199h103v-199h-103zM227 774v199h103v-199h-103zM422 0v199h102v-199h-102zM422 387v199h102v-199h-102zM422 774v199h102v-199h-102zM614 0v199h103v-199h-103zM614 387v199h103 v-199h-103zM614 774v199h103v-199h-103zM809 193v200h102v-200h-102zM809 580v200h102v-200h-102z" />
<glyph unicode="9" d="M35 580v200h102v-200h-102zM227 0v199h103v-199h-103zM227 387v199h103v-199h-103zM227 774v199h103v-199h-103zM422 0v199h102v-199h-102zM422 387v199h102v-199h-102zM422 774v199h102v-199h-102zM614 0v199h103v-199h-103zM614 387v199h103v-199h-103zM614 774v199 h103v-199h-103zM809 193v587h102v-587h-102z" />
<glyph unicode=":" d="M422 0v393h102v-393h-102zM422 580v393h102v-393h-102z" />
<glyph unicode=";" d="M225 6h103v-199h-103v199zM418 0v393h104v-393h-104zM418 580v393h104v-393h-104z" />
<glyph unicode="&#x3c;" d="M227 387v199h103v-199h-103zM422 193v200h102v-200h-102zM422 580v200h102v-200h-102zM614 0v199h103v-199h-103zM614 774v199h103v-199h-103z" />
<glyph unicode="=" d="M35 193v200h102v-200h-102zM35 580v200h102v-200h-102zM227 193v200h103v-200h-103zM227 580v200h103v-200h-103zM422 193v200h102v-200h-102zM422 580v200h102v-200h-102zM614 193v200h103v-200h-103zM614 580v200h103v-200h-103zM809 193v200h102v-200h-102zM809 580 v200h102v-200h-102z" />
<glyph unicode="&#x3e;" d="M428 0v199h102v-199h-102zM428 774v199h102v-199h-102zM621 193v200h102v-200h-102zM621 580v200h102v-200h-102zM815 387v199h103v-199h-103z" />
<glyph unicode="?" d="M35 580v200h102v-200h-102zM227 774v199h103v-199h-103zM422 0v199h102v-199h-102zM422 387v199h102v-199h-102zM422 774v199h102v-199h-102zM614 387v199h103v-199h-103zM614 774v199h103v-199h-103zM809 580v200h102v-200h-102z" />
<glyph unicode="@" d="M35 0v973h102v-973h-102zM227 6h103v-199h-103v199zM227 193v393h103v-393h-103zM227 967v198h103v-198h-103zM422 6h102v-199h-102v199zM422 193v200h102v-200h-102zM422 580v200h102v-200h-102zM422 967v198h102v-198h-102zM614 6h103v-199h-103v199zM614 193v587h103 v-587h-103zM614 967v198h103v-198h-103zM809 6h102v-199h-102v199zM809 193v780h102v-780h-102z" />
<glyph unicode="A" d="M31 0v793h104v-793h-104zM227 393v203h105v-203h-105zM227 788v203h105v-203h-105zM424 393v203h104v-203h-104zM424 788v203h104v-203h-104zM623 393v203h104v-203h-104zM623 788v203h104v-203h-104zM819 0v793h105v-793h-105z" />
<glyph unicode="B" d="M31 0v991h104v-991h-104zM227 0v203h105v-203h-105zM227 393v203h105v-203h-105zM227 788v203h105v-203h-105zM424 0v203h104v-203h-104zM424 393v203h104v-203h-104zM424 788v203h104v-203h-104zM623 0v203h104v-203h-104zM623 393v203h104v-203h-104zM623 788v203h104 v-203h-104zM819 197v202h105v-202h-105zM819 590v203h105v-203h-105z" />
<glyph unicode="C" d="M31 197v596h104v-596h-104zM227 0v203h105v-203h-105zM227 788v203h105v-203h-105zM424 0v203h104v-203h-104zM424 788v203h104v-203h-104zM623 0v203h104v-203h-104zM623 788v203h104v-203h-104zM819 0v203h105v-203h-105zM819 788v203h105v-203h-105z" />
<glyph unicode="D" d="M31 0v991h104v-991h-104zM227 0v203h105v-203h-105zM227 788v203h105v-203h-105zM424 0v203h104v-203h-104zM424 788v203h104v-203h-104zM623 0v203h104v-203h-104zM623 788v203h104v-203h-104zM819 197v596h105v-596h-105z" />
<glyph unicode="E" d="M31 0v991h104v-991h-104zM227 0v203h105v-203h-105zM227 393v203h105v-203h-105zM227 788v203h105v-203h-105zM424 0v203h104v-203h-104zM424 393v203h104v-203h-104zM424 788v203h104v-203h-104zM623 0v203h104v-203h-104zM623 393v203h104v-203h-104zM623 788v203h104 v-203h-104zM819 0v203h105v-203h-105zM819 788v203h105v-203h-105z" />
<glyph unicode="F" d="M31 0v991h104v-991h-104zM227 393v203h105v-203h-105zM227 788v203h105v-203h-105zM424 393v203h104v-203h-104zM424 788v203h104v-203h-104zM623 393v203h104v-203h-104zM623 788v203h104v-203h-104zM819 788v203h105v-203h-105z" />
<glyph unicode="G" d="M31 197v596h104v-596h-104zM227 0v203h105v-203h-105zM227 788v203h105v-203h-105zM424 0v203h104v-203h-104zM424 788v203h104v-203h-104zM623 0v203h104v-203h-104zM623 393v203h104v-203h-104zM623 788v203h104v-203h-104zM819 0v596h105v-596h-105zM819 788v203h105 v-203h-105z" />
<glyph unicode="H" d="M31 0v991h104v-991h-104zM227 393v203h105v-203h-105zM424 393v203h104v-203h-104zM623 393v203h104v-203h-104zM819 0v991h105v-991h-105z" />
<glyph unicode="I" d="M31 0v203h104v-203h-104zM31 788v203h104v-203h-104zM227 0v203h105v-203h-105zM227 788v203h105v-203h-105zM424 0v991h104v-991h-104zM623 0v203h104v-203h-104zM623 788v203h104v-203h-104zM819 0v203h105v-203h-105zM819 788v203h105v-203h-105z" />
<glyph unicode="J" d="M29 197v202h104v-202h-104zM29 788v203h104v-203h-104zM225 0v203h105v-203h-105zM225 788v203h105v-203h-105zM422 0v203h104v-203h-104zM422 788v203h104v-203h-104zM621 197v794h104v-794h-104z" />
<glyph unicode="K" d="M31 0v991h104v-991h-104zM227 393v203h105v-203h-105zM424 393v203h104v-203h-104zM623 393v203h104v-203h-104zM819 0v399h105v-399h-105zM819 590v401h105v-401h-105z" />
<glyph unicode="L" d="M31 0v991h104v-991h-104zM227 0v203h105v-203h-105zM424 0v203h104v-203h-104zM623 0v203h104v-203h-104zM819 0v203h105v-203h-105z" />
<glyph unicode="M" d="M31 0v991h104v-991h-104zM227 590v203h105v-203h-105zM424 197v399h104v-399h-104zM623 590v203h104v-203h-104zM819 0v991h105v-991h-105z" />
<glyph unicode="N" d="M31 0v991h104v-991h-104zM227 590v203h105v-203h-105zM424 393v203h104v-203h-104zM623 197v202h104v-202h-104zM819 0v991h105v-991h-105z" />
<glyph unicode="O" d="M31 197v596h104v-596h-104zM227 0v203h105v-203h-105zM227 788v203h105v-203h-105zM424 0v203h104v-203h-104zM424 788v203h104v-203h-104zM623 0v203h104v-203h-104zM623 788v203h104v-203h-104zM819 197v596h105v-596h-105z" />
<glyph unicode="P" d="M31 0v991h104v-991h-104zM227 393v203h105v-203h-105zM227 788v203h105v-203h-105zM424 393v203h104v-203h-104zM424 788v203h104v-203h-104zM623 393v203h104v-203h-104zM623 788v203h104v-203h-104zM819 590v203h105v-203h-105z" />
<glyph unicode="Q" d="M31 197v596h104v-596h-104zM227 0v203h105v-203h-105zM227 788v203h105v-203h-105zM424 -197v596h104v-596h-104zM424 788v203h104v-203h-104zM623 0v203h104v-203h-104zM623 -190h104v-203h-104v203zM623 788v203h104v-203h-104zM819 197v596h105v-596h-105z" />
<glyph unicode="R" d="M31 0v991h104v-991h-104zM227 393v203h105v-203h-105zM227 788v203h105v-203h-105zM424 393v203h104v-203h-104zM424 788v203h104v-203h-104zM623 197v399h104v-399h-104zM623 788v203h104v-203h-104zM819 0v203h105v-203h-105zM819 590v203h105v-203h-105z" />
<glyph unicode="S" d="M31 0v203h104v-203h-104zM31 590v203h104v-203h-104zM227 0v203h105v-203h-105zM227 393v203h105v-203h-105zM227 788v203h105v-203h-105zM424 0v203h104v-203h-104zM424 393v203h104v-203h-104zM424 788v203h104v-203h-104zM623 0v203h104v-203h-104zM623 393v203h104 v-203h-104zM623 788v203h104v-203h-104zM819 197v202h105v-202h-105zM819 788v203h105v-203h-105z" />
<glyph unicode="T" d="M31 788v203h104v-203h-104zM227 788v203h105v-203h-105zM424 0v991h104v-991h-104zM623 788v203h104v-203h-104zM819 788v203h105v-203h-105z" />
<glyph unicode="U" d="M31 197v794h104v-794h-104zM227 0v203h105v-203h-105zM424 0v203h104v-203h-104zM623 0v203h104v-203h-104zM819 197v794h105v-794h-105z" />
<glyph unicode="V" d="M31 393v598h104v-598h-104zM227 197v202h105v-202h-105zM424 0v203h104v-203h-104zM623 197v202h104v-202h-104zM819 393v598h105v-598h-105z" />
<glyph unicode="W" d="M31 197v794h104v-794h-104zM227 0v203h105v-203h-105zM424 197v596h104v-596h-104zM623 0v203h104v-203h-104zM819 197v794h105v-794h-105z" />
<glyph unicode="X" d="M31 0v399h104v-399h-104zM31 590v401h104v-401h-104zM227 393v203h105v-203h-105zM424 393v203h104v-203h-104zM623 393v203h104v-203h-104zM819 0v399h105v-399h-105zM819 590v401h105v-401h-105z" />
<glyph unicode="Y" d="M31 590v401h104v-401h-104zM227 393v203h105v-203h-105zM424 0v399h104v-399h-104zM623 393v203h104v-203h-104zM819 590v401h105v-401h-105z" />
<glyph unicode="Z" d="M31 0v203h104v-203h-104zM31 788v203h104v-203h-104zM227 0v399h105v-399h-105zM227 788v203h105v-203h-105zM424 0v203h104v-203h-104zM424 393v203h104v-203h-104zM424 788v203h104v-203h-104zM623 0v203h104v-203h-104zM623 590v401h104v-401h-104zM819 0v203h105 v-203h-105zM819 788v203h105v-203h-105z" />
<glyph unicode="[" d="M424 -193v1358h102v-1358h-102zM618 6h103v-199h-103v199zM618 967v198h103v-198h-103z" />
<glyph unicode="\" d="M231 774v391h103v-391h-103zM424 387v393h102v-393h-102zM618 193v200h103v-200h-103zM811 -193v392h102v-392h-102z" />
<glyph unicode="]" d="M424 6h102v-199h-102v199zM424 967v198h102v-198h-102zM618 -193v1358h103v-1358h-103z" />
<glyph unicode="^" d="M227 1161v199h103v-199h-103zM422 1354v198h102v-198h-102zM614 1161v199h103v-199h-103z" />
<glyph unicode="_" d="M35 0v199h102v-199h-102zM227 0v199h103v-199h-103zM422 0v199h102v-199h-102zM614 0v199h103v-199h-103zM809 0v199h102v-199h-102z" />
<glyph unicode="`" d="M29 1354v198h102v-198h-102zM223 1161v199h103v-199h-103zM416 1161v199h102v-199h-102z" />
<glyph unicode="a" d="M35 193v200h102v-200h-102zM227 0v199h103v-199h-103zM227 387v199h103v-199h-103zM227 774v199h103v-199h-103zM422 0v199h102v-199h-102zM422 387v199h102v-199h-102zM422 774v199h102v-199h-102zM614 0v199h103v-199h-103zM614 387v199h103v-199h-103zM614 774v199 h103v-199h-103zM809 0v780h102v-780h-102z" />
<glyph unicode="b" d="M35 0v973h102v-973h-102zM227 0v199h103v-199h-103zM227 387v199h103v-199h-103zM227 774v199h103v-199h-103zM422 0v199h102v-199h-102zM422 387v199h102v-199h-102zM422 774v199h102v-199h-102zM614 0v199h103v-199h-103zM614 387v199h103v-199h-103zM614 774v199h103 v-199h-103zM809 193v200h102v-200h-102zM809 580v200h102v-200h-102z" />
<glyph unicode="c" d="M35 193v587h102v-587h-102zM227 0v199h103v-199h-103zM227 774v199h103v-199h-103zM422 0v199h102v-199h-102zM422 774v199h102v-199h-102zM614 0v199h103v-199h-103zM614 774v199h103v-199h-103zM809 193v200h102v-200h-102zM809 580v200h102v-200h-102z" />
<glyph unicode="d" d="M35 0v973h102v-973h-102zM227 0v199h103v-199h-103zM227 774v199h103v-199h-103zM422 0v199h102v-199h-102zM422 774v199h102v-199h-102zM614 0v199h103v-199h-103zM614 774v199h103v-199h-103zM809 193v587h102v-587h-102z" />
<glyph unicode="e" d="M35 193v587h102v-587h-102zM227 0v199h103v-199h-103zM227 387v199h103v-199h-103zM227 774v199h103v-199h-103zM422 0v199h102v-199h-102zM422 387v199h102v-199h-102zM422 774v199h102v-199h-102zM614 0v199h103v-199h-103zM614 387v199h103v-199h-103zM614 774v199 h103v-199h-103zM809 0v199h102v-199h-102zM809 387v393h102v-393h-102z" />
<glyph unicode="f" d="M35 0v973h102v-973h-102zM227 387v199h103v-199h-103zM227 774v199h103v-199h-103zM422 387v199h102v-199h-102zM422 774v199h102v-199h-102zM614 387v199h103v-199h-103zM614 774v199h103v-199h-103zM809 774v199h102v-199h-102z" />
<glyph unicode="g" d="M35 193v587h102v-587h-102zM227 0v199h103v-199h-103zM227 774v199h103v-199h-103zM422 0v199h102v-199h-102zM422 774v199h102v-199h-102zM614 0v199h103v-199h-103zM614 387v199h103v-199h-103zM614 774v199h103v-199h-103zM809 0v586h102v-586h-102zM809 774v199h102 v-199h-102z" />
<glyph unicode="h" d="M35 0v973h102v-973h-102zM227 387v199h103v-199h-103zM422 387v199h102v-199h-102zM614 387v199h103v-199h-103zM809 0v973h102v-973h-102z" />
<glyph unicode="i" d="M35 0v199h102v-199h-102zM35 774v199h102v-199h-102zM227 0v199h103v-199h-103zM227 774v199h103v-199h-103zM422 0v973h102v-973h-102zM422 1161v199h102v-199h-102zM614 0v199h103v-199h-103zM809 0v199h102v-199h-102z" />
<glyph unicode="j" d="M231 193v200h103v-200h-103zM231 774v199h103v-199h-103zM424 0v199h102v-199h-102zM424 774v199h102v-199h-102zM618 0v199h103v-199h-103zM618 774v199h103v-199h-103zM811 193v780h102v-780h-102z" />
<glyph unicode="k" d="M35 0v973h102v-973h-102zM227 387v199h103v-199h-103zM422 387v199h102v-199h-102zM614 387v199h103v-199h-103zM809 0v393h102v-393h-102zM809 580v393h102v-393h-102z" />
<glyph unicode="l" d="M35 0v973h102v-973h-102zM227 0v199h103v-199h-103zM422 0v199h102v-199h-102zM614 0v199h103v-199h-103zM809 0v199h102v-199h-102z" />
<glyph unicode="m" d="M35 0v973h102v-973h-102zM227 580v200h103v-200h-103zM422 0v973h102v-973h-102zM614 580v200h103v-200h-103zM809 0v973h102v-973h-102z" />
<glyph unicode="n" d="M35 0v973h102v-973h-102zM227 580v200h103v-200h-103zM422 774v199h102v-199h-102zM614 774v199h103v-199h-103zM809 0v780h102v-780h-102z" />
<glyph unicode="o" d="M35 193v587h102v-587h-102zM227 0v199h103v-199h-103zM227 774v199h103v-199h-103zM422 0v199h102v-199h-102zM422 774v199h102v-199h-102zM614 0v199h103v-199h-103zM614 774v199h103v-199h-103zM809 193v587h102v-587h-102z" />
<glyph unicode="p" d="M35 0v973h102v-973h-102zM227 387v199h103v-199h-103zM227 774v199h103v-199h-103zM422 387v199h102v-199h-102zM422 774v199h102v-199h-102zM614 387v199h103v-199h-103zM614 774v199h103v-199h-103zM809 580v200h102v-200h-102z" />
<glyph unicode="q" d="M35 193v587h102v-587h-102zM227 0v199h103v-199h-103zM227 774v199h103v-199h-103zM422 -193v586h102v-586h-102zM422 774v199h102v-199h-102zM614 0v199h103v-199h-103zM614 -188h103v-199h-103v199zM614 774v199h103v-199h-103zM809 193v587h102v-587h-102z" />
<glyph unicode="r" d="M35 0v199h102v-199h-102zM35 774v199h102v-199h-102zM227 0v973h103v-973h-103zM422 0v199h102v-199h-102zM422 580v200h102v-200h-102zM614 0v199h103v-199h-103zM614 774v199h103v-199h-103zM809 774v199h102v-199h-102z" />
<glyph unicode="s" d="M35 0v199h102v-199h-102zM35 580v200h102v-200h-102zM227 0v199h103v-199h-103zM227 387v199h103v-199h-103zM227 774v199h103v-199h-103zM422 0v199h102v-199h-102zM422 387v199h102v-199h-102zM422 774v199h102v-199h-102zM614 0v199h103v-199h-103zM614 387v199h103 v-199h-103zM614 774v199h103v-199h-103zM809 193v200h102v-200h-102zM809 774v199h102v-199h-102z" />
<glyph unicode="t" d="M35 774v199h102v-199h-102zM227 774v199h103v-199h-103zM422 0v973h102v-973h-102zM614 774v199h103v-199h-103zM809 774v199h102v-199h-102z" />
<glyph unicode="u" d="M35 193v780h102v-780h-102zM227 0v199h103v-199h-103zM422 0v199h102v-199h-102zM614 193v200h103v-200h-103zM809 0v973h102v-973h-102z" />
<glyph unicode="v" d="M35 580v393h102v-393h-102zM227 193v393h103v-393h-103zM422 0v199h102v-199h-102zM614 193v393h103v-393h-103zM809 580v393h102v-393h-102z" />
<glyph unicode="w" d="M35 387v586h102v-586h-102zM227 0v393h103v-393h-103zM422 387v393h102v-393h-102zM614 0v393h103v-393h-103zM809 387v586h102v-586h-102z" />
<glyph unicode="x" d="M35 0v393h102v-393h-102zM35 580v393h102v-393h-102zM227 387v199h103v-199h-103zM422 387v199h102v-199h-102zM614 387v199h103v-199h-103zM809 0v393h102v-393h-102zM809 580v393h102v-393h-102z" />
<glyph unicode="y" d="M35 580v393h102v-393h-102zM227 387v199h103v-199h-103zM422 0v393h102v-393h-102zM614 387v199h103v-199h-103zM809 580v393h102v-393h-102z" />
<glyph unicode="z" d="M35 0v199h102v-199h-102zM35 774v199h102v-199h-102zM227 0v393h103v-393h-103zM227 774v199h103v-199h-103zM422 0v199h102v-199h-102zM422 387v199h102v-199h-102zM422 774v199h102v-199h-102zM614 0v199h103v-199h-103zM614 580v393h103v-393h-103zM809 0v199h102 v-199h-102zM809 774v199h102v-199h-102z" />
<glyph unicode="{" d="M227 387v199h103v-199h-103zM422 0v393h102v-393h-102zM422 580v393h102v-393h-102zM614 6h103v-199h-103v199zM614 967v198h103v-198h-103z" />
<glyph unicode="|" d="M422 -193v1358h102v-1358h-102z" />
<glyph unicode="}" d="M227 6h103v-199h-103v199zM227 967v198h103v-198h-103zM422 0v393h102v-393h-102zM422 580v393h102v-393h-102zM614 387v199h103v-199h-103z" />
<glyph unicode="~" d="M35 580v200h102v-200h-102zM227 774v199h103v-199h-103zM422 580v200h102v-200h-102zM614 387v199h103v-199h-103zM809 580v200h102v-200h-102z" />
<glyph unicode="&#xa0;" />
<glyph unicode="&#xa1;" d="M422 2v586h102v-586h-102zM422 776v199h102v-199h-102z" />
<glyph unicode="&#xa2;" d="M35 193v587h102v-587h-102zM227 0v199h103v-199h-103zM227 774v199h103v-199h-103zM422 -193v1358h102v-1358h-102zM614 0v199h103v-199h-103zM614 774v199h103v-199h-103zM809 193v200h102v-200h-102zM809 580v200h102v-200h-102z" />
<glyph unicode="&#xa3;" d="M35 0v199h102v-199h-102zM35 387v199h102v-199h-102zM227 0v780h103v-780h-103zM422 0v199h102v-199h-102zM422 387v199h102v-199h-102zM422 774v199h102v-199h-102zM614 0v199h103v-199h-103zM614 387v199h103v-199h-103zM614 774v199h103v-199h-103zM809 0v199h102 v-199h-102z" />
<glyph unicode="&#xa4;" d="M35 0v199h102v-199h-102zM35 774v199h102v-199h-102zM227 193v587h103v-587h-103zM422 193v200h102v-200h-102zM422 580v200h102v-200h-102zM614 193v587h103v-587h-103zM809 0v199h102v-199h-102zM809 774v199h102v-199h-102z" />
<glyph unicode="&#xa5;" d="M35 193v200h102v-200h-102zM35 774v199h102v-199h-102zM227 193v200h103v-200h-103zM227 580v200h103v-200h-103zM422 0v586h102v-586h-102zM614 193v200h103v-200h-103zM614 580v200h103v-200h-103zM809 193v200h102v-200h-102zM809 774v199h102v-199h-102z" />
<glyph unicode="&#xa6;" d="M422 0v393h102v-393h-102zM422 580v393h102v-393h-102z" />
<glyph unicode="&#xa7;" d="M231 0v199h103v-199h-103zM231 580v200h103v-200h-103zM231 967v198h103v-198h-103zM424 0v199h102v-199h-102zM424 387v199h102v-199h-102zM424 774v199h102v-199h-102zM424 1161v199h102v-199h-102zM618 0v199h103v-199h-103zM618 387v199h103v-199h-103zM618 774v199 h103v-199h-103zM618 1161v199h103v-199h-103zM811 193v200h102v-200h-102zM811 580v200h102v-200h-102zM811 1161v199h102v-199h-102z" />
<glyph unicode="&#xa8;" d="M35 1161v391h102v-391h-102zM809 1161v391h102v-391h-102z" />
<glyph unicode="&#xa9;" d="M35 193v587h102v-587h-102zM227 0v199h103v-199h-103zM227 387v199h103v-199h-103zM227 774v199h103v-199h-103zM422 0v393h102v-393h-102zM422 580v393h102v-393h-102zM614 0v199h103v-199h-103zM614 774v199h103v-199h-103zM809 193v587h102v-587h-102z" />
<glyph unicode="&#xaa;" d="M29 580v200h102v-200h-102zM223 387v393h103v-393h-103zM223 967v198h103v-198h-103zM416 387v586h102v-586h-102z" />
<glyph unicode="&#xab;" d="M35 387v199h102v-199h-102zM227 193v200h103v-200h-103zM227 580v200h103v-200h-103zM422 0v199h102v-199h-102zM422 387v199h102v-199h-102zM422 774v199h102v-199h-102zM614 193v200h103v-200h-103zM614 580v200h103v-200h-103zM809 0v199h102v-199h-102zM809 774v199 h102v-199h-102z" />
<glyph unicode="&#xac;" d="M35 387v199h102v-199h-102zM227 387v199h103v-199h-103zM422 387v199h102v-199h-102zM614 387v199h103v-199h-103zM809 0v586h102v-586h-102z" />
<glyph unicode="&#xad;" d="M227 387v199h103v-199h-103zM422 387v199h102v-199h-102zM614 387v199h103v-199h-103z" />
<glyph unicode="&#xae;" d="M35 387v586h102v-586h-102zM227 193v200h103v-200h-103zM227 967v198h103v-198h-103zM422 193v200h102v-200h-102zM422 580v585h102v-585h-102zM614 193v393h103v-393h-103zM614 774v391h103v-391h-103zM809 387v586h102v-586h-102z" />
<glyph unicode="&#xaf;" d="M227 1161v199h103v-199h-103zM422 1161v199h102v-199h-102zM614 1161v199h103v-199h-103z" />
<glyph unicode="&#xb0;" d="M29 774v199h102v-199h-102zM223 580v200h103v-200h-103zM223 967v198h103v-198h-103zM416 774v199h102v-199h-102z" />
<glyph unicode="&#xb1;" d="M35 0v199h102v-199h-102zM35 580v200h102v-200h-102zM227 0v199h103v-199h-103zM227 580v200h103v-200h-103zM422 0v199h102v-199h-102zM422 387v586h102v-586h-102zM614 0v199h103v-199h-103zM614 580v200h103v-200h-103zM809 0v199h102v-199h-102zM809 580v200h102 v-200h-102z" />
<glyph unicode="&#xb2;" d="M27 387v393h102v-393h-102zM27 967v198h102v-198h-102zM219 387v199h103v-199h-103zM219 774v199h103v-199h-103z" />
<glyph unicode="&#xb3;" d="M27 387v199h102v-199h-102zM27 967v198h102v-198h-102zM219 387v586h103v-586h-103z" />
<glyph unicode="&#xb4;" d="M227 1161v199h103v-199h-103zM422 1161v199h102v-199h-102zM614 1354v198h103v-198h-103z" />
<glyph unicode="&#xb5;" d="M35 0v973h102v-973h-102zM227 580v200h103v-200h-103zM422 193v393h102v-393h-102zM614 580v200h103v-200h-103zM809 0v973h102v-973h-102z" />
<glyph unicode="&#xb6;" d="M35 580v200h102v-200h-102zM227 387v586h103v-586h-103zM422 0v973h102v-973h-102zM809 0v973h102v-973h-102z" />
<glyph unicode="&#xb7;" d="M223 387v393h103v-393h-103z" />
<glyph unicode="&#xb8;" d="M225 -188h103v-199h-103v199zM418 6h104v-199h-104v199z" />
<glyph unicode="&#xb9;" d="M29 387v199h102v-199h-102zM29 967v198h102v-198h-102zM223 387v778h103v-778h-103zM416 387v199h102v-199h-102z" />
<glyph unicode="&#xba;" d="M29 774v199h102v-199h-102zM223 580v200h103v-200h-103zM223 967v198h103v-198h-103zM416 774v199h102v-199h-102z" />
<glyph unicode="&#xbb;" d="M35 0v199h102v-199h-102zM35 774v199h102v-199h-102zM227 193v200h103v-200h-103zM227 580v200h103v-200h-103zM422 0v199h102v-199h-102zM422 387v199h102v-199h-102zM422 774v199h102v-199h-102zM614 193v200h103v-200h-103zM614 580v200h103v-200h-103zM809 387v199 h102v-199h-102z" />
<glyph unicode="&#xbc;" d="M37 774v199h102v-199h-102zM231 0v199h103v-199h-103zM231 387v586h103v-586h-103zM424 193v393h102v-393h-102zM618 580v393h103v-393h-103zM811 387v199h102v-199h-102zM1006 0v780h102v-780h-102z" />
<glyph unicode="&#xbd;" d="M37 774v199h102v-199h-102zM231 0v199h103v-199h-103zM231 387v586h103v-586h-103zM424 193v393h102v-393h-102zM618 580v393h103v-393h-103zM811 0v393h102v-393h-102zM811 580v200h102v-200h-102zM1006 0v199h102v-199h-102zM1006 387v199h102v-199h-102z" />
<glyph unicode="&#xbe;" d="M37 193v200h102v-200h-102zM37 774v199h102v-199h-102zM231 0v199h103v-199h-103zM231 387v393h103v-393h-103zM424 193v393h102v-393h-102zM618 580v393h103v-393h-103zM811 387v199h102v-199h-102zM1006 0v780h102v-780h-102z" />
<glyph unicode="&#xbf;" d="M184 195v200h103v-200h-103zM377 2v199h102v-199h-102zM377 389v199h102v-199h-102zM571 2v199h103v-199h-103zM571 389v199h103v-199h-103zM571 776v199h103v-199h-103zM764 2v199h102v-199h-102zM958 195v200h103v-200h-103z" />
<glyph unicode="&#xc0;" d="M31 0v793h104v-793h-104zM227 393v203h105v-203h-105zM227 788v203h105v-203h-105zM227 1378v203h105v-203h-105zM424 393v203h104v-203h-104zM424 788v203h104v-203h-104zM424 1182v202h104v-202h-104zM623 393v203h104v-203h-104zM623 788v203h104v-203h-104zM623 1182 v202h104v-202h-104zM819 0v793h105v-793h-105z" />
<glyph unicode="&#xc1;" d="M31 0v793h104v-793h-104zM227 393v203h105v-203h-105zM227 788v203h105v-203h-105zM227 1182v202h105v-202h-105zM424 393v203h104v-203h-104zM424 788v203h104v-203h-104zM424 1182v202h104v-202h-104zM623 393v203h104v-203h-104zM623 788v203h104v-203h-104zM623 1378 v203h104v-203h-104zM819 0v793h105v-793h-105z" />
<glyph unicode="&#xc2;" d="M31 0v793h104v-793h-104zM227 393v203h105v-203h-105zM227 788v203h105v-203h-105zM227 1182v202h105v-202h-105zM424 393v203h104v-203h-104zM424 788v203h104v-203h-104zM424 1378v203h104v-203h-104zM623 393v203h104v-203h-104zM623 788v203h104v-203h-104zM623 1182 v202h104v-202h-104zM819 0v793h105v-793h-105z" />
<glyph unicode="&#xc3;" d="M31 0v793h104v-793h-104zM31 1182v202h104v-202h-104zM227 393v203h105v-203h-105zM227 788v203h105v-203h-105zM227 1378v203h105v-203h-105zM424 393v203h104v-203h-104zM424 788v203h104v-203h-104zM424 1182v202h104v-202h-104zM623 393v203h104v-203h-104zM623 788 v203h104v-203h-104zM623 1182v202h104v-202h-104zM819 0v793h105v-793h-105zM819 1378v203h105v-203h-105z" />
<glyph unicode="&#xc4;" d="M31 0v793h104v-793h-104zM31 1182v399h104v-399h-104zM227 393v203h105v-203h-105zM227 788v203h105v-203h-105zM424 393v203h104v-203h-104zM424 788v203h104v-203h-104zM623 393v203h104v-203h-104zM623 788v203h104v-203h-104zM819 0v793h105v-793h-105zM819 1182v399 h105v-399h-105z" />
<glyph unicode="&#xc5;" d="M31 0v793h104v-793h-104zM227 393v203h105v-203h-105zM227 788v203h105v-203h-105zM227 1378v203h105v-203h-105zM424 393v203h104v-203h-104zM424 788v203h104v-203h-104zM424 1182v202h104v-202h-104zM424 1575v203h104v-203h-104zM623 393v203h104v-203h-104zM623 788 v203h104v-203h-104zM623 1378v203h104v-203h-104zM819 0v793h105v-793h-105z" />
<glyph unicode="&#xc6;" d="M31 0v793h104v-793h-104zM227 197v202h105v-202h-105zM227 788v203h105v-203h-105zM424 0v991h104v-991h-104zM623 0v203h104v-203h-104zM623 393v203h104v-203h-104zM623 788v203h104v-203h-104zM819 0v203h105v-203h-105zM819 788v203h105v-203h-105z" />
<glyph unicode="&#xc7;" d="M31 197v596h104v-596h-104zM227 0v203h105v-203h-105zM227 -190h105v-203h-105v203zM227 788v203h105v-203h-105zM424 -197v400h104v-400h-104zM424 788v203h104v-203h-104zM623 0v203h104v-203h-104zM623 788v203h104v-203h-104zM819 0v203h105v-203h-105zM819 788v203 h105v-203h-105z" />
<glyph unicode="&#xc8;" d="M31 0v991h104v-991h-104zM227 0v203h105v-203h-105zM227 393v203h105v-203h-105zM227 788v203h105v-203h-105zM227 1378v203h105v-203h-105zM424 0v203h104v-203h-104zM424 393v203h104v-203h-104zM424 788v203h104v-203h-104zM424 1182v202h104v-202h-104zM623 0v203 h104v-203h-104zM623 393v203h104v-203h-104zM623 788v203h104v-203h-104zM623 1182v202h104v-202h-104zM819 0v203h105v-203h-105zM819 788v203h105v-203h-105z" />
<glyph unicode="&#xc9;" d="M31 0v991h104v-991h-104zM227 0v203h105v-203h-105zM227 393v203h105v-203h-105zM227 788v203h105v-203h-105zM227 1182v202h105v-202h-105zM424 0v203h104v-203h-104zM424 393v203h104v-203h-104zM424 788v203h104v-203h-104zM424 1182v202h104v-202h-104zM623 0v203 h104v-203h-104zM623 393v203h104v-203h-104zM623 788v203h104v-203h-104zM623 1378v203h104v-203h-104zM819 0v203h105v-203h-105zM819 788v203h105v-203h-105z" />
<glyph unicode="&#xca;" d="M31 0v991h104v-991h-104zM227 0v203h105v-203h-105zM227 393v203h105v-203h-105zM227 788v203h105v-203h-105zM227 1182v202h105v-202h-105zM424 0v203h104v-203h-104zM424 393v203h104v-203h-104zM424 788v203h104v-203h-104zM424 1378v203h104v-203h-104zM623 0v203 h104v-203h-104zM623 393v203h104v-203h-104zM623 788v203h104v-203h-104zM623 1182v202h104v-202h-104zM819 0v203h105v-203h-105zM819 788v203h105v-203h-105z" />
<glyph unicode="&#xcb;" d="M31 0v991h104v-991h-104zM31 1182v399h104v-399h-104zM227 0v203h105v-203h-105zM227 393v203h105v-203h-105zM227 788v203h105v-203h-105zM424 0v203h104v-203h-104zM424 393v203h104v-203h-104zM424 788v203h104v-203h-104zM623 0v203h104v-203h-104zM623 393v203h104 v-203h-104zM623 788v203h104v-203h-104zM819 0v203h105v-203h-105zM819 788v203h105v-203h-105zM819 1182v399h105v-399h-105z" />
<glyph unicode="&#xcc;" d="M31 0v203h104v-203h-104zM31 788v203h104v-203h-104zM227 0v203h105v-203h-105zM227 788v203h105v-203h-105zM227 1378v203h105v-203h-105zM424 0v991h104v-991h-104zM424 1182v202h104v-202h-104zM623 0v203h104v-203h-104zM623 788v203h104v-203h-104zM623 1182v202 h104v-202h-104zM819 0v203h105v-203h-105zM819 788v203h105v-203h-105z" />
<glyph unicode="&#xcd;" d="M31 0v203h104v-203h-104zM31 788v203h104v-203h-104zM227 0v203h105v-203h-105zM227 788v203h105v-203h-105zM227 1182v202h105v-202h-105zM424 0v991h104v-991h-104zM424 1182v202h104v-202h-104zM623 0v203h104v-203h-104zM623 788v203h104v-203h-104zM623 1378v203 h104v-203h-104zM819 0v203h105v-203h-105zM819 788v203h105v-203h-105z" />
<glyph unicode="&#xce;" d="M31 0v203h104v-203h-104zM31 788v203h104v-203h-104zM227 0v203h105v-203h-105zM227 788v203h105v-203h-105zM227 1182v202h105v-202h-105zM424 0v991h104v-991h-104zM424 1378v203h104v-203h-104zM623 0v203h104v-203h-104zM623 788v203h104v-203h-104zM623 1182v202 h104v-202h-104zM819 0v203h105v-203h-105zM819 788v203h105v-203h-105z" />
<glyph unicode="&#xcf;" d="M31 0v203h104v-203h-104zM31 788v203h104v-203h-104zM31 1182v399h104v-399h-104zM227 0v203h105v-203h-105zM227 788v203h105v-203h-105zM424 0v991h104v-991h-104zM623 0v203h104v-203h-104zM623 788v203h104v-203h-104zM819 0v203h105v-203h-105zM819 788v203h105 v-203h-105zM819 1182v399h105v-399h-105z" />
<glyph unicode="&#xd0;" d="M31 393v203h104v-203h-104zM227 0v991h105v-991h-105zM424 0v203h104v-203h-104zM424 393v203h104v-203h-104zM424 788v203h104v-203h-104zM623 0v203h104v-203h-104zM623 788v203h104v-203h-104zM819 197v596h105v-596h-105z" />
<glyph unicode="&#xd1;" d="M31 0v991h104v-991h-104zM31 1182v202h104v-202h-104zM227 590v203h105v-203h-105zM227 1378v203h105v-203h-105zM424 393v203h104v-203h-104zM424 1182v202h104v-202h-104zM623 197v202h104v-202h-104zM623 1182v202h104v-202h-104zM819 0v991h105v-991h-105zM819 1378 v203h105v-203h-105z" />
<glyph unicode="&#xd2;" d="M31 197v596h104v-596h-104zM227 0v203h105v-203h-105zM227 788v203h105v-203h-105zM227 1378v203h105v-203h-105zM424 0v203h104v-203h-104zM424 788v203h104v-203h-104zM424 1182v202h104v-202h-104zM623 0v203h104v-203h-104zM623 788v203h104v-203h-104zM623 1182v202 h104v-202h-104zM819 197v596h105v-596h-105z" />
<glyph unicode="&#xd3;" d="M31 197v596h104v-596h-104zM227 0v203h105v-203h-105zM227 788v203h105v-203h-105zM227 1182v202h105v-202h-105zM424 0v203h104v-203h-104zM424 788v203h104v-203h-104zM424 1182v202h104v-202h-104zM623 0v203h104v-203h-104zM623 788v203h104v-203h-104zM623 1378v203 h104v-203h-104zM819 197v596h105v-596h-105z" />
<glyph unicode="&#xd4;" d="M31 197v596h104v-596h-104zM227 0v203h105v-203h-105zM227 788v203h105v-203h-105zM227 1182v202h105v-202h-105zM424 0v203h104v-203h-104zM424 788v203h104v-203h-104zM424 1378v203h104v-203h-104zM623 0v203h104v-203h-104zM623 788v203h104v-203h-104zM623 1182v202 h104v-202h-104zM819 197v596h105v-596h-105z" />
<glyph unicode="&#xd5;" d="M31 197v596h104v-596h-104zM31 1182v202h104v-202h-104zM227 0v203h105v-203h-105zM227 788v203h105v-203h-105zM227 1378v203h105v-203h-105zM424 0v203h104v-203h-104zM424 788v203h104v-203h-104zM424 1182v202h104v-202h-104zM623 0v203h104v-203h-104zM623 788v203 h104v-203h-104zM623 1182v202h104v-202h-104zM819 197v596h105v-596h-105zM819 1378v203h105v-203h-105z" />
<glyph unicode="&#xd6;" d="M31 197v596h104v-596h-104zM31 1182v399h104v-399h-104zM227 0v203h105v-203h-105zM227 788v203h105v-203h-105zM424 0v203h104v-203h-104zM424 788v203h104v-203h-104zM623 0v203h104v-203h-104zM623 788v203h104v-203h-104zM819 197v596h105v-596h-105zM819 1182v399 h105v-399h-105z" />
<glyph unicode="&#xd7;" d="M35 0v199h102v-199h-102zM35 774v199h102v-199h-102zM227 193v200h103v-200h-103zM227 580v200h103v-200h-103zM422 387v199h102v-199h-102zM614 193v200h103v-200h-103zM614 580v200h103v-200h-103zM809 0v199h102v-199h-102zM809 774v199h102v-199h-102z" />
<glyph unicode="&#xd8;" d="M31 197v596h104v-596h-104zM227 0v203h4v196h105v-202h-4v-197h-105zM227 788v203h99v49h49v50h108v-50h49v-104h-49v-49h-108v49h-43v-148h-105zM424 0v203h104v-203h-104zM428 393v400h104v-400h-104zM623 0v203h104v-203h-104zM623 788v203h4v197h102v-203h-2v-197 h-104zM819 197v596h105v-596h-105z" />
<glyph unicode="&#xd9;" d="M31 197v794h104v-794h-104zM227 0v203h105v-203h-105zM227 1378v203h105v-203h-105zM424 0v203h104v-203h-104zM424 1182v202h104v-202h-104zM623 0v203h104v-203h-104zM623 1182v202h104v-202h-104zM819 197v794h105v-794h-105z" />
<glyph unicode="&#xda;" d="M31 197v794h104v-794h-104zM227 0v203h105v-203h-105zM227 1182v202h105v-202h-105zM424 0v203h104v-203h-104zM424 1182v202h104v-202h-104zM623 0v203h104v-203h-104zM623 1378v203h104v-203h-104zM819 197v794h105v-794h-105z" />
<glyph unicode="&#xdb;" d="M31 197v794h104v-794h-104zM227 0v203h105v-203h-105zM227 1182v202h105v-202h-105zM424 0v203h104v-203h-104zM424 1378v203h104v-203h-104zM623 0v203h104v-203h-104zM623 1182v202h104v-202h-104zM819 197v794h105v-794h-105z" />
<glyph unicode="&#xdc;" d="M31 197v794h104v-794h-104zM31 1182v399h104v-399h-104zM227 0v203h105v-203h-105zM424 0v203h104v-203h-104zM623 0v203h104v-203h-104zM819 197v794h105v-794h-105zM819 1182v399h105v-399h-105z" />
<glyph unicode="&#xdd;" d="M31 590v401h104v-401h-104zM227 393v203h105v-203h-105zM227 1182v202h105v-202h-105zM424 0v399h104v-399h-104zM424 1182v202h104v-202h-104zM623 393v203h104v-203h-104zM623 1378v203h104v-203h-104zM819 590v401h105v-401h-105z" />
<glyph unicode="&#xde;" d="M31 0v991h104v-991h-104zM227 197v202h105v-202h-105zM227 590v203h105v-203h-105zM424 197v202h104v-202h-104zM424 590v203h104v-203h-104zM623 197v202h104v-202h-104zM623 590v203h104v-203h-104zM819 393v203h105v-203h-105z" />
<glyph unicode="&#xdf;" d="M33 0v780h102v-780h-102zM225 774v199h103v-199h-103zM418 0v199h104v-199h-104zM418 387v199h104v-199h-104zM418 774v199h104v-199h-104zM612 193v200h103v-200h-103zM612 580v200h103v-200h-103z" />
<glyph unicode="&#xe0;" d="M35 193v200h102v-200h-102zM227 0v199h103v-199h-103zM227 387v199h103v-199h-103zM227 774v199h103v-199h-103zM227 1354v198h103v-198h-103zM422 0v199h102v-199h-102zM422 387v199h102v-199h-102zM422 774v199h102v-199h-102zM422 1161v199h102v-199h-102zM614 0v199 h103v-199h-103zM614 387v199h103v-199h-103zM614 774v199h103v-199h-103zM614 1161v199h103v-199h-103zM809 0v780h102v-780h-102z" />
<glyph unicode="&#xe1;" d="M35 193v200h102v-200h-102zM227 0v199h103v-199h-103zM227 387v199h103v-199h-103zM227 774v199h103v-199h-103zM227 1161v199h103v-199h-103zM422 0v199h102v-199h-102zM422 387v199h102v-199h-102zM422 774v199h102v-199h-102zM422 1161v199h102v-199h-102zM614 0v199 h103v-199h-103zM614 387v199h103v-199h-103zM614 774v199h103v-199h-103zM614 1354v198h103v-198h-103zM809 0v780h102v-780h-102z" />
<glyph unicode="&#xe2;" d="M35 193v200h102v-200h-102zM227 0v199h103v-199h-103zM227 387v199h103v-199h-103zM227 774v199h103v-199h-103zM422 0v199h102v-199h-102zM422 387v199h102v-199h-102zM422 774v199h102v-199h-102zM614 0v199h103v-199h-103zM614 387v199h103v-199h-103zM614 774v199 h103v-199h-103zM809 0v780h102v-780h-102z" />
<glyph unicode="&#xe3;" d="M35 193v200h102v-200h-102zM35 1161v199h102v-199h-102zM227 0v199h103v-199h-103zM227 387v199h103v-199h-103zM227 774v199h103v-199h-103zM227 1354v198h103v-198h-103zM422 0v199h102v-199h-102zM422 387v199h102v-199h-102zM422 774v199h102v-199h-102zM422 1161 v199h102v-199h-102zM614 0v199h103v-199h-103zM614 387v199h103v-199h-103zM614 774v199h103v-199h-103zM614 1161v199h103v-199h-103zM809 0v780h102v-780h-102zM809 1354v198h102v-198h-102z" />
<glyph unicode="&#xe4;" d="M35 193v200h102v-200h-102zM35 1161v391h102v-391h-102zM227 0v199h103v-199h-103zM227 387v199h103v-199h-103zM227 774v199h103v-199h-103zM422 0v199h102v-199h-102zM422 387v199h102v-199h-102zM422 774v199h102v-199h-102zM614 0v199h103v-199h-103zM614 387v199 h103v-199h-103zM614 774v199h103v-199h-103zM809 0v780h102v-780h-102zM809 1161v391h102v-391h-102z" />
<glyph unicode="&#xe5;" d="M35 193v200h102v-200h-102zM227 0v199h103v-199h-103zM227 387v199h103v-199h-103zM227 774v199h103v-199h-103zM227 1354v198h103v-198h-103zM422 0v199h102v-199h-102zM422 387v199h102v-199h-102zM422 774v199h102v-199h-102zM422 1161v199h102v-199h-102zM422 1546 v201h102v-201h-102zM614 0v199h103v-199h-103zM614 387v199h103v-199h-103zM614 774v199h103v-199h-103zM614 1354v198h103v-198h-103zM809 0v780h102v-780h-102z" />
<glyph unicode="&#xe6;" d="M35 193v200h102v-200h-102zM227 0v199h103v-199h-103zM227 387v199h103v-199h-103zM227 774v199h103v-199h-103zM422 0v780h102v-780h-102zM614 0v199h103v-199h-103zM614 387v199h103v-199h-103zM614 774v199h103v-199h-103zM809 0v199h102v-199h-102zM809 580v200h102 v-200h-102z" />
<glyph unicode="&#xe7;" d="M35 193v587h102v-587h-102zM227 0v199h103v-199h-103zM227 -188h103v-199h-103v199zM227 774v199h103v-199h-103zM422 -193v392h102v-392h-102zM422 774v199h102v-199h-102zM614 0v199h103v-199h-103zM614 774v199h103v-199h-103zM809 193v200h102v-200h-102zM809 580 v200h102v-200h-102z" />
<glyph unicode="&#xe8;" d="M35 193v587h102v-587h-102zM227 0v199h103v-199h-103zM227 387v199h103v-199h-103zM227 774v199h103v-199h-103zM227 1354v198h103v-198h-103zM422 0v199h102v-199h-102zM422 387v199h102v-199h-102zM422 774v199h102v-199h-102zM422 1161v199h102v-199h-102zM614 0v199 h103v-199h-103zM614 387v199h103v-199h-103zM614 774v199h103v-199h-103zM614 1161v199h103v-199h-103zM809 0v199h102v-199h-102zM809 387v393h102v-393h-102z" />
<glyph unicode="&#xe9;" d="M35 193v587h102v-587h-102zM227 0v199h103v-199h-103zM227 387v199h103v-199h-103zM227 774v199h103v-199h-103zM227 1161v199h103v-199h-103zM422 0v199h102v-199h-102zM422 387v199h102v-199h-102zM422 774v199h102v-199h-102zM422 1161v199h102v-199h-102zM614 0v199 h103v-199h-103zM614 387v199h103v-199h-103zM614 774v199h103v-199h-103zM614 1354v198h103v-198h-103zM809 0v199h102v-199h-102zM809 387v393h102v-393h-102z" />
<glyph unicode="&#xea;" d="M35 193v587h102v-587h-102zM227 0v199h103v-199h-103zM227 387v199h103v-199h-103zM227 774v199h103v-199h-103zM227 1161v199h103v-199h-103zM422 0v199h102v-199h-102zM422 387v199h102v-199h-102zM422 774v199h102v-199h-102zM422 1354v198h102v-198h-102zM614 0v199 h103v-199h-103zM614 387v199h103v-199h-103zM614 774v199h103v-199h-103zM614 1161v199h103v-199h-103zM809 0v199h102v-199h-102zM809 387v393h102v-393h-102z" />
<glyph unicode="&#xeb;" d="M35 193v587h102v-587h-102zM35 1161v391h102v-391h-102zM227 0v199h103v-199h-103zM227 387v199h103v-199h-103zM227 774v199h103v-199h-103zM422 0v199h102v-199h-102zM422 387v199h102v-199h-102zM422 774v199h102v-199h-102zM614 0v199h103v-199h-103zM614 387v199 h103v-199h-103zM614 774v199h103v-199h-103zM809 0v199h102v-199h-102zM809 387v393h102v-393h-102zM809 1161v391h102v-391h-102z" />
<glyph unicode="&#xec;" d="M35 0v199h102v-199h-102zM35 774v199h102v-199h-102zM227 0v199h103v-199h-103zM227 774v199h103v-199h-103zM227 1354v198h103v-198h-103zM422 0v973h102v-973h-102zM422 1161v199h102v-199h-102zM614 0v199h103v-199h-103zM614 1161v199h103v-199h-103zM809 0v199h102 v-199h-102z" />
<glyph unicode="&#xed;" d="M35 0v199h102v-199h-102zM35 774v199h102v-199h-102zM227 0v199h103v-199h-103zM227 774v199h103v-199h-103zM227 1161v199h103v-199h-103zM422 0v973h102v-973h-102zM422 1161v199h102v-199h-102zM614 0v199h103v-199h-103zM614 1354v198h103v-198h-103zM809 0v199h102 v-199h-102z" />
<glyph unicode="&#xee;" d="M35 0v199h102v-199h-102zM35 774v199h102v-199h-102zM227 0v199h103v-199h-103zM227 774v199h103v-199h-103zM227 1161v199h103v-199h-103zM422 0v973h102v-973h-102zM422 1354v198h102v-198h-102zM614 0v199h103v-199h-103zM614 1161v199h103v-199h-103zM809 0v199h102 v-199h-102z" />
<glyph unicode="&#xef;" d="M35 0v199h102v-199h-102zM35 774v199h102v-199h-102zM35 1161v391h102v-391h-102zM227 0v199h103v-199h-103zM227 774v199h103v-199h-103zM422 0v973h102v-973h-102zM614 0v199h103v-199h-103zM809 0v199h102v-199h-102zM809 1161v391h102v-391h-102z" />
<glyph unicode="&#xf0;" d="M184 193v200h103v-200h-103zM377 0v199h102v-199h-102zM377 387v199h102v-199h-102zM377 774v199h102v-199h-102zM571 0v199h103v-199h-103zM571 387v199h103v-199h-103zM571 774v199h103v-199h-103zM764 0v199h102v-199h-102zM764 387v393h102v-393h-102zM958 193v393 h103v-393h-103zM958 774v199h103v-199h-103z" />
<glyph unicode="&#xf1;" d="M35 0v973h102v-973h-102zM35 1161v199h102v-199h-102zM227 580v200h103v-200h-103zM227 1354v198h103v-198h-103zM422 774v199h102v-199h-102zM422 1161v199h102v-199h-102zM614 774v199h103v-199h-103zM614 1161v199h103v-199h-103zM809 0v780h102v-780h-102zM809 1354 v198h102v-198h-102z" />
<glyph unicode="&#xf2;" d="M35 193v587h102v-587h-102zM227 0v199h103v-199h-103zM227 774v199h103v-199h-103zM227 1354v198h103v-198h-103zM422 0v199h102v-199h-102zM422 774v199h102v-199h-102zM422 1161v199h102v-199h-102zM614 0v199h103v-199h-103zM614 774v199h103v-199h-103zM614 1161v199 h103v-199h-103zM809 193v587h102v-587h-102z" />
<glyph unicode="&#xf3;" d="M35 193v587h102v-587h-102zM227 0v199h103v-199h-103zM227 774v199h103v-199h-103zM227 1161v199h103v-199h-103zM422 0v199h102v-199h-102zM422 774v199h102v-199h-102zM422 1161v199h102v-199h-102zM614 0v199h103v-199h-103zM614 774v199h103v-199h-103zM614 1354v198 h103v-198h-103zM809 193v587h102v-587h-102z" />
<glyph unicode="&#xf4;" d="M35 193v587h102v-587h-102zM227 0v199h103v-199h-103zM227 774v199h103v-199h-103zM227 1161v199h103v-199h-103zM422 0v199h102v-199h-102zM422 774v199h102v-199h-102zM422 1354v198h102v-198h-102zM614 0v199h103v-199h-103zM614 774v199h103v-199h-103zM614 1161v199 h103v-199h-103zM809 193v587h102v-587h-102z" />
<glyph unicode="&#xf5;" d="M35 193v587h102v-587h-102zM35 1161v199h102v-199h-102zM227 0v199h103v-199h-103zM227 774v199h103v-199h-103zM227 1354v198h103v-198h-103zM422 0v199h102v-199h-102zM422 774v199h102v-199h-102zM422 1161v199h102v-199h-102zM614 0v199h103v-199h-103zM614 774v199 h103v-199h-103zM614 1161v199h103v-199h-103zM809 193v587h102v-587h-102zM809 1354v198h102v-198h-102z" />
<glyph unicode="&#xf6;" d="M35 193v587h102v-587h-102zM35 1161v391h102v-391h-102zM227 0v199h103v-199h-103zM227 774v199h103v-199h-103zM422 0v199h102v-199h-102zM422 774v199h102v-199h-102zM614 0v199h103v-199h-103zM614 774v199h103v-199h-103zM809 193v587h102v-587h-102zM809 1161v391 h102v-391h-102z" />
<glyph unicode="&#xf7;" d="M35 387v199h102v-199h-102zM227 387v199h103v-199h-103zM422 0v199h102v-199h-102zM422 387v199h102v-199h-102zM422 774v199h102v-199h-102zM614 387v199h103v-199h-103zM809 387v199h102v-199h-102z" />
<glyph unicode="&#xf8;" d="M35 193v587h102v-587h-102zM37 6h102v-199h-102v199zM227 0v393h103v-393h-103zM227 774v199h103v-199h-103zM422 0v199h102v-199h-102zM422 387v199h102v-199h-102zM422 774v199h102v-199h-102zM614 0v199h103v-199h-103zM614 580v393h103v-393h-103zM809 193v587h102 v-587h-102zM809 967v198h102v-198h-102z" />
<glyph unicode="&#xf9;" d="M35 193v780h102v-780h-102zM227 0v199h103v-199h-103zM227 1354v198h103v-198h-103zM422 0v199h102v-199h-102zM422 1161v199h102v-199h-102zM614 193v200h103v-200h-103zM614 1161v199h103v-199h-103zM809 0v973h102v-973h-102z" />
<glyph unicode="&#xfa;" d="M35 193v780h102v-780h-102zM227 0v199h103v-199h-103zM227 1161v199h103v-199h-103zM422 0v199h102v-199h-102zM422 1161v199h102v-199h-102zM614 193v200h103v-200h-103zM614 1354v198h103v-198h-103zM809 0v973h102v-973h-102z" />
<glyph unicode="&#xfb;" d="M35 193v780h102v-780h-102zM227 0v199h103v-199h-103zM227 1161v199h103v-199h-103zM422 0v199h102v-199h-102zM422 1354v198h102v-198h-102zM614 193v200h103v-200h-103zM614 1161v199h103v-199h-103zM809 0v973h102v-973h-102z" />
<glyph unicode="&#xfc;" d="M35 193v780h102v-780h-102zM35 1161v391h102v-391h-102zM227 0v199h103v-199h-103zM422 0v199h102v-199h-102zM614 193v200h103v-200h-103zM809 0v973h102v-973h-102zM809 1161v391h102v-391h-102z" />
<glyph unicode="&#xfd;" d="M35 580v393h102v-393h-102zM227 387v199h103v-199h-103zM227 1161v199h103v-199h-103zM422 0v393h102v-393h-102zM422 1161v199h102v-199h-102zM614 387v199h103v-199h-103zM614 1354v198h103v-198h-103zM809 580v393h102v-393h-102z" />
<glyph unicode="&#xfe;" d="M35 0v973h102v-973h-102zM227 193v200h103v-200h-103zM227 580v200h103v-200h-103zM422 193v200h102v-200h-102zM422 580v200h102v-200h-102zM614 193v200h103v-200h-103zM614 580v200h103v-200h-103zM809 387v199h102v-199h-102z" />
<glyph unicode="&#xff;" d="M35 580v393h102v-393h-102zM35 1161v391h102v-391h-102zM227 387v199h103v-199h-103zM422 0v393h102v-393h-102zM614 387v199h103v-199h-103zM809 580v393h102v-393h-102zM809 1161v391h102v-391h-102z" />
<glyph unicode="&#x152;" d="M31 197v596h104v-596h-104zM227 0v203h105v-203h-105zM227 788v203h105v-203h-105zM424 0v991h104v-991h-104zM623 0v203h104v-203h-104zM623 393v203h104v-203h-104zM623 788v203h104v-203h-104zM819 0v203h105v-203h-105zM819 788v203h105v-203h-105z" />
<glyph unicode="&#x153;" d="M35 193v587h102v-587h-102zM227 0v199h103v-199h-103zM227 774v199h103v-199h-103zM422 193v587h102v-587h-102zM614 0v199h103v-199h-103zM614 387v199h103v-199h-103zM614 774v199h103v-199h-103zM809 0v199h102v-199h-102zM809 387v393h102v-393h-102z" />
<glyph unicode="&#x178;" d="M31 590v401h104v-401h-104zM31 1182v399h104v-399h-104zM227 393v203h105v-203h-105zM424 0v399h104v-399h-104zM623 393v203h104v-203h-104zM819 590v401h105v-401h-105zM819 1182v399h105v-399h-105z" />
<glyph unicode="&#x2c6;" d="M227 1161v199h103v-199h-103zM422 1354v198h102v-198h-102zM614 1161v199h103v-199h-103z" />
<glyph unicode="&#x2dc;" d="M35 1161v199h102v-199h-102zM227 1354v198h103v-198h-103zM422 1161v199h102v-199h-102zM614 1161v199h103v-199h-103zM809 1354v198h102v-198h-102z" />
<glyph unicode="&#x2000;" horiz-adv-x="889" />
<glyph unicode="&#x2001;" horiz-adv-x="1778" />
<glyph unicode="&#x2002;" horiz-adv-x="889" />
<glyph unicode="&#x2003;" horiz-adv-x="1778" />
<glyph unicode="&#x2004;" horiz-adv-x="592" />
<glyph unicode="&#x2005;" horiz-adv-x="444" />
<glyph unicode="&#x2006;" horiz-adv-x="296" />
<glyph unicode="&#x2007;" horiz-adv-x="296" />
<glyph unicode="&#x2008;" horiz-adv-x="222" />
<glyph unicode="&#x2009;" horiz-adv-x="355" />
<glyph unicode="&#x200a;" horiz-adv-x="98" />
<glyph unicode="&#x2010;" d="M227 387v199h103v-199h-103zM422 387v199h102v-199h-102zM614 387v199h103v-199h-103z" />
<glyph unicode="&#x2011;" d="M227 387v199h103v-199h-103zM422 387v199h102v-199h-102zM614 387v199h103v-199h-103z" />
<glyph unicode="&#x2012;" d="M227 387v199h103v-199h-103zM422 387v199h102v-199h-102zM614 387v199h103v-199h-103z" />
<glyph unicode="&#x2013;" d="M227 387v199h103v-199h-103zM422 387v199h102v-199h-102zM614 387v199h103v-199h-103z" />
<glyph unicode="&#x2014;" d="M35 387v199h102v-199h-102zM227 387v199h103v-199h-103zM422 387v199h102v-199h-102zM614 387v199h103v-199h-103zM809 387v199h102v-199h-102z" />
<glyph unicode="&#x2018;" d="M424 580v393h102v-393h-102zM618 967v198h103v-198h-103z" />
<glyph unicode="&#x2019;" d="M424 580v200h102v-200h-102zM618 774v391h103v-391h-103z" />
<glyph unicode="&#x201a;" d="M424 6h102v-199h-102v199zM618 0v393h103v-393h-103z" />
<glyph unicode="&#x201c;" d="M231 580v393h103v-393h-103zM424 967v198h102v-198h-102zM618 580v393h103v-393h-103zM811 967v198h102v-198h-102z" />
<glyph unicode="&#x201d;" d="M231 580v200h103v-200h-103zM424 774v391h102v-391h-102zM618 580v200h103v-200h-103zM811 774v391h102v-391h-102z" />
<glyph unicode="&#x201e;" d="M231 6h103v-199h-103v199zM424 0v393h102v-393h-102zM618 6h103v-199h-103v199zM811 0v393h102v-393h-102z" />
<glyph unicode="&#x2022;" d="M29 387v586h102v-586h-102zM223 387v586h103v-586h-103zM416 387v586h102v-586h-102z" />
<glyph unicode="&#x2026;" d="M35 0v393h102v-393h-102zM422 0v393h102v-393h-102zM809 0v393h102v-393h-102z" />
<glyph unicode="&#x202f;" horiz-adv-x="355" />
<glyph unicode="&#x2039;" d="M227 387v199h103v-199h-103zM422 193v200h102v-200h-102zM422 580v200h102v-200h-102zM614 0v199h103v-199h-103zM614 774v199h103v-199h-103z" />
<glyph unicode="&#x203a;" d="M428 0v199h102v-199h-102zM428 774v199h102v-199h-102zM621 193v200h102v-200h-102zM621 580v200h102v-200h-102zM815 387v199h103v-199h-103z" />
<glyph unicode="&#x205f;" horiz-adv-x="444" />
<glyph unicode="&#x20ac;" d="M35 387v199h102v-199h-102zM227 193v587h103v-587h-103zM422 0v199h102v-199h-102zM422 387v199h102v-199h-102zM422 774v199h102v-199h-102zM614 0v199h103v-199h-103zM614 387v199h103v-199h-103zM614 774v199h103v-199h-103zM809 0v199h102v-199h-102zM809 774v199 h102v-199h-102z" />
<glyph unicode="&#x2122;" d="M37 967v198h102v-198h-102zM231 580v585h103v-585h-103zM424 967v198h102v-198h-102zM618 580v585h103v-585h-103zM811 774v199h102v-199h-102zM1006 580v585h102v-585h-102z" />
<glyph unicode="&#xe000;" horiz-adv-x="972" d="M0 0v973h973v-973h-973z" />
</font>
</defs>
</svg>
